M48
; DRILL file {KiCad 8.0.9} date 2025-12-11T14:47:32+0100
; FORMAT={-:-/ absolute / inch / decimal}
; #@! TF.CreationDate,2025-12-11T14:47:32+01:00
; #@! TF.GenerationSoftware,Kicad,Pcbnew,8.0.9
; #@! TF.FileFunction,Plated,1,2,PTH
FMAT,2
INCH
; #@! TA.AperFunction,Plated,PTH,ComponentDrill
T1C0.0236
; #@! TA.AperFunction,Plated,PTH,ComponentDrill
T2C0.0276
; #@! TA.AperFunction,Plated,PTH,ComponentDrill
T3C0.0287
; #@! TA.AperFunction,Plated,PTH,ComponentDrill
T4C0.0354
; #@! TA.AperFunction,Plated,PTH,ComponentDrill
T5C0.0394
%
G90
G05
T1
X6.4977Y-2.591
X6.5764Y-2.591
T2
X6.046Y-2.591
X6.346Y-2.591
T3
X5.6414Y-2.491
X5.6414Y-2.591
X5.6414Y-2.691
X5.6414Y-2.791
X5.935Y-2.3723
X5.935Y-2.0597
X5.954Y-2.491
X5.954Y-2.591
X5.954Y-2.691
X5.954Y-2.791
X6.035Y-2.0597
X6.035Y-2.3723
X6.135Y-2.0597
X6.135Y-2.3723
X6.235Y-2.3723
X6.235Y-2.0597
X6.335Y-2.3723
X6.335Y-2.0597
X6.435Y-2.0597
X6.435Y-2.3723
X6.535Y-2.0597
X6.535Y-2.3723
X6.635Y-2.3723
X6.635Y-2.0597
T4
X5.463Y-2.682
X5.463Y-2.582
X5.4781Y-2.7967
X5.4781Y-2.4676
X5.5039Y-2.8933
X5.504Y-2.371
X5.548Y-2.2646
X5.548Y-3.0
X5.598Y-2.178
X5.598Y-3.0866
X5.6683Y-2.0877
X5.6686Y-3.1776
X5.739Y-2.017
X5.7394Y-3.2484
X5.8304Y-3.318
X5.8314Y-1.947
X5.917Y-3.368
X5.918Y-1.897
X6.023Y-3.412
X6.0254Y-1.8539
X6.1196Y-3.4379
X6.122Y-1.828
X6.233Y-3.453
X6.2362Y-1.814
X6.333Y-3.453
X6.3362Y-1.814
X6.447Y-3.438
X6.4494Y-1.8291
X6.5436Y-3.4121
X6.546Y-1.855
X6.65Y-3.368
X6.6517Y-1.899
X6.7366Y-3.318
X6.7383Y-1.949
X6.828Y-3.248
X6.8286Y-2.0186
X6.8987Y-3.1773
X6.8994Y-2.0894
X6.969Y-2.1807
X6.969Y-3.086
X7.019Y-2.9994
X7.019Y-2.2673
X7.063Y-2.894
X7.0631Y-2.3734
X7.0889Y-2.7974
X7.089Y-2.47
X7.104Y-2.584
X7.104Y-2.684
T5
X6.5976Y-2.7958
X6.696Y-2.9927
X6.7944Y-2.7958
T5
G00X6.099Y-2.9433
M15
G01X6.099Y-2.8645
M16
G05
G00X6.2446Y-3.022
M15
G01X6.3234Y-3.022
M16
G05
G00X6.2446Y-2.7858
M15
G01X6.3234Y-2.7858
M16
G05
M30
