%TF.GenerationSoftware,KiCad,Pcbnew,8.0.9*%
%TF.CreationDate,2025-12-11T14:47:31+01:00*%
%TF.ProjectId,Project,50726f6a-6563-4742-9e6b-696361645f70,rev?*%
%TF.SameCoordinates,Original*%
%TF.FileFunction,Drillmap*%
%TF.FilePolarity,Positive*%
%FSLAX45Y45*%
G04 Gerber Fmt 4.5, Leading zero omitted, Abs format (unit mm)*
G04 Created by KiCad (PCBNEW 8.0.9) date 2025-12-11 14:47:31*
%MOMM*%
%LPD*%
G01*
G04 APERTURE LIST*
%ADD10C,0.050000*%
%ADD11C,0.200000*%
G04 APERTURE END LIST*
D10*
X18303241Y-6687820D02*
G75*
G02*
X13624559Y-6687820I-2339341J0D01*
G01*
X13624559Y-6687820D02*
G75*
G02*
X18303241Y-6687820I2339341J0D01*
G01*
D11*
X13882835Y-9341145D02*
X13882835Y-9141145D01*
X13882835Y-9141145D02*
X13930454Y-9141145D01*
X13930454Y-9141145D02*
X13959026Y-9150669D01*
X13959026Y-9150669D02*
X13978073Y-9169717D01*
X13978073Y-9169717D02*
X13987597Y-9188764D01*
X13987597Y-9188764D02*
X13997121Y-9226859D01*
X13997121Y-9226859D02*
X13997121Y-9255431D01*
X13997121Y-9255431D02*
X13987597Y-9293526D01*
X13987597Y-9293526D02*
X13978073Y-9312574D01*
X13978073Y-9312574D02*
X13959026Y-9331621D01*
X13959026Y-9331621D02*
X13930454Y-9341145D01*
X13930454Y-9341145D02*
X13882835Y-9341145D01*
X14082835Y-9341145D02*
X14082835Y-9207812D01*
X14082835Y-9245907D02*
X14092359Y-9226859D01*
X14092359Y-9226859D02*
X14101883Y-9217336D01*
X14101883Y-9217336D02*
X14120931Y-9207812D01*
X14120931Y-9207812D02*
X14139978Y-9207812D01*
X14206645Y-9341145D02*
X14206645Y-9207812D01*
X14206645Y-9141145D02*
X14197121Y-9150669D01*
X14197121Y-9150669D02*
X14206645Y-9160193D01*
X14206645Y-9160193D02*
X14216169Y-9150669D01*
X14216169Y-9150669D02*
X14206645Y-9141145D01*
X14206645Y-9141145D02*
X14206645Y-9160193D01*
X14330454Y-9341145D02*
X14311407Y-9331621D01*
X14311407Y-9331621D02*
X14301883Y-9312574D01*
X14301883Y-9312574D02*
X14301883Y-9141145D01*
X14435216Y-9341145D02*
X14416169Y-9331621D01*
X14416169Y-9331621D02*
X14406645Y-9312574D01*
X14406645Y-9312574D02*
X14406645Y-9141145D01*
X14663788Y-9341145D02*
X14663788Y-9141145D01*
X14663788Y-9141145D02*
X14730454Y-9284002D01*
X14730454Y-9284002D02*
X14797121Y-9141145D01*
X14797121Y-9141145D02*
X14797121Y-9341145D01*
X14978073Y-9341145D02*
X14978073Y-9236383D01*
X14978073Y-9236383D02*
X14968550Y-9217336D01*
X14968550Y-9217336D02*
X14949502Y-9207812D01*
X14949502Y-9207812D02*
X14911407Y-9207812D01*
X14911407Y-9207812D02*
X14892359Y-9217336D01*
X14978073Y-9331621D02*
X14959026Y-9341145D01*
X14959026Y-9341145D02*
X14911407Y-9341145D01*
X14911407Y-9341145D02*
X14892359Y-9331621D01*
X14892359Y-9331621D02*
X14882835Y-9312574D01*
X14882835Y-9312574D02*
X14882835Y-9293526D01*
X14882835Y-9293526D02*
X14892359Y-9274479D01*
X14892359Y-9274479D02*
X14911407Y-9264955D01*
X14911407Y-9264955D02*
X14959026Y-9264955D01*
X14959026Y-9264955D02*
X14978073Y-9255431D01*
X15073312Y-9207812D02*
X15073312Y-9407812D01*
X15073312Y-9217336D02*
X15092359Y-9207812D01*
X15092359Y-9207812D02*
X15130454Y-9207812D01*
X15130454Y-9207812D02*
X15149502Y-9217336D01*
X15149502Y-9217336D02*
X15159026Y-9226859D01*
X15159026Y-9226859D02*
X15168550Y-9245907D01*
X15168550Y-9245907D02*
X15168550Y-9303050D01*
X15168550Y-9303050D02*
X15159026Y-9322098D01*
X15159026Y-9322098D02*
X15149502Y-9331621D01*
X15149502Y-9331621D02*
X15130454Y-9341145D01*
X15130454Y-9341145D02*
X15092359Y-9341145D01*
X15092359Y-9341145D02*
X15073312Y-9331621D01*
X15254264Y-9322098D02*
X15263788Y-9331621D01*
X15263788Y-9331621D02*
X15254264Y-9341145D01*
X15254264Y-9341145D02*
X15244740Y-9331621D01*
X15244740Y-9331621D02*
X15254264Y-9322098D01*
X15254264Y-9322098D02*
X15254264Y-9341145D01*
X15254264Y-9217336D02*
X15263788Y-9226859D01*
X15263788Y-9226859D02*
X15254264Y-9236383D01*
X15254264Y-9236383D02*
X15244740Y-9226859D01*
X15244740Y-9226859D02*
X15254264Y-9217336D01*
X15254264Y-9217336D02*
X15254264Y-9236383D01*
M02*
