%TF.GenerationSoftware,KiCad,Pcbnew,8.0.9*%
%TF.CreationDate,2025-12-11T14:47:33+01:00*%
%TF.ProjectId,Project,50726f6a-6563-4742-9e6b-696361645f70,rev?*%
%TF.SameCoordinates,Original*%
%TF.FileFunction,Copper,L2,Bot*%
%TF.FilePolarity,Positive*%
%FSLAX46Y46*%
G04 Gerber Fmt 4.6, Leading zero omitted, Abs format (unit mm)*
G04 Created by KiCad (PCBNEW 8.0.9) date 2025-12-11 14:47:33*
%MOMM*%
%LPD*%
G01*
G04 APERTURE LIST*
G04 Aperture macros list*
%AMRoundRect*
0 Rectangle with rounded corners*
0 $1 Rounding radius*
0 $2 $3 $4 $5 $6 $7 $8 $9 X,Y pos of 4 corners*
0 Add a 4 corners polygon primitive as box body*
4,1,4,$2,$3,$4,$5,$6,$7,$8,$9,$2,$3,0*
0 Add four circle primitives for the rounded corners*
1,1,$1+$1,$2,$3*
1,1,$1+$1,$4,$5*
1,1,$1+$1,$6,$7*
1,1,$1+$1,$8,$9*
0 Add four rect primitives between the rounded corners*
20,1,$1+$1,$2,$3,$4,$5,0*
20,1,$1+$1,$4,$5,$6,$7,0*
20,1,$1+$1,$6,$7,$8,$9,0*
20,1,$1+$1,$8,$9,$2,$3,0*%
%AMRotRect*
0 Rectangle, with rotation*
0 The origin of the aperture is its center*
0 $1 length*
0 $2 width*
0 $3 Rotation angle, in degrees counterclockwise*
0 Add horizontal line*
21,1,$1,$2,0,0,$3*%
G04 Aperture macros list end*
%TA.AperFunction,ComponentPad*%
%ADD10R,3.500000X3.500000*%
%TD*%
%TA.AperFunction,ComponentPad*%
%ADD11RoundRect,0.750000X1.000000X-0.750000X1.000000X0.750000X-1.000000X0.750000X-1.000000X-0.750000X0*%
%TD*%
%TA.AperFunction,ComponentPad*%
%ADD12RoundRect,0.875000X0.875000X-0.875000X0.875000X0.875000X-0.875000X0.875000X-0.875000X-0.875000X0*%
%TD*%
%TA.AperFunction,ComponentPad*%
%ADD13R,1.560000X1.560000*%
%TD*%
%TA.AperFunction,ComponentPad*%
%ADD14C,1.560000*%
%TD*%
%TA.AperFunction,ComponentPad*%
%ADD15C,1.400000*%
%TD*%
%TA.AperFunction,ComponentPad*%
%ADD16O,1.400000X1.400000*%
%TD*%
%TA.AperFunction,ComponentPad*%
%ADD17R,1.130000X1.130000*%
%TD*%
%TA.AperFunction,ComponentPad*%
%ADD18C,1.130000*%
%TD*%
%TA.AperFunction,ComponentPad*%
%ADD19RotRect,1.800000X1.800000X15.000000*%
%TD*%
%TA.AperFunction,ComponentPad*%
%ADD20C,1.800000*%
%TD*%
%TA.AperFunction,ComponentPad*%
%ADD21RotRect,1.800000X1.800000X60.000000*%
%TD*%
%TA.AperFunction,ComponentPad*%
%ADD22RotRect,1.800000X1.800000X105.000000*%
%TD*%
%TA.AperFunction,ComponentPad*%
%ADD23RotRect,1.800000X1.800000X150.000000*%
%TD*%
%TA.AperFunction,ComponentPad*%
%ADD24RotRect,1.800000X1.800000X195.000000*%
%TD*%
%TA.AperFunction,ComponentPad*%
%ADD25RotRect,1.800000X1.800000X240.000000*%
%TD*%
%TA.AperFunction,ComponentPad*%
%ADD26RotRect,1.800000X1.800000X285.000000*%
%TD*%
%TA.AperFunction,ComponentPad*%
%ADD27RotRect,1.800000X1.800000X330.000000*%
%TD*%
%TA.AperFunction,ComponentPad*%
%ADD28RotRect,1.800000X1.800000X30.000000*%
%TD*%
%TA.AperFunction,ComponentPad*%
%ADD29RotRect,1.800000X1.800000X75.000000*%
%TD*%
%TA.AperFunction,ComponentPad*%
%ADD30RotRect,1.800000X1.800000X120.000000*%
%TD*%
%TA.AperFunction,ComponentPad*%
%ADD31RotRect,1.800000X1.800000X165.000000*%
%TD*%
%TA.AperFunction,ComponentPad*%
%ADD32RotRect,1.800000X1.800000X210.000000*%
%TD*%
%TA.AperFunction,ComponentPad*%
%ADD33RotRect,1.800000X1.800000X255.000000*%
%TD*%
%TA.AperFunction,ComponentPad*%
%ADD34RotRect,1.800000X1.800000X300.000000*%
%TD*%
%TA.AperFunction,ComponentPad*%
%ADD35RotRect,1.800000X1.800000X345.000000*%
%TD*%
%TA.AperFunction,ComponentPad*%
%ADD36RotRect,1.800000X1.800000X45.000000*%
%TD*%
%TA.AperFunction,ComponentPad*%
%ADD37R,1.800000X1.800000*%
%TD*%
%TA.AperFunction,ComponentPad*%
%ADD38RotRect,1.800000X1.800000X135.000000*%
%TD*%
%TA.AperFunction,ComponentPad*%
%ADD39RotRect,1.800000X1.800000X225.000000*%
%TD*%
%TA.AperFunction,ComponentPad*%
%ADD40RotRect,1.800000X1.800000X315.000000*%
%TD*%
%TA.AperFunction,ComponentPad*%
%ADD41C,1.200000*%
%TD*%
%TA.AperFunction,ComponentPad*%
%ADD42R,1.200000X1.200000*%
%TD*%
%TA.AperFunction,Conductor*%
%ADD43C,0.200000*%
%TD*%
G04 APERTURE END LIST*
D10*
%TO.P,J1,1*%
%TO.N,+12V*%
X159613601Y-70758799D03*
D11*
%TO.P,J1,2*%
%TO.N,GND*%
X159613600Y-76758800D03*
D12*
%TO.P,J1,3*%
%TO.N,unconnected-(J1-Pad3)*%
X154913600Y-73758800D03*
%TD*%
D13*
%TO.P,RV1,1,1*%
%TO.N,/POT*%
X167578400Y-71013600D03*
D14*
%TO.P,RV1,2,2*%
%TO.N,Net-(IC2-THRES)*%
X170078400Y-76013600D03*
%TO.P,RV1,3,3*%
%TO.N,unconnected-(RV1-Pad3)*%
X172578400Y-71013600D03*
%TD*%
D15*
%TO.P,R1,1*%
%TO.N,+12V*%
X161188399Y-65811400D03*
D16*
%TO.P,R1,2*%
%TO.N,/POT*%
X153568399Y-65811400D03*
%TD*%
D17*
%TO.P,IC2,1,GND*%
%TO.N,GND*%
X143291600Y-63271400D03*
D18*
%TO.P,IC2,2,TRIG*%
%TO.N,Net-(IC2-THRES)*%
X143291600Y-65811400D03*
%TO.P,IC2,3,OUT*%
%TO.N,Net-(IC1-CLOCK)*%
X143291600Y-68351400D03*
%TO.P,IC2,4,RESET*%
%TO.N,+12V*%
X143291600Y-70891400D03*
%TO.P,IC2,5,CONT*%
%TO.N,unconnected-(IC2-CONT-Pad5)*%
X151231600Y-70891400D03*
%TO.P,IC2,6,THRES*%
%TO.N,Net-(IC2-THRES)*%
X151231600Y-68351400D03*
%TO.P,IC2,7,DISCH*%
%TO.N,/POT*%
X151231600Y-65811400D03*
%TO.P,IC2,8,VCC*%
%TO.N,+12V*%
X151231600Y-63271400D03*
%TD*%
D17*
%TO.P,IC1,1,Q5*%
%TO.N,unconnected-(IC1-Q5-Pad1)*%
X150749000Y-60256400D03*
D18*
%TO.P,IC1,2,Q1*%
%TO.N,/LED_RED/LED_RED*%
X153289001Y-60256399D03*
%TO.P,IC1,3,Q0*%
%TO.N,/LED_GREEN/LED_GREEN*%
X155829000Y-60256400D03*
%TO.P,IC1,4,Q2*%
%TO.N,/LED_BLUE/LED_BLUE*%
X158369000Y-60256402D03*
%TO.P,IC1,5,Q6*%
%TO.N,unconnected-(IC1-Q6-Pad5)*%
X160908999Y-60256401D03*
%TO.P,IC1,6,Q7*%
%TO.N,unconnected-(IC1-Q7-Pad6)*%
X163449000Y-60256400D03*
%TO.P,IC1,7,Q3*%
%TO.N,/RESET*%
X165989000Y-60256402D03*
%TO.P,IC1,8,VSS*%
%TO.N,GND*%
X168528999Y-60256400D03*
%TO.P,IC1,9,Q8*%
%TO.N,unconnected-(IC1-Q8-Pad9)*%
X168529000Y-52316400D03*
%TO.P,IC1,10,Q4*%
%TO.N,unconnected-(IC1-Q4-Pad10)*%
X165988999Y-52316401D03*
%TO.P,IC1,11,Q9*%
%TO.N,unconnected-(IC1-Q9-Pad11)*%
X163449000Y-52316400D03*
%TO.P,IC1,12,COUT*%
%TO.N,unconnected-(IC1-COUT-Pad12)*%
X160909000Y-52316398D03*
%TO.P,IC1,13,CKEN*%
%TO.N,GND*%
X158369001Y-52316399D03*
%TO.P,IC1,14,CLOCK*%
%TO.N,Net-(IC1-CLOCK)*%
X155829000Y-52316400D03*
%TO.P,IC1,15,RESET*%
%TO.N,/RESET*%
X153289000Y-52316398D03*
%TO.P,IC1,16,VDD*%
%TO.N,+12V*%
X150749001Y-52316400D03*
%TD*%
D19*
%TO.P,D24,1,K*%
%TO.N,GND*%
X153045348Y-47088600D03*
D20*
%TO.P,D24,2,A*%
%TO.N,/LED_BLUE/LED_BLUE*%
X155498800Y-46431200D03*
%TD*%
D21*
%TO.P,D23,1,K*%
%TO.N,GND*%
X140919199Y-57520905D03*
D20*
%TO.P,D23,2,A*%
%TO.N,/LED_BLUE/LED_BLUE*%
X142189200Y-55321200D03*
%TD*%
D22*
%TO.P,D22,1,K*%
%TO.N,GND*%
X139800100Y-73489727D03*
D20*
%TO.P,D22,2,A*%
%TO.N,/LED_BLUE/LED_BLUE*%
X139142700Y-71036274D03*
%TD*%
%TO.P,D21,2,A*%
%TO.N,/LED_BLUE/LED_BLUE*%
X148092094Y-84277198D03*
D23*
%TO.P,D21,1,K*%
%TO.N,GND*%
X150291800Y-85547200D03*
%TD*%
D24*
%TO.P,D20,1,K*%
%TO.N,GND*%
X166207254Y-86667798D03*
D20*
%TO.P,D20,2,A*%
%TO.N,/LED_BLUE/LED_BLUE*%
X163753800Y-87325200D03*
%TD*%
D25*
%TO.P,D19,1,K*%
%TO.N,GND*%
X178282600Y-76184694D03*
D20*
%TO.P,D19,2,A*%
%TO.N,/LED_BLUE/LED_BLUE*%
X177012600Y-78384400D03*
%TD*%
%TO.P,D18,2,A*%
%TO.N,/LED_BLUE/LED_BLUE*%
X180060600Y-62738000D03*
D26*
%TO.P,D18,1,K*%
%TO.N,GND*%
X179403199Y-60284548D03*
%TD*%
D20*
%TO.P,D17,2,A*%
%TO.N,/LED_BLUE/LED_BLUE*%
X171152852Y-49504600D03*
D27*
%TO.P,D17,1,K*%
%TO.N,GND*%
X168953147Y-48234600D03*
%TD*%
D20*
%TO.P,D16,2,A*%
%TO.N,/LED_GREEN/LED_GREEN*%
X150317200Y-48183800D03*
D28*
%TO.P,D16,1,K*%
%TO.N,GND*%
X148117495Y-49453800D03*
%TD*%
D29*
%TO.P,D15,1,K*%
%TO.N,GND*%
X139144198Y-62676852D03*
D20*
%TO.P,D15,2,A*%
%TO.N,/LED_GREEN/LED_GREEN*%
X139801600Y-60223400D03*
%TD*%
D30*
%TO.P,D14,1,K*%
%TO.N,GND*%
X142189200Y-78399706D03*
D20*
%TO.P,D14,2,A*%
%TO.N,/LED_GREEN/LED_GREEN*%
X140919200Y-76200000D03*
%TD*%
D31*
%TO.P,D13,1,K*%
%TO.N,GND*%
X155437655Y-87322200D03*
D20*
%TO.P,D13,2,A*%
%TO.N,/LED_GREEN/LED_GREEN*%
X152984200Y-86664800D03*
%TD*%
D32*
%TO.P,D12,1,K*%
%TO.N,GND*%
X171109706Y-84277198D03*
D20*
%TO.P,D12,2,A*%
%TO.N,/LED_GREEN/LED_GREEN*%
X168910000Y-85547200D03*
%TD*%
D33*
%TO.P,D11,1,K*%
%TO.N,GND*%
X180057600Y-71054147D03*
D20*
%TO.P,D11,2,A*%
%TO.N,/LED_GREEN/LED_GREEN*%
X179400200Y-73507600D03*
%TD*%
%TO.P,D10,2,A*%
%TO.N,/LED_GREEN/LED_GREEN*%
X178282601Y-57589452D03*
D34*
%TO.P,D10,1,K*%
%TO.N,GND*%
X177012600Y-55389747D03*
%TD*%
D20*
%TO.P,D9,2,A*%
%TO.N,/LED_GREEN/LED_GREEN*%
X166268400Y-47117000D03*
D35*
%TO.P,D9,1,K*%
%TO.N,GND*%
X163814948Y-46459600D03*
%TD*%
D36*
%TO.P,D8,1,K*%
%TO.N,GND*%
X143974548Y-53027851D03*
D20*
%TO.P,D8,2,A*%
%TO.N,/LED_RED/LED_RED*%
X145770600Y-51231800D03*
%TD*%
D37*
%TO.P,D7,1,K*%
%TO.N,GND*%
X138760199Y-68122801D03*
D20*
%TO.P,D7,2,A*%
%TO.N,/LED_RED/LED_RED*%
X138760200Y-65582800D03*
%TD*%
D38*
%TO.P,D6,1,K*%
%TO.N,GND*%
X145779626Y-82508226D03*
D20*
%TO.P,D6,2,A*%
%TO.N,/LED_RED/LED_RED*%
X143983574Y-80712172D03*
%TD*%
D37*
%TO.P,D5,1,K*%
%TO.N,GND*%
X160858201Y-87706200D03*
D20*
%TO.P,D5,2,A*%
%TO.N,/LED_RED/LED_RED*%
X158318198Y-87706201D03*
%TD*%
D39*
%TO.P,D4,1,K*%
%TO.N,GND*%
X175227252Y-80703147D03*
D20*
%TO.P,D4,2,A*%
%TO.N,/LED_RED/LED_RED*%
X173431200Y-82499200D03*
%TD*%
D37*
%TO.P,D3,1,K*%
%TO.N,GND*%
X180441600Y-65633599D03*
D20*
%TO.P,D3,2,A*%
%TO.N,/LED_RED/LED_RED*%
X180441601Y-68173600D03*
%TD*%
D40*
%TO.P,D2,1,K*%
%TO.N,GND*%
X173447574Y-51273574D03*
D20*
%TO.P,D2,2,A*%
%TO.N,/LED_RED/LED_RED*%
X175243626Y-53069625D03*
%TD*%
D37*
%TO.P,D1,1,K*%
%TO.N,GND*%
X158400000Y-46075600D03*
D20*
%TO.P,D1,2,A*%
%TO.N,/LED_RED/LED_RED*%
X160940000Y-46075600D03*
%TD*%
D41*
%TO.P,C1,2*%
%TO.N,GND*%
X167041801Y-65811400D03*
D42*
%TO.P,C1,1*%
%TO.N,Net-(IC2-THRES)*%
X165041801Y-65811400D03*
%TD*%
D43*
%TO.N,/RESET*%
X153670000Y-56464200D02*
X153289000Y-56083200D01*
X165658800Y-56464200D02*
X153670000Y-56464200D01*
X165989000Y-56794400D02*
X165658800Y-56464200D01*
X165989000Y-60256402D02*
X165989000Y-56794400D01*
X153289000Y-56083200D02*
X153289000Y-52316398D01*
%TO.N,/LED_GREEN/LED_GREEN*%
X142100182Y-52239774D02*
X141964351Y-52398087D01*
X141376518Y-53143881D02*
X141052698Y-53591865D01*
X141964351Y-52398087D02*
X141634737Y-52816276D01*
X141052698Y-53591865D02*
X141052698Y-53591866D01*
X141634737Y-52816276D02*
X141634738Y-52816274D01*
X139349858Y-56351631D02*
X139009658Y-57039231D01*
X142512747Y-51758920D02*
X142100182Y-52239774D01*
X138543405Y-58070685D02*
X138180559Y-59424845D01*
X141634738Y-52816274D02*
X141376518Y-53143881D01*
X140296412Y-54705566D02*
X139806001Y-55518761D01*
X138928741Y-57202779D02*
X138543405Y-58070685D01*
X140335035Y-54647161D02*
X140296412Y-54705566D01*
X139806001Y-55518761D02*
X139349858Y-56351631D01*
X138180559Y-59424845D02*
X138459924Y-59908720D01*
X180747344Y-73895497D02*
X180768314Y-73883389D01*
X181035443Y-74346071D02*
X180768314Y-73883389D01*
X180768314Y-73883389D02*
X181490388Y-73466500D01*
X181033541Y-74353169D02*
X181035443Y-74346071D01*
X139790020Y-76857904D02*
X139219918Y-76705145D01*
X139219918Y-76705145D02*
X139213739Y-76694442D01*
X179452769Y-56912286D02*
X179483846Y-56920613D01*
X178270293Y-57594988D02*
X179452769Y-56912286D01*
X152956980Y-86670728D02*
X152601984Y-87995589D01*
X152601984Y-87995589D02*
X152601986Y-87995592D01*
X169579010Y-86724105D02*
X169578807Y-86723753D01*
X169423629Y-87303994D02*
X169579010Y-86724105D01*
X139782925Y-76856002D02*
X139790020Y-76857904D01*
X139790020Y-76857904D02*
X140920984Y-76204941D01*
X152597314Y-88013026D02*
X152166656Y-88261665D01*
X152601986Y-87995592D02*
X152597314Y-88013026D01*
X144609882Y-49678132D02*
X144121153Y-50121572D01*
X150282205Y-48236193D02*
X149588127Y-47034016D01*
X142582691Y-51677402D02*
X142512747Y-51758920D01*
X142873938Y-51365219D02*
X142873940Y-51365219D01*
X140820216Y-53913487D02*
X140335035Y-54647161D01*
X143230498Y-50983032D02*
X142873938Y-51365219D01*
X144121153Y-50121572D02*
X143906620Y-50316225D01*
X142873940Y-51365219D02*
X142582691Y-51677402D01*
X145339094Y-49069833D02*
X145088880Y-49278557D01*
X145620318Y-48854426D02*
X145339094Y-49069833D01*
X144658737Y-49637378D02*
X144609882Y-49678132D01*
X146092966Y-48492404D02*
X145620318Y-48854426D01*
X148536310Y-46930121D02*
X148489396Y-46954978D01*
X139009658Y-57039231D02*
X138928741Y-57202779D01*
X144666169Y-49631176D02*
X144658737Y-49637377D01*
X148759369Y-46811950D02*
X148536310Y-46930121D01*
X147669482Y-47434059D02*
X147321188Y-47657506D01*
X147718506Y-47405414D02*
X147669482Y-47434059D01*
X148168616Y-47142412D02*
X147718506Y-47405414D01*
X143906620Y-50316225D02*
X143634817Y-50584284D01*
X141052698Y-53591866D02*
X140820216Y-53913487D01*
X147321188Y-47657506D02*
X146870221Y-47946823D01*
X149588127Y-47034016D02*
X148759369Y-46811950D01*
X144658737Y-49637377D02*
X144658737Y-49637378D01*
X146733453Y-48042825D02*
X146121403Y-48472444D01*
X145088880Y-49278557D02*
X144666169Y-49631176D01*
X146870221Y-47946823D02*
X146733453Y-48042825D01*
X143634817Y-50584284D02*
X143230498Y-50983032D01*
X148489396Y-46954978D02*
X148168616Y-47142412D01*
X137779096Y-60301797D02*
X138459924Y-59908720D01*
X146121403Y-48472444D02*
X146092966Y-48492404D01*
X138491033Y-59890759D02*
X138459924Y-59908720D01*
X169578807Y-86723753D02*
X169627876Y-86736901D01*
X139791362Y-60239181D02*
X138491033Y-59890759D01*
X168902690Y-85552684D02*
X169578807Y-86723753D01*
X179381955Y-73529643D02*
X180747344Y-73895497D01*
X137595043Y-60953192D02*
X137689333Y-60593831D01*
X137123782Y-70545360D02*
X137123781Y-70545360D01*
X137081922Y-63375485D02*
X137087920Y-63341264D01*
X137087920Y-63341264D02*
X137216918Y-62604694D01*
X136924289Y-69056595D02*
X136908393Y-68848602D01*
X136825581Y-66211102D02*
X136839640Y-65921766D01*
X137689333Y-60593831D02*
X137704932Y-60543083D01*
X137462738Y-61457438D02*
X137595043Y-60953192D01*
X137704932Y-60543083D02*
X137779096Y-60301797D01*
X136986917Y-69585369D02*
X136924289Y-69056595D01*
X136986920Y-69585368D02*
X136986917Y-69585369D01*
X136877390Y-65199259D02*
X136878264Y-65189616D01*
X136851919Y-68109761D02*
X136837117Y-67683070D01*
X139213739Y-76694442D02*
X138516447Y-75486700D01*
X136822932Y-66592843D02*
X136825581Y-66211102D01*
X138116790Y-74427658D02*
X137871140Y-73700898D01*
X136837117Y-67683070D02*
X136837117Y-67683068D01*
X136871660Y-65262620D02*
X136877388Y-65199262D01*
X137448327Y-61512359D02*
X137462738Y-61457438D01*
X136837117Y-67683068D02*
X136818993Y-67160695D01*
X138175219Y-74600527D02*
X138116790Y-74427658D01*
X137216918Y-62604694D02*
X137245743Y-62440100D01*
X136860101Y-68216857D02*
X136851919Y-68109761D01*
X136818993Y-67160695D02*
X136822932Y-66592843D01*
X136839640Y-65921766D02*
X136871660Y-65262620D01*
X138516447Y-75486700D02*
X138175219Y-74600527D01*
X137604753Y-72789426D02*
X137376511Y-71867637D01*
X136927825Y-64641377D02*
X136957160Y-64316859D01*
X137035986Y-69999610D02*
X136986920Y-69585368D01*
X137186813Y-70937167D02*
X137123782Y-70545360D01*
X136957160Y-64316859D02*
X137003701Y-63965688D01*
X137871140Y-73700898D02*
X137604753Y-72789426D01*
X136877388Y-65199262D02*
X136877390Y-65199259D01*
X137123781Y-70545360D02*
X137035986Y-69999610D01*
X136878264Y-65189616D02*
X136927825Y-64641377D01*
X137245743Y-62440100D02*
X137360048Y-61916640D01*
X137003701Y-63965688D02*
X137081922Y-63375485D01*
X137362521Y-71799027D02*
X137186813Y-70937167D01*
X136908393Y-68848602D02*
X136860101Y-68216857D01*
X137360048Y-61916640D02*
X137448327Y-61512359D01*
X137376511Y-71867637D02*
X137362521Y-71799027D01*
X182187561Y-70392810D02*
X182265783Y-69802607D01*
X181821157Y-72255937D02*
X181909437Y-71851656D01*
X182432368Y-66085228D02*
X182432367Y-66085226D01*
X181580152Y-73174465D02*
X181674442Y-72815105D01*
X182233498Y-63768685D02*
X182145703Y-63222937D01*
X182397823Y-68505675D02*
X182429847Y-67846529D01*
X182181566Y-70427031D02*
X182187561Y-70392810D01*
X182145703Y-63222936D02*
X182082671Y-62831127D01*
X182341661Y-69126918D02*
X182391222Y-68578678D01*
X179483846Y-56920613D02*
X179472471Y-56900910D01*
X181909437Y-71851656D02*
X182023741Y-71328196D01*
X182446551Y-67175453D02*
X182450490Y-66607599D01*
X182417567Y-65658537D02*
X182409381Y-65551438D01*
X182265783Y-69802607D02*
X182312325Y-69451436D01*
X182145703Y-63222937D02*
X182145703Y-63222936D01*
X181094267Y-59167770D02*
X180753038Y-58281596D01*
X182392094Y-68569037D02*
X182392095Y-68569036D01*
X180055747Y-57073853D02*
X179483846Y-56920613D01*
X182282565Y-64182926D02*
X182282565Y-64182928D01*
X182392095Y-68569036D02*
X182397823Y-68505675D01*
X182391222Y-68578678D02*
X182392094Y-68569037D01*
X181674442Y-72815105D02*
X181806747Y-72310859D01*
X181892974Y-61900659D02*
X181664731Y-60978871D01*
X182361093Y-64919692D02*
X182345196Y-64711704D01*
X182432367Y-66085226D02*
X182417567Y-65658537D01*
X181564553Y-73225213D02*
X181580152Y-73174465D01*
X182450490Y-66607599D02*
X182432368Y-66085228D01*
X182409381Y-65551438D02*
X182361093Y-64919692D01*
X182312325Y-69451436D02*
X182341661Y-69126918D01*
X182282565Y-64182928D02*
X182233498Y-63768685D01*
X182052566Y-71163603D02*
X182181566Y-70427031D01*
X182082671Y-62831127D02*
X181906962Y-61969268D01*
X181806747Y-72310859D02*
X181821157Y-72255937D01*
X181490388Y-73466500D02*
X181564553Y-73225213D01*
X182429847Y-67846529D02*
X182443904Y-67557194D01*
X182345196Y-64711704D02*
X182282565Y-64182926D01*
X180753038Y-58281596D02*
X180055747Y-57073853D01*
X181664731Y-60978871D02*
X181398344Y-60067398D01*
X182443904Y-67557194D02*
X182446551Y-67175453D01*
X181906962Y-61969268D02*
X181892974Y-61900659D01*
X182023741Y-71328196D02*
X182052566Y-71163603D01*
X181152696Y-59340636D02*
X181094267Y-59167770D01*
X181398344Y-60067398D02*
X181152696Y-59340636D01*
X178034044Y-53434186D02*
X178463662Y-54046237D01*
X179364075Y-55481400D02*
X179551509Y-55802180D01*
X179551509Y-55802180D02*
X179576363Y-55849094D01*
X179694536Y-56072152D02*
X179472471Y-56900910D01*
X179576363Y-55849094D02*
X179694536Y-56072152D01*
X178014084Y-53405749D02*
X178034044Y-53434186D01*
X179101072Y-55031290D02*
X179364075Y-55481400D01*
X166264238Y-47137228D02*
X166633832Y-45757886D01*
X173690213Y-48947522D02*
X173690212Y-48947521D01*
X176190263Y-51219404D02*
X176384914Y-51433935D01*
X176869110Y-51971520D02*
X176875310Y-51978953D01*
X173690212Y-48947521D02*
X174108401Y-49277135D01*
X175922204Y-50947600D02*
X176190263Y-51219404D01*
X167088739Y-45495244D02*
X168435802Y-45856189D01*
X174829087Y-49895474D02*
X175141267Y-50186723D01*
X174108401Y-49277135D02*
X174266711Y-49412964D01*
X172914620Y-48365481D02*
X172914621Y-48365481D01*
X172914621Y-48365481D02*
X173362604Y-48689302D01*
X178559665Y-54183004D02*
X178848981Y-54633972D01*
X171859327Y-47647819D02*
X172593000Y-48133000D01*
X169467257Y-46322442D02*
X170154855Y-46662640D01*
X174266711Y-49412964D02*
X174747568Y-49825532D01*
X176869109Y-51971520D02*
X176869110Y-51971520D01*
X175141267Y-50186723D02*
X175141268Y-50186723D01*
X177227929Y-52401662D02*
X177436654Y-52651876D01*
X176828356Y-51922665D02*
X176869109Y-51971520D01*
X173362604Y-48689302D02*
X173690213Y-48947522D01*
X179072428Y-54982265D02*
X179101072Y-55031290D01*
X175141268Y-50186723D02*
X175523455Y-50543283D01*
X172593000Y-48133000D02*
X172914620Y-48365481D01*
X175523455Y-50543283D02*
X175922204Y-50947600D01*
X171800921Y-47609196D02*
X171859327Y-47647819D01*
X170154855Y-46662640D02*
X170987726Y-47118786D01*
X170987726Y-47118786D02*
X171800921Y-47609196D01*
X166633832Y-45757886D02*
X167088739Y-45495244D01*
X168435802Y-45856189D02*
X169303707Y-46241524D01*
X176384914Y-51433935D02*
X176828356Y-51922665D01*
X169303707Y-46241524D02*
X169467257Y-46322442D01*
X177652060Y-52933101D02*
X178014084Y-53405749D01*
X178463662Y-54046237D02*
X178559665Y-54183004D01*
X176875310Y-51978953D02*
X177227929Y-52401662D01*
X177436654Y-52651876D02*
X177652060Y-52933101D01*
X174747568Y-49825532D02*
X174829087Y-49895474D01*
X178848981Y-54633972D02*
X179072428Y-54982265D01*
X166430085Y-88646593D02*
X165518611Y-88912981D01*
X160838948Y-89665816D02*
X160412257Y-89680615D01*
X163274546Y-89393952D02*
X162728798Y-89481747D01*
X157928447Y-89640344D02*
X157928446Y-89640342D01*
X159889882Y-89698738D02*
X159322031Y-89694801D01*
X165518611Y-88912981D02*
X164596824Y-89141222D01*
X157991807Y-89646072D02*
X157928447Y-89640344D01*
X157046047Y-89560573D02*
X156694875Y-89514032D01*
X164596824Y-89141222D02*
X164528213Y-89155210D01*
X160412257Y-89680615D02*
X160412255Y-89680616D01*
X154241546Y-89069405D02*
X154186626Y-89054994D01*
X160946044Y-89657629D02*
X160838948Y-89665816D01*
X154645827Y-89157685D02*
X154241546Y-89069405D01*
X168215887Y-88001286D02*
X167329714Y-88342514D01*
X157370565Y-89589909D02*
X157046047Y-89560573D01*
X169423629Y-87303994D02*
X168215887Y-88001286D01*
X161785781Y-89593443D02*
X161577790Y-89609340D01*
X163274547Y-89393951D02*
X163274546Y-89393952D01*
X155169287Y-89271989D02*
X154645827Y-89157685D01*
X164528213Y-89155210D02*
X163666355Y-89330919D01*
X162728798Y-89481747D02*
X162314555Y-89530813D01*
X167329714Y-88342514D02*
X167156846Y-88400943D01*
X155333880Y-89300814D02*
X155169287Y-89271989D01*
X161577790Y-89609340D02*
X160946044Y-89657629D01*
X156694875Y-89514032D02*
X156104672Y-89435810D01*
X163666355Y-89330919D02*
X163274547Y-89393951D01*
X158650954Y-89678094D02*
X157991807Y-89646072D01*
X160412255Y-89680616D02*
X159889882Y-89698738D01*
X167156846Y-88400943D02*
X166430085Y-88646593D01*
X157918804Y-89639469D02*
X157370565Y-89589909D01*
X159322031Y-89694801D02*
X158940289Y-89692152D01*
X172482550Y-85728092D02*
X172345782Y-85824094D01*
X171546521Y-86336858D02*
X171497497Y-86365503D01*
X174606121Y-84092787D02*
X174557268Y-84133539D01*
X171497497Y-86365503D02*
X171047387Y-86628505D01*
X180206343Y-76731688D02*
X179866146Y-77419286D01*
X170456635Y-86958966D02*
X169627876Y-86736901D01*
X171047387Y-86628505D02*
X170726607Y-86815940D01*
X170726607Y-86815940D02*
X170679692Y-86840794D01*
X170679692Y-86840794D02*
X170456635Y-86958966D01*
X173123037Y-85278515D02*
X173094600Y-85298473D01*
X177581264Y-80954644D02*
X177581267Y-80954643D01*
X175309383Y-83454693D02*
X175094851Y-83649344D01*
X171894814Y-86113411D02*
X171546521Y-86336858D01*
X174557266Y-84133540D02*
X174549832Y-84139740D01*
X176633314Y-82093518D02*
X176342063Y-82405698D01*
X178163306Y-80179051D02*
X177839484Y-80627034D01*
X178880967Y-79123758D02*
X178395785Y-79857430D01*
X175094851Y-83649344D02*
X174606121Y-84092787D01*
X174549832Y-84139740D02*
X174127123Y-84492359D01*
X174557268Y-84133539D02*
X174557266Y-84133540D01*
X174127123Y-84492359D02*
X173876910Y-84701085D01*
X179410001Y-78252159D02*
X178919590Y-79065352D01*
X175985504Y-82787886D02*
X175581187Y-83186633D01*
X178919590Y-79065352D02*
X178880967Y-79123758D01*
X177115821Y-81531141D02*
X176703254Y-82011999D01*
X177251651Y-81372830D02*
X177115821Y-81531141D01*
X180672598Y-75700232D02*
X180287264Y-76568137D01*
X178163305Y-80179051D02*
X178163306Y-80179051D01*
X178395785Y-79857430D02*
X178163305Y-80179051D01*
X180287264Y-76568137D02*
X180206343Y-76731688D01*
X172345782Y-85824094D02*
X171894814Y-86113411D01*
X179866146Y-77419286D02*
X179410001Y-78252159D01*
X176342062Y-82405700D02*
X175985504Y-82787886D01*
X173595685Y-84916490D02*
X173123037Y-85278515D01*
X173876910Y-84701085D02*
X173595685Y-84916490D01*
X173094600Y-85298473D02*
X172482550Y-85728092D01*
X177581267Y-80954643D02*
X177251651Y-81372830D01*
X175581187Y-83186633D02*
X175309383Y-83454693D01*
X181033541Y-74353169D02*
X180672598Y-75700232D01*
X176342063Y-82405698D02*
X176342062Y-82405700D01*
X177839484Y-80627034D02*
X177581264Y-80954644D01*
X176703254Y-82011999D02*
X176633314Y-82093518D01*
X141221353Y-80322727D02*
X140791734Y-79710676D01*
X139891322Y-78275513D02*
X139703887Y-77954733D01*
X142427037Y-81834247D02*
X142386287Y-81785395D01*
X145892792Y-85067611D02*
X145565183Y-84809391D01*
X142870483Y-82322977D02*
X142427037Y-81834247D01*
X147454474Y-86147717D02*
X147396067Y-86109094D01*
X156070452Y-89429813D02*
X155333880Y-89300814D01*
X140406415Y-79122940D02*
X140182968Y-78774647D01*
X140182968Y-78774647D02*
X140154323Y-78725623D01*
X146662395Y-85623911D02*
X146340774Y-85391431D01*
X158940289Y-89692152D02*
X158650954Y-89678094D01*
X144114127Y-83570188D02*
X143731938Y-83213630D01*
X142380086Y-81777958D02*
X142027467Y-81355249D01*
X153682379Y-88922689D02*
X153323018Y-88828400D01*
X146340775Y-85391433D02*
X145892792Y-85067611D01*
X153030983Y-88738636D02*
X152601986Y-87995592D01*
X143065133Y-82537509D02*
X142870483Y-82322977D01*
X142386286Y-81785393D02*
X142380086Y-81777958D01*
X145565183Y-84809394D02*
X145146998Y-84479778D01*
X146340774Y-85391431D02*
X146340775Y-85391433D01*
X149788139Y-87434469D02*
X149100541Y-87094272D01*
X144988684Y-84343945D02*
X144507826Y-83931381D01*
X149951690Y-87515390D02*
X149788139Y-87434469D01*
X144507826Y-83931381D02*
X144426311Y-83861440D01*
X142386287Y-81785395D02*
X142386286Y-81785393D01*
X156104672Y-89435810D02*
X156070452Y-89429813D01*
X141818742Y-81105037D02*
X141603336Y-80823811D01*
X154186626Y-89054994D02*
X153682379Y-88922689D01*
X153272270Y-88812801D02*
X153030983Y-88738636D01*
X139703887Y-77954733D02*
X139679033Y-77907819D01*
X139560860Y-77684762D02*
X139782925Y-76856002D01*
X149100541Y-87094272D02*
X148267667Y-86638129D01*
X145565183Y-84809391D02*
X145565183Y-84809394D01*
X143333193Y-82809313D02*
X143065133Y-82537509D01*
X153323018Y-88828400D02*
X153272270Y-88812801D01*
X162314555Y-89530813D02*
X162314558Y-89530815D01*
X147396067Y-86109094D02*
X146662395Y-85623911D01*
X157928446Y-89640342D02*
X157918804Y-89639469D01*
X162314558Y-89530815D02*
X161785781Y-89593443D01*
X142027467Y-81355249D02*
X141818742Y-81105037D01*
X143731938Y-83213630D02*
X143333193Y-82809313D01*
X150819594Y-87900724D02*
X149951690Y-87515390D01*
X140154323Y-78725623D02*
X139891322Y-78275513D01*
X139679033Y-77907819D02*
X139560860Y-77684762D01*
X144114129Y-83570190D02*
X144114127Y-83570188D01*
X141241310Y-80351164D02*
X141221353Y-80322727D01*
X152166656Y-88261665D02*
X150819594Y-87900724D01*
X148267667Y-86638129D02*
X147454474Y-86147717D01*
X144426311Y-83861440D02*
X144114129Y-83570190D01*
X145146998Y-84479778D02*
X144988684Y-84343945D01*
X140791734Y-79710676D02*
X140695732Y-79573910D01*
X140695732Y-79573910D02*
X140406415Y-79122940D01*
X141603336Y-80823811D02*
X141241310Y-80351164D01*
%TD*%
%TA.AperFunction,Conductor*%
%TO.N,GND*%
G36*
X158650000Y-47475600D02*
G01*
X159347828Y-47475600D01*
X159347844Y-47475599D01*
X159407372Y-47469198D01*
X159407379Y-47469196D01*
X159542086Y-47418954D01*
X159542093Y-47418950D01*
X159657187Y-47332790D01*
X159657190Y-47332787D01*
X159743350Y-47217693D01*
X159743355Y-47217684D01*
X159772075Y-47140681D01*
X159813945Y-47084747D01*
X159879409Y-47060329D01*
X159947682Y-47075180D01*
X159979484Y-47100028D01*
X159988216Y-47109513D01*
X159988219Y-47109515D01*
X159988222Y-47109518D01*
X160171365Y-47252064D01*
X160171371Y-47252068D01*
X160171374Y-47252070D01*
X160375497Y-47362536D01*
X160489487Y-47401668D01*
X160595015Y-47437897D01*
X160595017Y-47437897D01*
X160595019Y-47437898D01*
X160823951Y-47476100D01*
X160823952Y-47476100D01*
X161056048Y-47476100D01*
X161056049Y-47476100D01*
X161284981Y-47437898D01*
X161504503Y-47362536D01*
X161708626Y-47252070D01*
X161724819Y-47239467D01*
X161790083Y-47188670D01*
X161891784Y-47109513D01*
X161993381Y-46999147D01*
X162053266Y-46963158D01*
X162123105Y-46965257D01*
X162180721Y-47004781D01*
X162207823Y-47069180D01*
X162208049Y-47071345D01*
X162221774Y-47215089D01*
X162275211Y-47348566D01*
X162364085Y-47461581D01*
X162364086Y-47461582D01*
X162481211Y-47544985D01*
X162481210Y-47544985D01*
X162537057Y-47566575D01*
X162537075Y-47566580D01*
X163211118Y-47747190D01*
X163476337Y-46757385D01*
X163538642Y-46819690D01*
X163641254Y-46878933D01*
X163755704Y-46909600D01*
X163874192Y-46909600D01*
X163959299Y-46886795D01*
X163694082Y-47876599D01*
X164368145Y-48057214D01*
X164427307Y-48066439D01*
X164427308Y-48066439D01*
X164570437Y-48052773D01*
X164703914Y-47999336D01*
X164816928Y-47910462D01*
X164866381Y-47841015D01*
X164921302Y-47797824D01*
X164990855Y-47791181D01*
X165052958Y-47823197D01*
X165071199Y-47845119D01*
X165157730Y-47977566D01*
X165159421Y-47980153D01*
X165316616Y-48150913D01*
X165316619Y-48150915D01*
X165316622Y-48150918D01*
X165499765Y-48293464D01*
X165499771Y-48293468D01*
X165499774Y-48293470D01*
X165703897Y-48403936D01*
X165817887Y-48443068D01*
X165923415Y-48479297D01*
X165923417Y-48479297D01*
X165923419Y-48479298D01*
X166152351Y-48517500D01*
X166152352Y-48517500D01*
X166384448Y-48517500D01*
X166384449Y-48517500D01*
X166613381Y-48479298D01*
X166832903Y-48403936D01*
X167037026Y-48293470D01*
X167044864Y-48287369D01*
X167109853Y-48261725D01*
X167178394Y-48275287D01*
X167228722Y-48323752D01*
X167244858Y-48391733D01*
X167243312Y-48405782D01*
X167218725Y-48551998D01*
X167218724Y-48552002D01*
X167235795Y-48694762D01*
X167292393Y-48826935D01*
X167383933Y-48937802D01*
X167383937Y-48937805D01*
X167432302Y-48973121D01*
X167432307Y-48973124D01*
X168036639Y-49322035D01*
X168036640Y-49322035D01*
X168549001Y-48434600D01*
X168593057Y-48510906D01*
X168676841Y-48594690D01*
X168779453Y-48653933D01*
X168893903Y-48684600D01*
X168982012Y-48684600D01*
X168469652Y-49572034D01*
X168469652Y-49572035D01*
X169073982Y-49920946D01*
X169128759Y-49945178D01*
X169128765Y-49945180D01*
X169270547Y-49969021D01*
X169270549Y-49969022D01*
X169413309Y-49951951D01*
X169545482Y-49895353D01*
X169610790Y-49841430D01*
X169675018Y-49813925D01*
X169743920Y-49825511D01*
X169795621Y-49872509D01*
X169809945Y-49906607D01*
X169823693Y-49960895D01*
X169823693Y-49960896D01*
X169916927Y-50173448D01*
X170043868Y-50367747D01*
X170043871Y-50367751D01*
X170043873Y-50367753D01*
X170201068Y-50538513D01*
X170201071Y-50538515D01*
X170201074Y-50538518D01*
X170384217Y-50681064D01*
X170384223Y-50681068D01*
X170384226Y-50681070D01*
X170588349Y-50791536D01*
X170702339Y-50830668D01*
X170807867Y-50866897D01*
X170807869Y-50866897D01*
X170807871Y-50866898D01*
X171036803Y-50905100D01*
X171036804Y-50905100D01*
X171268900Y-50905100D01*
X171268901Y-50905100D01*
X171497833Y-50866898D01*
X171596094Y-50833164D01*
X171665891Y-50830015D01*
X171726312Y-50865101D01*
X171758173Y-50927283D01*
X171751358Y-50996819D01*
X171749150Y-51001957D01*
X171690102Y-51131252D01*
X171690100Y-51131260D01*
X171669640Y-51273574D01*
X171690100Y-51415887D01*
X171690101Y-51415892D01*
X171749827Y-51546671D01*
X171787407Y-51593306D01*
X172280846Y-52086745D01*
X173005435Y-51362156D01*
X173028241Y-51447268D01*
X173087484Y-51549880D01*
X173171268Y-51633664D01*
X173273880Y-51692907D01*
X173358988Y-51715711D01*
X172634401Y-52440299D01*
X172634401Y-52440300D01*
X173127841Y-52933740D01*
X173174476Y-52971320D01*
X173305255Y-53031046D01*
X173305260Y-53031047D01*
X173447574Y-53051507D01*
X173589887Y-53031047D01*
X173589888Y-53031047D01*
X173665669Y-52996438D01*
X173734827Y-52986494D01*
X173798383Y-53015518D01*
X173836159Y-53074295D01*
X173840758Y-53098992D01*
X173857490Y-53300921D01*
X173857492Y-53300933D01*
X173914468Y-53525925D01*
X174007701Y-53738473D01*
X174134642Y-53932772D01*
X174134645Y-53932776D01*
X174134647Y-53932778D01*
X174291842Y-54103538D01*
X174291845Y-54103540D01*
X174291848Y-54103543D01*
X174474991Y-54246089D01*
X174474997Y-54246093D01*
X174475000Y-54246095D01*
X174679123Y-54356561D01*
X174793113Y-54395693D01*
X174898641Y-54431922D01*
X174898643Y-54431922D01*
X174898645Y-54431923D01*
X175127577Y-54470125D01*
X175127578Y-54470125D01*
X175360655Y-54470125D01*
X175427694Y-54489810D01*
X175473449Y-54542614D01*
X175483393Y-54611772D01*
X175454368Y-54675328D01*
X175445691Y-54684374D01*
X175443386Y-54686545D01*
X175351846Y-54797411D01*
X175295248Y-54929584D01*
X175278177Y-55072344D01*
X175278178Y-55072346D01*
X175302019Y-55214128D01*
X175302021Y-55214134D01*
X175326253Y-55268911D01*
X175675163Y-55873240D01*
X175675164Y-55873240D01*
X176562600Y-55360878D01*
X176562600Y-55448991D01*
X176593267Y-55563441D01*
X176652510Y-55666053D01*
X176736294Y-55749837D01*
X176812598Y-55793891D01*
X175925163Y-56306252D01*
X175925163Y-56306253D01*
X176274075Y-56910586D01*
X176274078Y-56910591D01*
X176309394Y-56958956D01*
X176309397Y-56958960D01*
X176420264Y-57050500D01*
X176552437Y-57107098D01*
X176695197Y-57124169D01*
X176695199Y-57124168D01*
X176779880Y-57109929D01*
X176849255Y-57118224D01*
X176903133Y-57162709D01*
X176924408Y-57229261D01*
X176920649Y-57262652D01*
X176896467Y-57358142D01*
X176896465Y-57358154D01*
X176877301Y-57589445D01*
X176877301Y-57589458D01*
X176896465Y-57820749D01*
X176896467Y-57820760D01*
X176953443Y-58045752D01*
X177046676Y-58258300D01*
X177173617Y-58452599D01*
X177173620Y-58452603D01*
X177173622Y-58452605D01*
X177330817Y-58623365D01*
X177330820Y-58623367D01*
X177330823Y-58623370D01*
X177513966Y-58765916D01*
X177513972Y-58765920D01*
X177513975Y-58765922D01*
X177718098Y-58876388D01*
X177832088Y-58915520D01*
X177937616Y-58951749D01*
X177937618Y-58951749D01*
X177937620Y-58951750D01*
X178026295Y-58966547D01*
X178031549Y-58967424D01*
X178094434Y-58997875D01*
X178130874Y-59057489D01*
X178129298Y-59127341D01*
X178090208Y-59185253D01*
X178069924Y-59198913D01*
X178069466Y-59199159D01*
X177952337Y-59282565D01*
X177952336Y-59282566D01*
X177863462Y-59395581D01*
X177810025Y-59529058D01*
X177796359Y-59672187D01*
X177796359Y-59672188D01*
X177805584Y-59731351D01*
X177986198Y-60405412D01*
X178976004Y-60140194D01*
X178953199Y-60225304D01*
X178953199Y-60343792D01*
X178983866Y-60458242D01*
X179043109Y-60560854D01*
X179105412Y-60623157D01*
X178115607Y-60888376D01*
X178296218Y-61562420D01*
X178296223Y-61562438D01*
X178317813Y-61618284D01*
X178401216Y-61735409D01*
X178401217Y-61735410D01*
X178514232Y-61824284D01*
X178647709Y-61877721D01*
X178728108Y-61885398D01*
X178792973Y-61911366D01*
X178833502Y-61968279D01*
X178836827Y-62038070D01*
X178826692Y-62064434D01*
X178826736Y-62064454D01*
X178826322Y-62065396D01*
X178825381Y-62067846D01*
X178824679Y-62069143D01*
X178731442Y-62281699D01*
X178674466Y-62506691D01*
X178674464Y-62506702D01*
X178655300Y-62737993D01*
X178655300Y-62738006D01*
X178674464Y-62969297D01*
X178674466Y-62969308D01*
X178731442Y-63194300D01*
X178824675Y-63406848D01*
X178951616Y-63601147D01*
X178951619Y-63601151D01*
X178951621Y-63601153D01*
X179108816Y-63771913D01*
X179108819Y-63771915D01*
X179108822Y-63771918D01*
X179291965Y-63914464D01*
X179291971Y-63914468D01*
X179291974Y-63914470D01*
X179445864Y-63997751D01*
X179467698Y-64009567D01*
X179517288Y-64058787D01*
X179532396Y-64127003D01*
X179508226Y-64192559D01*
X179452450Y-64234640D01*
X179437195Y-64239299D01*
X179434222Y-64240001D01*
X179299513Y-64290244D01*
X179299506Y-64290248D01*
X179184412Y-64376408D01*
X179184409Y-64376411D01*
X179098249Y-64491505D01*
X179098245Y-64491512D01*
X179048003Y-64626219D01*
X179048001Y-64626226D01*
X179041600Y-64685754D01*
X179041600Y-65383599D01*
X180066322Y-65383599D01*
X180022267Y-65459905D01*
X179991600Y-65574355D01*
X179991600Y-65692843D01*
X180022267Y-65807293D01*
X180066322Y-65883599D01*
X179041600Y-65883599D01*
X179041600Y-66581443D01*
X179048001Y-66640971D01*
X179048003Y-66640978D01*
X179098245Y-66775685D01*
X179098249Y-66775692D01*
X179184409Y-66890786D01*
X179184412Y-66890789D01*
X179299506Y-66976949D01*
X179299513Y-66976953D01*
X179379872Y-67006925D01*
X179435806Y-67048796D01*
X179460223Y-67114260D01*
X179445372Y-67182533D01*
X179427769Y-67207089D01*
X179332619Y-67310449D01*
X179205676Y-67504751D01*
X179112443Y-67717299D01*
X179055467Y-67942291D01*
X179055465Y-67942302D01*
X179036301Y-68173593D01*
X179036301Y-68173606D01*
X179055465Y-68404897D01*
X179055467Y-68404908D01*
X179112443Y-68629900D01*
X179205676Y-68842448D01*
X179332617Y-69036747D01*
X179332620Y-69036751D01*
X179332622Y-69036753D01*
X179489817Y-69207513D01*
X179507958Y-69221632D01*
X179513154Y-69225677D01*
X179553967Y-69282387D01*
X179557640Y-69352160D01*
X179523009Y-69412843D01*
X179461067Y-69445170D01*
X179448777Y-69446969D01*
X179302110Y-69460973D01*
X179168633Y-69514410D01*
X179055618Y-69603284D01*
X179055617Y-69603285D01*
X178972214Y-69720410D01*
X178950624Y-69776256D01*
X178950619Y-69776274D01*
X178770008Y-70450317D01*
X179759814Y-70715536D01*
X179697510Y-70777841D01*
X179638267Y-70880453D01*
X179607600Y-70994903D01*
X179607600Y-71113391D01*
X179630404Y-71198498D01*
X178640599Y-70933281D01*
X178459985Y-71607341D01*
X178450760Y-71666506D01*
X178450760Y-71666507D01*
X178464426Y-71809636D01*
X178517863Y-71943113D01*
X178606737Y-72056128D01*
X178606741Y-72056131D01*
X178674851Y-72104632D01*
X178718042Y-72159553D01*
X178724684Y-72229106D01*
X178692669Y-72291209D01*
X178661944Y-72314694D01*
X178631576Y-72331128D01*
X178631565Y-72331135D01*
X178448422Y-72473681D01*
X178448419Y-72473684D01*
X178291216Y-72644452D01*
X178164275Y-72838751D01*
X178071042Y-73051299D01*
X178014066Y-73276291D01*
X178014064Y-73276302D01*
X177994900Y-73507593D01*
X177994900Y-73507606D01*
X178014064Y-73738897D01*
X178014066Y-73738908D01*
X178071042Y-73963900D01*
X178164274Y-74176445D01*
X178164276Y-74176449D01*
X178234943Y-74284613D01*
X178255130Y-74351502D01*
X178235950Y-74418687D01*
X178183492Y-74464838D01*
X178114410Y-74475301D01*
X178110571Y-74474717D01*
X177965200Y-74450272D01*
X177965197Y-74450271D01*
X177822437Y-74467342D01*
X177690264Y-74523940D01*
X177579397Y-74615480D01*
X177579394Y-74615484D01*
X177544081Y-74663845D01*
X177195163Y-75268186D01*
X177195163Y-75268187D01*
X178082599Y-75780549D01*
X178006294Y-75824604D01*
X177922510Y-75908388D01*
X177863267Y-76011000D01*
X177832600Y-76125450D01*
X177832600Y-76213561D01*
X176945164Y-75701199D01*
X176945163Y-75701199D01*
X176596253Y-76305529D01*
X176572021Y-76360306D01*
X176572019Y-76360312D01*
X176548178Y-76502094D01*
X176548177Y-76502096D01*
X176565248Y-76644856D01*
X176621845Y-76777026D01*
X176675602Y-76842133D01*
X176703106Y-76906362D01*
X176691520Y-76975264D01*
X176644521Y-77026964D01*
X176620246Y-77038364D01*
X176448104Y-77097461D01*
X176448095Y-77097464D01*
X176243971Y-77207931D01*
X176243965Y-77207935D01*
X176060822Y-77350481D01*
X176060819Y-77350484D01*
X175903616Y-77521252D01*
X175776675Y-77715551D01*
X175683442Y-77928099D01*
X175626466Y-78153091D01*
X175626464Y-78153102D01*
X175607300Y-78384393D01*
X175607300Y-78384406D01*
X175626464Y-78615697D01*
X175626466Y-78615708D01*
X175683443Y-78840702D01*
X175691364Y-78858761D01*
X175700265Y-78928062D01*
X175670286Y-78991173D01*
X175610946Y-79028058D01*
X175541084Y-79027005D01*
X175507254Y-79008982D01*
X175506949Y-79009477D01*
X175500351Y-79005401D01*
X175369570Y-78945674D01*
X175369565Y-78945673D01*
X175227252Y-78925213D01*
X175084938Y-78945673D01*
X175084933Y-78945674D01*
X174954154Y-79005400D01*
X174907514Y-79042984D01*
X174414079Y-79536419D01*
X174414079Y-79536420D01*
X175138667Y-80261008D01*
X175053558Y-80283814D01*
X174950946Y-80343057D01*
X174867162Y-80426841D01*
X174807919Y-80529453D01*
X174785113Y-80614562D01*
X174060525Y-79889974D01*
X174060524Y-79889974D01*
X173567089Y-80383409D01*
X173529505Y-80430049D01*
X173469779Y-80560828D01*
X173469778Y-80560833D01*
X173449318Y-80703147D01*
X173469778Y-80845460D01*
X173469779Y-80845465D01*
X173505275Y-80923188D01*
X173515219Y-80992347D01*
X173486194Y-81055903D01*
X173427416Y-81093677D01*
X173392481Y-81098700D01*
X173315151Y-81098700D01*
X173269364Y-81106340D01*
X173086215Y-81136902D01*
X172866704Y-81212261D01*
X172866695Y-81212264D01*
X172662571Y-81322731D01*
X172662565Y-81322735D01*
X172479422Y-81465281D01*
X172479419Y-81465284D01*
X172322216Y-81636052D01*
X172195275Y-81830351D01*
X172102042Y-82042899D01*
X172045066Y-82267891D01*
X172045064Y-82267902D01*
X172025900Y-82499193D01*
X172025900Y-82499195D01*
X172025900Y-82499200D01*
X172029511Y-82542775D01*
X172036249Y-82624101D01*
X172022167Y-82692537D01*
X171973321Y-82742496D01*
X171905220Y-82758116D01*
X171839485Y-82734438D01*
X171818469Y-82713408D01*
X171818231Y-82713634D01*
X171812908Y-82707984D01*
X171702041Y-82616444D01*
X171569868Y-82559846D01*
X171427108Y-82542775D01*
X171427106Y-82542776D01*
X171285324Y-82566617D01*
X171285318Y-82566619D01*
X171230541Y-82590851D01*
X170626211Y-82939761D01*
X170626211Y-82939762D01*
X171138573Y-83827198D01*
X171050462Y-83827198D01*
X170936012Y-83857865D01*
X170833400Y-83917108D01*
X170749616Y-84000892D01*
X170705561Y-84077197D01*
X170193199Y-83189761D01*
X170193198Y-83189761D01*
X169588857Y-83538679D01*
X169540496Y-83573992D01*
X169540492Y-83573995D01*
X169448952Y-83684862D01*
X169392354Y-83817035D01*
X169375283Y-83959795D01*
X169375284Y-83959799D01*
X169388864Y-84040561D01*
X169380569Y-84109937D01*
X169336083Y-84163814D01*
X169269531Y-84185088D01*
X169246172Y-84183432D01*
X169026049Y-84146700D01*
X168793951Y-84146700D01*
X168748164Y-84154340D01*
X168565015Y-84184902D01*
X168345504Y-84260261D01*
X168345495Y-84260264D01*
X168141371Y-84370731D01*
X168141365Y-84370735D01*
X167958222Y-84513281D01*
X167958219Y-84513284D01*
X167801016Y-84684052D01*
X167674075Y-84878351D01*
X167580841Y-85090903D01*
X167580841Y-85090904D01*
X167525029Y-85311297D01*
X167489490Y-85371452D01*
X167427069Y-85402844D01*
X167357586Y-85395506D01*
X167303101Y-85351767D01*
X167295641Y-85339637D01*
X167292637Y-85334058D01*
X167209236Y-85216936D01*
X167209235Y-85216935D01*
X167096220Y-85128061D01*
X166962743Y-85074624D01*
X166819614Y-85060958D01*
X166819613Y-85060958D01*
X166760448Y-85070183D01*
X166086388Y-85250797D01*
X166351605Y-86240602D01*
X166266498Y-86217798D01*
X166148010Y-86217798D01*
X166033560Y-86248465D01*
X165930948Y-86307708D01*
X165868643Y-86370012D01*
X165603424Y-85380206D01*
X164929381Y-85560817D01*
X164929363Y-85560822D01*
X164873517Y-85582412D01*
X164756392Y-85665815D01*
X164756391Y-85665816D01*
X164667517Y-85778831D01*
X164614078Y-85912311D01*
X164605906Y-85997899D01*
X164579938Y-86062764D01*
X164523024Y-86103292D01*
X164453234Y-86106617D01*
X164423450Y-86095167D01*
X164318304Y-86038264D01*
X164318295Y-86038261D01*
X164098784Y-85962902D01*
X163927082Y-85934250D01*
X163869849Y-85924700D01*
X163637751Y-85924700D01*
X163591964Y-85932340D01*
X163408815Y-85962902D01*
X163189304Y-86038261D01*
X163189295Y-86038264D01*
X162985171Y-86148731D01*
X162985165Y-86148735D01*
X162802022Y-86291281D01*
X162802019Y-86291284D01*
X162802016Y-86291286D01*
X162802016Y-86291287D01*
X162782395Y-86312601D01*
X162644816Y-86462052D01*
X162517876Y-86656349D01*
X162487387Y-86725858D01*
X162442430Y-86779343D01*
X162375694Y-86800033D01*
X162308366Y-86781358D01*
X162261823Y-86729247D01*
X162253152Y-86704555D01*
X162251796Y-86698816D01*
X162201555Y-86564113D01*
X162201551Y-86564106D01*
X162115391Y-86449012D01*
X162115388Y-86449009D01*
X162000294Y-86362849D01*
X162000287Y-86362845D01*
X161865580Y-86312603D01*
X161865573Y-86312601D01*
X161806045Y-86306200D01*
X161108201Y-86306200D01*
X161108201Y-87330922D01*
X161031895Y-87286867D01*
X160917445Y-87256200D01*
X160798957Y-87256200D01*
X160684507Y-87286867D01*
X160608201Y-87330922D01*
X160608201Y-86306200D01*
X159910356Y-86306200D01*
X159850828Y-86312601D01*
X159850821Y-86312603D01*
X159716114Y-86362845D01*
X159716107Y-86362849D01*
X159601013Y-86449009D01*
X159601010Y-86449012D01*
X159514850Y-86564106D01*
X159514846Y-86564113D01*
X159486124Y-86641122D01*
X159444253Y-86697056D01*
X159378788Y-86721473D01*
X159310515Y-86706621D01*
X159278714Y-86681773D01*
X159269982Y-86672288D01*
X159269981Y-86672287D01*
X159269979Y-86672285D01*
X159269975Y-86672282D01*
X159086832Y-86529736D01*
X159086826Y-86529732D01*
X158882702Y-86419265D01*
X158882693Y-86419262D01*
X158663182Y-86343903D01*
X158475596Y-86312601D01*
X158434247Y-86305701D01*
X158202149Y-86305701D01*
X158190122Y-86307708D01*
X157973213Y-86343903D01*
X157753702Y-86419262D01*
X157753693Y-86419265D01*
X157549569Y-86529732D01*
X157549563Y-86529736D01*
X157366420Y-86672282D01*
X157366417Y-86672285D01*
X157366414Y-86672287D01*
X157366414Y-86672288D01*
X157266009Y-86781358D01*
X157259748Y-86788159D01*
X157199861Y-86824149D01*
X157130023Y-86822049D01*
X157072407Y-86782525D01*
X157045305Y-86718126D01*
X157045079Y-86715962D01*
X157030828Y-86566710D01*
X156977391Y-86433233D01*
X156888517Y-86320218D01*
X156888516Y-86320217D01*
X156771391Y-86236814D01*
X156771392Y-86236814D01*
X156715545Y-86215224D01*
X156715527Y-86215219D01*
X156041483Y-86034608D01*
X155776264Y-87024413D01*
X155713961Y-86962110D01*
X155611349Y-86902867D01*
X155496899Y-86872200D01*
X155378411Y-86872200D01*
X155293301Y-86895005D01*
X155558519Y-85905199D01*
X154884458Y-85724585D01*
X154825295Y-85715360D01*
X154825294Y-85715360D01*
X154682165Y-85729026D01*
X154548688Y-85782463D01*
X154435673Y-85871337D01*
X154435671Y-85871339D01*
X154386217Y-85940788D01*
X154331296Y-85983978D01*
X154261742Y-85990619D01*
X154199640Y-85958603D01*
X154181401Y-85936681D01*
X154093183Y-85801652D01*
X154093180Y-85801649D01*
X154093179Y-85801647D01*
X153935984Y-85630887D01*
X153935979Y-85630883D01*
X153935977Y-85630881D01*
X153752834Y-85488335D01*
X153752828Y-85488331D01*
X153548704Y-85377864D01*
X153548695Y-85377861D01*
X153329184Y-85302502D01*
X153157482Y-85273850D01*
X153100249Y-85264300D01*
X152868151Y-85264300D01*
X152828635Y-85270894D01*
X152639215Y-85302502D01*
X152419704Y-85377861D01*
X152419695Y-85377864D01*
X152215571Y-85488331D01*
X152215568Y-85488333D01*
X152198298Y-85501775D01*
X152133304Y-85527415D01*
X152064764Y-85513847D01*
X152014441Y-85465377D01*
X151998311Y-85397395D01*
X152001457Y-85379296D01*
X152001093Y-85379235D01*
X152026221Y-85229799D01*
X152026222Y-85229797D01*
X152009151Y-85087037D01*
X151952553Y-84954864D01*
X151861013Y-84843997D01*
X151861009Y-84843994D01*
X151812644Y-84808678D01*
X151812639Y-84808675D01*
X151208306Y-84459763D01*
X151208305Y-84459763D01*
X150695944Y-85347198D01*
X150651890Y-85270894D01*
X150568106Y-85187110D01*
X150465494Y-85127867D01*
X150351044Y-85097200D01*
X150262931Y-85097200D01*
X150775293Y-84209764D01*
X150775293Y-84209763D01*
X150170964Y-83860853D01*
X150116187Y-83836621D01*
X150116181Y-83836619D01*
X149974399Y-83812778D01*
X149974397Y-83812777D01*
X149831637Y-83829848D01*
X149699467Y-83886445D01*
X149634156Y-83940371D01*
X149569927Y-83967875D01*
X149501025Y-83956289D01*
X149449325Y-83909290D01*
X149435000Y-83875192D01*
X149430612Y-83857865D01*
X149421251Y-83820898D01*
X149328018Y-83608349D01*
X149325189Y-83604019D01*
X149201077Y-83414050D01*
X149201074Y-83414047D01*
X149201073Y-83414045D01*
X149043878Y-83243285D01*
X149043873Y-83243281D01*
X149043871Y-83243279D01*
X148860728Y-83100733D01*
X148860722Y-83100729D01*
X148656598Y-82990262D01*
X148656589Y-82990259D01*
X148437078Y-82914900D01*
X148265376Y-82886248D01*
X148208143Y-82876698D01*
X147976045Y-82876698D01*
X147930258Y-82884338D01*
X147747109Y-82914900D01*
X147627807Y-82955857D01*
X147558008Y-82959007D01*
X147497587Y-82923921D01*
X147465726Y-82861738D01*
X147472542Y-82792201D01*
X147474750Y-82787064D01*
X147537098Y-82650543D01*
X147537099Y-82650539D01*
X147557559Y-82508226D01*
X147537099Y-82365912D01*
X147537098Y-82365907D01*
X147477372Y-82235128D01*
X147439792Y-82188493D01*
X146946352Y-81695053D01*
X146946351Y-81695053D01*
X146221763Y-82419640D01*
X146198959Y-82334532D01*
X146139716Y-82231920D01*
X146055932Y-82148136D01*
X145953320Y-82088893D01*
X145868210Y-82066087D01*
X146592798Y-81341500D01*
X146592798Y-81341498D01*
X146099362Y-80848063D01*
X146099358Y-80848059D01*
X146052723Y-80810479D01*
X145921944Y-80750753D01*
X145921939Y-80750752D01*
X145779626Y-80730292D01*
X145637312Y-80750752D01*
X145637304Y-80750754D01*
X145561528Y-80785361D01*
X145492370Y-80795305D01*
X145428814Y-80766280D01*
X145391040Y-80707502D01*
X145386441Y-80682813D01*
X145369708Y-80480867D01*
X145345354Y-80384695D01*
X145312731Y-80255871D01*
X145219498Y-80043323D01*
X145092557Y-79849024D01*
X145092554Y-79849021D01*
X145092553Y-79849019D01*
X144935358Y-79678259D01*
X144935353Y-79678255D01*
X144935351Y-79678253D01*
X144752208Y-79535707D01*
X144752202Y-79535703D01*
X144548078Y-79425236D01*
X144548069Y-79425233D01*
X144328558Y-79349874D01*
X144156856Y-79321222D01*
X144099623Y-79311672D01*
X143867525Y-79311672D01*
X143867519Y-79311672D01*
X143862414Y-79312095D01*
X143862316Y-79310916D01*
X143798595Y-79303216D01*
X143744774Y-79258662D01*
X143723584Y-79192083D01*
X143741754Y-79124617D01*
X143754101Y-79109407D01*
X143753474Y-79108890D01*
X143849953Y-78992041D01*
X143906551Y-78859868D01*
X143923622Y-78717108D01*
X143923621Y-78717106D01*
X143899780Y-78575324D01*
X143899778Y-78575318D01*
X143875546Y-78520541D01*
X143526635Y-77916211D01*
X143526634Y-77916211D01*
X142639200Y-78428571D01*
X142639200Y-78340462D01*
X142608533Y-78226012D01*
X142549290Y-78123400D01*
X142465506Y-78039616D01*
X142389200Y-77995560D01*
X143276635Y-77483199D01*
X143276635Y-77483198D01*
X142927724Y-76878866D01*
X142927721Y-76878861D01*
X142892405Y-76830496D01*
X142892402Y-76830492D01*
X142781535Y-76738952D01*
X142649362Y-76682354D01*
X142506602Y-76665283D01*
X142506598Y-76665284D01*
X142421919Y-76679523D01*
X142352544Y-76671228D01*
X142298666Y-76626742D01*
X142277392Y-76560190D01*
X142281152Y-76526799D01*
X142305331Y-76431317D01*
X142305331Y-76431316D01*
X142305334Y-76431305D01*
X142311636Y-76355252D01*
X142324500Y-76200006D01*
X142324500Y-76199993D01*
X142305335Y-75968702D01*
X142305333Y-75968691D01*
X142248357Y-75743699D01*
X142155124Y-75531151D01*
X142028183Y-75336852D01*
X142028180Y-75336849D01*
X142028179Y-75336847D01*
X141870984Y-75166087D01*
X141870979Y-75166083D01*
X141870977Y-75166081D01*
X141687834Y-75023535D01*
X141687828Y-75023531D01*
X141483704Y-74913064D01*
X141483695Y-74913061D01*
X141264184Y-74837702D01*
X141145622Y-74817918D01*
X141082737Y-74787467D01*
X141046298Y-74727853D01*
X141047873Y-74658001D01*
X141086963Y-74600089D01*
X141121322Y-74579950D01*
X141133837Y-74575111D01*
X141250961Y-74491709D01*
X141250962Y-74491708D01*
X141339836Y-74378693D01*
X141393273Y-74245216D01*
X141406939Y-74102087D01*
X141406939Y-74102086D01*
X141397714Y-74042924D01*
X141217099Y-73368861D01*
X140227295Y-73634078D01*
X140250100Y-73548971D01*
X140250100Y-73430483D01*
X140219433Y-73316033D01*
X140160190Y-73213421D01*
X140097885Y-73151116D01*
X141087690Y-72885897D01*
X141062044Y-72790186D01*
X152663100Y-72790186D01*
X152663100Y-74727413D01*
X152663101Y-74727452D01*
X152665895Y-74780043D01*
X152665895Y-74780044D01*
X152698939Y-74950898D01*
X152710355Y-75009926D01*
X152740166Y-75088920D01*
X152793025Y-75228989D01*
X152911529Y-75430931D01*
X152911534Y-75430938D01*
X153062456Y-75609941D01*
X153062458Y-75609943D01*
X153241461Y-75760865D01*
X153241468Y-75760870D01*
X153443410Y-75879374D01*
X153662474Y-75962045D01*
X153892359Y-76006505D01*
X153944978Y-76009300D01*
X153944986Y-76009300D01*
X155882214Y-76009300D01*
X155882222Y-76009300D01*
X155934841Y-76006505D01*
X156164726Y-75962045D01*
X156210944Y-75944603D01*
X157363600Y-75944603D01*
X157363600Y-76508800D01*
X158180588Y-76508800D01*
X158147675Y-76565807D01*
X158113600Y-76692974D01*
X158113600Y-76824626D01*
X158147675Y-76951793D01*
X158180588Y-77008800D01*
X157363601Y-77008800D01*
X157363601Y-77572997D01*
X157374000Y-77705132D01*
X157428977Y-77923319D01*
X157522028Y-78128174D01*
X157522031Y-78128180D01*
X157650159Y-78313123D01*
X157650169Y-78313135D01*
X157809264Y-78472230D01*
X157809276Y-78472240D01*
X157994219Y-78600368D01*
X157994225Y-78600371D01*
X158199080Y-78693422D01*
X158417267Y-78748399D01*
X158549410Y-78758799D01*
X159363599Y-78758799D01*
X159363600Y-78758798D01*
X159363600Y-77258800D01*
X159863600Y-77258800D01*
X159863600Y-78758799D01*
X160677782Y-78758799D01*
X160677797Y-78758798D01*
X160809932Y-78748399D01*
X161028119Y-78693422D01*
X161232974Y-78600371D01*
X161232980Y-78600368D01*
X161417923Y-78472240D01*
X161417935Y-78472230D01*
X161577030Y-78313135D01*
X161577040Y-78313123D01*
X161705168Y-78128180D01*
X161705171Y-78128174D01*
X161798222Y-77923319D01*
X161853199Y-77705132D01*
X161863599Y-77572996D01*
X161863600Y-77572984D01*
X161863600Y-77008800D01*
X161046612Y-77008800D01*
X161079525Y-76951793D01*
X161113600Y-76824626D01*
X161113600Y-76692974D01*
X161079525Y-76565807D01*
X161046612Y-76508800D01*
X161863599Y-76508800D01*
X161863599Y-76013598D01*
X168793009Y-76013598D01*
X168793009Y-76013601D01*
X168812536Y-76236800D01*
X168812537Y-76236808D01*
X168870526Y-76453225D01*
X168870527Y-76453227D01*
X168870528Y-76453230D01*
X168940846Y-76604027D01*
X168965219Y-76656296D01*
X168965221Y-76656300D01*
X169093729Y-76839828D01*
X169093734Y-76839834D01*
X169252165Y-76998265D01*
X169252171Y-76998270D01*
X169435699Y-77126778D01*
X169435701Y-77126779D01*
X169435704Y-77126781D01*
X169638770Y-77221472D01*
X169855194Y-77279463D01*
X170014626Y-77293411D01*
X170078398Y-77298991D01*
X170078400Y-77298991D01*
X170078402Y-77298991D01*
X170134201Y-77294109D01*
X170301606Y-77279463D01*
X170518030Y-77221472D01*
X170721096Y-77126781D01*
X170904633Y-76998267D01*
X171063067Y-76839833D01*
X171191581Y-76656296D01*
X171286272Y-76453230D01*
X171344263Y-76236806D01*
X171363791Y-76013600D01*
X171344263Y-75790394D01*
X171286272Y-75573970D01*
X171191581Y-75370905D01*
X171127324Y-75279136D01*
X171063068Y-75187368D01*
X171003401Y-75127701D01*
X170904633Y-75028933D01*
X170904629Y-75028930D01*
X170904628Y-75028929D01*
X170721100Y-74900421D01*
X170721096Y-74900419D01*
X170632995Y-74859337D01*
X170518030Y-74805728D01*
X170518027Y-74805727D01*
X170518025Y-74805726D01*
X170301608Y-74747737D01*
X170301600Y-74747736D01*
X170078402Y-74728209D01*
X170078398Y-74728209D01*
X169855199Y-74747736D01*
X169855191Y-74747737D01*
X169638774Y-74805726D01*
X169638768Y-74805729D01*
X169435706Y-74900418D01*
X169435704Y-74900419D01*
X169252164Y-75028934D01*
X169093734Y-75187364D01*
X168965219Y-75370904D01*
X168965218Y-75370906D01*
X168870529Y-75573968D01*
X168870526Y-75573974D01*
X168812537Y-75790391D01*
X168812536Y-75790399D01*
X168793009Y-76013598D01*
X161863599Y-76013598D01*
X161863599Y-75944617D01*
X161863598Y-75944602D01*
X161853199Y-75812467D01*
X161798222Y-75594280D01*
X161705171Y-75389425D01*
X161705168Y-75389419D01*
X161577040Y-75204476D01*
X161577030Y-75204464D01*
X161417935Y-75045369D01*
X161417923Y-75045359D01*
X161232980Y-74917231D01*
X161232974Y-74917228D01*
X161028119Y-74824177D01*
X160809932Y-74769200D01*
X160677796Y-74758800D01*
X159863600Y-74758800D01*
X159863600Y-76258800D01*
X159363600Y-76258800D01*
X159363600Y-74758800D01*
X158549417Y-74758800D01*
X158549402Y-74758801D01*
X158417267Y-74769200D01*
X158199080Y-74824177D01*
X157994225Y-74917228D01*
X157994219Y-74917231D01*
X157809276Y-75045359D01*
X157809264Y-75045369D01*
X157650169Y-75204464D01*
X157650159Y-75204476D01*
X157522031Y-75389419D01*
X157522028Y-75389425D01*
X157428977Y-75594280D01*
X157374000Y-75812467D01*
X157363600Y-75944603D01*
X156210944Y-75944603D01*
X156383790Y-75879374D01*
X156585732Y-75760870D01*
X156764742Y-75609942D01*
X156801196Y-75566706D01*
X156915665Y-75430938D01*
X156915665Y-75430937D01*
X156915670Y-75430932D01*
X157034174Y-75228990D01*
X157116845Y-75009926D01*
X157161305Y-74780041D01*
X157164100Y-74727422D01*
X157164100Y-72790178D01*
X157162166Y-72753768D01*
X157178265Y-72685780D01*
X157228567Y-72637288D01*
X157297101Y-72623689D01*
X157362107Y-72649300D01*
X157402173Y-72703857D01*
X157419803Y-72751127D01*
X157419807Y-72751134D01*
X157506053Y-72866343D01*
X157506056Y-72866346D01*
X157621265Y-72952592D01*
X157621272Y-72952596D01*
X157756118Y-73002890D01*
X157756117Y-73002890D01*
X157763045Y-73003634D01*
X157815728Y-73009299D01*
X161411473Y-73009298D01*
X161471084Y-73002890D01*
X161605932Y-72952595D01*
X161721147Y-72866345D01*
X161807397Y-72751130D01*
X161857692Y-72616282D01*
X161864101Y-72556672D01*
X161864100Y-70185735D01*
X166297900Y-70185735D01*
X166297900Y-71841470D01*
X166297901Y-71841476D01*
X166304308Y-71901083D01*
X166354602Y-72035928D01*
X166354606Y-72035935D01*
X166440852Y-72151144D01*
X166440855Y-72151147D01*
X166556064Y-72237393D01*
X166556071Y-72237397D01*
X166690917Y-72287691D01*
X166690916Y-72287691D01*
X166697844Y-72288435D01*
X166750527Y-72294100D01*
X168406272Y-72294099D01*
X168465883Y-72287691D01*
X168600731Y-72237396D01*
X168715946Y-72151146D01*
X168802196Y-72035931D01*
X168852491Y-71901083D01*
X168858900Y-71841473D01*
X168858899Y-71013598D01*
X171293009Y-71013598D01*
X171293009Y-71013601D01*
X171312536Y-71236800D01*
X171312537Y-71236808D01*
X171370526Y-71453225D01*
X171370527Y-71453227D01*
X171370528Y-71453230D01*
X171418243Y-71555555D01*
X171465219Y-71656296D01*
X171465221Y-71656300D01*
X171593729Y-71839828D01*
X171593734Y-71839834D01*
X171752165Y-71998265D01*
X171752171Y-71998270D01*
X171935699Y-72126778D01*
X171935701Y-72126779D01*
X171935704Y-72126781D01*
X172138770Y-72221472D01*
X172355194Y-72279463D01*
X172514626Y-72293411D01*
X172578398Y-72298991D01*
X172578400Y-72298991D01*
X172578402Y-72298991D01*
X172634327Y-72294098D01*
X172801606Y-72279463D01*
X173018030Y-72221472D01*
X173221096Y-72126781D01*
X173404633Y-71998267D01*
X173563067Y-71839833D01*
X173691581Y-71656296D01*
X173786272Y-71453230D01*
X173844263Y-71236806D01*
X173863791Y-71013600D01*
X173844263Y-70790394D01*
X173786272Y-70573970D01*
X173691581Y-70370905D01*
X173563067Y-70187367D01*
X173404633Y-70028933D01*
X173404629Y-70028930D01*
X173404628Y-70028929D01*
X173221100Y-69900421D01*
X173221096Y-69900419D01*
X173168845Y-69876054D01*
X173018030Y-69805728D01*
X173018027Y-69805727D01*
X173018025Y-69805726D01*
X172801608Y-69747737D01*
X172801600Y-69747736D01*
X172578402Y-69728209D01*
X172578398Y-69728209D01*
X172355199Y-69747736D01*
X172355191Y-69747737D01*
X172138774Y-69805726D01*
X172138768Y-69805729D01*
X171935706Y-69900418D01*
X171935704Y-69900419D01*
X171752164Y-70028934D01*
X171593734Y-70187364D01*
X171465219Y-70370904D01*
X171465218Y-70370906D01*
X171370529Y-70573968D01*
X171370526Y-70573974D01*
X171312537Y-70790391D01*
X171312536Y-70790399D01*
X171293009Y-71013598D01*
X168858899Y-71013598D01*
X168858899Y-70185728D01*
X168852491Y-70126117D01*
X168816242Y-70028929D01*
X168802197Y-69991271D01*
X168802193Y-69991264D01*
X168715947Y-69876055D01*
X168715944Y-69876052D01*
X168600735Y-69789806D01*
X168600728Y-69789802D01*
X168465882Y-69739508D01*
X168465883Y-69739508D01*
X168406283Y-69733101D01*
X168406281Y-69733100D01*
X168406273Y-69733100D01*
X168406264Y-69733100D01*
X166750529Y-69733100D01*
X166750523Y-69733101D01*
X166690916Y-69739508D01*
X166556071Y-69789802D01*
X166556064Y-69789806D01*
X166440855Y-69876052D01*
X166440852Y-69876055D01*
X166354606Y-69991264D01*
X166354602Y-69991271D01*
X166304308Y-70126117D01*
X166297901Y-70185716D01*
X166297901Y-70185723D01*
X166297900Y-70185735D01*
X161864100Y-70185735D01*
X161864100Y-68960927D01*
X161857692Y-68901316D01*
X161850360Y-68881659D01*
X161807398Y-68766470D01*
X161807394Y-68766463D01*
X161721148Y-68651254D01*
X161721145Y-68651251D01*
X161605936Y-68565005D01*
X161605929Y-68565001D01*
X161471083Y-68514707D01*
X161471084Y-68514707D01*
X161411484Y-68508300D01*
X161411482Y-68508299D01*
X161411474Y-68508299D01*
X161411465Y-68508299D01*
X157815730Y-68508299D01*
X157815724Y-68508300D01*
X157756117Y-68514707D01*
X157621272Y-68565001D01*
X157621265Y-68565005D01*
X157506056Y-68651251D01*
X157506053Y-68651254D01*
X157419807Y-68766463D01*
X157419803Y-68766470D01*
X157369509Y-68901316D01*
X157363102Y-68960915D01*
X157363102Y-68960922D01*
X157363101Y-68960934D01*
X157363101Y-72486779D01*
X157343416Y-72553818D01*
X157290612Y-72599573D01*
X157221454Y-72609517D01*
X157157898Y-72580492D01*
X157120124Y-72521714D01*
X157117355Y-72510313D01*
X157116845Y-72507674D01*
X157034174Y-72288610D01*
X156915670Y-72086668D01*
X156915665Y-72086661D01*
X156764743Y-71907658D01*
X156764741Y-71907656D01*
X156585738Y-71756734D01*
X156585731Y-71756729D01*
X156383789Y-71638225D01*
X156293432Y-71604126D01*
X156164726Y-71555555D01*
X156164721Y-71555554D01*
X155934843Y-71511095D01*
X155882252Y-71508301D01*
X155882229Y-71508300D01*
X155882222Y-71508300D01*
X153944978Y-71508300D01*
X153944970Y-71508300D01*
X153944947Y-71508301D01*
X153892356Y-71511095D01*
X153892355Y-71511095D01*
X153662478Y-71555554D01*
X153662476Y-71555554D01*
X153662474Y-71555555D01*
X153588533Y-71583459D01*
X153443410Y-71638225D01*
X153241468Y-71756729D01*
X153241461Y-71756734D01*
X153062458Y-71907656D01*
X153062456Y-71907658D01*
X152911534Y-72086661D01*
X152911529Y-72086668D01*
X152793025Y-72288610D01*
X152751528Y-72398572D01*
X152710355Y-72507674D01*
X152710354Y-72507676D01*
X152710354Y-72507678D01*
X152665895Y-72737555D01*
X152665895Y-72737556D01*
X152663101Y-72790147D01*
X152663100Y-72790186D01*
X141062044Y-72790186D01*
X140907080Y-72211854D01*
X140907075Y-72211836D01*
X140885485Y-72155990D01*
X140802082Y-72038865D01*
X140802081Y-72038864D01*
X140689066Y-71949990D01*
X140555589Y-71896553D01*
X140475189Y-71888876D01*
X140410324Y-71862908D01*
X140369796Y-71805994D01*
X140366471Y-71736203D01*
X140376608Y-71709839D01*
X140376564Y-71709820D01*
X140376989Y-71708850D01*
X140377932Y-71706399D01*
X140378611Y-71705141D01*
X140378624Y-71705123D01*
X140471857Y-71492574D01*
X140528834Y-71267579D01*
X140528835Y-71267571D01*
X140548000Y-71036280D01*
X140548000Y-71036267D01*
X140535996Y-70891400D01*
X142220945Y-70891400D01*
X142241517Y-71100276D01*
X142302444Y-71301123D01*
X142401379Y-71486218D01*
X142401383Y-71486225D01*
X142534532Y-71648467D01*
X142696774Y-71781616D01*
X142696781Y-71781620D01*
X142808764Y-71841476D01*
X142881878Y-71880556D01*
X143082726Y-71941483D01*
X143291600Y-71962055D01*
X143500474Y-71941483D01*
X143701322Y-71880556D01*
X143886424Y-71781617D01*
X144048667Y-71648467D01*
X144181817Y-71486224D01*
X144280756Y-71301122D01*
X144341683Y-71100274D01*
X144362255Y-70891400D01*
X150160945Y-70891400D01*
X150181517Y-71100276D01*
X150242444Y-71301123D01*
X150341379Y-71486218D01*
X150341383Y-71486225D01*
X150474532Y-71648467D01*
X150636774Y-71781616D01*
X150636781Y-71781620D01*
X150748764Y-71841476D01*
X150821878Y-71880556D01*
X151022726Y-71941483D01*
X151231600Y-71962055D01*
X151440474Y-71941483D01*
X151641322Y-71880556D01*
X151826424Y-71781617D01*
X151988667Y-71648467D01*
X152121817Y-71486224D01*
X152220756Y-71301122D01*
X152281683Y-71100274D01*
X152302255Y-70891400D01*
X152281683Y-70682526D01*
X152220756Y-70481678D01*
X152177791Y-70401296D01*
X152121820Y-70296581D01*
X152121816Y-70296574D01*
X151988667Y-70134332D01*
X151826425Y-70001183D01*
X151826418Y-70001179D01*
X151641323Y-69902244D01*
X151440476Y-69841317D01*
X151231600Y-69820745D01*
X151022723Y-69841317D01*
X150821876Y-69902244D01*
X150636781Y-70001179D01*
X150636774Y-70001183D01*
X150474532Y-70134332D01*
X150341383Y-70296574D01*
X150341379Y-70296581D01*
X150242444Y-70481676D01*
X150181517Y-70682523D01*
X150160945Y-70891400D01*
X144362255Y-70891400D01*
X144341683Y-70682526D01*
X144280756Y-70481678D01*
X144237791Y-70401296D01*
X144181820Y-70296581D01*
X144181816Y-70296574D01*
X144048667Y-70134332D01*
X143886425Y-70001183D01*
X143886418Y-70001179D01*
X143701323Y-69902244D01*
X143500476Y-69841317D01*
X143291600Y-69820745D01*
X143082723Y-69841317D01*
X142881876Y-69902244D01*
X142696781Y-70001179D01*
X142696774Y-70001183D01*
X142534532Y-70134332D01*
X142401383Y-70296574D01*
X142401379Y-70296581D01*
X142302444Y-70481676D01*
X142241517Y-70682523D01*
X142220945Y-70891400D01*
X140535996Y-70891400D01*
X140528835Y-70804976D01*
X140528833Y-70804965D01*
X140471857Y-70579973D01*
X140378624Y-70367425D01*
X140251683Y-70173126D01*
X140251680Y-70173123D01*
X140251679Y-70173121D01*
X140094484Y-70002361D01*
X140094479Y-70002357D01*
X140094477Y-70002355D01*
X139911334Y-69859809D01*
X139911328Y-69859805D01*
X139781981Y-69789806D01*
X139708706Y-69750151D01*
X139659117Y-69700932D01*
X139644009Y-69632716D01*
X139668179Y-69567160D01*
X139723955Y-69525079D01*
X139754470Y-69517807D01*
X139767579Y-69516397D01*
X139902285Y-69466155D01*
X139902292Y-69466151D01*
X140017386Y-69379991D01*
X140017389Y-69379988D01*
X140103549Y-69264894D01*
X140103553Y-69264887D01*
X140153795Y-69130180D01*
X140153797Y-69130173D01*
X140160198Y-69070645D01*
X140160199Y-69070628D01*
X140160199Y-68372801D01*
X139135477Y-68372801D01*
X139147833Y-68351400D01*
X142220945Y-68351400D01*
X142241517Y-68560276D01*
X142302444Y-68761123D01*
X142401379Y-68946218D01*
X142401383Y-68946225D01*
X142534532Y-69108467D01*
X142696774Y-69241616D01*
X142696781Y-69241620D01*
X142740311Y-69264887D01*
X142881878Y-69340556D01*
X143082726Y-69401483D01*
X143291600Y-69422055D01*
X143500474Y-69401483D01*
X143701322Y-69340556D01*
X143886424Y-69241617D01*
X144048667Y-69108467D01*
X144181817Y-68946224D01*
X144280756Y-68761122D01*
X144341683Y-68560274D01*
X144362255Y-68351400D01*
X150160945Y-68351400D01*
X150181517Y-68560276D01*
X150242444Y-68761123D01*
X150341379Y-68946218D01*
X150341383Y-68946225D01*
X150474532Y-69108467D01*
X150636774Y-69241616D01*
X150636781Y-69241620D01*
X150680311Y-69264887D01*
X150821878Y-69340556D01*
X151022726Y-69401483D01*
X151231600Y-69422055D01*
X151440474Y-69401483D01*
X151641322Y-69340556D01*
X151826424Y-69241617D01*
X151988667Y-69108467D01*
X152121817Y-68946224D01*
X152220756Y-68761122D01*
X152281683Y-68560274D01*
X152302255Y-68351400D01*
X152281683Y-68142526D01*
X152220756Y-67941678D01*
X152169880Y-67846495D01*
X152121820Y-67756581D01*
X152121816Y-67756574D01*
X151988667Y-67594332D01*
X151826425Y-67461183D01*
X151826418Y-67461179D01*
X151641323Y-67362244D01*
X151440476Y-67301317D01*
X151231600Y-67280745D01*
X151022723Y-67301317D01*
X150821876Y-67362244D01*
X150636781Y-67461179D01*
X150636774Y-67461183D01*
X150474532Y-67594332D01*
X150341383Y-67756574D01*
X150341379Y-67756581D01*
X150242444Y-67941676D01*
X150181517Y-68142523D01*
X150160945Y-68351400D01*
X144362255Y-68351400D01*
X144341683Y-68142526D01*
X144280756Y-67941678D01*
X144229880Y-67846495D01*
X144181820Y-67756581D01*
X144181816Y-67756574D01*
X144048667Y-67594332D01*
X143886425Y-67461183D01*
X143886418Y-67461179D01*
X143701323Y-67362244D01*
X143500476Y-67301317D01*
X143291600Y-67280745D01*
X143082723Y-67301317D01*
X142881876Y-67362244D01*
X142696781Y-67461179D01*
X142696774Y-67461183D01*
X142534532Y-67594332D01*
X142401383Y-67756574D01*
X142401379Y-67756581D01*
X142302444Y-67941676D01*
X142241517Y-68142523D01*
X142220945Y-68351400D01*
X139147833Y-68351400D01*
X139179532Y-68296495D01*
X139210199Y-68182045D01*
X139210199Y-68063557D01*
X139179532Y-67949107D01*
X139135477Y-67872801D01*
X140160199Y-67872801D01*
X140160199Y-67174973D01*
X140160198Y-67174956D01*
X140153797Y-67115428D01*
X140153795Y-67115421D01*
X140103553Y-66980714D01*
X140103549Y-66980707D01*
X140017389Y-66865613D01*
X140017386Y-66865610D01*
X139902292Y-66779450D01*
X139902285Y-66779446D01*
X139821928Y-66749475D01*
X139765994Y-66707604D01*
X139741577Y-66642139D01*
X139756429Y-66573866D01*
X139774025Y-66549317D01*
X139869179Y-66445953D01*
X139996124Y-66251649D01*
X140089357Y-66039100D01*
X140146334Y-65814105D01*
X140146558Y-65811400D01*
X142220945Y-65811400D01*
X142241517Y-66020276D01*
X142302444Y-66221123D01*
X142401379Y-66406218D01*
X142401383Y-66406225D01*
X142534532Y-66568467D01*
X142696774Y-66701616D01*
X142696781Y-66701620D01*
X142842384Y-66779446D01*
X142881878Y-66800556D01*
X143082726Y-66861483D01*
X143291600Y-66882055D01*
X143500474Y-66861483D01*
X143701322Y-66800556D01*
X143886424Y-66701617D01*
X144048667Y-66568467D01*
X144181817Y-66406224D01*
X144280756Y-66221122D01*
X144341683Y-66020274D01*
X144362255Y-65811400D01*
X150160945Y-65811400D01*
X150181517Y-66020276D01*
X150242444Y-66221123D01*
X150341379Y-66406218D01*
X150341383Y-66406225D01*
X150474532Y-66568467D01*
X150636774Y-66701616D01*
X150636781Y-66701620D01*
X150782384Y-66779446D01*
X150821878Y-66800556D01*
X151022726Y-66861483D01*
X151231600Y-66882055D01*
X151440474Y-66861483D01*
X151641322Y-66800556D01*
X151826424Y-66701617D01*
X151988667Y-66568467D01*
X152121817Y-66406224D01*
X152217118Y-66227927D01*
X152266078Y-66178085D01*
X152334216Y-66162624D01*
X152399896Y-66186455D01*
X152442104Y-66241595D01*
X152444170Y-66246929D01*
X152543337Y-66446083D01*
X152543342Y-66446091D01*
X152677419Y-66623638D01*
X152841836Y-66773523D01*
X152841838Y-66773525D01*
X153030994Y-66890645D01*
X153030995Y-66890645D01*
X153030998Y-66890647D01*
X153238459Y-66971018D01*
X153457156Y-67011900D01*
X153457158Y-67011900D01*
X153679640Y-67011900D01*
X153679642Y-67011900D01*
X153898339Y-66971018D01*
X154105800Y-66890647D01*
X154294961Y-66773524D01*
X154459380Y-66623636D01*
X154593457Y-66446089D01*
X154692628Y-66246928D01*
X154753514Y-66032936D01*
X154774042Y-65811400D01*
X154774042Y-65811399D01*
X159982756Y-65811399D01*
X159982756Y-65811400D01*
X160003283Y-66032935D01*
X160003284Y-66032937D01*
X160064168Y-66246923D01*
X160064174Y-66246938D01*
X160163337Y-66446083D01*
X160163342Y-66446091D01*
X160297419Y-66623638D01*
X160461836Y-66773523D01*
X160461838Y-66773525D01*
X160650994Y-66890645D01*
X160650995Y-66890645D01*
X160650998Y-66890647D01*
X160858459Y-66971018D01*
X161077156Y-67011900D01*
X161077158Y-67011900D01*
X161299640Y-67011900D01*
X161299642Y-67011900D01*
X161518339Y-66971018D01*
X161725800Y-66890647D01*
X161914961Y-66773524D01*
X162079380Y-66623636D01*
X162213457Y-66446089D01*
X162312628Y-66246928D01*
X162373514Y-66032936D01*
X162394042Y-65811400D01*
X162393661Y-65807293D01*
X162373514Y-65589864D01*
X162373513Y-65589862D01*
X162371505Y-65582806D01*
X162312628Y-65375872D01*
X162303377Y-65357293D01*
X162213460Y-65176716D01*
X162213455Y-65176708D01*
X162203507Y-65163535D01*
X163941301Y-65163535D01*
X163941301Y-66459270D01*
X163941302Y-66459276D01*
X163947709Y-66518883D01*
X163998003Y-66653728D01*
X163998007Y-66653735D01*
X164084253Y-66768944D01*
X164084256Y-66768947D01*
X164199465Y-66855193D01*
X164199472Y-66855197D01*
X164334318Y-66905491D01*
X164334317Y-66905491D01*
X164341245Y-66906235D01*
X164393928Y-66911900D01*
X165689673Y-66911899D01*
X165749284Y-66905491D01*
X165884132Y-66855196D01*
X165999347Y-66768946D01*
X166016794Y-66745640D01*
X166461112Y-66745640D01*
X166549386Y-66800297D01*
X166739479Y-66873939D01*
X166939873Y-66911400D01*
X167143729Y-66911400D01*
X167344123Y-66873939D01*
X167534213Y-66800299D01*
X167534217Y-66800297D01*
X167622487Y-66745641D01*
X167622487Y-66745640D01*
X167041802Y-66164953D01*
X167041801Y-66164953D01*
X166461112Y-66745640D01*
X166016794Y-66745640D01*
X166085597Y-66653731D01*
X166135892Y-66518883D01*
X166142301Y-66459273D01*
X166142300Y-66408705D01*
X166161983Y-66341669D01*
X166178619Y-66321026D01*
X166688247Y-65811400D01*
X166688247Y-65811399D01*
X166648752Y-65771904D01*
X166741801Y-65771904D01*
X166741801Y-65850896D01*
X166762245Y-65927196D01*
X166801741Y-65995605D01*
X166857596Y-66051460D01*
X166926005Y-66090956D01*
X167002305Y-66111400D01*
X167081297Y-66111400D01*
X167157597Y-66090956D01*
X167226006Y-66051460D01*
X167281861Y-65995605D01*
X167321357Y-65927196D01*
X167341801Y-65850896D01*
X167341801Y-65811400D01*
X167395354Y-65811400D01*
X167979266Y-66395312D01*
X167981048Y-66392953D01*
X167981049Y-66392951D01*
X168071914Y-66210469D01*
X168071917Y-66210463D01*
X168127703Y-66014392D01*
X168127704Y-66014389D01*
X168146514Y-65811400D01*
X168146514Y-65811399D01*
X168127704Y-65608410D01*
X168127703Y-65608407D01*
X168071917Y-65412336D01*
X168071914Y-65412330D01*
X167981050Y-65229849D01*
X167981048Y-65229847D01*
X167979266Y-65227487D01*
X167395354Y-65811400D01*
X167341801Y-65811400D01*
X167341801Y-65771904D01*
X167321357Y-65695604D01*
X167281861Y-65627195D01*
X167226006Y-65571340D01*
X167157597Y-65531844D01*
X167081297Y-65511400D01*
X167002305Y-65511400D01*
X166926005Y-65531844D01*
X166857596Y-65571340D01*
X166801741Y-65627195D01*
X166762245Y-65695604D01*
X166741801Y-65771904D01*
X166648752Y-65771904D01*
X166178619Y-65301771D01*
X166145134Y-65240448D01*
X166142300Y-65214090D01*
X166142300Y-65163529D01*
X166142299Y-65163523D01*
X166142298Y-65163516D01*
X166135892Y-65103917D01*
X166117398Y-65054333D01*
X166085598Y-64969071D01*
X166085594Y-64969064D01*
X166016793Y-64877158D01*
X166461112Y-64877158D01*
X167041801Y-65457846D01*
X167041802Y-65457846D01*
X167622488Y-64877158D01*
X167534214Y-64822501D01*
X167534212Y-64822500D01*
X167344122Y-64748860D01*
X167143729Y-64711400D01*
X166939873Y-64711400D01*
X166739479Y-64748860D01*
X166549389Y-64822500D01*
X166549382Y-64822504D01*
X166461113Y-64877157D01*
X166461112Y-64877158D01*
X166016793Y-64877158D01*
X165999348Y-64853855D01*
X165999345Y-64853852D01*
X165884136Y-64767606D01*
X165884129Y-64767602D01*
X165749283Y-64717308D01*
X165749284Y-64717308D01*
X165689684Y-64710901D01*
X165689682Y-64710900D01*
X165689674Y-64710900D01*
X165689665Y-64710900D01*
X164393930Y-64710900D01*
X164393924Y-64710901D01*
X164334317Y-64717308D01*
X164199472Y-64767602D01*
X164199465Y-64767606D01*
X164084256Y-64853852D01*
X164084253Y-64853855D01*
X163998007Y-64969064D01*
X163998003Y-64969071D01*
X163947709Y-65103917D01*
X163941302Y-65163516D01*
X163941302Y-65163523D01*
X163941301Y-65163535D01*
X162203507Y-65163535D01*
X162079378Y-64999161D01*
X161914961Y-64849276D01*
X161914959Y-64849274D01*
X161725803Y-64732154D01*
X161725797Y-64732152D01*
X161518339Y-64651782D01*
X161299642Y-64610900D01*
X161077156Y-64610900D01*
X160858459Y-64651782D01*
X160727263Y-64702607D01*
X160651000Y-64732152D01*
X160650994Y-64732154D01*
X160461838Y-64849274D01*
X160461836Y-64849276D01*
X160297419Y-64999161D01*
X160163342Y-65176708D01*
X160163337Y-65176716D01*
X160064174Y-65375861D01*
X160064168Y-65375876D01*
X160003284Y-65589862D01*
X160003283Y-65589864D01*
X159982756Y-65811399D01*
X154774042Y-65811399D01*
X154773661Y-65807293D01*
X154753514Y-65589864D01*
X154753513Y-65589862D01*
X154751505Y-65582806D01*
X154692628Y-65375872D01*
X154683377Y-65357293D01*
X154593460Y-65176716D01*
X154593455Y-65176708D01*
X154459378Y-64999161D01*
X154294961Y-64849276D01*
X154294959Y-64849274D01*
X154105803Y-64732154D01*
X154105797Y-64732152D01*
X153898339Y-64651782D01*
X153679642Y-64610900D01*
X153457156Y-64610900D01*
X153238459Y-64651782D01*
X153107263Y-64702607D01*
X153031000Y-64732152D01*
X153030994Y-64732154D01*
X152841838Y-64849274D01*
X152841836Y-64849276D01*
X152677419Y-64999161D01*
X152543342Y-65176708D01*
X152543337Y-65176716D01*
X152444170Y-65375870D01*
X152442103Y-65381207D01*
X152399532Y-65436610D01*
X152333766Y-65460202D01*
X152265685Y-65444494D01*
X152217117Y-65394870D01*
X152121820Y-65216581D01*
X152121816Y-65216574D01*
X151988667Y-65054332D01*
X151826425Y-64921183D01*
X151826418Y-64921179D01*
X151641323Y-64822244D01*
X151440476Y-64761317D01*
X151231600Y-64740745D01*
X151022723Y-64761317D01*
X150821876Y-64822244D01*
X150636781Y-64921179D01*
X150636774Y-64921183D01*
X150474532Y-65054332D01*
X150341383Y-65216574D01*
X150341379Y-65216581D01*
X150242444Y-65401676D01*
X150181517Y-65602523D01*
X150160945Y-65811400D01*
X144362255Y-65811400D01*
X144341683Y-65602526D01*
X144280756Y-65401678D01*
X144266965Y-65375876D01*
X144181820Y-65216581D01*
X144181816Y-65216574D01*
X144048667Y-65054332D01*
X143886425Y-64921183D01*
X143886418Y-64921179D01*
X143701323Y-64822244D01*
X143500476Y-64761317D01*
X143291600Y-64740745D01*
X143082723Y-64761317D01*
X142881876Y-64822244D01*
X142696781Y-64921179D01*
X142696774Y-64921183D01*
X142534532Y-65054332D01*
X142401383Y-65216574D01*
X142401379Y-65216581D01*
X142302444Y-65401676D01*
X142241517Y-65602523D01*
X142220945Y-65811400D01*
X140146558Y-65811400D01*
X140165500Y-65582806D01*
X140165500Y-65582793D01*
X140146335Y-65351502D01*
X140146333Y-65351491D01*
X140089357Y-65126499D01*
X139996124Y-64913951D01*
X139869183Y-64719652D01*
X139869180Y-64719649D01*
X139869179Y-64719647D01*
X139711984Y-64548887D01*
X139652667Y-64502719D01*
X139611855Y-64446009D01*
X139608180Y-64376236D01*
X139642811Y-64315553D01*
X139704753Y-64283226D01*
X139747937Y-64282347D01*
X139756559Y-64283690D01*
X139899687Y-64270025D01*
X140033164Y-64216588D01*
X140146179Y-64127714D01*
X140146180Y-64127713D01*
X140229583Y-64010588D01*
X140251173Y-63954742D01*
X140251178Y-63954725D01*
X140431788Y-63280680D01*
X139441983Y-63015462D01*
X139504288Y-62953158D01*
X139563531Y-62850546D01*
X139594198Y-62736096D01*
X139594198Y-62617608D01*
X139571393Y-62532499D01*
X140561197Y-62797716D01*
X140598485Y-62658555D01*
X142226600Y-62658555D01*
X142226600Y-63021400D01*
X143025411Y-63021400D01*
X142999527Y-63047284D01*
X142951474Y-63130515D01*
X142926600Y-63223347D01*
X142926600Y-63319453D01*
X142951474Y-63412285D01*
X142999527Y-63495516D01*
X143025411Y-63521400D01*
X142226600Y-63521400D01*
X142226600Y-63884244D01*
X142233001Y-63943772D01*
X142233003Y-63943779D01*
X142283245Y-64078486D01*
X142283249Y-64078493D01*
X142369409Y-64193587D01*
X142369412Y-64193590D01*
X142484506Y-64279750D01*
X142484513Y-64279754D01*
X142619220Y-64329996D01*
X142619227Y-64329998D01*
X142678755Y-64336399D01*
X142678772Y-64336400D01*
X143041600Y-64336400D01*
X143041600Y-63537589D01*
X143067484Y-63563473D01*
X143150715Y-63611526D01*
X143243547Y-63636400D01*
X143339653Y-63636400D01*
X143432485Y-63611526D01*
X143515716Y-63563473D01*
X143541600Y-63537589D01*
X143541600Y-64336400D01*
X143904428Y-64336400D01*
X143904444Y-64336399D01*
X143963972Y-64329998D01*
X143963979Y-64329996D01*
X144098686Y-64279754D01*
X144098693Y-64279750D01*
X144213787Y-64193590D01*
X144213790Y-64193587D01*
X144299950Y-64078493D01*
X144299954Y-64078486D01*
X144350196Y-63943779D01*
X144350198Y-63943772D01*
X144356599Y-63884244D01*
X144356600Y-63884227D01*
X144356600Y-63521400D01*
X143557789Y-63521400D01*
X143583673Y-63495516D01*
X143631726Y-63412285D01*
X143656600Y-63319453D01*
X143656600Y-63271400D01*
X150160945Y-63271400D01*
X150181517Y-63480276D01*
X150242444Y-63681123D01*
X150341379Y-63866218D01*
X150341383Y-63866225D01*
X150474532Y-64028467D01*
X150636774Y-64161616D01*
X150636781Y-64161620D01*
X150782109Y-64239299D01*
X150821878Y-64260556D01*
X151022726Y-64321483D01*
X151231600Y-64342055D01*
X151440474Y-64321483D01*
X151641322Y-64260556D01*
X151826424Y-64161617D01*
X151988667Y-64028467D01*
X152121817Y-63866224D01*
X152220756Y-63681122D01*
X152281683Y-63480274D01*
X152302255Y-63271400D01*
X152281683Y-63062526D01*
X152220756Y-62861678D01*
X152121817Y-62676576D01*
X152121816Y-62676574D01*
X151988667Y-62514332D01*
X151826425Y-62381183D01*
X151826418Y-62381179D01*
X151641323Y-62282244D01*
X151440476Y-62221317D01*
X151231600Y-62200745D01*
X151022723Y-62221317D01*
X150821876Y-62282244D01*
X150636781Y-62381179D01*
X150636774Y-62381183D01*
X150474532Y-62514332D01*
X150341383Y-62676574D01*
X150341379Y-62676581D01*
X150242444Y-62861676D01*
X150181517Y-63062523D01*
X150160945Y-63271400D01*
X143656600Y-63271400D01*
X143656600Y-63223347D01*
X143631726Y-63130515D01*
X143583673Y-63047284D01*
X143557789Y-63021400D01*
X144356600Y-63021400D01*
X144356600Y-62658572D01*
X144356599Y-62658555D01*
X144350198Y-62599027D01*
X144350196Y-62599020D01*
X144299954Y-62464313D01*
X144299950Y-62464306D01*
X144213790Y-62349212D01*
X144213787Y-62349209D01*
X144098693Y-62263049D01*
X144098686Y-62263045D01*
X143963979Y-62212803D01*
X143963972Y-62212801D01*
X143904444Y-62206400D01*
X143541600Y-62206400D01*
X143541600Y-63005211D01*
X143515716Y-62979327D01*
X143432485Y-62931274D01*
X143339653Y-62906400D01*
X143243547Y-62906400D01*
X143150715Y-62931274D01*
X143067484Y-62979327D01*
X143041600Y-63005211D01*
X143041600Y-62206400D01*
X142678755Y-62206400D01*
X142619227Y-62212801D01*
X142619220Y-62212803D01*
X142484513Y-62263045D01*
X142484506Y-62263049D01*
X142369412Y-62349209D01*
X142369409Y-62349212D01*
X142283249Y-62464306D01*
X142283245Y-62464313D01*
X142233003Y-62599020D01*
X142233001Y-62599027D01*
X142226600Y-62658555D01*
X140598485Y-62658555D01*
X140741812Y-62123654D01*
X140751037Y-62064492D01*
X140751037Y-62064491D01*
X140737371Y-61921362D01*
X140683934Y-61787885D01*
X140595060Y-61674870D01*
X140595055Y-61674865D01*
X140526947Y-61626366D01*
X140483756Y-61571445D01*
X140477115Y-61501892D01*
X140509131Y-61439789D01*
X140539855Y-61416305D01*
X140570226Y-61399870D01*
X140753384Y-61257313D01*
X140910579Y-61086553D01*
X141037524Y-60892249D01*
X141130757Y-60679700D01*
X141187734Y-60454705D01*
X141191749Y-60406253D01*
X141206900Y-60223406D01*
X141206900Y-60223393D01*
X141187735Y-59992102D01*
X141187733Y-59992091D01*
X141130757Y-59767099D01*
X141076556Y-59643535D01*
X149683500Y-59643535D01*
X149683500Y-60869270D01*
X149683501Y-60869276D01*
X149689908Y-60928883D01*
X149740202Y-61063728D01*
X149740206Y-61063735D01*
X149826452Y-61178944D01*
X149826455Y-61178947D01*
X149941664Y-61265193D01*
X149941671Y-61265197D01*
X150076517Y-61315491D01*
X150076516Y-61315491D01*
X150083444Y-61316235D01*
X150136127Y-61321900D01*
X151361872Y-61321899D01*
X151421483Y-61315491D01*
X151556331Y-61265196D01*
X151671546Y-61178946D01*
X151757796Y-61063731D01*
X151808091Y-60928883D01*
X151814500Y-60869273D01*
X151814499Y-60256399D01*
X152218346Y-60256399D01*
X152238918Y-60465275D01*
X152299845Y-60666122D01*
X152398780Y-60851217D01*
X152398784Y-60851224D01*
X152531933Y-61013466D01*
X152694175Y-61146615D01*
X152694182Y-61146619D01*
X152754658Y-61178944D01*
X152879279Y-61245555D01*
X153080127Y-61306482D01*
X153289001Y-61327054D01*
X153497875Y-61306482D01*
X153698723Y-61245555D01*
X153883825Y-61146616D01*
X154046068Y-61013466D01*
X154179218Y-60851223D01*
X154278157Y-60666121D01*
X154339084Y-60465273D01*
X154359656Y-60256400D01*
X154758345Y-60256400D01*
X154778917Y-60465276D01*
X154839844Y-60666123D01*
X154938779Y-60851218D01*
X154938783Y-60851225D01*
X155071932Y-61013467D01*
X155234174Y-61146616D01*
X155234181Y-61146620D01*
X155367103Y-61217668D01*
X155419278Y-61245556D01*
X155620126Y-61306483D01*
X155829000Y-61327055D01*
X156037874Y-61306483D01*
X156238722Y-61245556D01*
X156423824Y-61146617D01*
X156586067Y-61013467D01*
X156719217Y-60851224D01*
X156818156Y-60666122D01*
X156879083Y-60465274D01*
X156899655Y-60256402D01*
X157298345Y-60256402D01*
X157318917Y-60465278D01*
X157379844Y-60666125D01*
X157478779Y-60851220D01*
X157478783Y-60851227D01*
X157611932Y-61013469D01*
X157774174Y-61146618D01*
X157774181Y-61146622D01*
X157959272Y-61245555D01*
X157959278Y-61245558D01*
X158160126Y-61306485D01*
X158369000Y-61327057D01*
X158577874Y-61306485D01*
X158778722Y-61245558D01*
X158963824Y-61146619D01*
X159126067Y-61013469D01*
X159259217Y-60851226D01*
X159358156Y-60666124D01*
X159419083Y-60465276D01*
X159439655Y-60256402D01*
X159439655Y-60256401D01*
X159838344Y-60256401D01*
X159858916Y-60465277D01*
X159919843Y-60666124D01*
X160018778Y-60851219D01*
X160018782Y-60851226D01*
X160151931Y-61013468D01*
X160314173Y-61146617D01*
X160314180Y-61146621D01*
X160447100Y-61217668D01*
X160499277Y-61245557D01*
X160700125Y-61306484D01*
X160908999Y-61327056D01*
X161117873Y-61306484D01*
X161318721Y-61245557D01*
X161503823Y-61146618D01*
X161666066Y-61013468D01*
X161799216Y-60851225D01*
X161898155Y-60666123D01*
X161959082Y-60465275D01*
X161979654Y-60256401D01*
X161979654Y-60256400D01*
X162378345Y-60256400D01*
X162398917Y-60465276D01*
X162459844Y-60666123D01*
X162558779Y-60851218D01*
X162558783Y-60851225D01*
X162691932Y-61013467D01*
X162854174Y-61146616D01*
X162854181Y-61146620D01*
X162987103Y-61217668D01*
X163039278Y-61245556D01*
X163240126Y-61306483D01*
X163449000Y-61327055D01*
X163657874Y-61306483D01*
X163858722Y-61245556D01*
X164043824Y-61146617D01*
X164206067Y-61013467D01*
X164339217Y-60851224D01*
X164438156Y-60666122D01*
X164499083Y-60465274D01*
X164519655Y-60256400D01*
X164499083Y-60047526D01*
X164438156Y-59846678D01*
X164395620Y-59767099D01*
X164339220Y-59661581D01*
X164339216Y-59661574D01*
X164206067Y-59499332D01*
X164043825Y-59366183D01*
X164043818Y-59366179D01*
X163858723Y-59267244D01*
X163657876Y-59206317D01*
X163449000Y-59185745D01*
X163240123Y-59206317D01*
X163039276Y-59267244D01*
X162854181Y-59366179D01*
X162854174Y-59366183D01*
X162691932Y-59499332D01*
X162558783Y-59661574D01*
X162558779Y-59661581D01*
X162459844Y-59846676D01*
X162398917Y-60047523D01*
X162378345Y-60256400D01*
X161979654Y-60256400D01*
X161959082Y-60047527D01*
X161898155Y-59846679D01*
X161804887Y-59672187D01*
X161799219Y-59661582D01*
X161799215Y-59661575D01*
X161666066Y-59499333D01*
X161503824Y-59366184D01*
X161503817Y-59366180D01*
X161318722Y-59267245D01*
X161117875Y-59206318D01*
X160908999Y-59185746D01*
X160700122Y-59206318D01*
X160499275Y-59267245D01*
X160314180Y-59366180D01*
X160314173Y-59366184D01*
X160151931Y-59499333D01*
X160018782Y-59661575D01*
X160018778Y-59661582D01*
X159919843Y-59846677D01*
X159858916Y-60047524D01*
X159838344Y-60256401D01*
X159439655Y-60256401D01*
X159419083Y-60047528D01*
X159358156Y-59846680D01*
X159315619Y-59767099D01*
X159259220Y-59661583D01*
X159259216Y-59661576D01*
X159126067Y-59499334D01*
X158963825Y-59366185D01*
X158963818Y-59366181D01*
X158778723Y-59267246D01*
X158577876Y-59206319D01*
X158369000Y-59185747D01*
X158160123Y-59206319D01*
X157959276Y-59267246D01*
X157774181Y-59366181D01*
X157774174Y-59366185D01*
X157611932Y-59499334D01*
X157478783Y-59661576D01*
X157478779Y-59661583D01*
X157379844Y-59846678D01*
X157318917Y-60047525D01*
X157298345Y-60256402D01*
X156899655Y-60256402D01*
X156899655Y-60256400D01*
X156879083Y-60047526D01*
X156818156Y-59846678D01*
X156775620Y-59767099D01*
X156719220Y-59661581D01*
X156719216Y-59661574D01*
X156586067Y-59499332D01*
X156423825Y-59366183D01*
X156423818Y-59366179D01*
X156238723Y-59267244D01*
X156037876Y-59206317D01*
X155829000Y-59185745D01*
X155620123Y-59206317D01*
X155419276Y-59267244D01*
X155234181Y-59366179D01*
X155234174Y-59366183D01*
X155071932Y-59499332D01*
X154938783Y-59661574D01*
X154938779Y-59661581D01*
X154839844Y-59846676D01*
X154778917Y-60047523D01*
X154758345Y-60256400D01*
X154359656Y-60256400D01*
X154359656Y-60256399D01*
X154339084Y-60047525D01*
X154278157Y-59846677D01*
X154216514Y-59731351D01*
X154179221Y-59661580D01*
X154179217Y-59661573D01*
X154046068Y-59499331D01*
X153883826Y-59366182D01*
X153883819Y-59366178D01*
X153698724Y-59267243D01*
X153497877Y-59206316D01*
X153289001Y-59185744D01*
X153080124Y-59206316D01*
X152879277Y-59267243D01*
X152694182Y-59366178D01*
X152694175Y-59366182D01*
X152531933Y-59499331D01*
X152398784Y-59661573D01*
X152398780Y-59661580D01*
X152299845Y-59846675D01*
X152238918Y-60047522D01*
X152218346Y-60256399D01*
X151814499Y-60256399D01*
X151814499Y-59643528D01*
X151808091Y-59583917D01*
X151797139Y-59554554D01*
X151757797Y-59449071D01*
X151757793Y-59449064D01*
X151671547Y-59333855D01*
X151671544Y-59333852D01*
X151556335Y-59247606D01*
X151556328Y-59247602D01*
X151421482Y-59197308D01*
X151421483Y-59197308D01*
X151361883Y-59190901D01*
X151361881Y-59190900D01*
X151361873Y-59190900D01*
X151361864Y-59190900D01*
X150136129Y-59190900D01*
X150136123Y-59190901D01*
X150076516Y-59197308D01*
X149941671Y-59247602D01*
X149941664Y-59247606D01*
X149826455Y-59333852D01*
X149826452Y-59333855D01*
X149740206Y-59449064D01*
X149740202Y-59449071D01*
X149689908Y-59583917D01*
X149683501Y-59643516D01*
X149683501Y-59643523D01*
X149683500Y-59643535D01*
X141076556Y-59643535D01*
X141037525Y-59554554D01*
X141037524Y-59554551D01*
X140946481Y-59415199D01*
X140926295Y-59348312D01*
X140945475Y-59281127D01*
X140997933Y-59234976D01*
X141067015Y-59224513D01*
X141087099Y-59230199D01*
X141087383Y-59229254D01*
X141094817Y-59231485D01*
X141236599Y-59255326D01*
X141236601Y-59255327D01*
X141379361Y-59238256D01*
X141511534Y-59181658D01*
X141622401Y-59090118D01*
X141622404Y-59090114D01*
X141657720Y-59041749D01*
X141657723Y-59041744D01*
X142006634Y-58437411D01*
X142006634Y-58437410D01*
X141119200Y-57925049D01*
X141195505Y-57880995D01*
X141279289Y-57797211D01*
X141338532Y-57694599D01*
X141369199Y-57580149D01*
X141369199Y-57492037D01*
X142256633Y-58004398D01*
X142256634Y-58004398D01*
X142605545Y-57400069D01*
X142629777Y-57345292D01*
X142629779Y-57345286D01*
X142653620Y-57203504D01*
X142653621Y-57203502D01*
X142636550Y-57060742D01*
X142579953Y-56928572D01*
X142526197Y-56863466D01*
X142498693Y-56799237D01*
X142510279Y-56730335D01*
X142557278Y-56678635D01*
X142581554Y-56667235D01*
X142753692Y-56608140D01*
X142753695Y-56608138D01*
X142753703Y-56608136D01*
X142957826Y-56497670D01*
X143140984Y-56355113D01*
X143298179Y-56184353D01*
X143425124Y-55990049D01*
X143518357Y-55777500D01*
X143575334Y-55552505D01*
X143579779Y-55498865D01*
X143594500Y-55321206D01*
X143594500Y-55321193D01*
X143575335Y-55089902D01*
X143575334Y-55089899D01*
X143575334Y-55089895D01*
X143518357Y-54864900D01*
X143518356Y-54864898D01*
X143517769Y-54862579D01*
X143520394Y-54792758D01*
X143560350Y-54735441D01*
X143624951Y-54708824D01*
X143693687Y-54721358D01*
X143700476Y-54725152D01*
X143832229Y-54785323D01*
X143832234Y-54785324D01*
X143974548Y-54805784D01*
X144116861Y-54785324D01*
X144116866Y-54785323D01*
X144247645Y-54725597D01*
X144294280Y-54688017D01*
X144787720Y-54194577D01*
X144787720Y-54194576D01*
X144063133Y-53469989D01*
X144148242Y-53447184D01*
X144250854Y-53387941D01*
X144334638Y-53304157D01*
X144393881Y-53201545D01*
X144416686Y-53116436D01*
X145141273Y-53841023D01*
X145141274Y-53841023D01*
X145634714Y-53347583D01*
X145672294Y-53300948D01*
X145732020Y-53170169D01*
X145732021Y-53170164D01*
X145752481Y-53027851D01*
X145732021Y-52885537D01*
X145732020Y-52885532D01*
X145696526Y-52807812D01*
X145686582Y-52738653D01*
X145715607Y-52675097D01*
X145774385Y-52637323D01*
X145809320Y-52632300D01*
X145886648Y-52632300D01*
X145886649Y-52632300D01*
X146115581Y-52594098D01*
X146335103Y-52518736D01*
X146539226Y-52408270D01*
X146548855Y-52400776D01*
X146657261Y-52316400D01*
X149678346Y-52316400D01*
X149698918Y-52525276D01*
X149759845Y-52726123D01*
X149858780Y-52911218D01*
X149858784Y-52911225D01*
X149991933Y-53073467D01*
X150154175Y-53206616D01*
X150154182Y-53206620D01*
X150330609Y-53300922D01*
X150339279Y-53305556D01*
X150540127Y-53366483D01*
X150749001Y-53387055D01*
X150957875Y-53366483D01*
X151158723Y-53305556D01*
X151343825Y-53206617D01*
X151506068Y-53073467D01*
X151639218Y-52911224D01*
X151738157Y-52726122D01*
X151799084Y-52525274D01*
X151819656Y-52316400D01*
X151819656Y-52316398D01*
X152218345Y-52316398D01*
X152238917Y-52525274D01*
X152299844Y-52726121D01*
X152398779Y-52911216D01*
X152398783Y-52911223D01*
X152531932Y-53073464D01*
X152531933Y-53073465D01*
X152643165Y-53164750D01*
X152682499Y-53222495D01*
X152688500Y-53260603D01*
X152688500Y-55996530D01*
X152688499Y-55996548D01*
X152688499Y-56162254D01*
X152688498Y-56162254D01*
X152729424Y-56314989D01*
X152729425Y-56314990D01*
X152751202Y-56352708D01*
X152751203Y-56352709D01*
X152808477Y-56451912D01*
X152808481Y-56451917D01*
X152927349Y-56570785D01*
X152927355Y-56570790D01*
X153185139Y-56828574D01*
X153185149Y-56828585D01*
X153189479Y-56832915D01*
X153189480Y-56832916D01*
X153301284Y-56944720D01*
X153301286Y-56944721D01*
X153301290Y-56944724D01*
X153438209Y-57023773D01*
X153438216Y-57023777D01*
X153550019Y-57053734D01*
X153590942Y-57064700D01*
X153590943Y-57064700D01*
X165264500Y-57064700D01*
X165331539Y-57084385D01*
X165377294Y-57137189D01*
X165388500Y-57188700D01*
X165388500Y-59312195D01*
X165368815Y-59379234D01*
X165343165Y-59408048D01*
X165231932Y-59499334D01*
X165098783Y-59661576D01*
X165098779Y-59661583D01*
X164999844Y-59846678D01*
X164938917Y-60047525D01*
X164918345Y-60256402D01*
X164938917Y-60465278D01*
X164999844Y-60666125D01*
X165098779Y-60851220D01*
X165098783Y-60851227D01*
X165231932Y-61013469D01*
X165394174Y-61146618D01*
X165394181Y-61146622D01*
X165579272Y-61245555D01*
X165579278Y-61245558D01*
X165780126Y-61306485D01*
X165989000Y-61327057D01*
X166197874Y-61306485D01*
X166398722Y-61245558D01*
X166583824Y-61146619D01*
X166746067Y-61013469D01*
X166879217Y-60851226D01*
X166978156Y-60666124D01*
X167039083Y-60465276D01*
X167059655Y-60256402D01*
X167059655Y-60256400D01*
X167458846Y-60256400D01*
X167479408Y-60465174D01*
X167540308Y-60665934D01*
X167618891Y-60812952D01*
X167618892Y-60812952D01*
X168163999Y-60267845D01*
X168163999Y-60304453D01*
X168188873Y-60397285D01*
X168236926Y-60480516D01*
X168304883Y-60548473D01*
X168388114Y-60596526D01*
X168480946Y-60621400D01*
X168517552Y-60621400D01*
X167972444Y-61166506D01*
X168119464Y-61245090D01*
X168320226Y-61305990D01*
X168320222Y-61305990D01*
X168528999Y-61326552D01*
X168737773Y-61305990D01*
X168938531Y-61245090D01*
X169085552Y-61166505D01*
X168540447Y-60621400D01*
X168577052Y-60621400D01*
X168669884Y-60596526D01*
X168753115Y-60548473D01*
X168821072Y-60480516D01*
X168869125Y-60397285D01*
X168893999Y-60304453D01*
X168893999Y-60267847D01*
X169439104Y-60812952D01*
X169517689Y-60665932D01*
X169578589Y-60465174D01*
X169599151Y-60256400D01*
X169578589Y-60047625D01*
X169517689Y-59846865D01*
X169439105Y-59699845D01*
X168893999Y-60244951D01*
X168893999Y-60208347D01*
X168869125Y-60115515D01*
X168821072Y-60032284D01*
X168753115Y-59964327D01*
X168669884Y-59916274D01*
X168577052Y-59891400D01*
X168540446Y-59891400D01*
X169085551Y-59346293D01*
X169085551Y-59346292D01*
X168938533Y-59267709D01*
X168737771Y-59206809D01*
X168737775Y-59206809D01*
X168528999Y-59186247D01*
X168320224Y-59206809D01*
X168119470Y-59267707D01*
X167972445Y-59346293D01*
X168517553Y-59891400D01*
X168480946Y-59891400D01*
X168388114Y-59916274D01*
X168304883Y-59964327D01*
X168236926Y-60032284D01*
X168188873Y-60115515D01*
X168163999Y-60208347D01*
X168163999Y-60244953D01*
X167618892Y-59699846D01*
X167540306Y-59846871D01*
X167479408Y-60047625D01*
X167458846Y-60256400D01*
X167059655Y-60256400D01*
X167039083Y-60047528D01*
X166978156Y-59846680D01*
X166935619Y-59767099D01*
X166879220Y-59661583D01*
X166879216Y-59661576D01*
X166746067Y-59499334D01*
X166634835Y-59408048D01*
X166595501Y-59350302D01*
X166589500Y-59312195D01*
X166589500Y-56715342D01*
X166587915Y-56709427D01*
X166587914Y-56709422D01*
X166548577Y-56562615D01*
X166511081Y-56497670D01*
X166511081Y-56497669D01*
X166469524Y-56425690D01*
X166469521Y-56425686D01*
X166469520Y-56425684D01*
X166357716Y-56313880D01*
X166357715Y-56313879D01*
X166353385Y-56309549D01*
X166353374Y-56309539D01*
X166146390Y-56102555D01*
X166146388Y-56102552D01*
X166027517Y-55983681D01*
X166027512Y-55983677D01*
X165929530Y-55927108D01*
X165929529Y-55927107D01*
X165890590Y-55904625D01*
X165890589Y-55904624D01*
X165878063Y-55901267D01*
X165737857Y-55863699D01*
X165579743Y-55863699D01*
X165572147Y-55863699D01*
X165572131Y-55863700D01*
X154013500Y-55863700D01*
X153946461Y-55844015D01*
X153900706Y-55791211D01*
X153889500Y-55739700D01*
X153889500Y-53260603D01*
X153909185Y-53193564D01*
X153934833Y-53164751D01*
X154046067Y-53073465D01*
X154179217Y-52911222D01*
X154278156Y-52726120D01*
X154339083Y-52525272D01*
X154359655Y-52316400D01*
X154758345Y-52316400D01*
X154778917Y-52525276D01*
X154839844Y-52726123D01*
X154938779Y-52911218D01*
X154938783Y-52911225D01*
X155071932Y-53073467D01*
X155234174Y-53206616D01*
X155234181Y-53206620D01*
X155410608Y-53300922D01*
X155419278Y-53305556D01*
X155620126Y-53366483D01*
X155829000Y-53387055D01*
X156037874Y-53366483D01*
X156238722Y-53305556D01*
X156423824Y-53206617D01*
X156586067Y-53073467D01*
X156719217Y-52911224D01*
X156818156Y-52726122D01*
X156879083Y-52525274D01*
X156899655Y-52316400D01*
X156899655Y-52316399D01*
X157298848Y-52316399D01*
X157319410Y-52525173D01*
X157380310Y-52725933D01*
X157458893Y-52872951D01*
X157458894Y-52872951D01*
X158004001Y-52327844D01*
X158004001Y-52364452D01*
X158028875Y-52457284D01*
X158076928Y-52540515D01*
X158144885Y-52608472D01*
X158228116Y-52656525D01*
X158320948Y-52681399D01*
X158357554Y-52681399D01*
X157812446Y-53226505D01*
X157959466Y-53305089D01*
X158160228Y-53365989D01*
X158160224Y-53365989D01*
X158369001Y-53386551D01*
X158577775Y-53365989D01*
X158778533Y-53305089D01*
X158925554Y-53226504D01*
X158380449Y-52681399D01*
X158417054Y-52681399D01*
X158509886Y-52656525D01*
X158593117Y-52608472D01*
X158661074Y-52540515D01*
X158709127Y-52457284D01*
X158734001Y-52364452D01*
X158734001Y-52327846D01*
X159279106Y-52872951D01*
X159357691Y-52725931D01*
X159418591Y-52525173D01*
X159439153Y-52316399D01*
X159439153Y-52316398D01*
X159838345Y-52316398D01*
X159858917Y-52525274D01*
X159919844Y-52726121D01*
X160018779Y-52911216D01*
X160018783Y-52911223D01*
X160151932Y-53073465D01*
X160314174Y-53206614D01*
X160314181Y-53206618D01*
X160496664Y-53304157D01*
X160499278Y-53305554D01*
X160700126Y-53366481D01*
X160909000Y-53387053D01*
X161117874Y-53366481D01*
X161318722Y-53305554D01*
X161503824Y-53206615D01*
X161666067Y-53073465D01*
X161799217Y-52911222D01*
X161898156Y-52726120D01*
X161959083Y-52525272D01*
X161979655Y-52316400D01*
X162378345Y-52316400D01*
X162398917Y-52525276D01*
X162459844Y-52726123D01*
X162558779Y-52911218D01*
X162558783Y-52911225D01*
X162691932Y-53073467D01*
X162854174Y-53206616D01*
X162854181Y-53206620D01*
X163030608Y-53300922D01*
X163039278Y-53305556D01*
X163240126Y-53366483D01*
X163449000Y-53387055D01*
X163657874Y-53366483D01*
X163858722Y-53305556D01*
X164043824Y-53206617D01*
X164206067Y-53073467D01*
X164339217Y-52911224D01*
X164438156Y-52726122D01*
X164499083Y-52525274D01*
X164519655Y-52316401D01*
X164918344Y-52316401D01*
X164938916Y-52525277D01*
X164999843Y-52726124D01*
X165098778Y-52911219D01*
X165098782Y-52911226D01*
X165231931Y-53073468D01*
X165394173Y-53206617D01*
X165394180Y-53206621D01*
X165579271Y-53305554D01*
X165579277Y-53305557D01*
X165780125Y-53366484D01*
X165988999Y-53387056D01*
X166197873Y-53366484D01*
X166398721Y-53305557D01*
X166583823Y-53206618D01*
X166746066Y-53073468D01*
X166879216Y-52911225D01*
X166978155Y-52726123D01*
X167039082Y-52525275D01*
X167059654Y-52316401D01*
X167059654Y-52316400D01*
X167458345Y-52316400D01*
X167478917Y-52525276D01*
X167539844Y-52726123D01*
X167638779Y-52911218D01*
X167638783Y-52911225D01*
X167771932Y-53073467D01*
X167934174Y-53206616D01*
X167934181Y-53206620D01*
X168110608Y-53300922D01*
X168119278Y-53305556D01*
X168320126Y-53366483D01*
X168529000Y-53387055D01*
X168737874Y-53366483D01*
X168938722Y-53305556D01*
X169123824Y-53206617D01*
X169286067Y-53073467D01*
X169419217Y-52911224D01*
X169518156Y-52726122D01*
X169579083Y-52525274D01*
X169599655Y-52316400D01*
X169579083Y-52107526D01*
X169518156Y-51906678D01*
X169518154Y-51906674D01*
X169419220Y-51721581D01*
X169419216Y-51721574D01*
X169286067Y-51559332D01*
X169123825Y-51426183D01*
X169123818Y-51426179D01*
X168938723Y-51327244D01*
X168737876Y-51266317D01*
X168529000Y-51245745D01*
X168320123Y-51266317D01*
X168119276Y-51327244D01*
X167934181Y-51426179D01*
X167934174Y-51426183D01*
X167771932Y-51559332D01*
X167638783Y-51721574D01*
X167638779Y-51721581D01*
X167539844Y-51906676D01*
X167478917Y-52107523D01*
X167458345Y-52316400D01*
X167059654Y-52316400D01*
X167039082Y-52107527D01*
X166978155Y-51906679D01*
X166899670Y-51759844D01*
X166879219Y-51721582D01*
X166879215Y-51721575D01*
X166746066Y-51559333D01*
X166583824Y-51426184D01*
X166583817Y-51426180D01*
X166398722Y-51327245D01*
X166197875Y-51266318D01*
X165988999Y-51245746D01*
X165780122Y-51266318D01*
X165579275Y-51327245D01*
X165394180Y-51426180D01*
X165394173Y-51426184D01*
X165231931Y-51559333D01*
X165098782Y-51721575D01*
X165098778Y-51721582D01*
X164999843Y-51906677D01*
X164938916Y-52107524D01*
X164918344Y-52316401D01*
X164519655Y-52316401D01*
X164519655Y-52316400D01*
X164499083Y-52107526D01*
X164438156Y-51906678D01*
X164438154Y-51906674D01*
X164339220Y-51721581D01*
X164339216Y-51721574D01*
X164206067Y-51559332D01*
X164043825Y-51426183D01*
X164043818Y-51426179D01*
X163858723Y-51327244D01*
X163657876Y-51266317D01*
X163449000Y-51245745D01*
X163240123Y-51266317D01*
X163039276Y-51327244D01*
X162854181Y-51426179D01*
X162854174Y-51426183D01*
X162691932Y-51559332D01*
X162558783Y-51721574D01*
X162558779Y-51721581D01*
X162459844Y-51906676D01*
X162398917Y-52107523D01*
X162378345Y-52316400D01*
X161979655Y-52316400D01*
X161979655Y-52316398D01*
X161959083Y-52107524D01*
X161898156Y-51906676D01*
X161878701Y-51870278D01*
X161799220Y-51721579D01*
X161799216Y-51721572D01*
X161666067Y-51559330D01*
X161503825Y-51426181D01*
X161503818Y-51426177D01*
X161318723Y-51327242D01*
X161117876Y-51266315D01*
X160909000Y-51245743D01*
X160700123Y-51266315D01*
X160499276Y-51327242D01*
X160314181Y-51426177D01*
X160314174Y-51426181D01*
X160151932Y-51559330D01*
X160018783Y-51721572D01*
X160018779Y-51721579D01*
X159919844Y-51906674D01*
X159858917Y-52107521D01*
X159838345Y-52316398D01*
X159439153Y-52316398D01*
X159418591Y-52107624D01*
X159357691Y-51906864D01*
X159279107Y-51759844D01*
X158734001Y-52304950D01*
X158734001Y-52268346D01*
X158709127Y-52175514D01*
X158661074Y-52092283D01*
X158593117Y-52024326D01*
X158509886Y-51976273D01*
X158417054Y-51951399D01*
X158380448Y-51951399D01*
X158925553Y-51406292D01*
X158925553Y-51406291D01*
X158778535Y-51327708D01*
X158577773Y-51266808D01*
X158577777Y-51266808D01*
X158369001Y-51246246D01*
X158160226Y-51266808D01*
X157959472Y-51327706D01*
X157812447Y-51406292D01*
X158357555Y-51951399D01*
X158320948Y-51951399D01*
X158228116Y-51976273D01*
X158144885Y-52024326D01*
X158076928Y-52092283D01*
X158028875Y-52175514D01*
X158004001Y-52268346D01*
X158004001Y-52304952D01*
X157458894Y-51759845D01*
X157380308Y-51906870D01*
X157319410Y-52107624D01*
X157298848Y-52316399D01*
X156899655Y-52316399D01*
X156879083Y-52107526D01*
X156818156Y-51906678D01*
X156818154Y-51906674D01*
X156719220Y-51721581D01*
X156719216Y-51721574D01*
X156586067Y-51559332D01*
X156423825Y-51426183D01*
X156423818Y-51426179D01*
X156238723Y-51327244D01*
X156037876Y-51266317D01*
X155829000Y-51245745D01*
X155620123Y-51266317D01*
X155419276Y-51327244D01*
X155234181Y-51426179D01*
X155234174Y-51426183D01*
X155071932Y-51559332D01*
X154938783Y-51721574D01*
X154938779Y-51721581D01*
X154839844Y-51906676D01*
X154778917Y-52107523D01*
X154758345Y-52316400D01*
X154359655Y-52316400D01*
X154359655Y-52316398D01*
X154339083Y-52107524D01*
X154278156Y-51906676D01*
X154258701Y-51870278D01*
X154179220Y-51721579D01*
X154179216Y-51721572D01*
X154046067Y-51559330D01*
X153883825Y-51426181D01*
X153883818Y-51426177D01*
X153698723Y-51327242D01*
X153497876Y-51266315D01*
X153289000Y-51245743D01*
X153080123Y-51266315D01*
X152879276Y-51327242D01*
X152694181Y-51426177D01*
X152694174Y-51426181D01*
X152531932Y-51559330D01*
X152398783Y-51721572D01*
X152398779Y-51721579D01*
X152299844Y-51906674D01*
X152238917Y-52107521D01*
X152218345Y-52316398D01*
X151819656Y-52316398D01*
X151799084Y-52107526D01*
X151738157Y-51906678D01*
X151738155Y-51906674D01*
X151639221Y-51721581D01*
X151639217Y-51721574D01*
X151506068Y-51559332D01*
X151343826Y-51426183D01*
X151343819Y-51426179D01*
X151158724Y-51327244D01*
X150957877Y-51266317D01*
X150749001Y-51245745D01*
X150540124Y-51266317D01*
X150339277Y-51327244D01*
X150154182Y-51426179D01*
X150154175Y-51426183D01*
X149991933Y-51559332D01*
X149858784Y-51721574D01*
X149858780Y-51721581D01*
X149759845Y-51906676D01*
X149698918Y-52107523D01*
X149678346Y-52316400D01*
X146657261Y-52316400D01*
X146657262Y-52316399D01*
X146722384Y-52265713D01*
X146879579Y-52094953D01*
X147006524Y-51900649D01*
X147099757Y-51688100D01*
X147156734Y-51463105D01*
X147156735Y-51463097D01*
X147175900Y-51231806D01*
X147175900Y-51231794D01*
X147162299Y-51067657D01*
X147176380Y-50999221D01*
X147225225Y-50949262D01*
X147293326Y-50933641D01*
X147359062Y-50957318D01*
X147386019Y-50984293D01*
X147414289Y-51023009D01*
X147414292Y-51023013D01*
X147525159Y-51114553D01*
X147657332Y-51171151D01*
X147800092Y-51188222D01*
X147800094Y-51188221D01*
X147941876Y-51164380D01*
X147941882Y-51164378D01*
X147996659Y-51140146D01*
X148600988Y-50791235D01*
X148600988Y-50791234D01*
X148088627Y-49903800D01*
X148176739Y-49903800D01*
X148291189Y-49873133D01*
X148393801Y-49813890D01*
X148477585Y-49730106D01*
X148521639Y-49653801D01*
X149034000Y-50541235D01*
X149034001Y-50541235D01*
X149638334Y-50192324D01*
X149638339Y-50192321D01*
X149686704Y-50157005D01*
X149686708Y-50157002D01*
X149778248Y-50046135D01*
X149834846Y-49913962D01*
X149851917Y-49771202D01*
X149851917Y-49771201D01*
X149838336Y-49690441D01*
X149846630Y-49621065D01*
X149891116Y-49567187D01*
X149957667Y-49545912D01*
X149981027Y-49547567D01*
X150201151Y-49584300D01*
X150201152Y-49584300D01*
X150433248Y-49584300D01*
X150433249Y-49584300D01*
X150662181Y-49546098D01*
X150881703Y-49470736D01*
X151085826Y-49360270D01*
X151097828Y-49350929D01*
X151188821Y-49280106D01*
X151268984Y-49217713D01*
X151426179Y-49046953D01*
X151553124Y-48852649D01*
X151646357Y-48640100D01*
X151703334Y-48415105D01*
X151703557Y-48412408D01*
X151703956Y-48411374D01*
X151704177Y-48410051D01*
X151704449Y-48410096D01*
X151728701Y-48347224D01*
X151785097Y-48305978D01*
X151854840Y-48301770D01*
X151915786Y-48335936D01*
X151942792Y-48377922D01*
X151959963Y-48422337D01*
X152043365Y-48539461D01*
X152043366Y-48539462D01*
X152156381Y-48628336D01*
X152289858Y-48681773D01*
X152432987Y-48695439D01*
X152432988Y-48695439D01*
X152492150Y-48686214D01*
X153166212Y-48505599D01*
X152900995Y-47515795D01*
X152986104Y-47538600D01*
X153104592Y-47538600D01*
X153219042Y-47507933D01*
X153321654Y-47448690D01*
X153383958Y-47386385D01*
X153649176Y-48376190D01*
X154323221Y-48195580D01*
X154323238Y-48195575D01*
X154379084Y-48173985D01*
X154496209Y-48090582D01*
X154496210Y-48090581D01*
X154585084Y-47977566D01*
X154638521Y-47844089D01*
X154646693Y-47758503D01*
X154672660Y-47693638D01*
X154729574Y-47653109D01*
X154799364Y-47649783D01*
X154829148Y-47661232D01*
X154934297Y-47718136D01*
X155048287Y-47757268D01*
X155153815Y-47793497D01*
X155153817Y-47793497D01*
X155153819Y-47793498D01*
X155382751Y-47831700D01*
X155382752Y-47831700D01*
X155614848Y-47831700D01*
X155614849Y-47831700D01*
X155843781Y-47793498D01*
X156063303Y-47718136D01*
X156267426Y-47607670D01*
X156275909Y-47601068D01*
X156347964Y-47544985D01*
X156450584Y-47465113D01*
X156607779Y-47294353D01*
X156734724Y-47100049D01*
X156767330Y-47025714D01*
X156812285Y-46972228D01*
X156879021Y-46951538D01*
X156946349Y-46970212D01*
X156992893Y-47022322D01*
X157004175Y-47062266D01*
X157006401Y-47082973D01*
X157006403Y-47082979D01*
X157056645Y-47217686D01*
X157056649Y-47217693D01*
X157142809Y-47332787D01*
X157142812Y-47332790D01*
X157257906Y-47418950D01*
X157257913Y-47418954D01*
X157392620Y-47469196D01*
X157392627Y-47469198D01*
X157452155Y-47475599D01*
X157452172Y-47475600D01*
X158150000Y-47475600D01*
X158150000Y-46450877D01*
X158226306Y-46494933D01*
X158340756Y-46525600D01*
X158459244Y-46525600D01*
X158573694Y-46494933D01*
X158650000Y-46450877D01*
X158650000Y-47475600D01*
G37*
%TD.AperFunction*%
%TA.AperFunction,Conductor*%
G36*
X160121033Y-43990415D02*
G01*
X161073868Y-44030351D01*
X161079036Y-44030676D01*
X162029420Y-44110482D01*
X162034497Y-44111016D01*
X162980686Y-44230548D01*
X162985796Y-44231302D01*
X163926184Y-44390355D01*
X163931237Y-44391320D01*
X164864084Y-44589603D01*
X164869130Y-44590787D01*
X165792846Y-44827957D01*
X165797802Y-44829340D01*
X166182591Y-44945514D01*
X166339879Y-44993003D01*
X166398368Y-45031225D01*
X166426908Y-45094999D01*
X166416438Y-45164080D01*
X166370282Y-45216534D01*
X166366039Y-45219098D01*
X166265117Y-45277364D01*
X166265117Y-45277365D01*
X166265116Y-45277365D01*
X166265116Y-45277366D01*
X166205185Y-45337298D01*
X166205184Y-45337297D01*
X166153315Y-45389167D01*
X166153309Y-45389174D01*
X166074255Y-45526099D01*
X166037848Y-45661973D01*
X166001483Y-45721633D01*
X165938636Y-45752162D01*
X165938489Y-45752187D01*
X165923412Y-45754703D01*
X165703904Y-45830061D01*
X165703890Y-45830067D01*
X165598749Y-45886966D01*
X165530420Y-45901561D01*
X165465048Y-45876898D01*
X165423388Y-45820807D01*
X165416293Y-45789696D01*
X165408121Y-45704110D01*
X165354684Y-45570633D01*
X165265810Y-45457618D01*
X165265809Y-45457617D01*
X165148684Y-45374214D01*
X165148685Y-45374214D01*
X165092838Y-45352624D01*
X165092820Y-45352619D01*
X164418776Y-45172008D01*
X164153558Y-46161814D01*
X164091254Y-46099510D01*
X163988642Y-46040267D01*
X163874192Y-46009600D01*
X163755704Y-46009600D01*
X163670595Y-46032404D01*
X163935812Y-45042599D01*
X163261751Y-44861985D01*
X163202588Y-44852760D01*
X163202587Y-44852760D01*
X163059458Y-44866426D01*
X162925981Y-44919863D01*
X162812966Y-45008737D01*
X162812965Y-45008738D01*
X162729562Y-45125863D01*
X162707972Y-45181709D01*
X162707967Y-45181727D01*
X162548562Y-45776634D01*
X162512197Y-45836294D01*
X162449350Y-45866823D01*
X162379974Y-45858528D01*
X162326096Y-45814043D01*
X162308581Y-45774980D01*
X162269157Y-45619299D01*
X162175924Y-45406751D01*
X162048983Y-45212452D01*
X162048980Y-45212449D01*
X162048979Y-45212447D01*
X161891784Y-45041687D01*
X161891779Y-45041683D01*
X161891777Y-45041681D01*
X161708634Y-44899135D01*
X161708628Y-44899131D01*
X161504504Y-44788664D01*
X161504495Y-44788661D01*
X161284984Y-44713302D01*
X161097404Y-44682001D01*
X161056049Y-44675100D01*
X160823951Y-44675100D01*
X160782596Y-44682001D01*
X160595015Y-44713302D01*
X160375504Y-44788661D01*
X160375495Y-44788664D01*
X160171371Y-44899131D01*
X160171365Y-44899135D01*
X159988222Y-45041681D01*
X159988215Y-45041687D01*
X159979484Y-45051172D01*
X159919595Y-45087161D01*
X159849757Y-45085058D01*
X159792143Y-45045532D01*
X159772075Y-45010518D01*
X159743355Y-44933515D01*
X159743350Y-44933506D01*
X159657190Y-44818412D01*
X159657187Y-44818409D01*
X159542093Y-44732249D01*
X159542086Y-44732245D01*
X159407379Y-44682003D01*
X159407372Y-44682001D01*
X159347844Y-44675600D01*
X158650000Y-44675600D01*
X158650000Y-45700322D01*
X158573694Y-45656267D01*
X158459244Y-45625600D01*
X158340756Y-45625600D01*
X158226306Y-45656267D01*
X158150000Y-45700322D01*
X158150000Y-44675600D01*
X157452155Y-44675600D01*
X157392627Y-44682001D01*
X157392620Y-44682003D01*
X157257913Y-44732245D01*
X157257906Y-44732249D01*
X157142812Y-44818409D01*
X157142809Y-44818412D01*
X157056649Y-44933506D01*
X157056645Y-44933513D01*
X157006403Y-45068220D01*
X157006401Y-45068227D01*
X157000000Y-45127755D01*
X157000000Y-45775735D01*
X156980315Y-45842774D01*
X156927511Y-45888529D01*
X156858353Y-45898473D01*
X156794797Y-45869448D01*
X156762444Y-45825546D01*
X156734723Y-45762349D01*
X156607783Y-45568052D01*
X156607780Y-45568049D01*
X156607779Y-45568047D01*
X156450584Y-45397287D01*
X156450579Y-45397283D01*
X156450577Y-45397281D01*
X156267434Y-45254735D01*
X156267428Y-45254731D01*
X156063304Y-45144264D01*
X156063295Y-45144261D01*
X155843784Y-45068902D01*
X155672082Y-45040250D01*
X155614849Y-45030700D01*
X155382751Y-45030700D01*
X155336964Y-45038340D01*
X155153815Y-45068902D01*
X154934304Y-45144261D01*
X154934295Y-45144264D01*
X154730171Y-45254731D01*
X154730165Y-45254735D01*
X154547022Y-45397281D01*
X154547019Y-45397284D01*
X154547016Y-45397286D01*
X154547016Y-45397287D01*
X154395346Y-45562046D01*
X154389815Y-45568054D01*
X154301598Y-45703080D01*
X154248452Y-45748437D01*
X154179221Y-45757860D01*
X154115885Y-45728358D01*
X154096782Y-45707184D01*
X154047332Y-45637740D01*
X154047329Y-45637737D01*
X153934314Y-45548863D01*
X153800837Y-45495426D01*
X153657708Y-45481760D01*
X153657707Y-45481760D01*
X153598542Y-45490985D01*
X152924482Y-45671599D01*
X153189699Y-46661404D01*
X153104592Y-46638600D01*
X152986104Y-46638600D01*
X152871654Y-46669267D01*
X152769042Y-46728510D01*
X152706737Y-46790814D01*
X152441518Y-45801008D01*
X151767475Y-45981619D01*
X151767457Y-45981624D01*
X151711611Y-46003214D01*
X151594486Y-46086617D01*
X151594485Y-46086618D01*
X151505611Y-46199633D01*
X151452174Y-46333110D01*
X151438508Y-46476239D01*
X151438508Y-46476240D01*
X151447733Y-46535402D01*
X151622870Y-47189022D01*
X151621207Y-47258872D01*
X151582045Y-47316735D01*
X151517816Y-47344239D01*
X151448914Y-47332653D01*
X151411868Y-47305101D01*
X151268984Y-47149887D01*
X151268979Y-47149883D01*
X151268977Y-47149881D01*
X151085834Y-47007335D01*
X151085828Y-47007331D01*
X150881704Y-46896864D01*
X150881695Y-46896861D01*
X150662184Y-46821502D01*
X150445174Y-46785290D01*
X150433249Y-46783300D01*
X150208366Y-46783300D01*
X150141327Y-46763615D01*
X150100979Y-46721299D01*
X150068652Y-46665307D01*
X150068646Y-46665299D01*
X149956845Y-46553498D01*
X149956839Y-46553493D01*
X149819914Y-46474439D01*
X149819915Y-46474439D01*
X149815270Y-46473194D01*
X149777436Y-46463056D01*
X149717778Y-46426693D01*
X149687249Y-46363846D01*
X149695544Y-46294470D01*
X149740029Y-46240592D01*
X149754392Y-46232217D01*
X149889360Y-46165218D01*
X149894013Y-46163028D01*
X150765291Y-45775111D01*
X150770056Y-45773109D01*
X151656755Y-45422040D01*
X151661581Y-45420244D01*
X152562298Y-45106581D01*
X152567141Y-45105008D01*
X153480209Y-44829336D01*
X153485141Y-44827960D01*
X154408880Y-44590784D01*
X154413904Y-44589605D01*
X155346771Y-44391318D01*
X155351807Y-44390357D01*
X156292209Y-44231300D01*
X156297306Y-44230548D01*
X157243507Y-44111015D01*
X157248575Y-44110483D01*
X158198966Y-44030676D01*
X158204128Y-44030351D01*
X159156966Y-43990415D01*
X159162159Y-43990307D01*
X160115841Y-43990307D01*
X160121033Y-43990415D01*
G37*
%TD.AperFunction*%
%TD*%
M02*
