%TF.GenerationSoftware,KiCad,Pcbnew,8.0.9*%
%TF.CreationDate,2025-12-11T14:47:33+01:00*%
%TF.ProjectId,Project,50726f6a-6563-4742-9e6b-696361645f70,rev?*%
%TF.SameCoordinates,Original*%
%TF.FileFunction,Legend,Top*%
%TF.FilePolarity,Positive*%
%FSLAX46Y46*%
G04 Gerber Fmt 4.6, Leading zero omitted, Abs format (unit mm)*
G04 Created by KiCad (PCBNEW 8.0.9) date 2025-12-11 14:47:33*
%MOMM*%
%LPD*%
G01*
G04 APERTURE LIST*
%ADD10C,0.150000*%
%ADD11C,0.254000*%
%ADD12C,0.120000*%
%ADD13C,0.200000*%
G04 APERTURE END LIST*
D10*
X169583161Y-68968419D02*
X169249828Y-68492228D01*
X169011733Y-68968419D02*
X169011733Y-67968419D01*
X169011733Y-67968419D02*
X169392685Y-67968419D01*
X169392685Y-67968419D02*
X169487923Y-68016038D01*
X169487923Y-68016038D02*
X169535542Y-68063657D01*
X169535542Y-68063657D02*
X169583161Y-68158895D01*
X169583161Y-68158895D02*
X169583161Y-68301752D01*
X169583161Y-68301752D02*
X169535542Y-68396990D01*
X169535542Y-68396990D02*
X169487923Y-68444609D01*
X169487923Y-68444609D02*
X169392685Y-68492228D01*
X169392685Y-68492228D02*
X169011733Y-68492228D01*
X169868876Y-67968419D02*
X170202209Y-68968419D01*
X170202209Y-68968419D02*
X170535542Y-67968419D01*
X171392685Y-68968419D02*
X170821257Y-68968419D01*
X171106971Y-68968419D02*
X171106971Y-67968419D01*
X171106971Y-67968419D02*
X171011733Y-68111276D01*
X171011733Y-68111276D02*
X170916495Y-68206514D01*
X170916495Y-68206514D02*
X170821257Y-68254133D01*
X157211732Y-68186219D02*
X156878399Y-67710028D01*
X156640304Y-68186219D02*
X156640304Y-67186219D01*
X156640304Y-67186219D02*
X157021256Y-67186219D01*
X157021256Y-67186219D02*
X157116494Y-67233838D01*
X157116494Y-67233838D02*
X157164113Y-67281457D01*
X157164113Y-67281457D02*
X157211732Y-67376695D01*
X157211732Y-67376695D02*
X157211732Y-67519552D01*
X157211732Y-67519552D02*
X157164113Y-67614790D01*
X157164113Y-67614790D02*
X157116494Y-67662409D01*
X157116494Y-67662409D02*
X157021256Y-67710028D01*
X157021256Y-67710028D02*
X156640304Y-67710028D01*
X158164113Y-68186219D02*
X157592685Y-68186219D01*
X157878399Y-68186219D02*
X157878399Y-67186219D01*
X157878399Y-67186219D02*
X157783161Y-67329076D01*
X157783161Y-67329076D02*
X157687923Y-67424314D01*
X157687923Y-67424314D02*
X157592685Y-67471933D01*
D11*
X146021837Y-67655718D02*
X146021837Y-66385718D01*
X147352314Y-67534765D02*
X147291838Y-67595242D01*
X147291838Y-67595242D02*
X147110409Y-67655718D01*
X147110409Y-67655718D02*
X146989457Y-67655718D01*
X146989457Y-67655718D02*
X146808028Y-67595242D01*
X146808028Y-67595242D02*
X146687076Y-67474289D01*
X146687076Y-67474289D02*
X146626599Y-67353337D01*
X146626599Y-67353337D02*
X146566123Y-67111432D01*
X146566123Y-67111432D02*
X146566123Y-66930003D01*
X146566123Y-66930003D02*
X146626599Y-66688099D01*
X146626599Y-66688099D02*
X146687076Y-66567146D01*
X146687076Y-66567146D02*
X146808028Y-66446194D01*
X146808028Y-66446194D02*
X146989457Y-66385718D01*
X146989457Y-66385718D02*
X147110409Y-66385718D01*
X147110409Y-66385718D02*
X147291838Y-66446194D01*
X147291838Y-66446194D02*
X147352314Y-66506670D01*
X147836123Y-66506670D02*
X147896599Y-66446194D01*
X147896599Y-66446194D02*
X148017552Y-66385718D01*
X148017552Y-66385718D02*
X148319933Y-66385718D01*
X148319933Y-66385718D02*
X148440885Y-66446194D01*
X148440885Y-66446194D02*
X148501361Y-66506670D01*
X148501361Y-66506670D02*
X148561838Y-66627622D01*
X148561838Y-66627622D02*
X148561838Y-66748575D01*
X148561838Y-66748575D02*
X148501361Y-66930003D01*
X148501361Y-66930003D02*
X147775647Y-67655718D01*
X147775647Y-67655718D02*
X148561838Y-67655718D01*
X160213318Y-57526162D02*
X158943318Y-57526162D01*
X160092365Y-56195685D02*
X160152842Y-56256161D01*
X160152842Y-56256161D02*
X160213318Y-56437590D01*
X160213318Y-56437590D02*
X160213318Y-56558542D01*
X160213318Y-56558542D02*
X160152842Y-56739971D01*
X160152842Y-56739971D02*
X160031889Y-56860923D01*
X160031889Y-56860923D02*
X159910937Y-56921400D01*
X159910937Y-56921400D02*
X159669032Y-56981876D01*
X159669032Y-56981876D02*
X159487603Y-56981876D01*
X159487603Y-56981876D02*
X159245699Y-56921400D01*
X159245699Y-56921400D02*
X159124746Y-56860923D01*
X159124746Y-56860923D02*
X159003794Y-56739971D01*
X159003794Y-56739971D02*
X158943318Y-56558542D01*
X158943318Y-56558542D02*
X158943318Y-56437590D01*
X158943318Y-56437590D02*
X159003794Y-56256161D01*
X159003794Y-56256161D02*
X159064270Y-56195685D01*
X160213318Y-54986161D02*
X160213318Y-55711876D01*
X160213318Y-55349019D02*
X158943318Y-55349019D01*
X158943318Y-55349019D02*
X159124746Y-55469971D01*
X159124746Y-55469971D02*
X159245699Y-55590923D01*
X159245699Y-55590923D02*
X159306175Y-55711876D01*
D10*
X165875134Y-62920980D02*
X165827515Y-62968600D01*
X165827515Y-62968600D02*
X165684658Y-63016219D01*
X165684658Y-63016219D02*
X165589420Y-63016219D01*
X165589420Y-63016219D02*
X165446563Y-62968600D01*
X165446563Y-62968600D02*
X165351325Y-62873361D01*
X165351325Y-62873361D02*
X165303706Y-62778123D01*
X165303706Y-62778123D02*
X165256087Y-62587647D01*
X165256087Y-62587647D02*
X165256087Y-62444790D01*
X165256087Y-62444790D02*
X165303706Y-62254314D01*
X165303706Y-62254314D02*
X165351325Y-62159076D01*
X165351325Y-62159076D02*
X165446563Y-62063838D01*
X165446563Y-62063838D02*
X165589420Y-62016219D01*
X165589420Y-62016219D02*
X165684658Y-62016219D01*
X165684658Y-62016219D02*
X165827515Y-62063838D01*
X165827515Y-62063838D02*
X165875134Y-62111457D01*
X166827515Y-63016219D02*
X166256087Y-63016219D01*
X166541801Y-63016219D02*
X166541801Y-62016219D01*
X166541801Y-62016219D02*
X166446563Y-62159076D01*
X166446563Y-62159076D02*
X166351325Y-62254314D01*
X166351325Y-62254314D02*
X166256087Y-62301933D01*
D12*
%TO.C,RV1*%
X166768400Y-69803600D02*
X166768400Y-70053600D01*
X166768400Y-75513600D02*
X166768400Y-71973600D01*
X166868400Y-69603600D02*
X166868400Y-69803600D01*
X166868400Y-69603600D02*
X168288400Y-69603600D01*
X166868400Y-69803600D02*
X166768400Y-69803600D01*
X168288400Y-69803600D02*
X168288400Y-69603600D01*
X168288400Y-69803600D02*
X171868400Y-69803600D01*
X169568400Y-76823600D02*
X168078400Y-76823600D01*
X171868400Y-69603600D02*
X173288400Y-69603600D01*
X171868400Y-69803600D02*
X171868400Y-69603600D01*
X172078400Y-76823600D02*
X170588400Y-76823600D01*
X173288400Y-69603600D02*
X173288400Y-69803600D01*
X173288400Y-69803600D02*
X173388400Y-69803600D01*
X173388400Y-69803600D02*
X173388400Y-70493600D01*
X173388400Y-71533600D02*
X173388400Y-75513600D01*
X168078400Y-76823600D02*
G75*
G02*
X166768400Y-75513600I0J1310000D01*
G01*
X173388400Y-75513600D02*
G75*
G02*
X172078400Y-76823600I-1310000J0D01*
G01*
%TO.C,R1*%
X160248400Y-65811400D02*
X159298399Y-65811400D01*
X159298400Y-66731401D02*
X159298400Y-64891398D01*
X159298400Y-64891398D02*
X155458400Y-64891398D01*
X155458401Y-66731401D02*
X159298400Y-66731401D01*
X155458400Y-64891398D02*
X155458401Y-66731401D01*
X154508397Y-65811400D02*
X155458399Y-65811400D01*
D13*
%TO.C,IC2*%
X142726600Y-62001400D02*
X150561600Y-62001400D01*
X143961600Y-72161400D02*
X150561600Y-72161400D01*
%TO.C,IC1*%
X149794000Y-60821400D02*
X149793999Y-52986399D01*
X169484001Y-59586401D02*
X169483999Y-52986400D01*
D12*
%TO.C,D24*%
X152445329Y-45969772D02*
X152485705Y-46120458D01*
X153044754Y-48206857D02*
X153085130Y-48357543D01*
X152445454Y-45970241D02*
G75*
G02*
X155606981Y-45284050I1826621J-789659D01*
G01*
X152987058Y-45986120D02*
G75*
G02*
X154997979Y-45447243I1285017J-773780D01*
G01*
X155557053Y-47533740D02*
G75*
G02*
X153546108Y-48072519I-1284978J773840D01*
G01*
X156166060Y-47370569D02*
G75*
G02*
X153085006Y-48357073I-1893985J610669D01*
G01*
%TO.C,D23*%
X139703791Y-57154053D02*
X139838892Y-57232053D01*
X141709506Y-58312052D02*
X141844607Y-58390052D01*
X139704211Y-57154295D02*
G75*
G02*
X141454537Y-54433549I1849988J733243D01*
G01*
X140098410Y-56782552D02*
G75*
G02*
X141139303Y-54979572I1455789J361500D01*
G01*
X143010004Y-56059623D02*
G75*
G02*
X141969026Y-57862551I-1455805J-361429D01*
G01*
X143325257Y-55513610D02*
G75*
G02*
X141844187Y-58389809I-1771058J-907442D01*
G01*
%TO.C,D22*%
X138681273Y-74089748D02*
X138831958Y-74049370D01*
X140918357Y-73490321D02*
X141069042Y-73449944D01*
X138681741Y-74089621D02*
G75*
G02*
X137995550Y-70928095I789659J1826621D01*
G01*
X138697621Y-73548018D02*
G75*
G02*
X138158743Y-71537096I773779J1285018D01*
G01*
X140245240Y-70978022D02*
G75*
G02*
X140784019Y-72988967I-773840J-1284978D01*
G01*
X140082068Y-70369015D02*
G75*
G02*
X141068573Y-73450069I-610668J-1893985D01*
G01*
%TO.C,D21*%
X148284504Y-83141142D02*
G75*
G02*
X151160705Y-84622212I907443J-1771058D01*
G01*
X148830518Y-83456395D02*
G75*
G02*
X150633446Y-84497373I361429J-1455805D01*
G01*
X149553448Y-86367988D02*
G75*
G02*
X147750467Y-85327095I-361501J1455788D01*
G01*
X149925190Y-86762188D02*
G75*
G02*
X147204444Y-85011862I-733243J1849988D01*
G01*
X151082947Y-84756893D02*
X151160946Y-84621792D01*
X149924949Y-86762608D02*
X150002948Y-86627507D01*
%TO.C,D20*%
X166807271Y-87786625D02*
X166766897Y-87635940D01*
X166207848Y-85549541D02*
X166167474Y-85398856D01*
X166807147Y-87786157D02*
G75*
G02*
X163645620Y-88472346I-1826620J789659D01*
G01*
X166265544Y-87770278D02*
G75*
G02*
X164254623Y-88309155I-1285017J773780D01*
G01*
X163695549Y-86222658D02*
G75*
G02*
X165706495Y-85683880I1284978J-773840D01*
G01*
X163086543Y-86385829D02*
G75*
G02*
X166167596Y-85399326I1893984J-610669D01*
G01*
%TO.C,D19*%
X179498007Y-76551548D02*
X179362907Y-76473546D01*
X177492293Y-75393547D02*
X177357193Y-75315545D01*
X179497588Y-76551305D02*
G75*
G02*
X177747260Y-79272050I-1849988J-733242D01*
G01*
X179103388Y-76923047D02*
G75*
G02*
X178062495Y-78726026I-1455788J-361500D01*
G01*
X176191795Y-77645976D02*
G75*
G02*
X177232774Y-75843048I1455805J361429D01*
G01*
X175876542Y-78191987D02*
G75*
G02*
X177357612Y-75315791I1771058J907440D01*
G01*
%TO.C,D18*%
X179121230Y-63405259D02*
G75*
G02*
X178134727Y-60324206I610669J1893984D01*
G01*
X178958059Y-62796253D02*
G75*
G02*
X178419280Y-60785307I773840J1284978D01*
G01*
X180505679Y-60226258D02*
G75*
G02*
X181044556Y-62237179I-773780J-1285017D01*
G01*
X180521558Y-59684655D02*
G75*
G02*
X181207747Y-62846181I-789659J-1826620D01*
G01*
X178284942Y-60283954D02*
X178134257Y-60324329D01*
X180522026Y-59684530D02*
X180371341Y-59724905D01*
%TO.C,D17*%
X170960441Y-50640658D02*
G75*
G02*
X168084243Y-49159588I-907441J1771058D01*
G01*
X170414429Y-50325405D02*
G75*
G02*
X168611501Y-49284427I-361429J1455805D01*
G01*
X169691500Y-47413812D02*
G75*
G02*
X171494479Y-48454705I361500J-1455788D01*
G01*
X169319758Y-47019612D02*
G75*
G02*
X172040503Y-48769939I733242J-1849988D01*
G01*
X168162000Y-49024907D02*
X168083999Y-49160008D01*
X169320000Y-47019192D02*
X169241999Y-47154293D01*
%TO.C,D16*%
X151204850Y-48918461D02*
G75*
G02*
X148484106Y-50668787I-1987502J99661D01*
G01*
X150658826Y-49233695D02*
G75*
G02*
X148855849Y-50274587I-1441478J414895D01*
G01*
X147775848Y-48403973D02*
G75*
G02*
X149578777Y-47362994I1441500J-414827D01*
G01*
X147248589Y-48528812D02*
G75*
G02*
X150124789Y-47047739I1968759J-289988D01*
G01*
X148406347Y-50534107D02*
X148484349Y-50669208D01*
X147248347Y-48528392D02*
X147326348Y-48663493D01*
%TO.C,D15*%
X137875256Y-62637071D02*
X138025941Y-62677446D01*
X140112340Y-63236495D02*
X140263025Y-63276870D01*
X137875724Y-62637195D02*
G75*
G02*
X138862227Y-59556139I1597174J1187070D01*
G01*
X138160278Y-62176094D02*
G75*
G02*
X138699057Y-60165145I1312620J725969D01*
G01*
X140785553Y-60724222D02*
G75*
G02*
X140246677Y-62735140I-1312655J-725903D01*
G01*
X140948745Y-60115220D02*
G75*
G02*
X140262556Y-63276744I-1475847J-1334905D01*
G01*
%TO.C,D14*%
X141263793Y-79268855D02*
X141398893Y-79190853D01*
X143269507Y-78110854D02*
X143404607Y-78032852D01*
X141264212Y-79268612D02*
G75*
G02*
X139783139Y-76392412I289988J1968759D01*
G01*
X141139374Y-78741353D02*
G75*
G02*
X140098394Y-76938424I414826J1441500D01*
G01*
X141969095Y-75858375D02*
G75*
G02*
X143009987Y-77661352I-414895J-1441478D01*
G01*
X141653860Y-75312351D02*
G75*
G02*
X143404187Y-78033095I-99660J-1987502D01*
G01*
%TO.C,D13*%
X155397871Y-88591141D02*
X155438249Y-88440457D01*
X155997298Y-86354058D02*
X156037676Y-86203374D01*
X155397998Y-88590674D02*
G75*
G02*
X152316941Y-87604167I-1187070J1597174D01*
G01*
X154936896Y-88306120D02*
G75*
G02*
X152925949Y-87767341I-725968J1312620D01*
G01*
X153485025Y-85680845D02*
G75*
G02*
X155495944Y-86219723I725903J-1312655D01*
G01*
X152876025Y-85517652D02*
G75*
G02*
X156037546Y-86203842I1334903J-1475848D01*
G01*
%TO.C,D12*%
X171978852Y-85202606D02*
X171900853Y-85067505D01*
X170820854Y-83196891D02*
X170742855Y-83061790D01*
X171978611Y-85202186D02*
G75*
G02*
X169102410Y-86683256I-1968758J289988D01*
G01*
X171451353Y-85327025D02*
G75*
G02*
X169648424Y-86368004I-1441500J414827D01*
G01*
X168568375Y-84497303D02*
G75*
G02*
X170371354Y-83456412I1441478J-414895D01*
G01*
X168022352Y-84812536D02*
G75*
G02*
X170743095Y-83062212I1987501J-99662D01*
G01*
%TO.C,D11*%
X181326542Y-71093930D02*
X181175857Y-71053553D01*
X179089458Y-70494504D02*
X178938773Y-70454127D01*
X181326074Y-71093804D02*
G75*
G02*
X180339568Y-74174861I-1597174J-1187070D01*
G01*
X181041520Y-71554906D02*
G75*
G02*
X180502741Y-73565853I-1312620J-725968D01*
G01*
X178416245Y-73006777D02*
G75*
G02*
X178955122Y-70995858I1312655J725903D01*
G01*
X178253052Y-73615777D02*
G75*
G02*
X178939242Y-70454256I1475848J1334903D01*
G01*
%TO.C,D10*%
X177547938Y-58477101D02*
G75*
G02*
X175797614Y-55756358I99662J1987501D01*
G01*
X177232705Y-57931078D02*
G75*
G02*
X176191813Y-56128101I414895J1441478D01*
G01*
X178062427Y-55048100D02*
G75*
G02*
X179103406Y-56851029I-414827J-1441500D01*
G01*
X177937588Y-54520842D02*
G75*
G02*
X179418659Y-57397042I-289988J-1968758D01*
G01*
X175932293Y-55678599D02*
X175797192Y-55756599D01*
X177938008Y-54520600D02*
X177802907Y-54598600D01*
%TO.C,D9*%
X166376579Y-48264148D02*
G75*
G02*
X163215055Y-47577959I-1334905J1475848D01*
G01*
X165767578Y-48100955D02*
G75*
G02*
X163756659Y-47562080I-725904J1312655D01*
G01*
X164315707Y-45475680D02*
G75*
G02*
X166326653Y-46014460I725967J-1312620D01*
G01*
X163854605Y-45191126D02*
G75*
G02*
X166935660Y-46177631I1187069J-1597174D01*
G01*
X163255305Y-47427742D02*
X163214929Y-47578427D01*
X163854730Y-45190658D02*
X163814354Y-45341343D01*
%TO.C,D8*%
X142895502Y-52358928D02*
X143005812Y-52469237D01*
X144533162Y-53996587D02*
X144643472Y-54106896D01*
X142895845Y-52359271D02*
G75*
G02*
X145290712Y-50184250I1976729J229446D01*
G01*
X143372827Y-52102221D02*
G75*
G02*
X144844898Y-50630079I1499747J-27604D01*
G01*
X146372318Y-52157501D02*
G75*
G02*
X144900178Y-53629570I-1499744J27676D01*
G01*
X146818148Y-51711687D02*
G75*
G02*
X144643129Y-54106553I-1945574J-418138D01*
G01*
%TO.C,D7*%
X137524199Y-68412802D02*
X137680199Y-68412801D01*
X139840199Y-68412801D02*
X139996199Y-68412800D01*
X137524683Y-68412801D02*
G75*
G02*
X137680137Y-65181403I1235516J1560001D01*
G01*
X137680199Y-67893763D02*
G75*
G02*
X137680148Y-65811889I1080000J1040963D01*
G01*
X139840248Y-65811891D02*
G75*
G02*
X139840198Y-67893761I-1080049J-1040909D01*
G01*
X139840258Y-65181403D02*
G75*
G02*
X139995714Y-68412800I-1080059J-1671397D01*
G01*
%TO.C,D6*%
X145110704Y-83587272D02*
X145221012Y-83476962D01*
X146748362Y-81949612D02*
X146858670Y-81839302D01*
X145111046Y-83586929D02*
G75*
G02*
X142936025Y-81192062I-229446J1976729D01*
G01*
X144853997Y-83109947D02*
G75*
G02*
X143381854Y-81637876I27603J1499747D01*
G01*
X144909276Y-80110456D02*
G75*
G02*
X146381345Y-81582596I-27676J-1499744D01*
G01*
X144463461Y-79664626D02*
G75*
G02*
X146858328Y-81839645I418139J-1945574D01*
G01*
%TO.C,D5*%
X161148199Y-88942200D02*
X161148201Y-88786200D01*
X161148201Y-86626200D02*
X161148203Y-86470200D01*
X161148201Y-88941716D02*
G75*
G02*
X157916801Y-88786260I-1560001J1235516D01*
G01*
X160629162Y-88786200D02*
G75*
G02*
X158547290Y-88786250I-1040962J1080000D01*
G01*
X158547291Y-86626151D02*
G75*
G02*
X160629162Y-86626202I1040909J-1080049D01*
G01*
X157916805Y-86626138D02*
G75*
G02*
X161148199Y-86470685I1671395J-1080062D01*
G01*
%TO.C,D4*%
X176306296Y-81372071D02*
X176195988Y-81261761D01*
X174668638Y-79734411D02*
X174558330Y-79624101D01*
X176305954Y-81371728D02*
G75*
G02*
X173911087Y-83546747I-1976728J-229445D01*
G01*
X175828973Y-81628777D02*
G75*
G02*
X174356902Y-83100919I-1499747J27604D01*
G01*
X172829482Y-81573497D02*
G75*
G02*
X174301623Y-80101428I1499744J-27676D01*
G01*
X172383653Y-82019310D02*
G75*
G02*
X174558672Y-79624447I1945573J418137D01*
G01*
%TO.C,D3*%
X181677600Y-65343600D02*
X181521600Y-65343599D01*
X179361600Y-65343599D02*
X179205600Y-65343598D01*
X181677116Y-65343599D02*
G75*
G02*
X181521660Y-68574999I-1235516J-1560001D01*
G01*
X181521600Y-65862638D02*
G75*
G02*
X181521650Y-67944510I-1080000J-1040962D01*
G01*
X179361551Y-67944509D02*
G75*
G02*
X179361602Y-65862639I1080049J1040909D01*
G01*
X179361539Y-68574995D02*
G75*
G02*
X179206086Y-65343601I1080061J1671395D01*
G01*
%TO.C,D2*%
X174116498Y-50194529D02*
X174006188Y-50304838D01*
X172478838Y-51832188D02*
X172368528Y-51942497D01*
X174116155Y-50194872D02*
G75*
G02*
X176291174Y-52589738I229445J-1976728D01*
G01*
X174373204Y-50671853D02*
G75*
G02*
X175845346Y-52143924I-27604J-1499747D01*
G01*
X174317924Y-53671344D02*
G75*
G02*
X172845855Y-52199204I27676J1499744D01*
G01*
X174763737Y-54117173D02*
G75*
G02*
X172368874Y-51942154I-418137J1945573D01*
G01*
%TO.C,D1*%
X158110000Y-44839600D02*
X158110000Y-44995600D01*
X158110000Y-47155600D02*
X158110000Y-47311600D01*
X158110000Y-44840084D02*
G75*
G02*
X161341397Y-44995539I1560000J-1235516D01*
G01*
X158629039Y-44995600D02*
G75*
G02*
X160710910Y-44995551I1040961J-1080000D01*
G01*
X160710910Y-47155649D02*
G75*
G02*
X158629039Y-47155600I-1040910J1080049D01*
G01*
X161341397Y-47155661D02*
G75*
G02*
X158110000Y-47311116I-1671397J1080061D01*
G01*
%TO.C,C1*%
X168161801Y-65811400D02*
G75*
G02*
X163921801Y-65811400I-2120000J0D01*
G01*
X163921801Y-65811400D02*
G75*
G02*
X168161801Y-65811400I2120000J0D01*
G01*
X168122801Y-65441400D02*
X168122801Y-66181400D01*
X168082801Y-65274400D02*
X168082801Y-66348400D01*
X168042801Y-65147400D02*
X168042801Y-66475400D01*
X168002801Y-65043400D02*
X168002801Y-66579400D01*
X167962801Y-64952400D02*
X167962801Y-66670400D01*
X167922801Y-64871400D02*
X167922801Y-66751400D01*
X167882801Y-64798400D02*
X167882801Y-66824400D01*
X167842801Y-66651400D02*
X167842801Y-66891400D01*
X167842801Y-64731400D02*
X167842801Y-64971400D01*
X167802801Y-66651400D02*
X167802801Y-66953400D01*
X167802801Y-64669400D02*
X167802801Y-64971400D01*
X167762801Y-66651400D02*
X167762801Y-67011400D01*
X167762801Y-64611400D02*
X167762801Y-64971400D01*
X167722801Y-66651400D02*
X167722801Y-67065400D01*
X167722801Y-64557400D02*
X167722801Y-64971400D01*
X167682801Y-66651400D02*
X167682801Y-67115400D01*
X167682801Y-64507400D02*
X167682801Y-64971400D01*
X167642801Y-66651400D02*
X167642801Y-67162400D01*
X167642801Y-64460400D02*
X167642801Y-64971400D01*
X167602801Y-66651400D02*
X167602801Y-67207400D01*
X167602801Y-64415400D02*
X167602801Y-64971400D01*
X167562801Y-66651400D02*
X167562801Y-67249400D01*
X167562801Y-64373400D02*
X167562801Y-64971400D01*
X167522801Y-66651400D02*
X167522801Y-67289400D01*
X167522801Y-64333400D02*
X167522801Y-64971400D01*
X167482801Y-66651400D02*
X167482801Y-67327400D01*
X167482801Y-64295400D02*
X167482801Y-64971400D01*
X167442801Y-66651400D02*
X167442801Y-67363400D01*
X167442801Y-64259400D02*
X167442801Y-64971400D01*
X167402801Y-66651400D02*
X167402801Y-67398400D01*
X167402801Y-64224400D02*
X167402801Y-64971400D01*
X167362801Y-66651400D02*
X167362801Y-67430400D01*
X167362801Y-64192400D02*
X167362801Y-64971400D01*
X167322801Y-66651400D02*
X167322801Y-67461400D01*
X167322801Y-64161400D02*
X167322801Y-64971400D01*
X167282801Y-66651400D02*
X167282801Y-67491400D01*
X167282801Y-64131400D02*
X167282801Y-64971400D01*
X167242801Y-66651400D02*
X167242801Y-67519400D01*
X167242801Y-64103400D02*
X167242801Y-64971400D01*
X167202801Y-66651400D02*
X167202801Y-67546400D01*
X167202801Y-64076400D02*
X167202801Y-64971400D01*
X167162801Y-66651400D02*
X167162801Y-67571400D01*
X167162801Y-64051400D02*
X167162801Y-64971400D01*
X167122801Y-66651400D02*
X167122801Y-67596400D01*
X167122801Y-64026400D02*
X167122801Y-64971400D01*
X167082801Y-66651400D02*
X167082801Y-67619400D01*
X167082801Y-64003400D02*
X167082801Y-64971400D01*
X167042801Y-66651400D02*
X167042801Y-67641400D01*
X167042801Y-63981400D02*
X167042801Y-64971400D01*
X167002801Y-66651400D02*
X167002801Y-67662400D01*
X167002801Y-63960400D02*
X167002801Y-64971400D01*
X166962801Y-66651400D02*
X166962801Y-67681400D01*
X166962801Y-63941400D02*
X166962801Y-64971400D01*
X166922801Y-66651400D02*
X166922801Y-67700400D01*
X166922801Y-63922400D02*
X166922801Y-64971400D01*
X166882801Y-66651400D02*
X166882801Y-67718400D01*
X166882801Y-63904400D02*
X166882801Y-64971400D01*
X166842801Y-66651400D02*
X166842801Y-67735400D01*
X166842801Y-63887400D02*
X166842801Y-64971400D01*
X166802801Y-66651400D02*
X166802801Y-67751400D01*
X166802801Y-63871400D02*
X166802801Y-64971400D01*
X166762801Y-66651400D02*
X166762801Y-67765400D01*
X166762801Y-63857400D02*
X166762801Y-64971400D01*
X166721801Y-66651400D02*
X166721801Y-67779400D01*
X166721801Y-63843400D02*
X166721801Y-64971400D01*
X166681801Y-66651400D02*
X166681801Y-67793400D01*
X166681801Y-63829400D02*
X166681801Y-64971400D01*
X166641801Y-66651400D02*
X166641801Y-67805400D01*
X166641801Y-63817400D02*
X166641801Y-64971400D01*
X166601801Y-66651400D02*
X166601801Y-67816400D01*
X166601801Y-63806400D02*
X166601801Y-64971400D01*
X166561801Y-66651400D02*
X166561801Y-67827400D01*
X166561801Y-63795400D02*
X166561801Y-64971400D01*
X166521801Y-66651400D02*
X166521801Y-67836400D01*
X166521801Y-63786400D02*
X166521801Y-64971400D01*
X166481801Y-66651400D02*
X166481801Y-67845400D01*
X166481801Y-63777400D02*
X166481801Y-64971400D01*
X166441801Y-66651400D02*
X166441801Y-67853400D01*
X166441801Y-63769400D02*
X166441801Y-64971400D01*
X166401801Y-66651400D02*
X166401801Y-67861400D01*
X166401801Y-63761400D02*
X166401801Y-64971400D01*
X166361801Y-66651400D02*
X166361801Y-67867400D01*
X166361801Y-63755400D02*
X166361801Y-64971400D01*
X166321801Y-66651400D02*
X166321801Y-67873400D01*
X166321801Y-63749400D02*
X166321801Y-64971400D01*
X166281801Y-66651400D02*
X166281801Y-67878400D01*
X166281801Y-63744400D02*
X166281801Y-64971400D01*
X166241801Y-66651400D02*
X166241801Y-67882400D01*
X166241801Y-63740400D02*
X166241801Y-64971400D01*
X166201801Y-63737400D02*
X166201801Y-67885400D01*
X166161801Y-63734400D02*
X166161801Y-67888400D01*
X166121801Y-63732400D02*
X166121801Y-67890400D01*
X166081801Y-63731400D02*
X166081801Y-67891400D01*
X166041801Y-63731400D02*
X166041801Y-67891400D01*
X163972000Y-64416400D02*
X163972000Y-64816400D01*
X163772000Y-64616400D02*
X164172000Y-64616400D01*
%TD*%
M02*
