%TF.GenerationSoftware,KiCad,Pcbnew,8.0.9*%
%TF.CreationDate,2025-12-12T10:11:10+01:00*%
%TF.ProjectId,Project,50726f6a-6563-4742-9e6b-696361645f70,rev?*%
%TF.SameCoordinates,Original*%
%TF.FileFunction,Copper,L2,Bot*%
%TF.FilePolarity,Positive*%
%FSLAX46Y46*%
G04 Gerber Fmt 4.6, Leading zero omitted, Abs format (unit mm)*
G04 Created by KiCad (PCBNEW 8.0.9) date 2025-12-12 10:11:10*
%MOMM*%
%LPD*%
G01*
G04 APERTURE LIST*
G04 Aperture macros list*
%AMRoundRect*
0 Rectangle with rounded corners*
0 $1 Rounding radius*
0 $2 $3 $4 $5 $6 $7 $8 $9 X,Y pos of 4 corners*
0 Add a 4 corners polygon primitive as box body*
4,1,4,$2,$3,$4,$5,$6,$7,$8,$9,$2,$3,0*
0 Add four circle primitives for the rounded corners*
1,1,$1+$1,$2,$3*
1,1,$1+$1,$4,$5*
1,1,$1+$1,$6,$7*
1,1,$1+$1,$8,$9*
0 Add four rect primitives between the rounded corners*
20,1,$1+$1,$2,$3,$4,$5,0*
20,1,$1+$1,$4,$5,$6,$7,0*
20,1,$1+$1,$6,$7,$8,$9,0*
20,1,$1+$1,$8,$9,$2,$3,0*%
%AMRotRect*
0 Rectangle, with rotation*
0 The origin of the aperture is its center*
0 $1 length*
0 $2 width*
0 $3 Rotation angle, in degrees counterclockwise*
0 Add horizontal line*
21,1,$1,$2,0,0,$3*%
G04 Aperture macros list end*
%TA.AperFunction,Conductor*%
%ADD10C,0.200000*%
%TD*%
%TA.AperFunction,ComponentPad*%
%ADD11R,1.800000X1.800000*%
%TD*%
%TA.AperFunction,ComponentPad*%
%ADD12C,1.800000*%
%TD*%
%TA.AperFunction,ComponentPad*%
%ADD13RotRect,1.800000X1.800000X345.000000*%
%TD*%
%TA.AperFunction,ComponentPad*%
%ADD14RotRect,1.800000X1.800000X45.000000*%
%TD*%
%TA.AperFunction,ComponentPad*%
%ADD15RotRect,1.800000X1.800000X210.000000*%
%TD*%
%TA.AperFunction,ComponentPad*%
%ADD16RotRect,1.800000X1.800000X330.000000*%
%TD*%
%TA.AperFunction,ComponentPad*%
%ADD17RotRect,1.800000X1.800000X15.000000*%
%TD*%
%TA.AperFunction,ComponentPad*%
%ADD18RotRect,1.800000X1.800000X240.000000*%
%TD*%
%TA.AperFunction,ComponentPad*%
%ADD19C,1.400000*%
%TD*%
%TA.AperFunction,ComponentPad*%
%ADD20O,1.400000X1.400000*%
%TD*%
%TA.AperFunction,ComponentPad*%
%ADD21RotRect,1.800000X1.800000X300.000000*%
%TD*%
%TA.AperFunction,ComponentPad*%
%ADD22RotRect,1.800000X1.800000X75.000000*%
%TD*%
%TA.AperFunction,ComponentPad*%
%ADD23RotRect,1.800000X1.800000X135.000000*%
%TD*%
%TA.AperFunction,ComponentPad*%
%ADD24R,1.130000X1.130000*%
%TD*%
%TA.AperFunction,ComponentPad*%
%ADD25C,1.130000*%
%TD*%
%TA.AperFunction,ComponentPad*%
%ADD26RotRect,1.800000X1.800000X60.000000*%
%TD*%
%TA.AperFunction,ComponentPad*%
%ADD27RotRect,1.800000X1.800000X285.000000*%
%TD*%
%TA.AperFunction,ComponentPad*%
%ADD28RotRect,1.800000X1.800000X195.000000*%
%TD*%
%TA.AperFunction,ComponentPad*%
%ADD29RotRect,1.800000X1.800000X120.000000*%
%TD*%
%TA.AperFunction,ComponentPad*%
%ADD30R,1.560000X1.560000*%
%TD*%
%TA.AperFunction,ComponentPad*%
%ADD31C,1.560000*%
%TD*%
%TA.AperFunction,ComponentPad*%
%ADD32RotRect,1.800000X1.800000X105.000000*%
%TD*%
%TA.AperFunction,ComponentPad*%
%ADD33RotRect,1.800000X1.800000X255.000000*%
%TD*%
%TA.AperFunction,ComponentPad*%
%ADD34RotRect,1.800000X1.800000X225.000000*%
%TD*%
%TA.AperFunction,ComponentPad*%
%ADD35RotRect,1.800000X1.800000X315.000000*%
%TD*%
%TA.AperFunction,ComponentPad*%
%ADD36RotRect,1.800000X1.800000X30.000000*%
%TD*%
%TA.AperFunction,ComponentPad*%
%ADD37RotRect,1.800000X1.800000X165.000000*%
%TD*%
%TA.AperFunction,ComponentPad*%
%ADD38RotRect,1.800000X1.800000X150.000000*%
%TD*%
%TA.AperFunction,ComponentPad*%
%ADD39R,1.200000X1.200000*%
%TD*%
%TA.AperFunction,ComponentPad*%
%ADD40C,1.200000*%
%TD*%
%TA.AperFunction,ComponentPad*%
%ADD41R,3.500000X3.500000*%
%TD*%
%TA.AperFunction,ComponentPad*%
%ADD42RoundRect,0.750000X1.000000X-0.750000X1.000000X0.750000X-1.000000X0.750000X-1.000000X-0.750000X0*%
%TD*%
%TA.AperFunction,ComponentPad*%
%ADD43RoundRect,0.875000X0.875000X-0.875000X0.875000X0.875000X-0.875000X0.875000X-0.875000X-0.875000X0*%
%TD*%
%TA.AperFunction,ViaPad*%
%ADD44C,0.600000*%
%TD*%
G04 APERTURE END LIST*
D10*
%TO.N,/LED_GREEN/LED_GREEN*%
X169899105Y-126307991D02*
X169800495Y-126676008D01*
X190223639Y-74110805D02*
G75*
G02*
X167513000Y-74396601I-11030320J-25968787D01*
G01*
X204975801Y-89238180D02*
X205162452Y-89130417D01*
X190190278Y-125772273D02*
X190333960Y-126021142D01*
X153629887Y-111084888D02*
X153263159Y-111275880D01*
X153378921Y-89744166D02*
X152986369Y-89638982D01*
X205146590Y-110583715D02*
X205367400Y-110642881D01*
%TD*%
D11*
%TO.P,D3,1,K*%
%TO.N,GND*%
X205917800Y-98120200D03*
D12*
%TO.P,D3,2,A*%
%TO.N,Net-(D3-A)*%
X205917801Y-100660201D03*
%TD*%
D13*
%TO.P,D9,1,K*%
%TO.N,GND*%
X184277000Y-73888600D03*
D12*
%TO.P,D9,2,A*%
%TO.N,Net-(D9-A)*%
X186730452Y-74546000D03*
%TD*%
D14*
%TO.P,D8,1,K*%
%TO.N,GND*%
X159021031Y-82676653D03*
D12*
%TO.P,D8,2,A*%
%TO.N,Net-(D8-A)*%
X160817083Y-80880602D03*
%TD*%
D15*
%TO.P,D12,1,K*%
%TO.N,GND*%
X194310000Y-122174000D03*
D12*
%TO.P,D12,2,A*%
%TO.N,Net-(D12-A)*%
X192110294Y-123444002D03*
%TD*%
D16*
%TO.P,D17,1,K*%
%TO.N,GND*%
X190855600Y-76047600D03*
D12*
%TO.P,D17,2,A*%
%TO.N,Net-(D17-A)*%
X193055305Y-77317600D03*
%TD*%
D17*
%TO.P,D24,1,K*%
%TO.N,GND*%
X170457670Y-74883587D03*
D12*
%TO.P,D24,2,A*%
%TO.N,Net-(D24-A)*%
X172911122Y-74226187D03*
%TD*%
D18*
%TO.P,D19,1,K*%
%TO.N,GND*%
X203327000Y-111701547D03*
D12*
%TO.P,D19,2,A*%
%TO.N,Net-(D19-A)*%
X202057000Y-113901253D03*
%TD*%
D19*
%TO.P,R25,1*%
%TO.N,+12V*%
X162966400Y-106553000D03*
D20*
%TO.P,R25,2*%
%TO.N,/POT*%
X170586400Y-106553000D03*
%TD*%
D21*
%TO.P,D10,1,K*%
%TO.N,GND*%
X201345800Y-85064600D03*
D12*
%TO.P,D10,2,A*%
%TO.N,Net-(D10-A)*%
X202615801Y-87264305D03*
%TD*%
D22*
%TO.P,D15,1,K*%
%TO.N,GND*%
X153023590Y-95145089D03*
D12*
%TO.P,D15,2,A*%
%TO.N,Net-(D15-A)*%
X153680992Y-92691637D03*
%TD*%
D23*
%TO.P,D6,1,K*%
%TO.N,GND*%
X161874200Y-120370600D03*
D12*
%TO.P,D6,2,A*%
%TO.N,Net-(D6-A)*%
X160078147Y-118574546D03*
%TD*%
D24*
%TO.P,IC1,1,Q5*%
%TO.N,unconnected-(IC1-Q5-Pad1)*%
X170256200Y-89390200D03*
D25*
%TO.P,IC1,2,Q1*%
%TO.N,/LED_RED/LED_RED*%
X172796201Y-89390199D03*
%TO.P,IC1,3,Q0*%
%TO.N,/LED_GREEN/LED_GREEN*%
X175336200Y-89390200D03*
%TO.P,IC1,4,Q2*%
%TO.N,/LED_BLUE/LED_BLUE*%
X177876200Y-89390202D03*
%TO.P,IC1,5,Q6*%
%TO.N,unconnected-(IC1-Q6-Pad5)*%
X180416199Y-89390201D03*
%TO.P,IC1,6,Q7*%
%TO.N,unconnected-(IC1-Q7-Pad6)*%
X182956200Y-89390200D03*
%TO.P,IC1,7,Q3*%
%TO.N,/RESET*%
X185496200Y-89390202D03*
%TO.P,IC1,8,VSS*%
%TO.N,GND*%
X188036199Y-89390200D03*
%TO.P,IC1,9,Q8*%
%TO.N,unconnected-(IC1-Q8-Pad9)*%
X188036200Y-81450200D03*
%TO.P,IC1,10,Q4*%
%TO.N,unconnected-(IC1-Q4-Pad10)*%
X185496199Y-81450201D03*
%TO.P,IC1,11,Q9*%
%TO.N,unconnected-(IC1-Q9-Pad11)*%
X182956200Y-81450200D03*
%TO.P,IC1,12,COUT*%
%TO.N,unconnected-(IC1-COUT-Pad12)*%
X180416200Y-81450198D03*
%TO.P,IC1,13,CKEN*%
%TO.N,GND*%
X177876201Y-81450199D03*
%TO.P,IC1,14,CLOCK*%
%TO.N,Net-(IC1-CLOCK)*%
X175336200Y-81450200D03*
%TO.P,IC1,15,RESET*%
%TO.N,/RESET*%
X172796200Y-81450198D03*
%TO.P,IC1,16,VDD*%
%TO.N,+12V*%
X170256201Y-81450200D03*
%TD*%
D26*
%TO.P,D23,1,K*%
%TO.N,GND*%
X155194000Y-88519000D03*
D12*
%TO.P,D23,2,A*%
%TO.N,Net-(D23-A)*%
X156464001Y-86319295D03*
%TD*%
D27*
%TO.P,D18,1,K*%
%TO.N,GND*%
X204495400Y-91287600D03*
D12*
%TO.P,D18,2,A*%
%TO.N,Net-(D18-A)*%
X205152802Y-93741052D03*
%TD*%
D28*
%TO.P,D20,1,K*%
%TO.N,GND*%
X188087000Y-125323600D03*
D12*
%TO.P,D20,2,A*%
%TO.N,Net-(D20-A)*%
X185633546Y-125981002D03*
%TD*%
D29*
%TO.P,D14,1,K*%
%TO.N,GND*%
X157226000Y-115189000D03*
D12*
%TO.P,D14,2,A*%
%TO.N,Net-(D14-A)*%
X155956000Y-112989294D03*
%TD*%
D30*
%TO.P,RV1,1,1*%
%TO.N,/POT*%
X187669800Y-109723200D03*
D31*
%TO.P,RV1,2,2*%
%TO.N,Net-(IC2-THRES)*%
X190169800Y-114723200D03*
%TO.P,RV1,3,3*%
%TO.N,unconnected-(RV1-Pad3)*%
X192669800Y-109723200D03*
%TD*%
D32*
%TO.P,D22,1,K*%
%TO.N,GND*%
X154055387Y-108967729D03*
D12*
%TO.P,D22,2,A*%
%TO.N,Net-(D22-A)*%
X153397987Y-106514276D03*
%TD*%
D33*
%TO.P,D11,1,K*%
%TO.N,GND*%
X205511400Y-105079800D03*
D12*
%TO.P,D11,2,A*%
%TO.N,Net-(D11-A)*%
X204854000Y-107533253D03*
%TD*%
D11*
%TO.P,D5,1,K*%
%TO.N,GND*%
X181254401Y-126746000D03*
D12*
%TO.P,D5,2,A*%
%TO.N,Net-(D5-A)*%
X178714398Y-126746001D03*
%TD*%
D11*
%TO.P,D7,1,K*%
%TO.N,GND*%
X152628600Y-102133400D03*
D12*
%TO.P,D7,2,A*%
%TO.N,Net-(D7-A)*%
X152628601Y-99593399D03*
%TD*%
D11*
%TO.P,D1,1,K*%
%TO.N,GND*%
X177317400Y-73507600D03*
D12*
%TO.P,D1,2,A*%
%TO.N,Net-(D1-A)*%
X179857400Y-73507600D03*
%TD*%
D34*
%TO.P,D4,1,K*%
%TO.N,GND*%
X199517000Y-117525800D03*
D12*
%TO.P,D4,2,A*%
%TO.N,Net-(D4-A)*%
X197720948Y-119321853D03*
%TD*%
D35*
%TO.P,D2,1,K*%
%TO.N,GND*%
X196697600Y-79857600D03*
D12*
%TO.P,D2,2,A*%
%TO.N,Net-(D2-A)*%
X198493652Y-81653651D03*
%TD*%
D36*
%TO.P,D16,1,K*%
%TO.N,GND*%
X164211000Y-78003400D03*
D12*
%TO.P,D16,2,A*%
%TO.N,Net-(D16-A)*%
X166410705Y-76733400D03*
%TD*%
D37*
%TO.P,D13,1,K*%
%TO.N,GND*%
X174309855Y-126362000D03*
D12*
%TO.P,D13,2,A*%
%TO.N,Net-(D13-A)*%
X171856400Y-125704600D03*
%TD*%
D24*
%TO.P,IC2,1,GND*%
%TO.N,GND*%
X162984200Y-96291400D03*
D25*
%TO.P,IC2,2,TRIG*%
%TO.N,Net-(IC2-THRES)*%
X162984200Y-98831400D03*
%TO.P,IC2,3,OUT*%
%TO.N,Net-(IC1-CLOCK)*%
X162984200Y-101371400D03*
%TO.P,IC2,4,RESET*%
%TO.N,+12V*%
X162984200Y-103911400D03*
%TO.P,IC2,5,CONT*%
%TO.N,unconnected-(IC2-CONT-Pad5)*%
X170924200Y-103911400D03*
%TO.P,IC2,6,THRES*%
%TO.N,Net-(IC2-THRES)*%
X170924200Y-101371400D03*
%TO.P,IC2,7,DISCH*%
%TO.N,/POT*%
X170924200Y-98831400D03*
%TO.P,IC2,8,VCC*%
%TO.N,+12V*%
X170924200Y-96291400D03*
%TD*%
D38*
%TO.P,D21,1,K*%
%TO.N,GND*%
X167690800Y-124180600D03*
D12*
%TO.P,D21,2,A*%
%TO.N,Net-(D21-A)*%
X165491094Y-122910598D03*
%TD*%
D39*
%TO.P,C1,1*%
%TO.N,Net-(IC2-THRES)*%
X187560998Y-103987600D03*
D40*
%TO.P,C1,2*%
%TO.N,GND*%
X185560998Y-103987600D03*
%TD*%
D41*
%TO.P,J1,1*%
%TO.N,+12V*%
X179171599Y-109366799D03*
D42*
%TO.P,J1,2*%
%TO.N,GND*%
X179171598Y-115366800D03*
D43*
%TO.P,J1,3*%
%TO.N,unconnected-(J1-Pad3)*%
X174471598Y-112366800D03*
%TD*%
D44*
%TO.N,/LED_GREEN/LED_GREEN*%
X202255866Y-89771585D03*
X188217145Y-76608578D03*
X202837841Y-109044726D03*
X155687671Y-91283153D03*
X170401693Y-123665423D03*
X189655439Y-123067904D03*
X156334257Y-110550047D03*
X168920905Y-77168413D03*
%TD*%
D10*
%TO.N,/LED_GREEN/LED_GREEN*%
X190187041Y-123599506D02*
X190187041Y-125766668D01*
X156151748Y-111081652D02*
X153635492Y-111081652D01*
X154935869Y-91283153D02*
X153403456Y-89750740D01*
X188217145Y-75358655D02*
X189489735Y-74086065D01*
X155687671Y-91283153D02*
X154935869Y-91283153D01*
X202453619Y-89239981D02*
X204954631Y-89239981D01*
X188217145Y-76608578D02*
X188217145Y-75358655D01*
X202209400Y-89725119D02*
X202209400Y-89484200D01*
X156334257Y-110550047D02*
X156334257Y-110899143D01*
X189655439Y-123067904D02*
X190187041Y-123599506D01*
X203589640Y-109044726D02*
X205122055Y-110577141D01*
X169899105Y-126264895D02*
X169899105Y-126307991D01*
X189489735Y-74086065D02*
X190234148Y-74086065D01*
X156334257Y-110899143D02*
X156151748Y-111081652D01*
X167817800Y-77038200D02*
X167817800Y-74701401D01*
X202255866Y-89771585D02*
X202209400Y-89725119D01*
X170401693Y-123665423D02*
X170401693Y-125762307D01*
X170401693Y-125762307D02*
X169899105Y-126264895D01*
X168920905Y-77168413D02*
X167948013Y-77168413D01*
X202837841Y-109044726D02*
X203589640Y-109044726D01*
X167817800Y-74701401D02*
X167513000Y-74396601D01*
X167948013Y-77168413D02*
X167817800Y-77038200D01*
X202209400Y-89484200D02*
X202453619Y-89239981D01*
%TO.N,Net-(IC2-THRES)*%
X168249600Y-101371400D02*
X165709600Y-98831400D01*
X165709600Y-98831400D02*
X162984200Y-98831400D01*
X170924200Y-101371400D02*
X168249600Y-101371400D01*
%TO.N,/RESET*%
X172796200Y-85013800D02*
X173253400Y-85471000D01*
X185166000Y-85471000D02*
X185496200Y-85801200D01*
X173253400Y-85471000D02*
X185166000Y-85471000D01*
X172796200Y-81450198D02*
X172796200Y-85013800D01*
X185496200Y-85801200D02*
X185496200Y-89390202D01*
%TD*%
%TA.AperFunction,Conductor*%
%TO.N,GND*%
G36*
X180244735Y-71334138D02*
G01*
X180249326Y-71334310D01*
X181318714Y-71394365D01*
X181323268Y-71394707D01*
X182265488Y-71483062D01*
X182389600Y-71494701D01*
X182394208Y-71495220D01*
X182635985Y-71527050D01*
X183456058Y-71635015D01*
X183460602Y-71635699D01*
X184516502Y-71815104D01*
X184521033Y-71815961D01*
X185569503Y-72034726D01*
X185573946Y-72035740D01*
X186613474Y-72293547D01*
X186617954Y-72294747D01*
X187647132Y-72591248D01*
X187651508Y-72592598D01*
X188668888Y-72927377D01*
X188673230Y-72928896D01*
X189677348Y-73301469D01*
X189681632Y-73303150D01*
X190082672Y-73469267D01*
X190149635Y-73497004D01*
X190204038Y-73540845D01*
X190226103Y-73607139D01*
X190208824Y-73674839D01*
X190157686Y-73722449D01*
X190102182Y-73735565D01*
X189443591Y-73735565D01*
X189354447Y-73759451D01*
X189354444Y-73759452D01*
X189274526Y-73805592D01*
X189274521Y-73805596D01*
X188022634Y-75057483D01*
X187961311Y-75090968D01*
X187891619Y-75085984D01*
X187835686Y-75044112D01*
X187811269Y-74978648D01*
X187815686Y-74935871D01*
X187866208Y-74758310D01*
X187885881Y-74546000D01*
X187866208Y-74333690D01*
X187807857Y-74128611D01*
X187807855Y-74128606D01*
X187807855Y-74128605D01*
X187712819Y-73937746D01*
X187584324Y-73767593D01*
X187549191Y-73735565D01*
X187426754Y-73623948D01*
X187245471Y-73511702D01*
X187245469Y-73511701D01*
X187129012Y-73466586D01*
X187046650Y-73434679D01*
X186837062Y-73395500D01*
X186623842Y-73395500D01*
X186414254Y-73434679D01*
X186414251Y-73434679D01*
X186414251Y-73434680D01*
X186215434Y-73511701D01*
X186215432Y-73511702D01*
X186034148Y-73623949D01*
X186033635Y-73624417D01*
X186033335Y-73624563D01*
X186029576Y-73627402D01*
X186029020Y-73626666D01*
X185970828Y-73655030D01*
X185901442Y-73646827D01*
X185847505Y-73602413D01*
X185826142Y-73535889D01*
X185830328Y-73500680D01*
X185874614Y-73335402D01*
X185883839Y-73276240D01*
X185883839Y-73276239D01*
X185870173Y-73133110D01*
X185816736Y-72999633D01*
X185727862Y-72886618D01*
X185727861Y-72886617D01*
X185610736Y-72803214D01*
X185610737Y-72803214D01*
X185554890Y-72781624D01*
X185554872Y-72781619D01*
X184880828Y-72601008D01*
X184615610Y-73590814D01*
X184553306Y-73528510D01*
X184450694Y-73469267D01*
X184336244Y-73438600D01*
X184217756Y-73438600D01*
X184132645Y-73461405D01*
X184397864Y-72471599D01*
X183723803Y-72290985D01*
X183664640Y-72281760D01*
X183664639Y-72281760D01*
X183521510Y-72295426D01*
X183388033Y-72348863D01*
X183275018Y-72437737D01*
X183275017Y-72437738D01*
X183191614Y-72554863D01*
X183170024Y-72610709D01*
X183170019Y-72610727D01*
X182989408Y-73284770D01*
X183979214Y-73549989D01*
X183916910Y-73612294D01*
X183857667Y-73714906D01*
X183827000Y-73829356D01*
X183827000Y-73947844D01*
X183849804Y-74032951D01*
X182859999Y-73767734D01*
X182679385Y-74441794D01*
X182670160Y-74500959D01*
X182670160Y-74500960D01*
X182683826Y-74644089D01*
X182737263Y-74777566D01*
X182826137Y-74890581D01*
X182826138Y-74890582D01*
X182943263Y-74973985D01*
X182943262Y-74973985D01*
X182999109Y-74995575D01*
X182999127Y-74995580D01*
X183673170Y-75176190D01*
X183938388Y-74186384D01*
X184000694Y-74248690D01*
X184103306Y-74307933D01*
X184217756Y-74338600D01*
X184336244Y-74338600D01*
X184421351Y-74315795D01*
X184156134Y-75305599D01*
X184830197Y-75486214D01*
X184889359Y-75495439D01*
X184889360Y-75495439D01*
X185032489Y-75481773D01*
X185165966Y-75428336D01*
X185278981Y-75339462D01*
X185278982Y-75339461D01*
X185362385Y-75222336D01*
X185383975Y-75166490D01*
X185383982Y-75166468D01*
X185428717Y-74999512D01*
X185465082Y-74939851D01*
X185527928Y-74909322D01*
X185597304Y-74917616D01*
X185651182Y-74962102D01*
X185659492Y-74976334D01*
X185748084Y-75154253D01*
X185876579Y-75324406D01*
X185876580Y-75324407D01*
X186034150Y-75468052D01*
X186215433Y-75580298D01*
X186414254Y-75657321D01*
X186623842Y-75696500D01*
X186623844Y-75696500D01*
X186837060Y-75696500D01*
X186837062Y-75696500D01*
X187046650Y-75657321D01*
X187245471Y-75580298D01*
X187426754Y-75468052D01*
X187584324Y-75324407D01*
X187643691Y-75245792D01*
X187699800Y-75204157D01*
X187769512Y-75199466D01*
X187830694Y-75233208D01*
X187863921Y-75294672D01*
X187866645Y-75320520D01*
X187866645Y-76122486D01*
X187846960Y-76189525D01*
X187829058Y-76208990D01*
X187830274Y-76210206D01*
X187824529Y-76215950D01*
X187736282Y-76330955D01*
X187680816Y-76464865D01*
X187680815Y-76464869D01*
X187663932Y-76593109D01*
X187661895Y-76608578D01*
X187680619Y-76750802D01*
X187680815Y-76752286D01*
X187680816Y-76752290D01*
X187736282Y-76886200D01*
X187736283Y-76886202D01*
X187736284Y-76886203D01*
X187824524Y-77001199D01*
X187939520Y-77089439D01*
X188073436Y-77144908D01*
X188200425Y-77161626D01*
X188217144Y-77163828D01*
X188217145Y-77163828D01*
X188217146Y-77163828D01*
X188232122Y-77161856D01*
X188360854Y-77144908D01*
X188494770Y-77089439D01*
X188609766Y-77001199D01*
X188698006Y-76886203D01*
X188753475Y-76752287D01*
X188772395Y-76608578D01*
X188753475Y-76464869D01*
X188698006Y-76330953D01*
X188609766Y-76215957D01*
X188609764Y-76215955D01*
X188609760Y-76215950D01*
X188604016Y-76210206D01*
X188606532Y-76207689D01*
X188574942Y-76164395D01*
X188567645Y-76122486D01*
X188567645Y-75555199D01*
X188587330Y-75488160D01*
X188603964Y-75467518D01*
X189598598Y-74472884D01*
X189659921Y-74439399D01*
X189686279Y-74436565D01*
X189954376Y-74436565D01*
X190021415Y-74456250D01*
X190067170Y-74509054D01*
X190077114Y-74578212D01*
X190061763Y-74622565D01*
X189768163Y-75131092D01*
X189768163Y-75131093D01*
X190655599Y-75643454D01*
X190579294Y-75687510D01*
X190495510Y-75771294D01*
X190436267Y-75873906D01*
X190405600Y-75988356D01*
X190405600Y-76076466D01*
X189518164Y-75564105D01*
X189518163Y-75564105D01*
X189169253Y-76168435D01*
X189145021Y-76223212D01*
X189145019Y-76223218D01*
X189121178Y-76365000D01*
X189121177Y-76365002D01*
X189138248Y-76507762D01*
X189194846Y-76639935D01*
X189286386Y-76750802D01*
X189286390Y-76750805D01*
X189334755Y-76786121D01*
X189334760Y-76786124D01*
X189939092Y-77135035D01*
X189939093Y-77135035D01*
X190451454Y-76247599D01*
X190495510Y-76323906D01*
X190579294Y-76407690D01*
X190681906Y-76466933D01*
X190796356Y-76497600D01*
X190884466Y-76497600D01*
X190372105Y-77385034D01*
X190372105Y-77385035D01*
X190976435Y-77733946D01*
X191031212Y-77758178D01*
X191031218Y-77758180D01*
X191173000Y-77782021D01*
X191173002Y-77782022D01*
X191315762Y-77764951D01*
X191447935Y-77708353D01*
X191558802Y-77616813D01*
X191558805Y-77616809D01*
X191594120Y-77568445D01*
X191682724Y-77414977D01*
X191733291Y-77366761D01*
X191801898Y-77353537D01*
X191866763Y-77379505D01*
X191907292Y-77436419D01*
X191913583Y-77465533D01*
X191919549Y-77529911D01*
X191930513Y-77568445D01*
X191974677Y-77723663D01*
X191977901Y-77734992D01*
X191977901Y-77734994D01*
X192072937Y-77925853D01*
X192118198Y-77985787D01*
X192201433Y-78096007D01*
X192359003Y-78239652D01*
X192540286Y-78351898D01*
X192739107Y-78428921D01*
X192948695Y-78468100D01*
X192948697Y-78468100D01*
X193161913Y-78468100D01*
X193161915Y-78468100D01*
X193371503Y-78428921D01*
X193570324Y-78351898D01*
X193751607Y-78239652D01*
X193909177Y-78096007D01*
X194037671Y-77925855D01*
X194117791Y-77764951D01*
X194132708Y-77734994D01*
X194132708Y-77734993D01*
X194132710Y-77734989D01*
X194191061Y-77529910D01*
X194210734Y-77317600D01*
X194191061Y-77105290D01*
X194132710Y-76900211D01*
X194087645Y-76809709D01*
X194075386Y-76740925D01*
X194102259Y-76676430D01*
X194159736Y-76636702D01*
X194229566Y-76634356D01*
X194265657Y-76650105D01*
X194687996Y-76921375D01*
X194691845Y-76923951D01*
X195548015Y-77520516D01*
X195551768Y-77523237D01*
X196293189Y-78082414D01*
X196334859Y-78138497D01*
X196339594Y-78208206D01*
X196306204Y-78269095D01*
X195884427Y-78690872D01*
X195884427Y-78690873D01*
X196609015Y-79415461D01*
X196523906Y-79438267D01*
X196421294Y-79497510D01*
X196337510Y-79581294D01*
X196278267Y-79683906D01*
X196255461Y-79769015D01*
X195530873Y-79044427D01*
X195530872Y-79044427D01*
X195037437Y-79537862D01*
X194999853Y-79584502D01*
X194940127Y-79715281D01*
X194940126Y-79715286D01*
X194919666Y-79857600D01*
X194940126Y-79999913D01*
X194940127Y-79999918D01*
X194999853Y-80130697D01*
X195037433Y-80177332D01*
X195530873Y-80670772D01*
X196255461Y-79946184D01*
X196278267Y-80031294D01*
X196337510Y-80133906D01*
X196421294Y-80217690D01*
X196523906Y-80276933D01*
X196609014Y-80299737D01*
X195884427Y-81024325D01*
X195884427Y-81024326D01*
X196377867Y-81517766D01*
X196424502Y-81555346D01*
X196555281Y-81615072D01*
X196555286Y-81615073D01*
X196697600Y-81635533D01*
X196839913Y-81615073D01*
X196839918Y-81615072D01*
X196970697Y-81555346D01*
X197017329Y-81517768D01*
X197142031Y-81393066D01*
X197203354Y-81359581D01*
X197273046Y-81364565D01*
X197328980Y-81406436D01*
X197353397Y-81471900D01*
X197353184Y-81492188D01*
X197339902Y-81635533D01*
X197338223Y-81653651D01*
X197357896Y-81865961D01*
X197409026Y-82045663D01*
X197416248Y-82071043D01*
X197416248Y-82071045D01*
X197511284Y-82261904D01*
X197618255Y-82403555D01*
X197639780Y-82432058D01*
X197797350Y-82575703D01*
X197978633Y-82687949D01*
X198177454Y-82764972D01*
X198387042Y-82804151D01*
X198387044Y-82804151D01*
X198600260Y-82804151D01*
X198600262Y-82804151D01*
X198809850Y-82764972D01*
X199008671Y-82687949D01*
X199189954Y-82575703D01*
X199347524Y-82432058D01*
X199476018Y-82261906D01*
X199555842Y-82101596D01*
X199571055Y-82071045D01*
X199571055Y-82071044D01*
X199571057Y-82071040D01*
X199629408Y-81865961D01*
X199649081Y-81653651D01*
X199632963Y-81479713D01*
X199646378Y-81411147D01*
X199694735Y-81360715D01*
X199762681Y-81344432D01*
X199828643Y-81367469D01*
X199848294Y-81384982D01*
X200181887Y-81752889D01*
X200184955Y-81756403D01*
X200856309Y-82555241D01*
X200859242Y-82558868D01*
X201400058Y-83253857D01*
X201425694Y-83318853D01*
X201412121Y-83387392D01*
X201364197Y-83437396D01*
X200862305Y-83727163D01*
X200862305Y-83727164D01*
X201374667Y-84614600D01*
X201286556Y-84614600D01*
X201172106Y-84645267D01*
X201069494Y-84704510D01*
X200985710Y-84788294D01*
X200941654Y-84864599D01*
X200429293Y-83977163D01*
X200429292Y-83977163D01*
X199824951Y-84326081D01*
X199776590Y-84361394D01*
X199776586Y-84361397D01*
X199685046Y-84472264D01*
X199628448Y-84604437D01*
X199611377Y-84747197D01*
X199611378Y-84747199D01*
X199635219Y-84888981D01*
X199635221Y-84888987D01*
X199659453Y-84943764D01*
X200008363Y-85548093D01*
X200008364Y-85548093D01*
X200895800Y-85035731D01*
X200895800Y-85123844D01*
X200926467Y-85238294D01*
X200985710Y-85340906D01*
X201069494Y-85424690D01*
X201145798Y-85468744D01*
X200258363Y-85981105D01*
X200258363Y-85981106D01*
X200607275Y-86585439D01*
X200607278Y-86585444D01*
X200642594Y-86633809D01*
X200642597Y-86633813D01*
X200753464Y-86725353D01*
X200885637Y-86781951D01*
X201028397Y-86799022D01*
X201028399Y-86799021D01*
X201170181Y-86775180D01*
X201170187Y-86775178D01*
X201224964Y-86750946D01*
X201375451Y-86664062D01*
X201443351Y-86647589D01*
X201509378Y-86670441D01*
X201552568Y-86725362D01*
X201559210Y-86794916D01*
X201548453Y-86826718D01*
X201538396Y-86846915D01*
X201480045Y-87051994D01*
X201460372Y-87264304D01*
X201460372Y-87264305D01*
X201480045Y-87476615D01*
X201538397Y-87681697D01*
X201538397Y-87681699D01*
X201633433Y-87872558D01*
X201761928Y-88042711D01*
X201761929Y-88042712D01*
X201919499Y-88186357D01*
X202100782Y-88298603D01*
X202299603Y-88375626D01*
X202509191Y-88414805D01*
X202509193Y-88414805D01*
X202722409Y-88414805D01*
X202722411Y-88414805D01*
X202931999Y-88375626D01*
X203130820Y-88298603D01*
X203312103Y-88186357D01*
X203469673Y-88042712D01*
X203598167Y-87872560D01*
X203644018Y-87780478D01*
X203693204Y-87681699D01*
X203693204Y-87681698D01*
X203693206Y-87681694D01*
X203751557Y-87476615D01*
X203756184Y-87426673D01*
X203781969Y-87361737D01*
X203838769Y-87321049D01*
X203908550Y-87317528D01*
X203969157Y-87352292D01*
X203990030Y-87381604D01*
X204228774Y-87847913D01*
X204230821Y-87852104D01*
X204631543Y-88713162D01*
X204641982Y-88782247D01*
X204613414Y-88846009D01*
X204554908Y-88884204D01*
X204519121Y-88889481D01*
X202407475Y-88889481D01*
X202318331Y-88913367D01*
X202318328Y-88913368D01*
X202238410Y-88959508D01*
X202238405Y-88959512D01*
X201928931Y-89268986D01*
X201928927Y-89268991D01*
X201893947Y-89329580D01*
X201878723Y-89355949D01*
X201877384Y-89355176D01*
X201866616Y-89371308D01*
X201868192Y-89372518D01*
X201863246Y-89378962D01*
X201863245Y-89378964D01*
X201819859Y-89435505D01*
X201775003Y-89493962D01*
X201719537Y-89627872D01*
X201719536Y-89627876D01*
X201700616Y-89771584D01*
X201700616Y-89771585D01*
X201719536Y-89915293D01*
X201719537Y-89915297D01*
X201775003Y-90049207D01*
X201775004Y-90049209D01*
X201775005Y-90049210D01*
X201863245Y-90164206D01*
X201978241Y-90252446D01*
X202112157Y-90307915D01*
X202239146Y-90324633D01*
X202255865Y-90326835D01*
X202255866Y-90326835D01*
X202255867Y-90326835D01*
X202270843Y-90324863D01*
X202399575Y-90307915D01*
X202533491Y-90252446D01*
X202648487Y-90164206D01*
X202736727Y-90049210D01*
X202792196Y-89915294D01*
X202811116Y-89771585D01*
X202807783Y-89746272D01*
X202805729Y-89730667D01*
X202816494Y-89661631D01*
X202862874Y-89609375D01*
X202928668Y-89590481D01*
X204478075Y-89590481D01*
X204545114Y-89610166D01*
X204590869Y-89662970D01*
X204600813Y-89732128D01*
X204571788Y-89795684D01*
X204513010Y-89833458D01*
X204510169Y-89834256D01*
X204374534Y-89870599D01*
X204639751Y-90860404D01*
X204554644Y-90837600D01*
X204436156Y-90837600D01*
X204321706Y-90868267D01*
X204219094Y-90927510D01*
X204156789Y-90989814D01*
X203891570Y-90000008D01*
X203217527Y-90180619D01*
X203217509Y-90180624D01*
X203161663Y-90202214D01*
X203044538Y-90285617D01*
X203044537Y-90285618D01*
X202955663Y-90398633D01*
X202902226Y-90532110D01*
X202888560Y-90675239D01*
X202888560Y-90675240D01*
X202897785Y-90734403D01*
X203078399Y-91408464D01*
X204068205Y-91143245D01*
X204045400Y-91228356D01*
X204045400Y-91346844D01*
X204076067Y-91461294D01*
X204135310Y-91563906D01*
X204197613Y-91626209D01*
X203207808Y-91891428D01*
X203388419Y-92565472D01*
X203388424Y-92565490D01*
X203410014Y-92621336D01*
X203493417Y-92738461D01*
X203493418Y-92738462D01*
X203606433Y-92827336D01*
X203739910Y-92880773D01*
X203883039Y-92894439D01*
X203883040Y-92894439D01*
X203942202Y-92885214D01*
X204114295Y-92839102D01*
X204184145Y-92840765D01*
X204242008Y-92879927D01*
X204269512Y-92944155D01*
X204257926Y-93013058D01*
X204245343Y-93033604D01*
X204170435Y-93132798D01*
X204075398Y-93323657D01*
X204075398Y-93323659D01*
X204017046Y-93528741D01*
X203997373Y-93741051D01*
X203997373Y-93741052D01*
X204017046Y-93953362D01*
X204075398Y-94158444D01*
X204075398Y-94158446D01*
X204170434Y-94349305D01*
X204200863Y-94389599D01*
X204298930Y-94519459D01*
X204456500Y-94663104D01*
X204637783Y-94775350D01*
X204836604Y-94852373D01*
X205046192Y-94891552D01*
X205046194Y-94891552D01*
X205259410Y-94891552D01*
X205259412Y-94891552D01*
X205469000Y-94852373D01*
X205667821Y-94775350D01*
X205849104Y-94663104D01*
X206006674Y-94519459D01*
X206135168Y-94349307D01*
X206201988Y-94215112D01*
X206249488Y-94163879D01*
X206317150Y-94146457D01*
X206383491Y-94168382D01*
X206427447Y-94222693D01*
X206434265Y-94244555D01*
X206549636Y-94786206D01*
X206550522Y-94790785D01*
X206729365Y-95818821D01*
X206730078Y-95823431D01*
X206832491Y-96579557D01*
X206821983Y-96648632D01*
X206775797Y-96701060D01*
X206709613Y-96720200D01*
X206167800Y-96720200D01*
X206167800Y-97744922D01*
X206091494Y-97700867D01*
X205977044Y-97670200D01*
X205858556Y-97670200D01*
X205744106Y-97700867D01*
X205667800Y-97744922D01*
X205667800Y-96720200D01*
X204969955Y-96720200D01*
X204910427Y-96726601D01*
X204910420Y-96726603D01*
X204775713Y-96776845D01*
X204775706Y-96776849D01*
X204660612Y-96863009D01*
X204660609Y-96863012D01*
X204574449Y-96978106D01*
X204574445Y-96978113D01*
X204524203Y-97112820D01*
X204524201Y-97112827D01*
X204517800Y-97172355D01*
X204517800Y-97870200D01*
X205542522Y-97870200D01*
X205498467Y-97946506D01*
X205467800Y-98060956D01*
X205467800Y-98179444D01*
X205498467Y-98293894D01*
X205542522Y-98370200D01*
X204517800Y-98370200D01*
X204517800Y-99068044D01*
X204524201Y-99127572D01*
X204524203Y-99127579D01*
X204574445Y-99262286D01*
X204574449Y-99262293D01*
X204660609Y-99377387D01*
X204660612Y-99377390D01*
X204775706Y-99463550D01*
X204775713Y-99463554D01*
X204910420Y-99513796D01*
X204910427Y-99513798D01*
X204969955Y-99520199D01*
X204969972Y-99520200D01*
X205140497Y-99520200D01*
X205207536Y-99539885D01*
X205253291Y-99592689D01*
X205263235Y-99661847D01*
X205234210Y-99725403D01*
X205224035Y-99735837D01*
X205063930Y-99881791D01*
X204935433Y-100051947D01*
X204840397Y-100242806D01*
X204840397Y-100242808D01*
X204782045Y-100447890D01*
X204762372Y-100660200D01*
X204762372Y-100660201D01*
X204782045Y-100872511D01*
X204840397Y-101077593D01*
X204840397Y-101077595D01*
X204935433Y-101268454D01*
X205041859Y-101409383D01*
X205063929Y-101438608D01*
X205221499Y-101582253D01*
X205402782Y-101694499D01*
X205601603Y-101771522D01*
X205811191Y-101810701D01*
X205811193Y-101810701D01*
X206024409Y-101810701D01*
X206024411Y-101810701D01*
X206233999Y-101771522D01*
X206432820Y-101694499D01*
X206614103Y-101582253D01*
X206771673Y-101438608D01*
X206793744Y-101409381D01*
X206849851Y-101367747D01*
X206919563Y-101363054D01*
X206980745Y-101396796D01*
X207013973Y-101458259D01*
X207016520Y-101490736D01*
X206984476Y-102089466D01*
X206984139Y-102094118D01*
X206889223Y-103133266D01*
X206888711Y-103137903D01*
X206799131Y-103830050D01*
X206771005Y-103894008D01*
X206712765Y-103932607D01*
X206644064Y-103933909D01*
X206115228Y-103792208D01*
X205850009Y-104782013D01*
X205787706Y-104719710D01*
X205685094Y-104660467D01*
X205570644Y-104629800D01*
X205452156Y-104629800D01*
X205367045Y-104652605D01*
X205632264Y-103662799D01*
X204958203Y-103482185D01*
X204899040Y-103472960D01*
X204899039Y-103472960D01*
X204755910Y-103486626D01*
X204622433Y-103540063D01*
X204509418Y-103628937D01*
X204509417Y-103628938D01*
X204426014Y-103746063D01*
X204404424Y-103801909D01*
X204404419Y-103801927D01*
X204223808Y-104475970D01*
X205213614Y-104741189D01*
X205151310Y-104803494D01*
X205092067Y-104906106D01*
X205061400Y-105020556D01*
X205061400Y-105139044D01*
X205084204Y-105224151D01*
X204094399Y-104958934D01*
X203913785Y-105632994D01*
X203904560Y-105692159D01*
X203904560Y-105692160D01*
X203918226Y-105835289D01*
X203971663Y-105968766D01*
X204060537Y-106081781D01*
X204060538Y-106081782D01*
X204177663Y-106165185D01*
X204177662Y-106165185D01*
X204233509Y-106186775D01*
X204233531Y-106186782D01*
X204405503Y-106232861D01*
X204465164Y-106269226D01*
X204495693Y-106332073D01*
X204487398Y-106401448D01*
X204442913Y-106455326D01*
X204418205Y-106468262D01*
X204338988Y-106498951D01*
X204338980Y-106498955D01*
X204157699Y-106611200D01*
X204000127Y-106754846D01*
X203871632Y-106924999D01*
X203776596Y-107115858D01*
X203776596Y-107115860D01*
X203718244Y-107320942D01*
X203712695Y-107380832D01*
X203698571Y-107533253D01*
X203718244Y-107745563D01*
X203757162Y-107882345D01*
X203776596Y-107950645D01*
X203776596Y-107950647D01*
X203871632Y-108141506D01*
X203871634Y-108141508D01*
X204000128Y-108311660D01*
X204157698Y-108455305D01*
X204338981Y-108567551D01*
X204537802Y-108644574D01*
X204747390Y-108683753D01*
X204747392Y-108683753D01*
X204960608Y-108683753D01*
X204960610Y-108683753D01*
X205170198Y-108644574D01*
X205369019Y-108567551D01*
X205530937Y-108467294D01*
X205598298Y-108448739D01*
X205664997Y-108469547D01*
X205709859Y-108523113D01*
X205718639Y-108592428D01*
X205714044Y-108611351D01*
X205503314Y-109254130D01*
X205501778Y-109258535D01*
X205244099Y-109954882D01*
X205202372Y-110010923D01*
X205136971Y-110035509D01*
X205068660Y-110020833D01*
X205040125Y-109999529D01*
X203804853Y-108764257D01*
X203804848Y-108764253D01*
X203724931Y-108718113D01*
X203724927Y-108718111D01*
X203719566Y-108716675D01*
X203719566Y-108716674D01*
X203651116Y-108698334D01*
X203635784Y-108694226D01*
X203635783Y-108694226D01*
X203323933Y-108694226D01*
X203256894Y-108674541D01*
X203237428Y-108656639D01*
X203236213Y-108657855D01*
X203230468Y-108652110D01*
X203230462Y-108652105D01*
X203115466Y-108563865D01*
X203115465Y-108563864D01*
X203115463Y-108563863D01*
X202981553Y-108508397D01*
X202981551Y-108508396D01*
X202981550Y-108508396D01*
X202909695Y-108498936D01*
X202837842Y-108489476D01*
X202837840Y-108489476D01*
X202694132Y-108508396D01*
X202694128Y-108508397D01*
X202560218Y-108563863D01*
X202445220Y-108652105D01*
X202356978Y-108767103D01*
X202301512Y-108901013D01*
X202301511Y-108901017D01*
X202299207Y-108918521D01*
X202282591Y-109044726D01*
X202291725Y-109114108D01*
X202301511Y-109188434D01*
X202301512Y-109188438D01*
X202356978Y-109322348D01*
X202356979Y-109322350D01*
X202356980Y-109322351D01*
X202445220Y-109437347D01*
X202560216Y-109525587D01*
X202694132Y-109581056D01*
X202821121Y-109597774D01*
X202837840Y-109599976D01*
X202837841Y-109599976D01*
X202837842Y-109599976D01*
X202852818Y-109598004D01*
X202981550Y-109581056D01*
X203115466Y-109525587D01*
X203230462Y-109437347D01*
X203230464Y-109437343D01*
X203230468Y-109437341D01*
X203236213Y-109431597D01*
X203238729Y-109434113D01*
X203282024Y-109402523D01*
X203323933Y-109395226D01*
X203393096Y-109395226D01*
X203460135Y-109414911D01*
X203480777Y-109431545D01*
X204570845Y-110521613D01*
X204604330Y-110582936D01*
X204599346Y-110652628D01*
X204557474Y-110708561D01*
X204492010Y-110732978D01*
X204423737Y-110718126D01*
X204421164Y-110716681D01*
X204243506Y-110614110D01*
X204243505Y-110614110D01*
X203731144Y-111501545D01*
X203687090Y-111425241D01*
X203603306Y-111341457D01*
X203500694Y-111282214D01*
X203386244Y-111251547D01*
X203298131Y-111251547D01*
X203810493Y-110364111D01*
X203810493Y-110364110D01*
X203206164Y-110015200D01*
X203151387Y-109990968D01*
X203151381Y-109990966D01*
X203009599Y-109967125D01*
X203009597Y-109967124D01*
X202866837Y-109984195D01*
X202734664Y-110040793D01*
X202623797Y-110132333D01*
X202623794Y-110132337D01*
X202588481Y-110180698D01*
X202239563Y-110785039D01*
X202239563Y-110785040D01*
X203126999Y-111297401D01*
X203050694Y-111341457D01*
X202966910Y-111425241D01*
X202907667Y-111527853D01*
X202877000Y-111642303D01*
X202877000Y-111730414D01*
X201989564Y-111218052D01*
X201989563Y-111218052D01*
X201640653Y-111822382D01*
X201616421Y-111877159D01*
X201616419Y-111877165D01*
X201592578Y-112018947D01*
X201592577Y-112018949D01*
X201609648Y-112161709D01*
X201666246Y-112293882D01*
X201757786Y-112404749D01*
X201757790Y-112404752D01*
X201806155Y-112440068D01*
X201806160Y-112440071D01*
X201957541Y-112527471D01*
X202005757Y-112578038D01*
X202018980Y-112646645D01*
X201993012Y-112711510D01*
X201936097Y-112752038D01*
X201918328Y-112756746D01*
X201740802Y-112789932D01*
X201740799Y-112789932D01*
X201740799Y-112789933D01*
X201541982Y-112866954D01*
X201541980Y-112866955D01*
X201360699Y-112979200D01*
X201203127Y-113122846D01*
X201074632Y-113292999D01*
X200979596Y-113483858D01*
X200979596Y-113483860D01*
X200921594Y-113687714D01*
X200921244Y-113688943D01*
X200901571Y-113901253D01*
X200921244Y-114113563D01*
X200928707Y-114139794D01*
X200979596Y-114318645D01*
X200979596Y-114318647D01*
X201074632Y-114509506D01*
X201155623Y-114616754D01*
X201203128Y-114679660D01*
X201360698Y-114823305D01*
X201541981Y-114935551D01*
X201740802Y-115012574D01*
X201950390Y-115051753D01*
X201950392Y-115051753D01*
X202163608Y-115051753D01*
X202163610Y-115051753D01*
X202373198Y-115012574D01*
X202471433Y-114974518D01*
X202541056Y-114968655D01*
X202602796Y-115001365D01*
X202637051Y-115062261D01*
X202632946Y-115132010D01*
X202619940Y-115158112D01*
X202208254Y-115786302D01*
X202205624Y-115790155D01*
X201601244Y-116640779D01*
X201598471Y-116644530D01*
X201257409Y-117088210D01*
X201200945Y-117129364D01*
X201131196Y-117133458D01*
X201071418Y-117100319D01*
X200683726Y-116712627D01*
X200683725Y-116712627D01*
X199959137Y-117437214D01*
X199936333Y-117352106D01*
X199877090Y-117249494D01*
X199793306Y-117165710D01*
X199690694Y-117106467D01*
X199605584Y-117083661D01*
X200330172Y-116359074D01*
X200330172Y-116359072D01*
X199836736Y-115865637D01*
X199836732Y-115865633D01*
X199790097Y-115828053D01*
X199659318Y-115768327D01*
X199659313Y-115768326D01*
X199517000Y-115747866D01*
X199374686Y-115768326D01*
X199374681Y-115768327D01*
X199243902Y-115828053D01*
X199197262Y-115865637D01*
X198703827Y-116359072D01*
X198703827Y-116359073D01*
X199428415Y-117083661D01*
X199343306Y-117106467D01*
X199240694Y-117165710D01*
X199156910Y-117249494D01*
X199097667Y-117352106D01*
X199074861Y-117437215D01*
X198350273Y-116712627D01*
X198350272Y-116712627D01*
X197856837Y-117206062D01*
X197819253Y-117252702D01*
X197759527Y-117383481D01*
X197759526Y-117383486D01*
X197739066Y-117525800D01*
X197759526Y-117668113D01*
X197759527Y-117668118D01*
X197819253Y-117798897D01*
X197856833Y-117845532D01*
X197981145Y-117969844D01*
X198014630Y-118031167D01*
X198009646Y-118100859D01*
X197967774Y-118156792D01*
X197902310Y-118181209D01*
X197870680Y-118179414D01*
X197827558Y-118171353D01*
X197614338Y-118171353D01*
X197404750Y-118210532D01*
X197404747Y-118210532D01*
X197404747Y-118210533D01*
X197205930Y-118287554D01*
X197205928Y-118287555D01*
X197024647Y-118399800D01*
X196867075Y-118543446D01*
X196738580Y-118713599D01*
X196643544Y-118904458D01*
X196643544Y-118904460D01*
X196585192Y-119109542D01*
X196578111Y-119185966D01*
X196565519Y-119321853D01*
X196585192Y-119534163D01*
X196639210Y-119724015D01*
X196643544Y-119739245D01*
X196643544Y-119739247D01*
X196738580Y-119930106D01*
X196864992Y-120097501D01*
X196867076Y-120100260D01*
X197024646Y-120243905D01*
X197205929Y-120356151D01*
X197404750Y-120433174D01*
X197614338Y-120472353D01*
X197614340Y-120472353D01*
X197827557Y-120472353D01*
X197827558Y-120472353D01*
X197833636Y-120471216D01*
X197840409Y-120469951D01*
X197909924Y-120476981D01*
X197964603Y-120520478D01*
X197987086Y-120586631D01*
X197970234Y-120654438D01*
X197945640Y-120684461D01*
X197326488Y-121235588D01*
X197322947Y-121238623D01*
X196517975Y-121902613D01*
X196514321Y-121905513D01*
X196110925Y-122213514D01*
X196045696Y-122238551D01*
X195977285Y-122224349D01*
X195928288Y-122176957D01*
X195647435Y-121690505D01*
X195647434Y-121690505D01*
X194760000Y-122202865D01*
X194760000Y-122114756D01*
X194729333Y-122000306D01*
X194670090Y-121897694D01*
X194586306Y-121813910D01*
X194509999Y-121769854D01*
X195397435Y-121257493D01*
X195397435Y-121257492D01*
X195048524Y-120653160D01*
X195048521Y-120653155D01*
X195013205Y-120604790D01*
X195013202Y-120604786D01*
X194902335Y-120513246D01*
X194770162Y-120456648D01*
X194627402Y-120439577D01*
X194627400Y-120439578D01*
X194485618Y-120463419D01*
X194485612Y-120463421D01*
X194430835Y-120487653D01*
X193826505Y-120836563D01*
X193826505Y-120836564D01*
X194338867Y-121724000D01*
X194250756Y-121724000D01*
X194136306Y-121754667D01*
X194033694Y-121813910D01*
X193949910Y-121897694D01*
X193905854Y-121973999D01*
X193393493Y-121086563D01*
X193393492Y-121086563D01*
X192789151Y-121435481D01*
X192740790Y-121470794D01*
X192740786Y-121470797D01*
X192649246Y-121581664D01*
X192592648Y-121713837D01*
X192575577Y-121856597D01*
X192575578Y-121856599D01*
X192599419Y-121998381D01*
X192599421Y-121998387D01*
X192623653Y-122053164D01*
X192712387Y-122206854D01*
X192728860Y-122274754D01*
X192706008Y-122340781D01*
X192651086Y-122383972D01*
X192581533Y-122390613D01*
X192560207Y-122384481D01*
X192426497Y-122332682D01*
X192404152Y-122328505D01*
X192216904Y-122293502D01*
X192003684Y-122293502D01*
X191794096Y-122332681D01*
X191794093Y-122332681D01*
X191794093Y-122332682D01*
X191595276Y-122409703D01*
X191595274Y-122409704D01*
X191413993Y-122521949D01*
X191256421Y-122665595D01*
X191127926Y-122835748D01*
X191032890Y-123026607D01*
X191032890Y-123026609D01*
X190974538Y-123231691D01*
X190955044Y-123442075D01*
X190954865Y-123444002D01*
X190974538Y-123656312D01*
X191018019Y-123809131D01*
X191032890Y-123861394D01*
X191032890Y-123861396D01*
X191127926Y-124052255D01*
X191252053Y-124216624D01*
X191256422Y-124222409D01*
X191413992Y-124366054D01*
X191595275Y-124478300D01*
X191794096Y-124555323D01*
X191971320Y-124588452D01*
X192033599Y-124620119D01*
X192068872Y-124680432D01*
X192065938Y-124750240D01*
X192025729Y-124807380D01*
X192004027Y-124821229D01*
X191194558Y-125226326D01*
X191190349Y-125228335D01*
X190712826Y-125445253D01*
X190643647Y-125455057D01*
X190580150Y-125425904D01*
X190542494Y-125367051D01*
X190537541Y-125332355D01*
X190537541Y-123553364D01*
X190537541Y-123553362D01*
X190513655Y-123464218D01*
X190492214Y-123427081D01*
X190467511Y-123384294D01*
X190246999Y-123163782D01*
X190213514Y-123102459D01*
X190212422Y-123076033D01*
X190210689Y-123076033D01*
X190210689Y-123067904D01*
X190205252Y-123026607D01*
X190191769Y-122924195D01*
X190136300Y-122790279D01*
X190048060Y-122675283D01*
X189933064Y-122587043D01*
X189933063Y-122587042D01*
X189933061Y-122587041D01*
X189799151Y-122531575D01*
X189799149Y-122531574D01*
X189799148Y-122531574D01*
X189710067Y-122519846D01*
X189655440Y-122512654D01*
X189655438Y-122512654D01*
X189511730Y-122531574D01*
X189511726Y-122531575D01*
X189377816Y-122587041D01*
X189262818Y-122675283D01*
X189174576Y-122790281D01*
X189119110Y-122924191D01*
X189119109Y-122924195D01*
X189100189Y-123067903D01*
X189100189Y-123067904D01*
X189119109Y-123211612D01*
X189119110Y-123211616D01*
X189174576Y-123345526D01*
X189174577Y-123345528D01*
X189174578Y-123345529D01*
X189262818Y-123460525D01*
X189377814Y-123548765D01*
X189511730Y-123604234D01*
X189655439Y-123623154D01*
X189663568Y-123623154D01*
X189663568Y-123626732D01*
X189716409Y-123634935D01*
X189751317Y-123659464D01*
X189800222Y-123708369D01*
X189833707Y-123769692D01*
X189836541Y-123796050D01*
X189836541Y-125501918D01*
X189816856Y-125568957D01*
X189764052Y-125614712D01*
X189694894Y-125624656D01*
X189631338Y-125595631D01*
X189593564Y-125536853D01*
X189592766Y-125534012D01*
X189503999Y-125202734D01*
X188514195Y-125467951D01*
X188537000Y-125382844D01*
X188537000Y-125264356D01*
X188506333Y-125149906D01*
X188447090Y-125047294D01*
X188384784Y-124984988D01*
X189374590Y-124719770D01*
X189193980Y-124045727D01*
X189193975Y-124045709D01*
X189172385Y-123989863D01*
X189088982Y-123872738D01*
X189088981Y-123872737D01*
X188975966Y-123783863D01*
X188842489Y-123730426D01*
X188699360Y-123716760D01*
X188699359Y-123716760D01*
X188640194Y-123725985D01*
X187966134Y-123906599D01*
X188231351Y-124896404D01*
X188146244Y-124873600D01*
X188027756Y-124873600D01*
X187913306Y-124904267D01*
X187810694Y-124963510D01*
X187748389Y-125025814D01*
X187483170Y-124036008D01*
X186809127Y-124216619D01*
X186809109Y-124216624D01*
X186753263Y-124238214D01*
X186636138Y-124321617D01*
X186636137Y-124321618D01*
X186547263Y-124434633D01*
X186493826Y-124568110D01*
X186480160Y-124711239D01*
X186480160Y-124711240D01*
X186489385Y-124770405D01*
X186533672Y-124935685D01*
X186532009Y-125005535D01*
X186492846Y-125063397D01*
X186428618Y-125090901D01*
X186359716Y-125079314D01*
X186334538Y-125062249D01*
X186334422Y-125062404D01*
X186331404Y-125060125D01*
X186330364Y-125059420D01*
X186329849Y-125058951D01*
X186329848Y-125058950D01*
X186148565Y-124946704D01*
X186148563Y-124946703D01*
X186049154Y-124908192D01*
X185949744Y-124869681D01*
X185740156Y-124830502D01*
X185526936Y-124830502D01*
X185317348Y-124869681D01*
X185317345Y-124869681D01*
X185317345Y-124869682D01*
X185118528Y-124946703D01*
X185118526Y-124946704D01*
X184937245Y-125058949D01*
X184779673Y-125202595D01*
X184651178Y-125372748D01*
X184556142Y-125563607D01*
X184556142Y-125563609D01*
X184515462Y-125706584D01*
X184497790Y-125768692D01*
X184478117Y-125981002D01*
X184497790Y-126193312D01*
X184546526Y-126364600D01*
X184556142Y-126398394D01*
X184556142Y-126398396D01*
X184651178Y-126589255D01*
X184772504Y-126749915D01*
X184779674Y-126759409D01*
X184937244Y-126903054D01*
X185118527Y-127015300D01*
X185212196Y-127051587D01*
X185267598Y-127094160D01*
X185291189Y-127159926D01*
X185275478Y-127228007D01*
X185225455Y-127276786D01*
X185192120Y-127288726D01*
X184235210Y-127483375D01*
X184230623Y-127484218D01*
X183201022Y-127653607D01*
X183196406Y-127654278D01*
X182793915Y-127705032D01*
X182724939Y-127693889D01*
X182672937Y-127647224D01*
X182654401Y-127582006D01*
X182654401Y-126996000D01*
X181629679Y-126996000D01*
X181673734Y-126919694D01*
X181704401Y-126805244D01*
X181704401Y-126686756D01*
X181673734Y-126572306D01*
X181629679Y-126496000D01*
X182654401Y-126496000D01*
X182654401Y-125798172D01*
X182654400Y-125798155D01*
X182647999Y-125738627D01*
X182647997Y-125738620D01*
X182597755Y-125603913D01*
X182597751Y-125603906D01*
X182511591Y-125488812D01*
X182511588Y-125488809D01*
X182396494Y-125402649D01*
X182396487Y-125402645D01*
X182261780Y-125352403D01*
X182261773Y-125352401D01*
X182202245Y-125346000D01*
X181504401Y-125346000D01*
X181504401Y-126370722D01*
X181428095Y-126326667D01*
X181313645Y-126296000D01*
X181195157Y-126296000D01*
X181080707Y-126326667D01*
X181004401Y-126370722D01*
X181004401Y-125346000D01*
X180306556Y-125346000D01*
X180247028Y-125352401D01*
X180247021Y-125352403D01*
X180112314Y-125402645D01*
X180112307Y-125402649D01*
X179997213Y-125488809D01*
X179997210Y-125488812D01*
X179911050Y-125603906D01*
X179911046Y-125603913D01*
X179860804Y-125738620D01*
X179860802Y-125738627D01*
X179854401Y-125798155D01*
X179854401Y-125976526D01*
X179834716Y-126043565D01*
X179781912Y-126089320D01*
X179712754Y-126099264D01*
X179649198Y-126070239D01*
X179631447Y-126051253D01*
X179568270Y-125967594D01*
X179410700Y-125823949D01*
X179229417Y-125711703D01*
X179229415Y-125711702D01*
X179042635Y-125639344D01*
X179030596Y-125634680D01*
X178821008Y-125595501D01*
X178607788Y-125595501D01*
X178398200Y-125634680D01*
X178398197Y-125634680D01*
X178398197Y-125634681D01*
X178199380Y-125711702D01*
X178199378Y-125711703D01*
X178018097Y-125823948D01*
X177860525Y-125967594D01*
X177732030Y-126137747D01*
X177636994Y-126328606D01*
X177636994Y-126328608D01*
X177578642Y-126533690D01*
X177572150Y-126603757D01*
X177558969Y-126746001D01*
X177578642Y-126958311D01*
X177636007Y-127159926D01*
X177636994Y-127163393D01*
X177636994Y-127163395D01*
X177732030Y-127354254D01*
X177853780Y-127515475D01*
X177860526Y-127524408D01*
X178018096Y-127668053D01*
X178049401Y-127687436D01*
X178096035Y-127739462D01*
X178107139Y-127808444D01*
X178079187Y-127872478D01*
X178021052Y-127911235D01*
X177981020Y-127916823D01*
X177974387Y-127916657D01*
X177969725Y-127916453D01*
X176928280Y-127851117D01*
X176923631Y-127850737D01*
X175885421Y-127746284D01*
X175880789Y-127745730D01*
X175545190Y-127699157D01*
X175481493Y-127670444D01*
X175443431Y-127611852D01*
X175442460Y-127544240D01*
X175597445Y-126965828D01*
X174607640Y-126700610D01*
X174669945Y-126638306D01*
X174729188Y-126535694D01*
X174759855Y-126421244D01*
X174759855Y-126302756D01*
X174737049Y-126217646D01*
X175726854Y-126482864D01*
X175907469Y-125808802D01*
X175916694Y-125749640D01*
X175916694Y-125749639D01*
X175903028Y-125606510D01*
X175849591Y-125473033D01*
X175760717Y-125360018D01*
X175760716Y-125360017D01*
X175643591Y-125276614D01*
X175643592Y-125276614D01*
X175587745Y-125255024D01*
X175587727Y-125255019D01*
X174913683Y-125074408D01*
X174648464Y-126064213D01*
X174586161Y-126001910D01*
X174483549Y-125942667D01*
X174369099Y-125912000D01*
X174250611Y-125912000D01*
X174165501Y-125934805D01*
X174430719Y-124944999D01*
X173756658Y-124764385D01*
X173697495Y-124755160D01*
X173697494Y-124755160D01*
X173554365Y-124768826D01*
X173420888Y-124822263D01*
X173307873Y-124911137D01*
X173307872Y-124911138D01*
X173224469Y-125028263D01*
X173202879Y-125084109D01*
X173202874Y-125084127D01*
X173158136Y-125251091D01*
X173121771Y-125310751D01*
X173058924Y-125341280D01*
X172989548Y-125332985D01*
X172935670Y-125288500D01*
X172927361Y-125274268D01*
X172838767Y-125096346D01*
X172710272Y-124926193D01*
X172552702Y-124782548D01*
X172371419Y-124670302D01*
X172371417Y-124670301D01*
X172268935Y-124630600D01*
X172172598Y-124593279D01*
X171963010Y-124554100D01*
X171749790Y-124554100D01*
X171540202Y-124593279D01*
X171540199Y-124593279D01*
X171540199Y-124593280D01*
X171341382Y-124670301D01*
X171341380Y-124670302D01*
X171160099Y-124782547D01*
X171002527Y-124926193D01*
X170975147Y-124962451D01*
X170919038Y-125004087D01*
X170849326Y-125008778D01*
X170788144Y-124975036D01*
X170754917Y-124913572D01*
X170752193Y-124887724D01*
X170752193Y-124151515D01*
X170771878Y-124084476D01*
X170789807Y-124065032D01*
X170788567Y-124063792D01*
X170794312Y-124058046D01*
X170794314Y-124058044D01*
X170882554Y-123943048D01*
X170938023Y-123809132D01*
X170956943Y-123665423D01*
X170956158Y-123659464D01*
X170952929Y-123634935D01*
X170938023Y-123521714D01*
X170882554Y-123387798D01*
X170794314Y-123272802D01*
X170679318Y-123184562D01*
X170679317Y-123184561D01*
X170679315Y-123184560D01*
X170545405Y-123129094D01*
X170545403Y-123129093D01*
X170545402Y-123129093D01*
X170473547Y-123119633D01*
X170401694Y-123110173D01*
X170401692Y-123110173D01*
X170257984Y-123129093D01*
X170257980Y-123129094D01*
X170124070Y-123184560D01*
X170009072Y-123272802D01*
X169920830Y-123387800D01*
X169865364Y-123521710D01*
X169865363Y-123521714D01*
X169847228Y-123659464D01*
X169846443Y-123665423D01*
X169865023Y-123806553D01*
X169865363Y-123809131D01*
X169865364Y-123809135D01*
X169920831Y-123943046D01*
X169920832Y-123943048D01*
X170009073Y-124058046D01*
X170014819Y-124063792D01*
X170012267Y-124066343D01*
X170043784Y-124109296D01*
X170051193Y-124151515D01*
X170051193Y-125565763D01*
X170031508Y-125632802D01*
X170014874Y-125653444D01*
X169618636Y-126049681D01*
X169618634Y-126049684D01*
X169579675Y-126117165D01*
X169579619Y-126117262D01*
X169579468Y-126117523D01*
X169528857Y-126165693D01*
X169460239Y-126178855D01*
X169428036Y-126171320D01*
X168950489Y-125989604D01*
X168797856Y-125931523D01*
X168793564Y-125929797D01*
X168524134Y-125815496D01*
X168470107Y-125771193D01*
X168448608Y-125704713D01*
X168465175Y-125639344D01*
X168778235Y-125097106D01*
X168778235Y-125097105D01*
X167890801Y-124584744D01*
X167967106Y-124540690D01*
X168050890Y-124456906D01*
X168110133Y-124354294D01*
X168140800Y-124239844D01*
X168140800Y-124151732D01*
X169028234Y-124664093D01*
X169028235Y-124664093D01*
X169377146Y-124059764D01*
X169401378Y-124004987D01*
X169401380Y-124004981D01*
X169425221Y-123863199D01*
X169425222Y-123863197D01*
X169408151Y-123720437D01*
X169351553Y-123588264D01*
X169260013Y-123477397D01*
X169260009Y-123477394D01*
X169211644Y-123442078D01*
X169211639Y-123442075D01*
X168607306Y-123093163D01*
X168607305Y-123093163D01*
X168094944Y-123980597D01*
X168050890Y-123904294D01*
X167967106Y-123820510D01*
X167864494Y-123761267D01*
X167750044Y-123730600D01*
X167661931Y-123730600D01*
X168174293Y-122843164D01*
X168174293Y-122843163D01*
X167569964Y-122494253D01*
X167515187Y-122470021D01*
X167515181Y-122470019D01*
X167373399Y-122446178D01*
X167373397Y-122446177D01*
X167230637Y-122463248D01*
X167098464Y-122519846D01*
X166987597Y-122611386D01*
X166987594Y-122611390D01*
X166952278Y-122659755D01*
X166952275Y-122659760D01*
X166863673Y-122813223D01*
X166813106Y-122861439D01*
X166744499Y-122874661D01*
X166679634Y-122848693D01*
X166639106Y-122791779D01*
X166632815Y-122762664D01*
X166629868Y-122730861D01*
X166626850Y-122698288D01*
X166568499Y-122493209D01*
X166568497Y-122493204D01*
X166568497Y-122493203D01*
X166473461Y-122302344D01*
X166344966Y-122132191D01*
X166325841Y-122114756D01*
X166187396Y-121988546D01*
X166006113Y-121876300D01*
X166006111Y-121876299D01*
X165845064Y-121813910D01*
X165807292Y-121799277D01*
X165597704Y-121760098D01*
X165384484Y-121760098D01*
X165174896Y-121799277D01*
X165174893Y-121799277D01*
X165174893Y-121799278D01*
X164976076Y-121876299D01*
X164976074Y-121876300D01*
X164794793Y-121988545D01*
X164637221Y-122132191D01*
X164508726Y-122302344D01*
X164413690Y-122493203D01*
X164413690Y-122493205D01*
X164355338Y-122698287D01*
X164341914Y-122843164D01*
X164335665Y-122910598D01*
X164355338Y-123122908D01*
X164413689Y-123327987D01*
X164441727Y-123384295D01*
X164484448Y-123470092D01*
X164496708Y-123538878D01*
X164469834Y-123603372D01*
X164412358Y-123643100D01*
X164342528Y-123645446D01*
X164308459Y-123630968D01*
X164147273Y-123531768D01*
X164143359Y-123529256D01*
X163275892Y-122949299D01*
X163272064Y-122946634D01*
X162646146Y-122493203D01*
X162427014Y-122334458D01*
X162423346Y-122331695D01*
X162236155Y-122185045D01*
X162195522Y-122128205D01*
X162192069Y-122058421D01*
X162224946Y-121999752D01*
X162687372Y-121537326D01*
X162687372Y-121537325D01*
X161962785Y-120812738D01*
X162047894Y-120789933D01*
X162150506Y-120730690D01*
X162234290Y-120646906D01*
X162293533Y-120544294D01*
X162316338Y-120459185D01*
X163040925Y-121183772D01*
X163534362Y-120690336D01*
X163534366Y-120690332D01*
X163571946Y-120643697D01*
X163631672Y-120512918D01*
X163631673Y-120512913D01*
X163652133Y-120370600D01*
X163631673Y-120228286D01*
X163631672Y-120228281D01*
X163571946Y-120097502D01*
X163534366Y-120050867D01*
X163040926Y-119557427D01*
X162316338Y-120282014D01*
X162293533Y-120196906D01*
X162234290Y-120094294D01*
X162150506Y-120010510D01*
X162047894Y-119951267D01*
X161962782Y-119928461D01*
X162687371Y-119203872D01*
X162193932Y-118710433D01*
X162147297Y-118672853D01*
X162016518Y-118613127D01*
X162016513Y-118613126D01*
X161874200Y-118592666D01*
X161731886Y-118613126D01*
X161731881Y-118613127D01*
X161601102Y-118672853D01*
X161554465Y-118710435D01*
X161429766Y-118835134D01*
X161368443Y-118868618D01*
X161298751Y-118863634D01*
X161242818Y-118821762D01*
X161218401Y-118756298D01*
X161218614Y-118736011D01*
X161224467Y-118672853D01*
X161233576Y-118574546D01*
X161213903Y-118362236D01*
X161155552Y-118157157D01*
X161155550Y-118157152D01*
X161155550Y-118157151D01*
X161060514Y-117966292D01*
X160932019Y-117796139D01*
X160826005Y-117699494D01*
X160774449Y-117652494D01*
X160593166Y-117540248D01*
X160593164Y-117540247D01*
X160487203Y-117499198D01*
X160394345Y-117463225D01*
X160184757Y-117424046D01*
X159971537Y-117424046D01*
X159761949Y-117463225D01*
X159761946Y-117463225D01*
X159761946Y-117463226D01*
X159563129Y-117540247D01*
X159563127Y-117540248D01*
X159381846Y-117652493D01*
X159224274Y-117796139D01*
X159095779Y-117966292D01*
X159000743Y-118157151D01*
X159000743Y-118157153D01*
X158942391Y-118362235D01*
X158922718Y-118574545D01*
X158922718Y-118574546D01*
X158942391Y-118786856D01*
X158976228Y-118905780D01*
X158975642Y-118975648D01*
X158937375Y-119034107D01*
X158873578Y-119062597D01*
X158804505Y-119052073D01*
X158766725Y-119024763D01*
X158561355Y-118806849D01*
X158558296Y-118803477D01*
X157871649Y-118017664D01*
X157868682Y-118014137D01*
X157212106Y-117203093D01*
X157209250Y-117199427D01*
X157188889Y-117172246D01*
X157092140Y-117043089D01*
X157067704Y-116977634D01*
X157082534Y-116909357D01*
X157129385Y-116861362D01*
X157709493Y-116526435D01*
X157709493Y-116526434D01*
X157197132Y-115639000D01*
X157285244Y-115639000D01*
X157399694Y-115608333D01*
X157502306Y-115549090D01*
X157586090Y-115465306D01*
X157630144Y-115389001D01*
X158142505Y-116276435D01*
X158142506Y-116276435D01*
X158746839Y-115927524D01*
X158746844Y-115927521D01*
X158795209Y-115892205D01*
X158795213Y-115892202D01*
X158886753Y-115781335D01*
X158943351Y-115649162D01*
X158960422Y-115506402D01*
X158960421Y-115506400D01*
X158936580Y-115364618D01*
X158936578Y-115364612D01*
X158912346Y-115309835D01*
X158563435Y-114705505D01*
X158563434Y-114705505D01*
X157676000Y-115217865D01*
X157676000Y-115129756D01*
X157645333Y-115015306D01*
X157586090Y-114912694D01*
X157502306Y-114828910D01*
X157425999Y-114784854D01*
X157828270Y-114552603D01*
X176921598Y-114552603D01*
X176921598Y-115116800D01*
X177738586Y-115116800D01*
X177705673Y-115173807D01*
X177671598Y-115300974D01*
X177671598Y-115432626D01*
X177705673Y-115559793D01*
X177738586Y-115616800D01*
X176921599Y-115616800D01*
X176921599Y-116180997D01*
X176931998Y-116313132D01*
X176986975Y-116531319D01*
X177080026Y-116736174D01*
X177080029Y-116736180D01*
X177208157Y-116921123D01*
X177208167Y-116921135D01*
X177367262Y-117080230D01*
X177367274Y-117080240D01*
X177552217Y-117208368D01*
X177552223Y-117208371D01*
X177757078Y-117301422D01*
X177975265Y-117356399D01*
X178107408Y-117366799D01*
X178921597Y-117366799D01*
X178921598Y-117366798D01*
X178921598Y-115866800D01*
X179421598Y-115866800D01*
X179421598Y-117366799D01*
X180235780Y-117366799D01*
X180235795Y-117366798D01*
X180367930Y-117356399D01*
X180586117Y-117301422D01*
X180790972Y-117208371D01*
X180790978Y-117208368D01*
X180975921Y-117080240D01*
X180975933Y-117080230D01*
X181135028Y-116921135D01*
X181135038Y-116921123D01*
X181263166Y-116736180D01*
X181263169Y-116736174D01*
X181356220Y-116531319D01*
X181411197Y-116313132D01*
X181421597Y-116180996D01*
X181421598Y-116180984D01*
X181421598Y-115616800D01*
X180604610Y-115616800D01*
X180637523Y-115559793D01*
X180671598Y-115432626D01*
X180671598Y-115300974D01*
X180637523Y-115173807D01*
X180604610Y-115116800D01*
X181421597Y-115116800D01*
X181421597Y-114723200D01*
X189134314Y-114723200D01*
X189154210Y-114925211D01*
X189213137Y-115119467D01*
X189308821Y-115298479D01*
X189308825Y-115298486D01*
X189437600Y-115455399D01*
X189594513Y-115584174D01*
X189594520Y-115584178D01*
X189773532Y-115679862D01*
X189773534Y-115679862D01*
X189773537Y-115679864D01*
X189967787Y-115738789D01*
X189967786Y-115738789D01*
X189985899Y-115740572D01*
X190169800Y-115758686D01*
X190371813Y-115738789D01*
X190566063Y-115679864D01*
X190745085Y-115584175D01*
X190901999Y-115455399D01*
X191030775Y-115298485D01*
X191097417Y-115173807D01*
X191126462Y-115119467D01*
X191126462Y-115119466D01*
X191126464Y-115119463D01*
X191185389Y-114925213D01*
X191205286Y-114723200D01*
X191185389Y-114521187D01*
X191126464Y-114326937D01*
X191126462Y-114326934D01*
X191126462Y-114326932D01*
X191030778Y-114147920D01*
X191030774Y-114147913D01*
X190901999Y-113991000D01*
X190745086Y-113862225D01*
X190745079Y-113862221D01*
X190566067Y-113766537D01*
X190387758Y-113712448D01*
X190371813Y-113707611D01*
X190371811Y-113707610D01*
X190371813Y-113707610D01*
X190169800Y-113687714D01*
X189967788Y-113707610D01*
X189773532Y-113766537D01*
X189594520Y-113862221D01*
X189594513Y-113862225D01*
X189437600Y-113991000D01*
X189308825Y-114147913D01*
X189308821Y-114147920D01*
X189213137Y-114326932D01*
X189154210Y-114521188D01*
X189134314Y-114723200D01*
X181421597Y-114723200D01*
X181421597Y-114552617D01*
X181421596Y-114552602D01*
X181411197Y-114420467D01*
X181356220Y-114202280D01*
X181263169Y-113997425D01*
X181263166Y-113997419D01*
X181135038Y-113812476D01*
X181135028Y-113812464D01*
X180975933Y-113653369D01*
X180975921Y-113653359D01*
X180790978Y-113525231D01*
X180790972Y-113525228D01*
X180586117Y-113432177D01*
X180367930Y-113377200D01*
X180235794Y-113366800D01*
X179421598Y-113366800D01*
X179421598Y-114866800D01*
X178921598Y-114866800D01*
X178921598Y-113366800D01*
X178107415Y-113366800D01*
X178107400Y-113366801D01*
X177975265Y-113377200D01*
X177757078Y-113432177D01*
X177552223Y-113525228D01*
X177552217Y-113525231D01*
X177367274Y-113653359D01*
X177367262Y-113653369D01*
X177208167Y-113812464D01*
X177208157Y-113812476D01*
X177080029Y-113997419D01*
X177080026Y-113997425D01*
X176986975Y-114202280D01*
X176931998Y-114420467D01*
X176921598Y-114552603D01*
X157828270Y-114552603D01*
X158313435Y-114272493D01*
X158313435Y-114272492D01*
X157964524Y-113668160D01*
X157964521Y-113668155D01*
X157929205Y-113619790D01*
X157929202Y-113619786D01*
X157818335Y-113528246D01*
X157686162Y-113471648D01*
X157543402Y-113454577D01*
X157543400Y-113454578D01*
X157401618Y-113478419D01*
X157401612Y-113478421D01*
X157346838Y-113502652D01*
X157196348Y-113589537D01*
X157128448Y-113606009D01*
X157062421Y-113583156D01*
X157019231Y-113528234D01*
X157012590Y-113458681D01*
X157023348Y-113426879D01*
X157033405Y-113406683D01*
X157091756Y-113201604D01*
X157111429Y-112989294D01*
X157091756Y-112776984D01*
X157033405Y-112571905D01*
X157033403Y-112571900D01*
X157033403Y-112571899D01*
X156938367Y-112381040D01*
X156809872Y-112210887D01*
X156652302Y-112067242D01*
X156471019Y-111954996D01*
X156471017Y-111954995D01*
X156371608Y-111916484D01*
X156272198Y-111877973D01*
X156062610Y-111838794D01*
X155849390Y-111838794D01*
X155639802Y-111877973D01*
X155639799Y-111877973D01*
X155639799Y-111877974D01*
X155440982Y-111954995D01*
X155440980Y-111954996D01*
X155259699Y-112067241D01*
X155102127Y-112210887D01*
X154973632Y-112381040D01*
X154878596Y-112571899D01*
X154878596Y-112571901D01*
X154820244Y-112776983D01*
X154800571Y-112989293D01*
X154800571Y-112989295D01*
X154805968Y-113047541D01*
X154792553Y-113116111D01*
X154744196Y-113166543D01*
X154676249Y-113182825D01*
X154610287Y-113159787D01*
X154573231Y-113117607D01*
X154397946Y-112790905D01*
X154395829Y-112786776D01*
X153937403Y-111849333D01*
X153935457Y-111845156D01*
X153829633Y-111606396D01*
X153820465Y-111537132D01*
X153850200Y-111473905D01*
X153909397Y-111436791D01*
X153942998Y-111432152D01*
X156197890Y-111432152D01*
X156197892Y-111432152D01*
X156287036Y-111408266D01*
X156291217Y-111405852D01*
X172471098Y-111405852D01*
X172471098Y-113327748D01*
X172473974Y-113376026D01*
X172473974Y-113376030D01*
X172473975Y-113376031D01*
X172519661Y-113586049D01*
X172519664Y-113586060D01*
X172604275Y-113783645D01*
X172724749Y-113961648D01*
X172724757Y-113961657D01*
X172876740Y-114113640D01*
X172876749Y-114113648D01*
X172927387Y-114147920D01*
X173054750Y-114234121D01*
X173252339Y-114318734D01*
X173462372Y-114364424D01*
X173510650Y-114367300D01*
X173510662Y-114367300D01*
X175432534Y-114367300D01*
X175432546Y-114367300D01*
X175480824Y-114364424D01*
X175690857Y-114318734D01*
X175888446Y-114234121D01*
X176066453Y-114113643D01*
X176218441Y-113961655D01*
X176220309Y-113958896D01*
X176242889Y-113925532D01*
X176338919Y-113783648D01*
X176423532Y-113586059D01*
X176469222Y-113376026D01*
X176472098Y-113327748D01*
X176472098Y-111405852D01*
X176469222Y-111357574D01*
X176423532Y-111147541D01*
X176338919Y-110949952D01*
X176305963Y-110901260D01*
X176218446Y-110771951D01*
X176218438Y-110771942D01*
X176066455Y-110619959D01*
X176066446Y-110619951D01*
X175888443Y-110499477D01*
X175690858Y-110414866D01*
X175690847Y-110414863D01*
X175480829Y-110369177D01*
X175480828Y-110369176D01*
X175480824Y-110369176D01*
X175432546Y-110366300D01*
X173510650Y-110366300D01*
X173462372Y-110369176D01*
X173462367Y-110369176D01*
X173462366Y-110369177D01*
X173252348Y-110414863D01*
X173252337Y-110414866D01*
X173054752Y-110499477D01*
X172876749Y-110619951D01*
X172876740Y-110619959D01*
X172724757Y-110771942D01*
X172724749Y-110771951D01*
X172604275Y-110949954D01*
X172519664Y-111147539D01*
X172519661Y-111147550D01*
X172477480Y-111341457D01*
X172473974Y-111357574D01*
X172471098Y-111405852D01*
X156291217Y-111405852D01*
X156306802Y-111396854D01*
X156366960Y-111362122D01*
X156614727Y-111114355D01*
X156660871Y-111034431D01*
X156663843Y-111023337D01*
X156700205Y-110963676D01*
X156708136Y-110957049D01*
X156726878Y-110942668D01*
X156815118Y-110827672D01*
X156870587Y-110693756D01*
X156889507Y-110550047D01*
X156870587Y-110406338D01*
X156825914Y-110298486D01*
X156815119Y-110272424D01*
X156815118Y-110272423D01*
X156815118Y-110272422D01*
X156726878Y-110157426D01*
X156611882Y-110069186D01*
X156611881Y-110069185D01*
X156611879Y-110069184D01*
X156477969Y-110013718D01*
X156477967Y-110013717D01*
X156477966Y-110013717D01*
X156406111Y-110004257D01*
X156334258Y-109994797D01*
X156334256Y-109994797D01*
X156190548Y-110013717D01*
X156190544Y-110013718D01*
X156056634Y-110069184D01*
X155941636Y-110157426D01*
X155853394Y-110272424D01*
X155797928Y-110406334D01*
X155797927Y-110406338D01*
X155779007Y-110550046D01*
X155779007Y-110550049D01*
X155784394Y-110590967D01*
X155773628Y-110660002D01*
X155727249Y-110712258D01*
X155661455Y-110731152D01*
X153825258Y-110731152D01*
X153758219Y-110711467D01*
X153712464Y-110658663D01*
X153702520Y-110589505D01*
X153731545Y-110525949D01*
X153790323Y-110488175D01*
X153793164Y-110487377D01*
X154176251Y-110384728D01*
X153911034Y-109394924D01*
X153996143Y-109417729D01*
X154114631Y-109417729D01*
X154229081Y-109387062D01*
X154331693Y-109327819D01*
X154393996Y-109265515D01*
X154659215Y-110255319D01*
X155333260Y-110074709D01*
X155333277Y-110074704D01*
X155389123Y-110053114D01*
X155506248Y-109969711D01*
X155506249Y-109969710D01*
X155595123Y-109856695D01*
X155648560Y-109723218D01*
X155662226Y-109580089D01*
X155662226Y-109580088D01*
X155653001Y-109520926D01*
X155472386Y-108846863D01*
X154482582Y-109112080D01*
X154505387Y-109026973D01*
X154505387Y-108908485D01*
X154474720Y-108794035D01*
X154415477Y-108691423D01*
X154353172Y-108629118D01*
X155342977Y-108363899D01*
X155162367Y-107689856D01*
X155162362Y-107689838D01*
X155140772Y-107633992D01*
X155110956Y-107592120D01*
X177171099Y-107592120D01*
X177171099Y-111141477D01*
X177185631Y-111214534D01*
X177185632Y-111214538D01*
X177185633Y-111214539D01*
X177240998Y-111297400D01*
X177306935Y-111341457D01*
X177323859Y-111352765D01*
X177323863Y-111352766D01*
X177396920Y-111367298D01*
X177396923Y-111367299D01*
X177396925Y-111367299D01*
X180946275Y-111367299D01*
X180946276Y-111367298D01*
X181019339Y-111352765D01*
X181102200Y-111297400D01*
X181157565Y-111214539D01*
X181172099Y-111141473D01*
X181172099Y-108918521D01*
X186639300Y-108918521D01*
X186639300Y-110527878D01*
X186653832Y-110600935D01*
X186653833Y-110600939D01*
X186666542Y-110619959D01*
X186709199Y-110683801D01*
X186760571Y-110718126D01*
X186792060Y-110739166D01*
X186792064Y-110739167D01*
X186865121Y-110753699D01*
X186865124Y-110753700D01*
X186865126Y-110753700D01*
X188474476Y-110753700D01*
X188474477Y-110753699D01*
X188547540Y-110739166D01*
X188630401Y-110683801D01*
X188685766Y-110600940D01*
X188700300Y-110527874D01*
X188700300Y-109723200D01*
X191634314Y-109723200D01*
X191654210Y-109925211D01*
X191713137Y-110119467D01*
X191808821Y-110298479D01*
X191808825Y-110298486D01*
X191937600Y-110455399D01*
X192094513Y-110584174D01*
X192094520Y-110584178D01*
X192273532Y-110679862D01*
X192273534Y-110679862D01*
X192273537Y-110679864D01*
X192467787Y-110738789D01*
X192467786Y-110738789D01*
X192485899Y-110740572D01*
X192669800Y-110758686D01*
X192871813Y-110738789D01*
X193066063Y-110679864D01*
X193105728Y-110658663D01*
X193178141Y-110619957D01*
X193245085Y-110584175D01*
X193401999Y-110455399D01*
X193530775Y-110298485D01*
X193626464Y-110119463D01*
X193685389Y-109925213D01*
X193705286Y-109723200D01*
X193685389Y-109521187D01*
X193626464Y-109326937D01*
X193626462Y-109326934D01*
X193626462Y-109326932D01*
X193530778Y-109147920D01*
X193530774Y-109147913D01*
X193401999Y-108991000D01*
X193245086Y-108862225D01*
X193245079Y-108862221D01*
X193066067Y-108766537D01*
X192968938Y-108737073D01*
X192871813Y-108707611D01*
X192871811Y-108707610D01*
X192871813Y-108707610D01*
X192669800Y-108687714D01*
X192467788Y-108707610D01*
X192273532Y-108766537D01*
X192094520Y-108862221D01*
X192094513Y-108862225D01*
X191937600Y-108991000D01*
X191808825Y-109147913D01*
X191808821Y-109147920D01*
X191713137Y-109326932D01*
X191654210Y-109521188D01*
X191634314Y-109723200D01*
X188700300Y-109723200D01*
X188700300Y-108918526D01*
X188700300Y-108918523D01*
X188700299Y-108918521D01*
X188685767Y-108845464D01*
X188685766Y-108845460D01*
X188630401Y-108762599D01*
X188563822Y-108718113D01*
X188547539Y-108707233D01*
X188547535Y-108707232D01*
X188474477Y-108692700D01*
X188474474Y-108692700D01*
X186865126Y-108692700D01*
X186865123Y-108692700D01*
X186792064Y-108707232D01*
X186792060Y-108707233D01*
X186709199Y-108762599D01*
X186653833Y-108845460D01*
X186653832Y-108845464D01*
X186639300Y-108918521D01*
X181172099Y-108918521D01*
X181172099Y-107592125D01*
X181172099Y-107592122D01*
X181172098Y-107592120D01*
X181157566Y-107519063D01*
X181157565Y-107519059D01*
X181150241Y-107508098D01*
X181102200Y-107436198D01*
X181019339Y-107380833D01*
X181019338Y-107380832D01*
X181019334Y-107380831D01*
X180946276Y-107366299D01*
X180946273Y-107366299D01*
X177396925Y-107366299D01*
X177396922Y-107366299D01*
X177323863Y-107380831D01*
X177323859Y-107380832D01*
X177240998Y-107436198D01*
X177185632Y-107519059D01*
X177185631Y-107519063D01*
X177171099Y-107592120D01*
X155110956Y-107592120D01*
X155057369Y-107516867D01*
X155057368Y-107516866D01*
X154944353Y-107427992D01*
X154810876Y-107374555D01*
X154667747Y-107360889D01*
X154667746Y-107360889D01*
X154608581Y-107370114D01*
X154436492Y-107416225D01*
X154366642Y-107414562D01*
X154308780Y-107375399D01*
X154281276Y-107311171D01*
X154292863Y-107242268D01*
X154305442Y-107221727D01*
X154380353Y-107122531D01*
X154475392Y-106931665D01*
X154533743Y-106726586D01*
X154549828Y-106553000D01*
X162011301Y-106553000D01*
X162029652Y-106739331D01*
X162029653Y-106739333D01*
X162084004Y-106918502D01*
X162172262Y-107083623D01*
X162172264Y-107083626D01*
X162291042Y-107228357D01*
X162435773Y-107347135D01*
X162435776Y-107347137D01*
X162498814Y-107380831D01*
X162600899Y-107435396D01*
X162780066Y-107489746D01*
X162780068Y-107489747D01*
X162796774Y-107491392D01*
X162966400Y-107508099D01*
X163152731Y-107489747D01*
X163331901Y-107435396D01*
X163497025Y-107347136D01*
X163641757Y-107228357D01*
X163760536Y-107083625D01*
X163848796Y-106918501D01*
X163903147Y-106739331D01*
X163921499Y-106553000D01*
X169631301Y-106553000D01*
X169649652Y-106739331D01*
X169649653Y-106739333D01*
X169704004Y-106918502D01*
X169792262Y-107083623D01*
X169792264Y-107083626D01*
X169911042Y-107228357D01*
X170055773Y-107347135D01*
X170055776Y-107347137D01*
X170118814Y-107380831D01*
X170220899Y-107435396D01*
X170400066Y-107489746D01*
X170400068Y-107489747D01*
X170416774Y-107491392D01*
X170586400Y-107508099D01*
X170772731Y-107489747D01*
X170951901Y-107435396D01*
X171117025Y-107347136D01*
X171261757Y-107228357D01*
X171380536Y-107083625D01*
X171468796Y-106918501D01*
X171523147Y-106739331D01*
X171541499Y-106553000D01*
X171523147Y-106366669D01*
X171468796Y-106187499D01*
X171456869Y-106165185D01*
X171380537Y-106022376D01*
X171380535Y-106022373D01*
X171261757Y-105877642D01*
X171117026Y-105758864D01*
X171117023Y-105758862D01*
X170951902Y-105670604D01*
X170772733Y-105616253D01*
X170772731Y-105616252D01*
X170586400Y-105597901D01*
X170400068Y-105616252D01*
X170400066Y-105616253D01*
X170220897Y-105670604D01*
X170055776Y-105758862D01*
X170055773Y-105758864D01*
X169911042Y-105877642D01*
X169792264Y-106022373D01*
X169792262Y-106022376D01*
X169704004Y-106187497D01*
X169649653Y-106366666D01*
X169649652Y-106366668D01*
X169631301Y-106553000D01*
X163921499Y-106553000D01*
X163903147Y-106366669D01*
X163848796Y-106187499D01*
X163836869Y-106165185D01*
X163760537Y-106022376D01*
X163760535Y-106022373D01*
X163641757Y-105877642D01*
X163497026Y-105758864D01*
X163497023Y-105758862D01*
X163331902Y-105670604D01*
X163152733Y-105616253D01*
X163152731Y-105616252D01*
X162966400Y-105597901D01*
X162780068Y-105616252D01*
X162780066Y-105616253D01*
X162600897Y-105670604D01*
X162435776Y-105758862D01*
X162435773Y-105758864D01*
X162291042Y-105877642D01*
X162172264Y-106022373D01*
X162172262Y-106022376D01*
X162084004Y-106187497D01*
X162029653Y-106366666D01*
X162029652Y-106366668D01*
X162011301Y-106553000D01*
X154549828Y-106553000D01*
X154553416Y-106514276D01*
X154533743Y-106301966D01*
X154475392Y-106096887D01*
X154475390Y-106096882D01*
X154475390Y-106096881D01*
X154380354Y-105906022D01*
X154251859Y-105735869D01*
X154203913Y-105692160D01*
X154094289Y-105592224D01*
X153913006Y-105479978D01*
X153913004Y-105479977D01*
X153766384Y-105423177D01*
X153714185Y-105402955D01*
X153504597Y-105363776D01*
X153291377Y-105363776D01*
X153081789Y-105402955D01*
X153081786Y-105402955D01*
X153081786Y-105402956D01*
X152882969Y-105479977D01*
X152882967Y-105479978D01*
X152701686Y-105592223D01*
X152544114Y-105735869D01*
X152415619Y-105906022D01*
X152320584Y-106096881D01*
X152270190Y-106273991D01*
X152232910Y-106333083D01*
X152169600Y-106362641D01*
X152100361Y-106353277D01*
X152047175Y-106307967D01*
X152030165Y-106268220D01*
X151943954Y-105898539D01*
X151942981Y-105893977D01*
X151872379Y-105529800D01*
X151754515Y-104921840D01*
X184980309Y-104921840D01*
X185068583Y-104976497D01*
X185258676Y-105050139D01*
X185459070Y-105087600D01*
X185662926Y-105087600D01*
X185863320Y-105050139D01*
X186053410Y-104976499D01*
X186053414Y-104976497D01*
X186141684Y-104921841D01*
X186141684Y-104921840D01*
X185560999Y-104341153D01*
X185560998Y-104341153D01*
X184980309Y-104921840D01*
X151754515Y-104921840D01*
X151744385Y-104869590D01*
X151743592Y-104865046D01*
X151595681Y-103911397D01*
X162163540Y-103911397D01*
X162163540Y-103911402D01*
X162184114Y-104094011D01*
X162244812Y-104267473D01*
X162342582Y-104423073D01*
X162472527Y-104553018D01*
X162628129Y-104650789D01*
X162759947Y-104696914D01*
X162801588Y-104711485D01*
X162984197Y-104732060D01*
X162984200Y-104732060D01*
X162984203Y-104732060D01*
X163166811Y-104711485D01*
X163166814Y-104711484D01*
X163340271Y-104650789D01*
X163495873Y-104553018D01*
X163625818Y-104423073D01*
X163723589Y-104267471D01*
X163784284Y-104094014D01*
X163784284Y-104094013D01*
X163784285Y-104094011D01*
X163804860Y-103911402D01*
X163804860Y-103911397D01*
X170103540Y-103911397D01*
X170103540Y-103911402D01*
X170124114Y-104094011D01*
X170184812Y-104267473D01*
X170282582Y-104423073D01*
X170412527Y-104553018D01*
X170568129Y-104650789D01*
X170699947Y-104696914D01*
X170741588Y-104711485D01*
X170924197Y-104732060D01*
X170924200Y-104732060D01*
X170924203Y-104732060D01*
X171106811Y-104711485D01*
X171106814Y-104711484D01*
X171280271Y-104650789D01*
X171435873Y-104553018D01*
X171565818Y-104423073D01*
X171663589Y-104267471D01*
X171724284Y-104094014D01*
X171724284Y-104094013D01*
X171724285Y-104094011D01*
X171736275Y-103987599D01*
X184456285Y-103987599D01*
X184456285Y-103987600D01*
X184475094Y-104190589D01*
X184475095Y-104190592D01*
X184530881Y-104386663D01*
X184530884Y-104386669D01*
X184621749Y-104569151D01*
X184623531Y-104571511D01*
X185207444Y-103987600D01*
X185167948Y-103948104D01*
X185260998Y-103948104D01*
X185260998Y-104027096D01*
X185281442Y-104103396D01*
X185320938Y-104171805D01*
X185376793Y-104227660D01*
X185445202Y-104267156D01*
X185521502Y-104287600D01*
X185600494Y-104287600D01*
X185676794Y-104267156D01*
X185745203Y-104227660D01*
X185801058Y-104171805D01*
X185840554Y-104103396D01*
X185860998Y-104027096D01*
X185860998Y-103987600D01*
X185914551Y-103987600D01*
X186498463Y-104571512D01*
X186502965Y-104571200D01*
X186549375Y-104536775D01*
X186619088Y-104532097D01*
X186680263Y-104565851D01*
X186713479Y-104627320D01*
X186713815Y-104628954D01*
X186725030Y-104685336D01*
X186725031Y-104685339D01*
X186725032Y-104685340D01*
X186780397Y-104768201D01*
X186833218Y-104803494D01*
X186863258Y-104823566D01*
X186863262Y-104823567D01*
X186936319Y-104838099D01*
X186936322Y-104838100D01*
X186936324Y-104838100D01*
X188185674Y-104838100D01*
X188185675Y-104838099D01*
X188258738Y-104823566D01*
X188341599Y-104768201D01*
X188396964Y-104685340D01*
X188411498Y-104612274D01*
X188411498Y-103362926D01*
X188411498Y-103362923D01*
X188411497Y-103362921D01*
X188396965Y-103289864D01*
X188396964Y-103289860D01*
X188387360Y-103275486D01*
X188341599Y-103206999D01*
X188258738Y-103151634D01*
X188258737Y-103151633D01*
X188258733Y-103151632D01*
X188185675Y-103137100D01*
X188185672Y-103137100D01*
X186936324Y-103137100D01*
X186936321Y-103137100D01*
X186863262Y-103151632D01*
X186863258Y-103151633D01*
X186780397Y-103206999D01*
X186725031Y-103289860D01*
X186725030Y-103289863D01*
X186713816Y-103346241D01*
X186681431Y-103408152D01*
X186620715Y-103442726D01*
X186550945Y-103438985D01*
X186502369Y-103403957D01*
X186498464Y-103403686D01*
X185914551Y-103987600D01*
X185860998Y-103987600D01*
X185860998Y-103948104D01*
X185840554Y-103871804D01*
X185801058Y-103803395D01*
X185745203Y-103747540D01*
X185676794Y-103708044D01*
X185600494Y-103687600D01*
X185521502Y-103687600D01*
X185445202Y-103708044D01*
X185376793Y-103747540D01*
X185320938Y-103803395D01*
X185281442Y-103871804D01*
X185260998Y-103948104D01*
X185167948Y-103948104D01*
X184623531Y-103403687D01*
X184621753Y-103406042D01*
X184621752Y-103406043D01*
X184530884Y-103588530D01*
X184530881Y-103588536D01*
X184475095Y-103784607D01*
X184475094Y-103784610D01*
X184456285Y-103987599D01*
X171736275Y-103987599D01*
X171744860Y-103911402D01*
X171744860Y-103911397D01*
X171724285Y-103728788D01*
X171691133Y-103634046D01*
X171663589Y-103555329D01*
X171565818Y-103399727D01*
X171435873Y-103269782D01*
X171335954Y-103206999D01*
X171280273Y-103172012D01*
X171280272Y-103172011D01*
X171280271Y-103172011D01*
X171222031Y-103151632D01*
X171106811Y-103111314D01*
X170924203Y-103090740D01*
X170924197Y-103090740D01*
X170741588Y-103111314D01*
X170568126Y-103172012D01*
X170412526Y-103269782D01*
X170282582Y-103399726D01*
X170184812Y-103555326D01*
X170124114Y-103728788D01*
X170103540Y-103911397D01*
X163804860Y-103911397D01*
X163784285Y-103728788D01*
X163751133Y-103634046D01*
X163723589Y-103555329D01*
X163625818Y-103399727D01*
X163495873Y-103269782D01*
X163395954Y-103206999D01*
X163340273Y-103172012D01*
X163340272Y-103172011D01*
X163340271Y-103172011D01*
X163282031Y-103151632D01*
X163166811Y-103111314D01*
X162984203Y-103090740D01*
X162984197Y-103090740D01*
X162801588Y-103111314D01*
X162628126Y-103172012D01*
X162472526Y-103269782D01*
X162342582Y-103399726D01*
X162244812Y-103555326D01*
X162184114Y-103728788D01*
X162163540Y-103911397D01*
X151595681Y-103911397D01*
X151583655Y-103833861D01*
X151583028Y-103829243D01*
X151564639Y-103671780D01*
X151576414Y-103602913D01*
X151623554Y-103551342D01*
X151687802Y-103533400D01*
X152378600Y-103533400D01*
X152378600Y-102508677D01*
X152454906Y-102552733D01*
X152569356Y-102583400D01*
X152687844Y-102583400D01*
X152802294Y-102552733D01*
X152878600Y-102508677D01*
X152878600Y-103533400D01*
X153576428Y-103533400D01*
X153576444Y-103533399D01*
X153635972Y-103526998D01*
X153635979Y-103526996D01*
X153770686Y-103476754D01*
X153770693Y-103476750D01*
X153885787Y-103390590D01*
X153885790Y-103390587D01*
X153971950Y-103275493D01*
X153971954Y-103275486D01*
X154022196Y-103140779D01*
X154022198Y-103140772D01*
X154028599Y-103081244D01*
X154028600Y-103081227D01*
X154028600Y-102383400D01*
X153003878Y-102383400D01*
X153047933Y-102307094D01*
X153078600Y-102192644D01*
X153078600Y-102074156D01*
X153047933Y-101959706D01*
X153003878Y-101883400D01*
X154028600Y-101883400D01*
X154028600Y-101371397D01*
X162163540Y-101371397D01*
X162163540Y-101371402D01*
X162184114Y-101554011D01*
X162218356Y-101651866D01*
X162242861Y-101721899D01*
X162244812Y-101727473D01*
X162272489Y-101771520D01*
X162342582Y-101883073D01*
X162472527Y-102013018D01*
X162628129Y-102110789D01*
X162759947Y-102156914D01*
X162801588Y-102171485D01*
X162984197Y-102192060D01*
X162984200Y-102192060D01*
X162984203Y-102192060D01*
X163166811Y-102171485D01*
X163166814Y-102171484D01*
X163340271Y-102110789D01*
X163495873Y-102013018D01*
X163625818Y-101883073D01*
X163723589Y-101727471D01*
X163784284Y-101554014D01*
X163784284Y-101554013D01*
X163784285Y-101554011D01*
X163804860Y-101371402D01*
X163804860Y-101371397D01*
X163784285Y-101188788D01*
X163762321Y-101126020D01*
X163723589Y-101015329D01*
X163625818Y-100859727D01*
X163495873Y-100729782D01*
X163340273Y-100632012D01*
X163340272Y-100632011D01*
X163340271Y-100632011D01*
X163298632Y-100617441D01*
X163166811Y-100571314D01*
X162984203Y-100550740D01*
X162984197Y-100550740D01*
X162801588Y-100571314D01*
X162628126Y-100632012D01*
X162472526Y-100729782D01*
X162342582Y-100859726D01*
X162244812Y-101015326D01*
X162184114Y-101188788D01*
X162163540Y-101371397D01*
X154028600Y-101371397D01*
X154028600Y-101185572D01*
X154028599Y-101185555D01*
X154022198Y-101126027D01*
X154022196Y-101126020D01*
X153971954Y-100991313D01*
X153971950Y-100991306D01*
X153885790Y-100876212D01*
X153885787Y-100876209D01*
X153770693Y-100790049D01*
X153770686Y-100790045D01*
X153635979Y-100739803D01*
X153635972Y-100739801D01*
X153576444Y-100733400D01*
X153405905Y-100733400D01*
X153338866Y-100713715D01*
X153293111Y-100660911D01*
X153283167Y-100591753D01*
X153312192Y-100528197D01*
X153322367Y-100517763D01*
X153482471Y-100371808D01*
X153482473Y-100371806D01*
X153610967Y-100201654D01*
X153610968Y-100201652D01*
X153706004Y-100010793D01*
X153706004Y-100010792D01*
X153706006Y-100010788D01*
X153764357Y-99805709D01*
X153784030Y-99593399D01*
X153764357Y-99381089D01*
X153706006Y-99176010D01*
X153706004Y-99176005D01*
X153706004Y-99176004D01*
X153610968Y-98985145D01*
X153494862Y-98831397D01*
X162163540Y-98831397D01*
X162163540Y-98831402D01*
X162184114Y-99014011D01*
X162223854Y-99127579D01*
X162244811Y-99187471D01*
X162342582Y-99343073D01*
X162472527Y-99473018D01*
X162628129Y-99570789D01*
X162759947Y-99616914D01*
X162801588Y-99631485D01*
X162984197Y-99652060D01*
X162984200Y-99652060D01*
X162984203Y-99652060D01*
X163166811Y-99631485D01*
X163166814Y-99631484D01*
X163340271Y-99570789D01*
X163495873Y-99473018D01*
X163625818Y-99343073D01*
X163690628Y-99239927D01*
X163742963Y-99193637D01*
X163795622Y-99181900D01*
X165513056Y-99181900D01*
X165580095Y-99201585D01*
X165600737Y-99218219D01*
X168034387Y-101651869D01*
X168108224Y-101694499D01*
X168114312Y-101698014D01*
X168203456Y-101721900D01*
X170112778Y-101721900D01*
X170179817Y-101741585D01*
X170217771Y-101779927D01*
X170282582Y-101883073D01*
X170412527Y-102013018D01*
X170568129Y-102110789D01*
X170699947Y-102156914D01*
X170741588Y-102171485D01*
X170924197Y-102192060D01*
X170924200Y-102192060D01*
X170924203Y-102192060D01*
X171106811Y-102171485D01*
X171106814Y-102171484D01*
X171280271Y-102110789D01*
X171435873Y-102013018D01*
X171565818Y-101883073D01*
X171663589Y-101727471D01*
X171724284Y-101554014D01*
X171724284Y-101554013D01*
X171724285Y-101554011D01*
X171744860Y-101371402D01*
X171744860Y-101371397D01*
X171724285Y-101188788D01*
X171702321Y-101126020D01*
X171663589Y-101015329D01*
X171565818Y-100859727D01*
X171435873Y-100729782D01*
X171280273Y-100632012D01*
X171280272Y-100632011D01*
X171280271Y-100632011D01*
X171238632Y-100617441D01*
X171106811Y-100571314D01*
X170924203Y-100550740D01*
X170924197Y-100550740D01*
X170741588Y-100571314D01*
X170568126Y-100632012D01*
X170412526Y-100729782D01*
X170282582Y-100859726D01*
X170217772Y-100962872D01*
X170165437Y-101009163D01*
X170112778Y-101020900D01*
X168446144Y-101020900D01*
X168379105Y-101001215D01*
X168358463Y-100984581D01*
X167275757Y-99901875D01*
X176071100Y-99901875D01*
X176071100Y-100250124D01*
X176110089Y-100596158D01*
X176110090Y-100596167D01*
X176110091Y-100596171D01*
X176126462Y-100667898D01*
X176187582Y-100935684D01*
X176187585Y-100935692D01*
X176302599Y-101264382D01*
X176453692Y-101578130D01*
X176638971Y-101872999D01*
X176638972Y-101873001D01*
X176856087Y-102145256D01*
X177102343Y-102391512D01*
X177374598Y-102608627D01*
X177374601Y-102608628D01*
X177374603Y-102608630D01*
X177669467Y-102793906D01*
X177983221Y-102945002D01*
X178230088Y-103031384D01*
X178311907Y-103060014D01*
X178311915Y-103060017D01*
X178311918Y-103060017D01*
X178311919Y-103060018D01*
X178651429Y-103137509D01*
X178997476Y-103176499D01*
X178997477Y-103176500D01*
X178997480Y-103176500D01*
X179345723Y-103176500D01*
X179345723Y-103176499D01*
X179691771Y-103137509D01*
X180031281Y-103060018D01*
X180050314Y-103053358D01*
X184980309Y-103053358D01*
X185560998Y-103634046D01*
X185560999Y-103634046D01*
X186141685Y-103053358D01*
X186053411Y-102998701D01*
X186053409Y-102998700D01*
X185863319Y-102925060D01*
X185662926Y-102887600D01*
X185459070Y-102887600D01*
X185258676Y-102925060D01*
X185068586Y-102998700D01*
X185068579Y-102998704D01*
X184980310Y-103053357D01*
X184980309Y-103053358D01*
X180050314Y-103053358D01*
X180359979Y-102945002D01*
X180673733Y-102793906D01*
X180968597Y-102608630D01*
X181218041Y-102409706D01*
X181240856Y-102391512D01*
X181240858Y-102391509D01*
X181240863Y-102391506D01*
X181487106Y-102145263D01*
X181496567Y-102133400D01*
X181704227Y-101873001D01*
X181704228Y-101872999D01*
X181704230Y-101872997D01*
X181889506Y-101578133D01*
X182040602Y-101264379D01*
X182155618Y-100935681D01*
X182233109Y-100596171D01*
X182272100Y-100250120D01*
X182272100Y-99901880D01*
X182233109Y-99555829D01*
X182155618Y-99216319D01*
X182150462Y-99201585D01*
X182112567Y-99093285D01*
X182040602Y-98887621D01*
X181889506Y-98573867D01*
X181704230Y-98279003D01*
X181704228Y-98279000D01*
X181704227Y-98278998D01*
X181487112Y-98006743D01*
X181240856Y-97760487D01*
X180968601Y-97543372D01*
X180968599Y-97543371D01*
X180673730Y-97358092D01*
X180359982Y-97206999D01*
X180031292Y-97091985D01*
X180031284Y-97091982D01*
X179763168Y-97030787D01*
X179691771Y-97014491D01*
X179691767Y-97014490D01*
X179691758Y-97014489D01*
X179345724Y-96975500D01*
X179345720Y-96975500D01*
X178997480Y-96975500D01*
X178997475Y-96975500D01*
X178651441Y-97014489D01*
X178651429Y-97014491D01*
X178311915Y-97091982D01*
X178311907Y-97091985D01*
X177983217Y-97206999D01*
X177669469Y-97358092D01*
X177374600Y-97543371D01*
X177374598Y-97543372D01*
X177102343Y-97760487D01*
X176856087Y-98006743D01*
X176638972Y-98278998D01*
X176638971Y-98279000D01*
X176453692Y-98573869D01*
X176302599Y-98887617D01*
X176187585Y-99216307D01*
X176187582Y-99216315D01*
X176110091Y-99555829D01*
X176110089Y-99555841D01*
X176071100Y-99901875D01*
X167275757Y-99901875D01*
X166205279Y-98831397D01*
X170103540Y-98831397D01*
X170103540Y-98831402D01*
X170124114Y-99014011D01*
X170163854Y-99127579D01*
X170184811Y-99187471D01*
X170282582Y-99343073D01*
X170412527Y-99473018D01*
X170568129Y-99570789D01*
X170699947Y-99616914D01*
X170741588Y-99631485D01*
X170924197Y-99652060D01*
X170924200Y-99652060D01*
X170924203Y-99652060D01*
X171106811Y-99631485D01*
X171106814Y-99631484D01*
X171280271Y-99570789D01*
X171435873Y-99473018D01*
X171565818Y-99343073D01*
X171663589Y-99187471D01*
X171724284Y-99014014D01*
X171724284Y-99014013D01*
X171724285Y-99014011D01*
X171744860Y-98831402D01*
X171744860Y-98831397D01*
X171724285Y-98648788D01*
X171707347Y-98600384D01*
X171663589Y-98475329D01*
X171565818Y-98319727D01*
X171435873Y-98189782D01*
X171325134Y-98120200D01*
X171280273Y-98092012D01*
X171280272Y-98092011D01*
X171280271Y-98092011D01*
X171238632Y-98077441D01*
X171106811Y-98031314D01*
X170924203Y-98010740D01*
X170924197Y-98010740D01*
X170741588Y-98031314D01*
X170568126Y-98092012D01*
X170412526Y-98189782D01*
X170282582Y-98319726D01*
X170184812Y-98475326D01*
X170124114Y-98648788D01*
X170103540Y-98831397D01*
X166205279Y-98831397D01*
X165924813Y-98550931D01*
X165924808Y-98550927D01*
X165844890Y-98504787D01*
X165844889Y-98504786D01*
X165844888Y-98504786D01*
X165755744Y-98480900D01*
X165755743Y-98480900D01*
X163795622Y-98480900D01*
X163728583Y-98461215D01*
X163690628Y-98422872D01*
X163625817Y-98319726D01*
X163495873Y-98189782D01*
X163340273Y-98092012D01*
X163340272Y-98092011D01*
X163340271Y-98092011D01*
X163298632Y-98077441D01*
X163166811Y-98031314D01*
X162984203Y-98010740D01*
X162984197Y-98010740D01*
X162801588Y-98031314D01*
X162628126Y-98092012D01*
X162472526Y-98189782D01*
X162342582Y-98319726D01*
X162244812Y-98475326D01*
X162184114Y-98648788D01*
X162163540Y-98831397D01*
X153494862Y-98831397D01*
X153482473Y-98814992D01*
X153324903Y-98671347D01*
X153143620Y-98559101D01*
X153143618Y-98559100D01*
X153003418Y-98504787D01*
X152944799Y-98482078D01*
X152735211Y-98442899D01*
X152521991Y-98442899D01*
X152312403Y-98482078D01*
X152312400Y-98482078D01*
X152312400Y-98482079D01*
X152113583Y-98559100D01*
X152113581Y-98559101D01*
X151932300Y-98671346D01*
X151774728Y-98814992D01*
X151646235Y-98985143D01*
X151588613Y-99100864D01*
X151541110Y-99152101D01*
X151473447Y-99169522D01*
X151407107Y-99147596D01*
X151363152Y-99093285D01*
X151353686Y-99041353D01*
X151368624Y-98604988D01*
X151368866Y-98600438D01*
X151443766Y-97559596D01*
X151444188Y-97554961D01*
X151466009Y-97356399D01*
X151558181Y-96517675D01*
X151558765Y-96513147D01*
X151582760Y-96351180D01*
X151612055Y-96287752D01*
X151670994Y-96250230D01*
X151740863Y-96250528D01*
X151743895Y-96251475D01*
X151745716Y-96252069D01*
X152419760Y-96432679D01*
X152684979Y-95442874D01*
X152747284Y-95505179D01*
X152849896Y-95564422D01*
X152964346Y-95595089D01*
X153082834Y-95595089D01*
X153167941Y-95572284D01*
X152902724Y-96562088D01*
X153576787Y-96742703D01*
X153635949Y-96751928D01*
X153635950Y-96751928D01*
X153779079Y-96738262D01*
X153912556Y-96684825D01*
X154025571Y-96595951D01*
X154025572Y-96595950D01*
X154108975Y-96478825D01*
X154130565Y-96422979D01*
X154130570Y-96422962D01*
X154311180Y-95748917D01*
X154048587Y-95678555D01*
X161919200Y-95678555D01*
X161919200Y-96041400D01*
X162718011Y-96041400D01*
X162692127Y-96067284D01*
X162644074Y-96150515D01*
X162619200Y-96243347D01*
X162619200Y-96339453D01*
X162644074Y-96432285D01*
X162692127Y-96515516D01*
X162718011Y-96541400D01*
X161919200Y-96541400D01*
X161919200Y-96904244D01*
X161925601Y-96963772D01*
X161925603Y-96963779D01*
X161975845Y-97098486D01*
X161975849Y-97098493D01*
X162062009Y-97213587D01*
X162062012Y-97213590D01*
X162177106Y-97299750D01*
X162177113Y-97299754D01*
X162311820Y-97349996D01*
X162311827Y-97349998D01*
X162371355Y-97356399D01*
X162371372Y-97356400D01*
X162734200Y-97356400D01*
X162734200Y-96557589D01*
X162760084Y-96583473D01*
X162843315Y-96631526D01*
X162936147Y-96656400D01*
X163032253Y-96656400D01*
X163125085Y-96631526D01*
X163208316Y-96583473D01*
X163234200Y-96557589D01*
X163234200Y-97356400D01*
X163597028Y-97356400D01*
X163597044Y-97356399D01*
X163656572Y-97349998D01*
X163656579Y-97349996D01*
X163791286Y-97299754D01*
X163791293Y-97299750D01*
X163906387Y-97213590D01*
X163906390Y-97213587D01*
X163992550Y-97098493D01*
X163992554Y-97098486D01*
X164042796Y-96963779D01*
X164042798Y-96963772D01*
X164049199Y-96904244D01*
X164049200Y-96904227D01*
X164049200Y-96541400D01*
X163250389Y-96541400D01*
X163276273Y-96515516D01*
X163324326Y-96432285D01*
X163349200Y-96339453D01*
X163349200Y-96291397D01*
X170103540Y-96291397D01*
X170103540Y-96291402D01*
X170124114Y-96474011D01*
X170184812Y-96647473D01*
X170266102Y-96776845D01*
X170282582Y-96803073D01*
X170412527Y-96933018D01*
X170568129Y-97030789D01*
X170699947Y-97076914D01*
X170741588Y-97091485D01*
X170924197Y-97112060D01*
X170924200Y-97112060D01*
X170924203Y-97112060D01*
X171106811Y-97091485D01*
X171106814Y-97091484D01*
X171280271Y-97030789D01*
X171435873Y-96933018D01*
X171565818Y-96803073D01*
X171663589Y-96647471D01*
X171724284Y-96474014D01*
X171724284Y-96474013D01*
X171724285Y-96474011D01*
X171744860Y-96291402D01*
X171744860Y-96291397D01*
X171724285Y-96108788D01*
X171700705Y-96041400D01*
X171663589Y-95935329D01*
X171565818Y-95779727D01*
X171435873Y-95649782D01*
X171386927Y-95619027D01*
X171280273Y-95552012D01*
X171280272Y-95552011D01*
X171280271Y-95552011D01*
X171238632Y-95537441D01*
X171106811Y-95491314D01*
X170924203Y-95470740D01*
X170924197Y-95470740D01*
X170741588Y-95491314D01*
X170568126Y-95552012D01*
X170412526Y-95649782D01*
X170282582Y-95779726D01*
X170184812Y-95935326D01*
X170124114Y-96108788D01*
X170103540Y-96291397D01*
X163349200Y-96291397D01*
X163349200Y-96243347D01*
X163324326Y-96150515D01*
X163276273Y-96067284D01*
X163250389Y-96041400D01*
X164049200Y-96041400D01*
X164049200Y-95678572D01*
X164049199Y-95678555D01*
X164042798Y-95619027D01*
X164042796Y-95619020D01*
X163992554Y-95484313D01*
X163992550Y-95484306D01*
X163906390Y-95369212D01*
X163906387Y-95369209D01*
X163791293Y-95283049D01*
X163791286Y-95283045D01*
X163656579Y-95232803D01*
X163656572Y-95232801D01*
X163597044Y-95226400D01*
X163234200Y-95226400D01*
X163234200Y-96025211D01*
X163208316Y-95999327D01*
X163125085Y-95951274D01*
X163032253Y-95926400D01*
X162936147Y-95926400D01*
X162843315Y-95951274D01*
X162760084Y-95999327D01*
X162734200Y-96025211D01*
X162734200Y-95226400D01*
X162371355Y-95226400D01*
X162311827Y-95232801D01*
X162311820Y-95232803D01*
X162177113Y-95283045D01*
X162177106Y-95283049D01*
X162062012Y-95369209D01*
X162062009Y-95369212D01*
X161975849Y-95484306D01*
X161975845Y-95484313D01*
X161925603Y-95619020D01*
X161925601Y-95619027D01*
X161919200Y-95678555D01*
X154048587Y-95678555D01*
X153321376Y-95483698D01*
X153383680Y-95421395D01*
X153442923Y-95318783D01*
X153473590Y-95204333D01*
X153473590Y-95085845D01*
X153450785Y-95000736D01*
X154440589Y-95265953D01*
X154621204Y-94591891D01*
X154630429Y-94532729D01*
X154630429Y-94532728D01*
X154616763Y-94389599D01*
X154563326Y-94256122D01*
X154474452Y-94143107D01*
X154474451Y-94143106D01*
X154357326Y-94059703D01*
X154357327Y-94059703D01*
X154301480Y-94038113D01*
X154301462Y-94038108D01*
X154129488Y-93992027D01*
X154069828Y-93955662D01*
X154039299Y-93892814D01*
X154047594Y-93823439D01*
X154092079Y-93769561D01*
X154116785Y-93756626D01*
X154196011Y-93725935D01*
X154377294Y-93613689D01*
X154534864Y-93470044D01*
X154663358Y-93299892D01*
X154670864Y-93284817D01*
X154758395Y-93109031D01*
X154758395Y-93109030D01*
X154758397Y-93109026D01*
X154816748Y-92903947D01*
X154836421Y-92691637D01*
X154816748Y-92479327D01*
X154758397Y-92274248D01*
X154758395Y-92274243D01*
X154758395Y-92274242D01*
X154663359Y-92083383D01*
X154534864Y-91913230D01*
X154523535Y-91902902D01*
X154377294Y-91769585D01*
X154196011Y-91657339D01*
X154196009Y-91657338D01*
X154043540Y-91598272D01*
X153997190Y-91580316D01*
X153787602Y-91541137D01*
X153574382Y-91541137D01*
X153364794Y-91580316D01*
X153364791Y-91580316D01*
X153364791Y-91580317D01*
X153165974Y-91657338D01*
X153165972Y-91657339D01*
X152984691Y-91769584D01*
X152827118Y-91913231D01*
X152798005Y-91951783D01*
X152741895Y-91993418D01*
X152672183Y-91998109D01*
X152611002Y-91964366D01*
X152577776Y-91902902D01*
X152580500Y-91840703D01*
X152711622Y-91413114D01*
X152713034Y-91408802D01*
X153056302Y-90423274D01*
X153057873Y-90419022D01*
X153134482Y-90223126D01*
X153177230Y-90167864D01*
X153243072Y-90144484D01*
X153311102Y-90160412D01*
X153337645Y-90180611D01*
X154025302Y-90868267D01*
X154655400Y-91498365D01*
X154720657Y-91563622D01*
X154720660Y-91563623D01*
X154720663Y-91563626D01*
X154800575Y-91609764D01*
X154800576Y-91609764D01*
X154800581Y-91609767D01*
X154889725Y-91633653D01*
X155201579Y-91633653D01*
X155268618Y-91653338D01*
X155288083Y-91671239D01*
X155289299Y-91670024D01*
X155295043Y-91675768D01*
X155295048Y-91675772D01*
X155295050Y-91675774D01*
X155410046Y-91764014D01*
X155410047Y-91764014D01*
X155410048Y-91764015D01*
X155454684Y-91782503D01*
X155543962Y-91819483D01*
X155670951Y-91836201D01*
X155687670Y-91838403D01*
X155687671Y-91838403D01*
X155687672Y-91838403D01*
X155702648Y-91836431D01*
X155831380Y-91819483D01*
X155965296Y-91764014D01*
X156080292Y-91675774D01*
X156168532Y-91560778D01*
X156224001Y-91426862D01*
X156242921Y-91283153D01*
X156224001Y-91139444D01*
X156168532Y-91005528D01*
X156080292Y-90890532D01*
X155965296Y-90802292D01*
X155965295Y-90802291D01*
X155965293Y-90802290D01*
X155831383Y-90746824D01*
X155831381Y-90746823D01*
X155831380Y-90746823D01*
X155759525Y-90737363D01*
X155687672Y-90727903D01*
X155687670Y-90727903D01*
X155543962Y-90746823D01*
X155543958Y-90746824D01*
X155410048Y-90802290D01*
X155295043Y-90890537D01*
X155289299Y-90896282D01*
X155286782Y-90893765D01*
X155243488Y-90925356D01*
X155201579Y-90932653D01*
X155132412Y-90932653D01*
X155065373Y-90912968D01*
X155044731Y-90896334D01*
X153706872Y-89558474D01*
X153673387Y-89497151D01*
X153678371Y-89427459D01*
X153720243Y-89371526D01*
X153785707Y-89347109D01*
X153853980Y-89361961D01*
X153856553Y-89363406D01*
X154277492Y-89606435D01*
X154277493Y-89606435D01*
X154789854Y-88718999D01*
X154833910Y-88795306D01*
X154917694Y-88879090D01*
X155020306Y-88938333D01*
X155134756Y-88969000D01*
X155222865Y-88969000D01*
X154710505Y-89856434D01*
X154710505Y-89856435D01*
X155314835Y-90205346D01*
X155369612Y-90229578D01*
X155369618Y-90229580D01*
X155511400Y-90253421D01*
X155511402Y-90253422D01*
X155654162Y-90236351D01*
X155786335Y-90179753D01*
X155897202Y-90088213D01*
X155897205Y-90088209D01*
X155932521Y-90039844D01*
X155932524Y-90039839D01*
X156281435Y-89435506D01*
X156281435Y-89435505D01*
X155394001Y-88923144D01*
X155470306Y-88879090D01*
X155554090Y-88795306D01*
X155613333Y-88692694D01*
X155644000Y-88578244D01*
X155644000Y-88490132D01*
X156531434Y-89002493D01*
X156531435Y-89002493D01*
X156648044Y-88800521D01*
X169440700Y-88800521D01*
X169440700Y-89979878D01*
X169455232Y-90052935D01*
X169455233Y-90052939D01*
X169463285Y-90064989D01*
X169510599Y-90135801D01*
X169576379Y-90179753D01*
X169593460Y-90191166D01*
X169593464Y-90191167D01*
X169666521Y-90205699D01*
X169666524Y-90205700D01*
X169666526Y-90205700D01*
X170845876Y-90205700D01*
X170845877Y-90205699D01*
X170918940Y-90191166D01*
X171001801Y-90135801D01*
X171057166Y-90052940D01*
X171071700Y-89979874D01*
X171071700Y-89390196D01*
X171975541Y-89390196D01*
X171975541Y-89390201D01*
X171996115Y-89572810D01*
X172042242Y-89704631D01*
X172055931Y-89743753D01*
X172056813Y-89746272D01*
X172111596Y-89833458D01*
X172154583Y-89901872D01*
X172284528Y-90031817D01*
X172440130Y-90129588D01*
X172549517Y-90167864D01*
X172613589Y-90190284D01*
X172796198Y-90210859D01*
X172796201Y-90210859D01*
X172796204Y-90210859D01*
X172978812Y-90190284D01*
X172978815Y-90190283D01*
X173152272Y-90129588D01*
X173307874Y-90031817D01*
X173437819Y-89901872D01*
X173535590Y-89746270D01*
X173596285Y-89572813D01*
X173596285Y-89572812D01*
X173596286Y-89572810D01*
X173616861Y-89390201D01*
X173616861Y-89390197D01*
X174515540Y-89390197D01*
X174515540Y-89390202D01*
X174536114Y-89572811D01*
X174596812Y-89746273D01*
X174666031Y-89856434D01*
X174694582Y-89901873D01*
X174824527Y-90031818D01*
X174980129Y-90129589D01*
X175111947Y-90175714D01*
X175153588Y-90190285D01*
X175336197Y-90210860D01*
X175336200Y-90210860D01*
X175336203Y-90210860D01*
X175518811Y-90190285D01*
X175518817Y-90190283D01*
X175692271Y-90129589D01*
X175847873Y-90031818D01*
X175977818Y-89901873D01*
X176075589Y-89746271D01*
X176136284Y-89572814D01*
X176136284Y-89572813D01*
X176136285Y-89572811D01*
X176156860Y-89390202D01*
X176156860Y-89390199D01*
X177055540Y-89390199D01*
X177055540Y-89390204D01*
X177076114Y-89572813D01*
X177122241Y-89704634D01*
X177136810Y-89746271D01*
X177136812Y-89746275D01*
X177167858Y-89795684D01*
X177234582Y-89901875D01*
X177364527Y-90031820D01*
X177520129Y-90129591D01*
X177651947Y-90175716D01*
X177693588Y-90190287D01*
X177876197Y-90210862D01*
X177876200Y-90210862D01*
X177876203Y-90210862D01*
X178058811Y-90190287D01*
X178058820Y-90190284D01*
X178232271Y-90129591D01*
X178387873Y-90031820D01*
X178517818Y-89901875D01*
X178615589Y-89746273D01*
X178676284Y-89572816D01*
X178676284Y-89572815D01*
X178676285Y-89572813D01*
X178696860Y-89390204D01*
X178696860Y-89390199D01*
X178696860Y-89390198D01*
X179595539Y-89390198D01*
X179595539Y-89390203D01*
X179616113Y-89572812D01*
X179647193Y-89661631D01*
X179676809Y-89746270D01*
X179676811Y-89746274D01*
X179710401Y-89799732D01*
X179774581Y-89901874D01*
X179904526Y-90031819D01*
X180060128Y-90129590D01*
X180191946Y-90175715D01*
X180233587Y-90190286D01*
X180416196Y-90210861D01*
X180416199Y-90210861D01*
X180416202Y-90210861D01*
X180598810Y-90190286D01*
X180598819Y-90190283D01*
X180772270Y-90129590D01*
X180927872Y-90031819D01*
X181057817Y-89901874D01*
X181155588Y-89746272D01*
X181216283Y-89572815D01*
X181216283Y-89572814D01*
X181216284Y-89572812D01*
X181236859Y-89390203D01*
X181236859Y-89390198D01*
X181236859Y-89390197D01*
X182135540Y-89390197D01*
X182135540Y-89390202D01*
X182156114Y-89572811D01*
X182216812Y-89746273D01*
X182286031Y-89856434D01*
X182314582Y-89901873D01*
X182444527Y-90031818D01*
X182600129Y-90129589D01*
X182731947Y-90175714D01*
X182773588Y-90190285D01*
X182956197Y-90210860D01*
X182956200Y-90210860D01*
X182956203Y-90210860D01*
X183138811Y-90190285D01*
X183138817Y-90190283D01*
X183312271Y-90129589D01*
X183467873Y-90031818D01*
X183597818Y-89901873D01*
X183695589Y-89746271D01*
X183756284Y-89572814D01*
X183756284Y-89572813D01*
X183756285Y-89572811D01*
X183776860Y-89390202D01*
X183776860Y-89390197D01*
X183756285Y-89207588D01*
X183741714Y-89165947D01*
X183695589Y-89034129D01*
X183597818Y-88878527D01*
X183467873Y-88748582D01*
X183434264Y-88727464D01*
X183312273Y-88650812D01*
X183312272Y-88650811D01*
X183312271Y-88650811D01*
X183256909Y-88631439D01*
X183138811Y-88590114D01*
X182956203Y-88569540D01*
X182956197Y-88569540D01*
X182773588Y-88590114D01*
X182600126Y-88650812D01*
X182444526Y-88748582D01*
X182314582Y-88878526D01*
X182216812Y-89034126D01*
X182156114Y-89207588D01*
X182135540Y-89390197D01*
X181236859Y-89390197D01*
X181216284Y-89207589D01*
X181177981Y-89098127D01*
X181155588Y-89034130D01*
X181057817Y-88878528D01*
X180927872Y-88748583D01*
X180824729Y-88683774D01*
X180772272Y-88650813D01*
X180772271Y-88650812D01*
X180772270Y-88650812D01*
X180716905Y-88631439D01*
X180598810Y-88590115D01*
X180416202Y-88569541D01*
X180416196Y-88569541D01*
X180233587Y-88590115D01*
X180060125Y-88650813D01*
X179904525Y-88748583D01*
X179774581Y-88878527D01*
X179676811Y-89034127D01*
X179616113Y-89207589D01*
X179595539Y-89390198D01*
X178696860Y-89390198D01*
X178676285Y-89207590D01*
X178637982Y-89098127D01*
X178615589Y-89034131D01*
X178517818Y-88878529D01*
X178387873Y-88748584D01*
X178331499Y-88713162D01*
X178232273Y-88650814D01*
X178232272Y-88650813D01*
X178232271Y-88650813D01*
X178176903Y-88631439D01*
X178058811Y-88590116D01*
X177876203Y-88569542D01*
X177876197Y-88569542D01*
X177693588Y-88590116D01*
X177520126Y-88650814D01*
X177364526Y-88748584D01*
X177234582Y-88878528D01*
X177136812Y-89034128D01*
X177076114Y-89207590D01*
X177055540Y-89390199D01*
X176156860Y-89390199D01*
X176156860Y-89390197D01*
X176136285Y-89207588D01*
X176121714Y-89165947D01*
X176075589Y-89034129D01*
X175977818Y-88878527D01*
X175847873Y-88748582D01*
X175814264Y-88727464D01*
X175692273Y-88650812D01*
X175692272Y-88650811D01*
X175692271Y-88650811D01*
X175636909Y-88631439D01*
X175518811Y-88590114D01*
X175336203Y-88569540D01*
X175336197Y-88569540D01*
X175153588Y-88590114D01*
X174980126Y-88650812D01*
X174824526Y-88748582D01*
X174694582Y-88878526D01*
X174596812Y-89034126D01*
X174536114Y-89207588D01*
X174515540Y-89390197D01*
X173616861Y-89390197D01*
X173616861Y-89390196D01*
X173596286Y-89207587D01*
X173557984Y-89098127D01*
X173535590Y-89034128D01*
X173437819Y-88878526D01*
X173307874Y-88748581D01*
X173152274Y-88650811D01*
X173152273Y-88650810D01*
X173152272Y-88650810D01*
X173096913Y-88631439D01*
X172978812Y-88590113D01*
X172796204Y-88569539D01*
X172796198Y-88569539D01*
X172613589Y-88590113D01*
X172440127Y-88650811D01*
X172284527Y-88748581D01*
X172154583Y-88878525D01*
X172056813Y-89034125D01*
X171996115Y-89207587D01*
X171975541Y-89390196D01*
X171071700Y-89390196D01*
X171071700Y-88800526D01*
X171071700Y-88800523D01*
X171071699Y-88800521D01*
X171057167Y-88727464D01*
X171057166Y-88727460D01*
X171001801Y-88644599D01*
X170920262Y-88590117D01*
X170918939Y-88589233D01*
X170918935Y-88589232D01*
X170845877Y-88574700D01*
X170845874Y-88574700D01*
X169666526Y-88574700D01*
X169666523Y-88574700D01*
X169593464Y-88589232D01*
X169593460Y-88589233D01*
X169510599Y-88644599D01*
X169455233Y-88727460D01*
X169455232Y-88727464D01*
X169440700Y-88800521D01*
X156648044Y-88800521D01*
X156880346Y-88398164D01*
X156904578Y-88343387D01*
X156904580Y-88343381D01*
X156928421Y-88201599D01*
X156928422Y-88201597D01*
X156911351Y-88058837D01*
X156854753Y-87926664D01*
X156763213Y-87815797D01*
X156763209Y-87815794D01*
X156714844Y-87780478D01*
X156714839Y-87780475D01*
X156563460Y-87693076D01*
X156515244Y-87642509D01*
X156502022Y-87573902D01*
X156527990Y-87509037D01*
X156584904Y-87468509D01*
X156602660Y-87463803D01*
X156780199Y-87430616D01*
X156979020Y-87353593D01*
X157160303Y-87241347D01*
X157317873Y-87097702D01*
X157446367Y-86927550D01*
X157510366Y-86799022D01*
X157541404Y-86736689D01*
X157541404Y-86736688D01*
X157541406Y-86736684D01*
X157599757Y-86531605D01*
X157619430Y-86319295D01*
X157599757Y-86106985D01*
X157541406Y-85901906D01*
X157541404Y-85901901D01*
X157541404Y-85901900D01*
X157446368Y-85711041D01*
X157317873Y-85540888D01*
X157295762Y-85520731D01*
X157160303Y-85397243D01*
X156979020Y-85284997D01*
X156979018Y-85284996D01*
X156867045Y-85241618D01*
X156780199Y-85207974D01*
X156570611Y-85168795D01*
X156357391Y-85168795D01*
X156147803Y-85207974D01*
X156147800Y-85207974D01*
X156147800Y-85207975D01*
X155948983Y-85284996D01*
X155948981Y-85284997D01*
X155812197Y-85369691D01*
X155744836Y-85388246D01*
X155678137Y-85367438D01*
X155633275Y-85313873D01*
X155624495Y-85244557D01*
X155641917Y-85198305D01*
X155880332Y-84818767D01*
X155882840Y-84814937D01*
X156470777Y-83952777D01*
X156473468Y-83948988D01*
X157093364Y-83109617D01*
X157096195Y-83105932D01*
X157113560Y-83084180D01*
X157175800Y-83006219D01*
X157233006Y-82966112D01*
X157302819Y-82963299D01*
X157360384Y-82995905D01*
X157854303Y-83489824D01*
X158578892Y-82765235D01*
X158601698Y-82850347D01*
X158660941Y-82952959D01*
X158744725Y-83036743D01*
X158847337Y-83095986D01*
X158932445Y-83118791D01*
X158207858Y-83843379D01*
X158701298Y-84336819D01*
X158747933Y-84374399D01*
X158878712Y-84434125D01*
X158878717Y-84434126D01*
X159021031Y-84454586D01*
X159163344Y-84434126D01*
X159163349Y-84434125D01*
X159294128Y-84374399D01*
X159340763Y-84336819D01*
X159340767Y-84336815D01*
X159834203Y-83843380D01*
X159834203Y-83843377D01*
X159109616Y-83118790D01*
X159194725Y-83095986D01*
X159297337Y-83036743D01*
X159381121Y-82952959D01*
X159440364Y-82850347D01*
X159463169Y-82765238D01*
X160187756Y-83489825D01*
X160187757Y-83489825D01*
X160681197Y-82996385D01*
X160718777Y-82949750D01*
X160778503Y-82818971D01*
X160778504Y-82818966D01*
X160798964Y-82676653D01*
X160778504Y-82534339D01*
X160778503Y-82534334D01*
X160718777Y-82403555D01*
X160681197Y-82356920D01*
X160556888Y-82232611D01*
X160523403Y-82171288D01*
X160528387Y-82101596D01*
X160570259Y-82045663D01*
X160635723Y-82021246D01*
X160667348Y-82023040D01*
X160710473Y-82031102D01*
X160710476Y-82031102D01*
X160923691Y-82031102D01*
X160923693Y-82031102D01*
X161133281Y-81991923D01*
X161332102Y-81914900D01*
X161513385Y-81802654D01*
X161670955Y-81659009D01*
X161799449Y-81488857D01*
X161804000Y-81479717D01*
X161818699Y-81450197D01*
X169435541Y-81450197D01*
X169435541Y-81450202D01*
X169456115Y-81632811D01*
X169494418Y-81742272D01*
X169516811Y-81806269D01*
X169516813Y-81806273D01*
X169564800Y-81882644D01*
X169614583Y-81961873D01*
X169744528Y-82091818D01*
X169900130Y-82189589D01*
X170023080Y-82232611D01*
X170073589Y-82250285D01*
X170256198Y-82270860D01*
X170256201Y-82270860D01*
X170256204Y-82270860D01*
X170438812Y-82250285D01*
X170438821Y-82250282D01*
X170612272Y-82189589D01*
X170767874Y-82091818D01*
X170897819Y-81961873D01*
X170995590Y-81806271D01*
X171056285Y-81632814D01*
X171056285Y-81632813D01*
X171056286Y-81632811D01*
X171076861Y-81450202D01*
X171076861Y-81450197D01*
X171076861Y-81450195D01*
X171975540Y-81450195D01*
X171975540Y-81450200D01*
X171996114Y-81632809D01*
X172038133Y-81752889D01*
X172055930Y-81803752D01*
X172056812Y-81806271D01*
X172094318Y-81865961D01*
X172154582Y-81961871D01*
X172284527Y-82091816D01*
X172366351Y-82143229D01*
X172387672Y-82156626D01*
X172433963Y-82208961D01*
X172445700Y-82261620D01*
X172445700Y-85059944D01*
X172456652Y-85100815D01*
X172458647Y-85108262D01*
X172469586Y-85149089D01*
X172469587Y-85149090D01*
X172515727Y-85229008D01*
X172515729Y-85229011D01*
X172515730Y-85229012D01*
X173038187Y-85751469D01*
X173118112Y-85797614D01*
X173207256Y-85821500D01*
X184969455Y-85821500D01*
X185036494Y-85841185D01*
X185057135Y-85857818D01*
X185109380Y-85910062D01*
X185142866Y-85971385D01*
X185145700Y-85997744D01*
X185145700Y-88578780D01*
X185126015Y-88645819D01*
X185087672Y-88683774D01*
X184984526Y-88748584D01*
X184854582Y-88878528D01*
X184756812Y-89034128D01*
X184696114Y-89207590D01*
X184675540Y-89390199D01*
X184675540Y-89390204D01*
X184696114Y-89572813D01*
X184742241Y-89704634D01*
X184756810Y-89746271D01*
X184756812Y-89746275D01*
X184787858Y-89795684D01*
X184854582Y-89901875D01*
X184984527Y-90031820D01*
X185140129Y-90129591D01*
X185271947Y-90175716D01*
X185313588Y-90190287D01*
X185496197Y-90210862D01*
X185496200Y-90210862D01*
X185496203Y-90210862D01*
X185678811Y-90190287D01*
X185678820Y-90190284D01*
X185852271Y-90129591D01*
X186007873Y-90031820D01*
X186137818Y-89901875D01*
X186235589Y-89746273D01*
X186296284Y-89572816D01*
X186296284Y-89572815D01*
X186296285Y-89572813D01*
X186316860Y-89390204D01*
X186316860Y-89390200D01*
X186966046Y-89390200D01*
X186986608Y-89598974D01*
X187047508Y-89799734D01*
X187126091Y-89946752D01*
X187126092Y-89946752D01*
X187671199Y-89401645D01*
X187671199Y-89438253D01*
X187696073Y-89531085D01*
X187744126Y-89614316D01*
X187812083Y-89682273D01*
X187895314Y-89730326D01*
X187988146Y-89755200D01*
X188024752Y-89755200D01*
X187479644Y-90300306D01*
X187626664Y-90378890D01*
X187827426Y-90439790D01*
X187827422Y-90439790D01*
X188036199Y-90460352D01*
X188244973Y-90439790D01*
X188445731Y-90378890D01*
X188592752Y-90300305D01*
X188047647Y-89755200D01*
X188084252Y-89755200D01*
X188177084Y-89730326D01*
X188260315Y-89682273D01*
X188328272Y-89614316D01*
X188376325Y-89531085D01*
X188401199Y-89438253D01*
X188401199Y-89401647D01*
X188946304Y-89946752D01*
X189024889Y-89799732D01*
X189085789Y-89598974D01*
X189106351Y-89390200D01*
X189085789Y-89181425D01*
X189024889Y-88980665D01*
X188946305Y-88833645D01*
X188401199Y-89378751D01*
X188401199Y-89342147D01*
X188376325Y-89249315D01*
X188328272Y-89166084D01*
X188260315Y-89098127D01*
X188177084Y-89050074D01*
X188084252Y-89025200D01*
X188047646Y-89025200D01*
X188592751Y-88480093D01*
X188592751Y-88480092D01*
X188445733Y-88401509D01*
X188244971Y-88340609D01*
X188244975Y-88340609D01*
X188036199Y-88320047D01*
X187827424Y-88340609D01*
X187626670Y-88401507D01*
X187479645Y-88480093D01*
X188024753Y-89025200D01*
X187988146Y-89025200D01*
X187895314Y-89050074D01*
X187812083Y-89098127D01*
X187744126Y-89166084D01*
X187696073Y-89249315D01*
X187671199Y-89342147D01*
X187671199Y-89378753D01*
X187126092Y-88833646D01*
X187047506Y-88980671D01*
X186986608Y-89181425D01*
X186966046Y-89390200D01*
X186316860Y-89390200D01*
X186316860Y-89390199D01*
X186296285Y-89207590D01*
X186257982Y-89098127D01*
X186235589Y-89034131D01*
X186137818Y-88878529D01*
X186007873Y-88748584D01*
X185904727Y-88683773D01*
X185858437Y-88631439D01*
X185846700Y-88578780D01*
X185846700Y-85755058D01*
X185846700Y-85755056D01*
X185822814Y-85665912D01*
X185781649Y-85594613D01*
X185776673Y-85585994D01*
X185776670Y-85585991D01*
X185776669Y-85585988D01*
X185711412Y-85520731D01*
X185381212Y-85190530D01*
X185381211Y-85190529D01*
X185381208Y-85190527D01*
X185301290Y-85144387D01*
X185301289Y-85144386D01*
X185301288Y-85144386D01*
X185212144Y-85120500D01*
X185212143Y-85120500D01*
X173449944Y-85120500D01*
X173382905Y-85100815D01*
X173362263Y-85084181D01*
X173183019Y-84904937D01*
X173149534Y-84843614D01*
X173146700Y-84817256D01*
X173146700Y-82261620D01*
X173166385Y-82194581D01*
X173204728Y-82156626D01*
X173226049Y-82143229D01*
X173307873Y-82091816D01*
X173437818Y-81961871D01*
X173535589Y-81806269D01*
X173596284Y-81632812D01*
X173596284Y-81632811D01*
X173596285Y-81632809D01*
X173616860Y-81450200D01*
X173616860Y-81450197D01*
X174515540Y-81450197D01*
X174515540Y-81450202D01*
X174536114Y-81632811D01*
X174574417Y-81742272D01*
X174596810Y-81806269D01*
X174596812Y-81806273D01*
X174644799Y-81882644D01*
X174694582Y-81961873D01*
X174824527Y-82091818D01*
X174980129Y-82189589D01*
X175103079Y-82232611D01*
X175153588Y-82250285D01*
X175336197Y-82270860D01*
X175336200Y-82270860D01*
X175336203Y-82270860D01*
X175518811Y-82250285D01*
X175518820Y-82250282D01*
X175692271Y-82189589D01*
X175847873Y-82091818D01*
X175977818Y-81961873D01*
X176075589Y-81806271D01*
X176136284Y-81632814D01*
X176136284Y-81632813D01*
X176136285Y-81632811D01*
X176156860Y-81450202D01*
X176156860Y-81450199D01*
X176806048Y-81450199D01*
X176826610Y-81658973D01*
X176887510Y-81859733D01*
X176966093Y-82006751D01*
X176966094Y-82006751D01*
X177511201Y-81461644D01*
X177511201Y-81498252D01*
X177536075Y-81591084D01*
X177584128Y-81674315D01*
X177652085Y-81742272D01*
X177735316Y-81790325D01*
X177828148Y-81815199D01*
X177864754Y-81815199D01*
X177319646Y-82360305D01*
X177466666Y-82438889D01*
X177667428Y-82499789D01*
X177667424Y-82499789D01*
X177876201Y-82520351D01*
X178084975Y-82499789D01*
X178285733Y-82438889D01*
X178432754Y-82360304D01*
X177887649Y-81815199D01*
X177924254Y-81815199D01*
X178017086Y-81790325D01*
X178100317Y-81742272D01*
X178168274Y-81674315D01*
X178216327Y-81591084D01*
X178241201Y-81498252D01*
X178241201Y-81461646D01*
X178786306Y-82006751D01*
X178864891Y-81859731D01*
X178925791Y-81658973D01*
X178946353Y-81450199D01*
X178946353Y-81450195D01*
X179595540Y-81450195D01*
X179595540Y-81450200D01*
X179616114Y-81632809D01*
X179658133Y-81752889D01*
X179675930Y-81803752D01*
X179676812Y-81806271D01*
X179714318Y-81865961D01*
X179774582Y-81961871D01*
X179904527Y-82091816D01*
X180060129Y-82189587D01*
X180166058Y-82226653D01*
X180233588Y-82250283D01*
X180416197Y-82270858D01*
X180416200Y-82270858D01*
X180416203Y-82270858D01*
X180598811Y-82250283D01*
X180598814Y-82250282D01*
X180772271Y-82189587D01*
X180927873Y-82091816D01*
X181057818Y-81961871D01*
X181155589Y-81806269D01*
X181216284Y-81632812D01*
X181216284Y-81632811D01*
X181216285Y-81632809D01*
X181236860Y-81450200D01*
X181236860Y-81450197D01*
X182135540Y-81450197D01*
X182135540Y-81450202D01*
X182156114Y-81632811D01*
X182194417Y-81742272D01*
X182216810Y-81806269D01*
X182216812Y-81806273D01*
X182264799Y-81882644D01*
X182314582Y-81961873D01*
X182444527Y-82091818D01*
X182600129Y-82189589D01*
X182723079Y-82232611D01*
X182773588Y-82250285D01*
X182956197Y-82270860D01*
X182956200Y-82270860D01*
X182956203Y-82270860D01*
X183138811Y-82250285D01*
X183138820Y-82250282D01*
X183312271Y-82189589D01*
X183467873Y-82091818D01*
X183597818Y-81961873D01*
X183695589Y-81806271D01*
X183756284Y-81632814D01*
X183756284Y-81632813D01*
X183756285Y-81632811D01*
X183776860Y-81450202D01*
X183776860Y-81450198D01*
X184675539Y-81450198D01*
X184675539Y-81450203D01*
X184696113Y-81632812D01*
X184756811Y-81806274D01*
X184825065Y-81914899D01*
X184854581Y-81961874D01*
X184984526Y-82091819D01*
X185140128Y-82189590D01*
X185271946Y-82235715D01*
X185313587Y-82250286D01*
X185496196Y-82270861D01*
X185496199Y-82270861D01*
X185496202Y-82270861D01*
X185678810Y-82250286D01*
X185678819Y-82250283D01*
X185852270Y-82189590D01*
X186007872Y-82091819D01*
X186137817Y-81961874D01*
X186235588Y-81806272D01*
X186296283Y-81632815D01*
X186296283Y-81632814D01*
X186296284Y-81632812D01*
X186316859Y-81450203D01*
X186316859Y-81450198D01*
X186316859Y-81450197D01*
X187215540Y-81450197D01*
X187215540Y-81450202D01*
X187236114Y-81632811D01*
X187274417Y-81742272D01*
X187296810Y-81806269D01*
X187296812Y-81806273D01*
X187344799Y-81882644D01*
X187394582Y-81961873D01*
X187524527Y-82091818D01*
X187680129Y-82189589D01*
X187803079Y-82232611D01*
X187853588Y-82250285D01*
X188036197Y-82270860D01*
X188036200Y-82270860D01*
X188036203Y-82270860D01*
X188218811Y-82250285D01*
X188218820Y-82250282D01*
X188392271Y-82189589D01*
X188547873Y-82091818D01*
X188677818Y-81961873D01*
X188775589Y-81806271D01*
X188836284Y-81632814D01*
X188836284Y-81632813D01*
X188836285Y-81632811D01*
X188856860Y-81450202D01*
X188856860Y-81450197D01*
X188836285Y-81267588D01*
X188796647Y-81154310D01*
X188775589Y-81094129D01*
X188677818Y-80938527D01*
X188547873Y-80808582D01*
X188423950Y-80730716D01*
X188392273Y-80710812D01*
X188392272Y-80710811D01*
X188392271Y-80710811D01*
X188350632Y-80696241D01*
X188218811Y-80650114D01*
X188036203Y-80629540D01*
X188036197Y-80629540D01*
X187853588Y-80650114D01*
X187680126Y-80710812D01*
X187524526Y-80808582D01*
X187394582Y-80938526D01*
X187296812Y-81094126D01*
X187236114Y-81267588D01*
X187215540Y-81450197D01*
X186316859Y-81450197D01*
X186296284Y-81267589D01*
X186264707Y-81177348D01*
X186235588Y-81094130D01*
X186137817Y-80938528D01*
X186007872Y-80808583D01*
X185911623Y-80748106D01*
X185852272Y-80710813D01*
X185852271Y-80710812D01*
X185852270Y-80710812D01*
X185810631Y-80696242D01*
X185678810Y-80650115D01*
X185496202Y-80629541D01*
X185496196Y-80629541D01*
X185313587Y-80650115D01*
X185140125Y-80710813D01*
X184984525Y-80808583D01*
X184854581Y-80938527D01*
X184756811Y-81094127D01*
X184696113Y-81267589D01*
X184675539Y-81450198D01*
X183776860Y-81450198D01*
X183776860Y-81450197D01*
X183756285Y-81267588D01*
X183716647Y-81154310D01*
X183695589Y-81094129D01*
X183597818Y-80938527D01*
X183467873Y-80808582D01*
X183343950Y-80730716D01*
X183312273Y-80710812D01*
X183312272Y-80710811D01*
X183312271Y-80710811D01*
X183270632Y-80696241D01*
X183138811Y-80650114D01*
X182956203Y-80629540D01*
X182956197Y-80629540D01*
X182773588Y-80650114D01*
X182600126Y-80710812D01*
X182444526Y-80808582D01*
X182314582Y-80938526D01*
X182216812Y-81094126D01*
X182156114Y-81267588D01*
X182135540Y-81450197D01*
X181236860Y-81450197D01*
X181236860Y-81450195D01*
X181216285Y-81267586D01*
X181184709Y-81177348D01*
X181155589Y-81094127D01*
X181057818Y-80938525D01*
X180927873Y-80808580D01*
X180795512Y-80725412D01*
X180772273Y-80710810D01*
X180772272Y-80710809D01*
X180772271Y-80710809D01*
X180730632Y-80696239D01*
X180598811Y-80650112D01*
X180416203Y-80629538D01*
X180416197Y-80629538D01*
X180233588Y-80650112D01*
X180060126Y-80710810D01*
X179904526Y-80808580D01*
X179774582Y-80938524D01*
X179676812Y-81094124D01*
X179616114Y-81267586D01*
X179595540Y-81450195D01*
X178946353Y-81450195D01*
X178925791Y-81241424D01*
X178864891Y-81040664D01*
X178786307Y-80893644D01*
X178241201Y-81438750D01*
X178241201Y-81402146D01*
X178216327Y-81309314D01*
X178168274Y-81226083D01*
X178100317Y-81158126D01*
X178017086Y-81110073D01*
X177924254Y-81085199D01*
X177887648Y-81085199D01*
X178432753Y-80540092D01*
X178432753Y-80540091D01*
X178285735Y-80461508D01*
X178084973Y-80400608D01*
X178084977Y-80400608D01*
X177876201Y-80380046D01*
X177667426Y-80400608D01*
X177466672Y-80461506D01*
X177319647Y-80540092D01*
X177864755Y-81085199D01*
X177828148Y-81085199D01*
X177735316Y-81110073D01*
X177652085Y-81158126D01*
X177584128Y-81226083D01*
X177536075Y-81309314D01*
X177511201Y-81402146D01*
X177511201Y-81438752D01*
X176966094Y-80893645D01*
X176887508Y-81040670D01*
X176826610Y-81241424D01*
X176806048Y-81450199D01*
X176156860Y-81450199D01*
X176156860Y-81450197D01*
X176136285Y-81267588D01*
X176096647Y-81154310D01*
X176075589Y-81094129D01*
X175977818Y-80938527D01*
X175847873Y-80808582D01*
X175723950Y-80730716D01*
X175692273Y-80710812D01*
X175692272Y-80710811D01*
X175692271Y-80710811D01*
X175650632Y-80696241D01*
X175518811Y-80650114D01*
X175336203Y-80629540D01*
X175336197Y-80629540D01*
X175153588Y-80650114D01*
X174980126Y-80710812D01*
X174824526Y-80808582D01*
X174694582Y-80938526D01*
X174596812Y-81094126D01*
X174536114Y-81267588D01*
X174515540Y-81450197D01*
X173616860Y-81450197D01*
X173616860Y-81450195D01*
X173596285Y-81267586D01*
X173564709Y-81177348D01*
X173535589Y-81094127D01*
X173437818Y-80938525D01*
X173307873Y-80808580D01*
X173175512Y-80725412D01*
X173152273Y-80710810D01*
X173152272Y-80710809D01*
X173152271Y-80710809D01*
X173110632Y-80696239D01*
X172978811Y-80650112D01*
X172796203Y-80629538D01*
X172796197Y-80629538D01*
X172613588Y-80650112D01*
X172440126Y-80710810D01*
X172284526Y-80808580D01*
X172154582Y-80938524D01*
X172056812Y-81094124D01*
X171996114Y-81267586D01*
X171975540Y-81450195D01*
X171076861Y-81450195D01*
X171056286Y-81267588D01*
X171016648Y-81154310D01*
X170995590Y-81094129D01*
X170897819Y-80938527D01*
X170767874Y-80808582D01*
X170643951Y-80730716D01*
X170612274Y-80710812D01*
X170612273Y-80710811D01*
X170612272Y-80710811D01*
X170570633Y-80696241D01*
X170438812Y-80650114D01*
X170256204Y-80629540D01*
X170256198Y-80629540D01*
X170073589Y-80650114D01*
X169900127Y-80710812D01*
X169744527Y-80808582D01*
X169614583Y-80938526D01*
X169516813Y-81094126D01*
X169456115Y-81267588D01*
X169435541Y-81450197D01*
X161818699Y-81450197D01*
X161894486Y-81297996D01*
X161894486Y-81297995D01*
X161894488Y-81297991D01*
X161952839Y-81092912D01*
X161972512Y-80880602D01*
X161952839Y-80668292D01*
X161894488Y-80463213D01*
X161894486Y-80463208D01*
X161894486Y-80463207D01*
X161799450Y-80272348D01*
X161670955Y-80102195D01*
X161615938Y-80052040D01*
X161513385Y-79958550D01*
X161332102Y-79846304D01*
X161332100Y-79846303D01*
X161191061Y-79791665D01*
X161133281Y-79769281D01*
X160923693Y-79730102D01*
X160710473Y-79730102D01*
X160505042Y-79768504D01*
X160500880Y-79769282D01*
X160458235Y-79785803D01*
X160388612Y-79791665D01*
X160326872Y-79758954D01*
X160292617Y-79698058D01*
X160296724Y-79628309D01*
X160329227Y-79579160D01*
X160656321Y-79276519D01*
X160659746Y-79273468D01*
X161451839Y-78594062D01*
X161455353Y-78591161D01*
X162272463Y-77942006D01*
X162276087Y-77939236D01*
X162362003Y-77876101D01*
X162427682Y-77852266D01*
X162495820Y-77867723D01*
X162542817Y-77914024D01*
X162873563Y-78486893D01*
X162873564Y-78486893D01*
X163761000Y-77974531D01*
X163761000Y-78062644D01*
X163791667Y-78177094D01*
X163850910Y-78279706D01*
X163934694Y-78363490D01*
X164010997Y-78407544D01*
X163123563Y-78919905D01*
X163123563Y-78919906D01*
X163472475Y-79524239D01*
X163472478Y-79524244D01*
X163507794Y-79572609D01*
X163507797Y-79572613D01*
X163618664Y-79664153D01*
X163750837Y-79720751D01*
X163893597Y-79737822D01*
X163893599Y-79737821D01*
X164035381Y-79713980D01*
X164035387Y-79713978D01*
X164090164Y-79689746D01*
X164694493Y-79340835D01*
X164694493Y-79340834D01*
X164182133Y-78453400D01*
X164270244Y-78453400D01*
X164384694Y-78422733D01*
X164487306Y-78363490D01*
X164571090Y-78279706D01*
X164615144Y-78203401D01*
X165127505Y-79090835D01*
X165127506Y-79090835D01*
X165731839Y-78741924D01*
X165731844Y-78741921D01*
X165780209Y-78706605D01*
X165780213Y-78706602D01*
X165871753Y-78595735D01*
X165928351Y-78463562D01*
X165945422Y-78320802D01*
X165945421Y-78320800D01*
X165921580Y-78179018D01*
X165921578Y-78179012D01*
X165897346Y-78124235D01*
X165808614Y-77970548D01*
X165792141Y-77902648D01*
X165814993Y-77836621D01*
X165869914Y-77793431D01*
X165939468Y-77786789D01*
X165960793Y-77792920D01*
X166094507Y-77844721D01*
X166304095Y-77883900D01*
X166304097Y-77883900D01*
X166517313Y-77883900D01*
X166517315Y-77883900D01*
X166726903Y-77844721D01*
X166925724Y-77767698D01*
X167107007Y-77655452D01*
X167264577Y-77511807D01*
X167393071Y-77341655D01*
X167393537Y-77340718D01*
X167393880Y-77340348D01*
X167396088Y-77336783D01*
X167396785Y-77337214D01*
X167441036Y-77289479D01*
X167508698Y-77272054D01*
X167575039Y-77293975D01*
X167592221Y-77308303D01*
X167732801Y-77448883D01*
X167812725Y-77495027D01*
X167901869Y-77518913D01*
X168434813Y-77518913D01*
X168501852Y-77538598D01*
X168521317Y-77556499D01*
X168522533Y-77555284D01*
X168528277Y-77561028D01*
X168528282Y-77561032D01*
X168528284Y-77561034D01*
X168643280Y-77649274D01*
X168777196Y-77704743D01*
X168904185Y-77721461D01*
X168920904Y-77723663D01*
X168920905Y-77723663D01*
X168920906Y-77723663D01*
X168935882Y-77721691D01*
X169064614Y-77704743D01*
X169198530Y-77649274D01*
X169313526Y-77561034D01*
X169401766Y-77446038D01*
X169457235Y-77312122D01*
X169476155Y-77168413D01*
X169457235Y-77024704D01*
X169401766Y-76890788D01*
X169313526Y-76775792D01*
X169198530Y-76687552D01*
X169198529Y-76687551D01*
X169198527Y-76687550D01*
X169064617Y-76632084D01*
X169064615Y-76632083D01*
X169064614Y-76632083D01*
X168992759Y-76622623D01*
X168920906Y-76613163D01*
X168920904Y-76613163D01*
X168777196Y-76632083D01*
X168777192Y-76632084D01*
X168643282Y-76687550D01*
X168528277Y-76775797D01*
X168522533Y-76781542D01*
X168520016Y-76779025D01*
X168476722Y-76810616D01*
X168434813Y-76817913D01*
X168292300Y-76817913D01*
X168225261Y-76798228D01*
X168179506Y-76745424D01*
X168168300Y-76693913D01*
X168168300Y-74655259D01*
X168168300Y-74655257D01*
X168144414Y-74566113D01*
X168132801Y-74545999D01*
X168098273Y-74486195D01*
X168098270Y-74486192D01*
X168098269Y-74486189D01*
X168033012Y-74420932D01*
X167883307Y-74271226D01*
X168850830Y-74271226D01*
X168850830Y-74271227D01*
X168860055Y-74330390D01*
X169040669Y-75004451D01*
X170030475Y-74739232D01*
X170007670Y-74824343D01*
X170007670Y-74942831D01*
X170038337Y-75057281D01*
X170097580Y-75159893D01*
X170159883Y-75222196D01*
X169170078Y-75487415D01*
X169350689Y-76161459D01*
X169350694Y-76161477D01*
X169372284Y-76217323D01*
X169455687Y-76334448D01*
X169455688Y-76334449D01*
X169568703Y-76423323D01*
X169702180Y-76476760D01*
X169845309Y-76490426D01*
X169845310Y-76490426D01*
X169904472Y-76481201D01*
X170578534Y-76300586D01*
X170313316Y-75310781D01*
X170398426Y-75333587D01*
X170516914Y-75333587D01*
X170631364Y-75302920D01*
X170733976Y-75243677D01*
X170796280Y-75181372D01*
X171061498Y-76171177D01*
X171735543Y-75990567D01*
X171735560Y-75990562D01*
X171791406Y-75968972D01*
X171908531Y-75885569D01*
X171908532Y-75885568D01*
X171997406Y-75772553D01*
X172050843Y-75639076D01*
X172064509Y-75495947D01*
X172064509Y-75495946D01*
X172055284Y-75436784D01*
X172010998Y-75271507D01*
X172012661Y-75201657D01*
X172051823Y-75143795D01*
X172116051Y-75116290D01*
X172184954Y-75127876D01*
X172210129Y-75144939D01*
X172210246Y-75144785D01*
X172213267Y-75147066D01*
X172214305Y-75147770D01*
X172214681Y-75148112D01*
X172214820Y-75148239D01*
X172396103Y-75260485D01*
X172594924Y-75337508D01*
X172804512Y-75376687D01*
X172804514Y-75376687D01*
X173017730Y-75376687D01*
X173017732Y-75376687D01*
X173227320Y-75337508D01*
X173426141Y-75260485D01*
X173607424Y-75148239D01*
X173764994Y-75004594D01*
X173893488Y-74834442D01*
X173898517Y-74824343D01*
X173988525Y-74643581D01*
X173988525Y-74643580D01*
X173988527Y-74643576D01*
X174046878Y-74438497D01*
X174066551Y-74226187D01*
X174046878Y-74013877D01*
X173988527Y-73808798D01*
X173988525Y-73808793D01*
X173988525Y-73808792D01*
X173893489Y-73617933D01*
X173764994Y-73447780D01*
X173750623Y-73434679D01*
X173607424Y-73304135D01*
X173426141Y-73191889D01*
X173426139Y-73191888D01*
X173311585Y-73147510D01*
X173227320Y-73114866D01*
X173017732Y-73075687D01*
X172804512Y-73075687D01*
X172594924Y-73114866D01*
X172594921Y-73114866D01*
X172594921Y-73114867D01*
X172396104Y-73191888D01*
X172396102Y-73191889D01*
X172214821Y-73304134D01*
X172057249Y-73447780D01*
X171928756Y-73617931D01*
X171840162Y-73795853D01*
X171792659Y-73847090D01*
X171724996Y-73864511D01*
X171658656Y-73842585D01*
X171614701Y-73788274D01*
X171609387Y-73772674D01*
X171564652Y-73605718D01*
X171564645Y-73605696D01*
X171543055Y-73549850D01*
X171459652Y-73432725D01*
X171459651Y-73432724D01*
X171346636Y-73343850D01*
X171213159Y-73290413D01*
X171070030Y-73276747D01*
X171070029Y-73276747D01*
X171010864Y-73285972D01*
X170336804Y-73466586D01*
X170602021Y-74456391D01*
X170516914Y-74433587D01*
X170398426Y-74433587D01*
X170283976Y-74464254D01*
X170181364Y-74523497D01*
X170119059Y-74585801D01*
X169853840Y-73595995D01*
X169179797Y-73776606D01*
X169179779Y-73776611D01*
X169123933Y-73798201D01*
X169006808Y-73881604D01*
X169006807Y-73881605D01*
X168917933Y-73994620D01*
X168864496Y-74128097D01*
X168850830Y-74271226D01*
X167883307Y-74271226D01*
X167768301Y-74156220D01*
X167764495Y-74152241D01*
X167734127Y-74119048D01*
X167687482Y-74092610D01*
X167686629Y-74092122D01*
X167644661Y-74067893D01*
X167638964Y-74065111D01*
X167637539Y-74064303D01*
X167637533Y-74064301D01*
X167597159Y-74056054D01*
X167589883Y-74054338D01*
X167559146Y-74046102D01*
X167553105Y-74045307D01*
X167536160Y-74043594D01*
X167528755Y-74042082D01*
X167528753Y-74042082D01*
X167519003Y-74041649D01*
X167519155Y-74038229D01*
X167467470Y-74029188D01*
X167416081Y-73981850D01*
X167398442Y-73914244D01*
X167420155Y-73847833D01*
X167470680Y-73805305D01*
X167667843Y-73714858D01*
X167672068Y-73713015D01*
X168661585Y-73303143D01*
X168665832Y-73301476D01*
X169669985Y-72928890D01*
X169674294Y-72927382D01*
X170691706Y-72592593D01*
X170696052Y-72591252D01*
X170805381Y-72559755D01*
X175917400Y-72559755D01*
X175917400Y-73257600D01*
X176942122Y-73257600D01*
X176898067Y-73333906D01*
X176867400Y-73448356D01*
X176867400Y-73566844D01*
X176898067Y-73681294D01*
X176942122Y-73757600D01*
X175917400Y-73757600D01*
X175917400Y-74455444D01*
X175923801Y-74514972D01*
X175923803Y-74514979D01*
X175974045Y-74649686D01*
X175974049Y-74649693D01*
X176060209Y-74764787D01*
X176060212Y-74764790D01*
X176175306Y-74850950D01*
X176175313Y-74850954D01*
X176310020Y-74901196D01*
X176310027Y-74901198D01*
X176369555Y-74907599D01*
X176369572Y-74907600D01*
X177067400Y-74907600D01*
X177067400Y-73882877D01*
X177143706Y-73926933D01*
X177258156Y-73957600D01*
X177376644Y-73957600D01*
X177491094Y-73926933D01*
X177567400Y-73882877D01*
X177567400Y-74907600D01*
X178265228Y-74907600D01*
X178265244Y-74907599D01*
X178324772Y-74901198D01*
X178324779Y-74901196D01*
X178459486Y-74850954D01*
X178459493Y-74850950D01*
X178574587Y-74764790D01*
X178574590Y-74764787D01*
X178660750Y-74649693D01*
X178660754Y-74649686D01*
X178710996Y-74514979D01*
X178710998Y-74514972D01*
X178717399Y-74455444D01*
X178717400Y-74455427D01*
X178717400Y-74277078D01*
X178737085Y-74210039D01*
X178789889Y-74164284D01*
X178859047Y-74154340D01*
X178922603Y-74183365D01*
X178940350Y-74202347D01*
X178958353Y-74226186D01*
X178992366Y-74271227D01*
X179003528Y-74286007D01*
X179161098Y-74429652D01*
X179342381Y-74541898D01*
X179541202Y-74618921D01*
X179750790Y-74658100D01*
X179750792Y-74658100D01*
X179964008Y-74658100D01*
X179964010Y-74658100D01*
X180173598Y-74618921D01*
X180372419Y-74541898D01*
X180553702Y-74429652D01*
X180711272Y-74286007D01*
X180839766Y-74115855D01*
X180869916Y-74055306D01*
X180934803Y-73924994D01*
X180934803Y-73924993D01*
X180934805Y-73924989D01*
X180993156Y-73719910D01*
X181012829Y-73507600D01*
X180993156Y-73295290D01*
X180934805Y-73090211D01*
X180934803Y-73090206D01*
X180934803Y-73090205D01*
X180839767Y-72899346D01*
X180711272Y-72729193D01*
X180553702Y-72585548D01*
X180372419Y-72473302D01*
X180372417Y-72473301D01*
X180273008Y-72434790D01*
X180173598Y-72396279D01*
X179964010Y-72357100D01*
X179750790Y-72357100D01*
X179541202Y-72396279D01*
X179541199Y-72396279D01*
X179541199Y-72396280D01*
X179342382Y-72473301D01*
X179342380Y-72473302D01*
X179161099Y-72585547D01*
X179003527Y-72729193D01*
X178940354Y-72812848D01*
X178884245Y-72854484D01*
X178814533Y-72859175D01*
X178753351Y-72825433D01*
X178720124Y-72763969D01*
X178717400Y-72738121D01*
X178717400Y-72559772D01*
X178717399Y-72559755D01*
X178710998Y-72500227D01*
X178710996Y-72500220D01*
X178660754Y-72365513D01*
X178660750Y-72365506D01*
X178574590Y-72250412D01*
X178574587Y-72250409D01*
X178459493Y-72164249D01*
X178459486Y-72164245D01*
X178324779Y-72114003D01*
X178324772Y-72114001D01*
X178265244Y-72107600D01*
X177567400Y-72107600D01*
X177567400Y-73132322D01*
X177491094Y-73088267D01*
X177376644Y-73057600D01*
X177258156Y-73057600D01*
X177143706Y-73088267D01*
X177067400Y-73132322D01*
X177067400Y-72107600D01*
X176369555Y-72107600D01*
X176310027Y-72114001D01*
X176310020Y-72114003D01*
X176175313Y-72164245D01*
X176175306Y-72164249D01*
X176060212Y-72250409D01*
X176060209Y-72250412D01*
X175974049Y-72365506D01*
X175974045Y-72365513D01*
X175923803Y-72500220D01*
X175923801Y-72500227D01*
X175917400Y-72559755D01*
X170805381Y-72559755D01*
X171725259Y-72294743D01*
X171729711Y-72293550D01*
X172769264Y-72035737D01*
X172773684Y-72034728D01*
X173822176Y-71815959D01*
X173826688Y-71815106D01*
X174882604Y-71635698D01*
X174887133Y-71635016D01*
X175948991Y-71495219D01*
X175953599Y-71494701D01*
X177019935Y-71394707D01*
X177024481Y-71394365D01*
X178093875Y-71334310D01*
X178098462Y-71334138D01*
X179169301Y-71314112D01*
X179173899Y-71314112D01*
X180244735Y-71334138D01*
G37*
%TD.AperFunction*%
%TD*%
M02*
