%TF.GenerationSoftware,KiCad,Pcbnew,8.0.9*%
%TF.CreationDate,2025-12-12T10:11:09+01:00*%
%TF.ProjectId,Project,50726f6a-6563-4742-9e6b-696361645f70,rev?*%
%TF.SameCoordinates,Original*%
%TF.FileFunction,Drillmap*%
%TF.FilePolarity,Positive*%
%FSLAX45Y45*%
G04 Gerber Fmt 4.5, Leading zero omitted, Abs format (unit mm)*
G04 Created by KiCad (PCBNEW 8.0.9) date 2025-12-12 10:11:09*
%MOMM*%
%LPD*%
G01*
G04 APERTURE LIST*
%ADD10C,0.050000*%
%ADD11C,0.200000*%
%ADD12C,0.100000*%
G04 APERTURE END LIST*
D10*
X20843403Y-10007600D02*
G75*
G02*
X14990917Y-10007600I-2926243J0D01*
G01*
X14990917Y-10007600D02*
G75*
G02*
X20843403Y-10007600I2926243J0D01*
G01*
D11*
D12*
X15553767Y-9113315D02*
X15583767Y-9143315D01*
X15583767Y-9113315D02*
X15553767Y-9143315D01*
X15618426Y-11040005D02*
X15648426Y-11070005D01*
X15648426Y-11040005D02*
X15618426Y-11070005D01*
X16877091Y-7701841D02*
X16907091Y-7731841D01*
X16907091Y-7701841D02*
X16877091Y-7731841D01*
X17025169Y-12351542D02*
X17055169Y-12381542D01*
X17055169Y-12351542D02*
X17025169Y-12381542D01*
X18806715Y-7645858D02*
X18836715Y-7675858D01*
X18836715Y-7645858D02*
X18806715Y-7675858D01*
X18950544Y-12291790D02*
X18980544Y-12321790D01*
X18980544Y-12291790D02*
X18950544Y-12321790D01*
X20210587Y-8962159D02*
X20240587Y-8992159D01*
X20240587Y-8962159D02*
X20210587Y-8992159D01*
X20268784Y-10889473D02*
X20298784Y-10919473D01*
X20298784Y-10889473D02*
X20268784Y-10919473D01*
X18586100Y-10398760D02*
G75*
G02*
X18526100Y-10398760I-30000J0D01*
G01*
X18526100Y-10398760D02*
G75*
G02*
X18586100Y-10398760I30000J0D01*
G01*
X18786100Y-10398760D02*
G75*
G02*
X18726100Y-10398760I-30000J0D01*
G01*
X18726100Y-10398760D02*
G75*
G02*
X18786100Y-10398760I30000J0D01*
G01*
X16296640Y-10620300D02*
X16296640Y-10690300D01*
X16261640Y-10655300D02*
X16331640Y-10655300D01*
X17058640Y-10620300D02*
X17058640Y-10690300D01*
X17023640Y-10655300D02*
X17093640Y-10655300D01*
X16324230Y-9654950D02*
X16324230Y-9603330D01*
X16272610Y-9603330D01*
X16272610Y-9654950D01*
X16324230Y-9654950D01*
X16324230Y-9908950D02*
X16324230Y-9857330D01*
X16272610Y-9857330D01*
X16272610Y-9908950D01*
X16324230Y-9908950D01*
X16324230Y-10162950D02*
X16324230Y-10111330D01*
X16272610Y-10111330D01*
X16272610Y-10162950D01*
X16324230Y-10162950D01*
X16324230Y-10416950D02*
X16324230Y-10365330D01*
X16272610Y-10365330D01*
X16272610Y-10416950D01*
X16324230Y-10416950D01*
X17051430Y-8964830D02*
X17051430Y-8913210D01*
X16999810Y-8913210D01*
X16999810Y-8964830D01*
X17051430Y-8964830D01*
X17051430Y-8170830D02*
X17051430Y-8119210D01*
X16999811Y-8119210D01*
X16999811Y-8170830D01*
X17051430Y-8170830D01*
X17118230Y-9654950D02*
X17118230Y-9603330D01*
X17066610Y-9603330D01*
X17066610Y-9654950D01*
X17118230Y-9654950D01*
X17118230Y-9908950D02*
X17118230Y-9857330D01*
X17066610Y-9857330D01*
X17066610Y-9908950D01*
X17118230Y-9908950D01*
X17118230Y-10162950D02*
X17118230Y-10111330D01*
X17066610Y-10111330D01*
X17066610Y-10162950D01*
X17118230Y-10162950D01*
X17118230Y-10416950D02*
X17118230Y-10365330D01*
X17066610Y-10365330D01*
X17066610Y-10416950D01*
X17118230Y-10416950D01*
X17305430Y-8170829D02*
X17305430Y-8119210D01*
X17253810Y-8119210D01*
X17253810Y-8170829D01*
X17305430Y-8170829D01*
X17305430Y-8964830D02*
X17305430Y-8913210D01*
X17253811Y-8913210D01*
X17253811Y-8964830D01*
X17305430Y-8964830D01*
X17559430Y-8170830D02*
X17559430Y-8119210D01*
X17507810Y-8119210D01*
X17507810Y-8170830D01*
X17559430Y-8170830D01*
X17559430Y-8964830D02*
X17559430Y-8913210D01*
X17507810Y-8913210D01*
X17507810Y-8964830D01*
X17559430Y-8964830D01*
X17813430Y-8964830D02*
X17813430Y-8913211D01*
X17761810Y-8913211D01*
X17761810Y-8964830D01*
X17813430Y-8964830D01*
X17813430Y-8170829D02*
X17813430Y-8119210D01*
X17761811Y-8119210D01*
X17761811Y-8170829D01*
X17813430Y-8170829D01*
X18067430Y-8964830D02*
X18067430Y-8913211D01*
X18015810Y-8913211D01*
X18015810Y-8964830D01*
X18067430Y-8964830D01*
X18067430Y-8170829D02*
X18067430Y-8119210D01*
X18015810Y-8119210D01*
X18015810Y-8170829D01*
X18067430Y-8170829D01*
X18321430Y-8170830D02*
X18321430Y-8119210D01*
X18269810Y-8119210D01*
X18269810Y-8170830D01*
X18321430Y-8170830D01*
X18321430Y-8964830D02*
X18321430Y-8913210D01*
X18269810Y-8913210D01*
X18269810Y-8964830D01*
X18321430Y-8964830D01*
X18575430Y-8170830D02*
X18575430Y-8119210D01*
X18523810Y-8119210D01*
X18523810Y-8170830D01*
X18575430Y-8170830D01*
X18575430Y-8964830D02*
X18575430Y-8913211D01*
X18523810Y-8913211D01*
X18523810Y-8964830D01*
X18575430Y-8964830D01*
X18829430Y-8964830D02*
X18829430Y-8913210D01*
X18777810Y-8913210D01*
X18777810Y-8964830D01*
X18829430Y-8964830D01*
X18829430Y-8170830D02*
X18829430Y-8119210D01*
X18777810Y-8119210D01*
X18777810Y-8170830D01*
X18829430Y-8170830D01*
X15262860Y-10258340D02*
X15307860Y-10213340D01*
X15262860Y-10168340D01*
X15217860Y-10213340D01*
X15262860Y-10258340D01*
X15262860Y-10004340D02*
X15307860Y-9959340D01*
X15262860Y-9914340D01*
X15217860Y-9959340D01*
X15262860Y-10004340D01*
X15302359Y-9559509D02*
X15347359Y-9514509D01*
X15302359Y-9469509D01*
X15257359Y-9514509D01*
X15302359Y-9559509D01*
X15339799Y-10696428D02*
X15384799Y-10651428D01*
X15339799Y-10606428D01*
X15294799Y-10651428D01*
X15339799Y-10696428D01*
X15368099Y-9314164D02*
X15413099Y-9269164D01*
X15368099Y-9224164D01*
X15323099Y-9269164D01*
X15368099Y-9314164D01*
X15405539Y-10941773D02*
X15450539Y-10896773D01*
X15405539Y-10851773D01*
X15360539Y-10896773D01*
X15405539Y-10941773D01*
X15519400Y-8896900D02*
X15564400Y-8851900D01*
X15519400Y-8806900D01*
X15474400Y-8851900D01*
X15519400Y-8896900D01*
X15595600Y-11343929D02*
X15640600Y-11298929D01*
X15595600Y-11253929D01*
X15550600Y-11298929D01*
X15595600Y-11343929D01*
X15646400Y-8676930D02*
X15691400Y-8631930D01*
X15646400Y-8586930D01*
X15601400Y-8631930D01*
X15646400Y-8676930D01*
X15722600Y-11563900D02*
X15767600Y-11518900D01*
X15722600Y-11473900D01*
X15677600Y-11518900D01*
X15722600Y-11563900D01*
X15902103Y-8312665D02*
X15947103Y-8267665D01*
X15902103Y-8222665D01*
X15857103Y-8267665D01*
X15902103Y-8312665D01*
X16007815Y-11902455D02*
X16052815Y-11857455D01*
X16007815Y-11812455D01*
X15962815Y-11857455D01*
X16007815Y-11902455D01*
X16081708Y-8133060D02*
X16126708Y-8088060D01*
X16081708Y-8043060D01*
X16036708Y-8088060D01*
X16081708Y-8133060D01*
X16187420Y-12082060D02*
X16232420Y-12037060D01*
X16187420Y-11992060D01*
X16142420Y-12037060D01*
X16187420Y-12082060D01*
X16421100Y-7845340D02*
X16466100Y-7800340D01*
X16421100Y-7755340D01*
X16376100Y-7800340D01*
X16421100Y-7845340D01*
X16549109Y-12336060D02*
X16594109Y-12291060D01*
X16549109Y-12246060D01*
X16504109Y-12291060D01*
X16549109Y-12336060D01*
X16641070Y-7718340D02*
X16686070Y-7673340D01*
X16641070Y-7628340D01*
X16596070Y-7673340D01*
X16641070Y-7718340D01*
X16769080Y-12463060D02*
X16814080Y-12418060D01*
X16769080Y-12373060D01*
X16724080Y-12418060D01*
X16769080Y-12463060D01*
X17045767Y-7533359D02*
X17090767Y-7488359D01*
X17045767Y-7443359D01*
X17000767Y-7488359D01*
X17045767Y-7533359D01*
X17185640Y-12615460D02*
X17230640Y-12570460D01*
X17185640Y-12525460D01*
X17140640Y-12570460D01*
X17185640Y-12615460D01*
X17291112Y-7467619D02*
X17336112Y-7422619D01*
X17291112Y-7377619D01*
X17246112Y-7422619D01*
X17291112Y-7467619D01*
X17430986Y-12681200D02*
X17475986Y-12636200D01*
X17430986Y-12591200D01*
X17385986Y-12636200D01*
X17430986Y-12681200D01*
X17731740Y-7395760D02*
X17776740Y-7350760D01*
X17731740Y-7305760D01*
X17686740Y-7350760D01*
X17731740Y-7395760D01*
X17871440Y-12719600D02*
X17916440Y-12674600D01*
X17871440Y-12629600D01*
X17826440Y-12674600D01*
X17871440Y-12719600D01*
X17985740Y-7395760D02*
X18030740Y-7350760D01*
X17985740Y-7305760D01*
X17940740Y-7350760D01*
X17985740Y-7395760D01*
X18125440Y-12719600D02*
X18170440Y-12674600D01*
X18125440Y-12629600D01*
X18080440Y-12674600D01*
X18125440Y-12719600D01*
X18427700Y-7433860D02*
X18472700Y-7388860D01*
X18427700Y-7343860D01*
X18382700Y-7388860D01*
X18427700Y-7433860D01*
X18563355Y-12643100D02*
X18608355Y-12598100D01*
X18563355Y-12553100D01*
X18518355Y-12598100D01*
X18563355Y-12643100D01*
X18673045Y-7499600D02*
X18718045Y-7454600D01*
X18673045Y-7409600D01*
X18628045Y-7454600D01*
X18673045Y-7499600D01*
X18808700Y-12577360D02*
X18853700Y-12532360D01*
X18808700Y-12487360D01*
X18763700Y-12532360D01*
X18808700Y-12577360D01*
X19085560Y-7649760D02*
X19130560Y-7604760D01*
X19085560Y-7559760D01*
X19040560Y-7604760D01*
X19085560Y-7649760D01*
X19211029Y-12389400D02*
X19256029Y-12344400D01*
X19211029Y-12299400D01*
X19166029Y-12344400D01*
X19211029Y-12389400D01*
X19305531Y-7776760D02*
X19350531Y-7731760D01*
X19305531Y-7686760D01*
X19260531Y-7731760D01*
X19305531Y-7776760D01*
X19431000Y-12262400D02*
X19476000Y-12217400D01*
X19431000Y-12172400D01*
X19386000Y-12217400D01*
X19431000Y-12262400D01*
X19669760Y-8030760D02*
X19714760Y-7985760D01*
X19669760Y-7940760D01*
X19624760Y-7985760D01*
X19669760Y-8030760D01*
X19772095Y-11977185D02*
X19817095Y-11932185D01*
X19772095Y-11887185D01*
X19727095Y-11932185D01*
X19772095Y-11977185D01*
X19849365Y-8210365D02*
X19894365Y-8165365D01*
X19849365Y-8120365D01*
X19804365Y-8165365D01*
X19849365Y-8210365D01*
X19951700Y-11797580D02*
X19996700Y-11752580D01*
X19951700Y-11707580D01*
X19906700Y-11752580D01*
X19951700Y-11797580D01*
X20134580Y-8551460D02*
X20179580Y-8506460D01*
X20134580Y-8461460D01*
X20089580Y-8506460D01*
X20134580Y-8551460D01*
X20205700Y-11435125D02*
X20250700Y-11390125D01*
X20205700Y-11345125D01*
X20160700Y-11390125D01*
X20205700Y-11435125D01*
X20261580Y-8771431D02*
X20306580Y-8726431D01*
X20261580Y-8681431D01*
X20216580Y-8726431D01*
X20261580Y-8771431D01*
X20332700Y-11215155D02*
X20377700Y-11170155D01*
X20332700Y-11125155D01*
X20287700Y-11170155D01*
X20332700Y-11215155D01*
X20449540Y-9173760D02*
X20494540Y-9128760D01*
X20449540Y-9083760D01*
X20404540Y-9128760D01*
X20449540Y-9173760D01*
X20485400Y-10798325D02*
X20530400Y-10753325D01*
X20485400Y-10708325D01*
X20440400Y-10753325D01*
X20485400Y-10798325D01*
X20515280Y-9419105D02*
X20560280Y-9374105D01*
X20515280Y-9329105D01*
X20470280Y-9374105D01*
X20515280Y-9419105D01*
X20551140Y-10552980D02*
X20596140Y-10507980D01*
X20551140Y-10462980D01*
X20506140Y-10507980D01*
X20551140Y-10552980D01*
X20591780Y-9857020D02*
X20636780Y-9812020D01*
X20591780Y-9767020D01*
X20546780Y-9812020D01*
X20591780Y-9857020D01*
X20591780Y-10111020D02*
X20636780Y-10066020D01*
X20591780Y-10021020D01*
X20546780Y-10066020D01*
X20591780Y-10111020D01*
X17397160Y-11186680D02*
X17497160Y-11286680D01*
X17497160Y-11186680D02*
X17397160Y-11286680D01*
X17497160Y-11236680D02*
G75*
G02*
X17397160Y-11236680I-50000J0D01*
G01*
X17397160Y-11236680D02*
G75*
G02*
X17497160Y-11236680I50000J0D01*
G01*
X17497160Y-11336680D02*
X17497160Y-11136680D01*
X17397160Y-11136680D02*
G75*
G02*
X17497160Y-11136680I50000J0D01*
G01*
X17397160Y-11136680D02*
X17397160Y-11336680D01*
X17397160Y-11336680D02*
G75*
G03*
X17497160Y-11336680I50000J0D01*
G01*
X17867160Y-11486680D02*
X17967160Y-11586680D01*
X17967160Y-11486680D02*
X17867160Y-11586680D01*
X17967160Y-11536680D02*
G75*
G02*
X17867160Y-11536680I-50000J0D01*
G01*
X17867160Y-11536680D02*
G75*
G02*
X17967160Y-11536680I50000J0D01*
G01*
X17817160Y-11586680D02*
X18017160Y-11586680D01*
X18017160Y-11486680D02*
G75*
G02*
X18017160Y-11586680I0J-50000D01*
G01*
X18017160Y-11486680D02*
X17817160Y-11486680D01*
X17817160Y-11486680D02*
G75*
G03*
X17817160Y-11586680I0J-50000D01*
G01*
X17867160Y-10886680D02*
X17967160Y-10986680D01*
X17967160Y-10886680D02*
X17867160Y-10986680D01*
X17967160Y-10936680D02*
G75*
G02*
X17867160Y-10936680I-50000J0D01*
G01*
X17867160Y-10936680D02*
G75*
G02*
X17967160Y-10936680I50000J0D01*
G01*
X17817160Y-10986680D02*
X18017160Y-10986680D01*
X18017160Y-10886680D02*
G75*
G02*
X18017160Y-10986680I0J-50000D01*
G01*
X18017160Y-10886680D02*
X17817160Y-10886680D01*
X17817160Y-10886680D02*
G75*
G03*
X17817160Y-10986680I0J-50000D01*
G01*
X18716980Y-10922320D02*
X18816980Y-11022320D01*
X18816980Y-10922320D02*
X18716980Y-11022320D01*
X18816980Y-10972320D02*
G75*
G02*
X18716980Y-10972320I-50000J0D01*
G01*
X18716980Y-10972320D02*
G75*
G02*
X18816980Y-10972320I50000J0D01*
G01*
X18966980Y-11422320D02*
X19066980Y-11522320D01*
X19066980Y-11422320D02*
X18966980Y-11522320D01*
X19066980Y-11472320D02*
G75*
G02*
X18966980Y-11472320I-50000J0D01*
G01*
X18966980Y-11472320D02*
G75*
G02*
X19066980Y-11472320I50000J0D01*
G01*
X19216980Y-10922320D02*
X19316980Y-11022320D01*
X19316980Y-10922320D02*
X19216980Y-11022320D01*
X19316980Y-10972320D02*
G75*
G02*
X19216980Y-10972320I-50000J0D01*
G01*
X19216980Y-10972320D02*
G75*
G02*
X19316980Y-10972320I50000J0D01*
G01*
D11*
X15249194Y-13247827D02*
X15249194Y-13047827D01*
X15249194Y-13047827D02*
X15296813Y-13047827D01*
X15296813Y-13047827D02*
X15325384Y-13057351D01*
X15325384Y-13057351D02*
X15344432Y-13076398D01*
X15344432Y-13076398D02*
X15353956Y-13095446D01*
X15353956Y-13095446D02*
X15363479Y-13133541D01*
X15363479Y-13133541D02*
X15363479Y-13162113D01*
X15363479Y-13162113D02*
X15353956Y-13200208D01*
X15353956Y-13200208D02*
X15344432Y-13219255D01*
X15344432Y-13219255D02*
X15325384Y-13238303D01*
X15325384Y-13238303D02*
X15296813Y-13247827D01*
X15296813Y-13247827D02*
X15249194Y-13247827D01*
X15449194Y-13247827D02*
X15449194Y-13114493D01*
X15449194Y-13152589D02*
X15458717Y-13133541D01*
X15458717Y-13133541D02*
X15468241Y-13124017D01*
X15468241Y-13124017D02*
X15487289Y-13114493D01*
X15487289Y-13114493D02*
X15506337Y-13114493D01*
X15573003Y-13247827D02*
X15573003Y-13114493D01*
X15573003Y-13047827D02*
X15563479Y-13057351D01*
X15563479Y-13057351D02*
X15573003Y-13066874D01*
X15573003Y-13066874D02*
X15582527Y-13057351D01*
X15582527Y-13057351D02*
X15573003Y-13047827D01*
X15573003Y-13047827D02*
X15573003Y-13066874D01*
X15696813Y-13247827D02*
X15677765Y-13238303D01*
X15677765Y-13238303D02*
X15668241Y-13219255D01*
X15668241Y-13219255D02*
X15668241Y-13047827D01*
X15801575Y-13247827D02*
X15782527Y-13238303D01*
X15782527Y-13238303D02*
X15773003Y-13219255D01*
X15773003Y-13219255D02*
X15773003Y-13047827D01*
X16030146Y-13247827D02*
X16030146Y-13047827D01*
X16030146Y-13047827D02*
X16096813Y-13190684D01*
X16096813Y-13190684D02*
X16163479Y-13047827D01*
X16163479Y-13047827D02*
X16163479Y-13247827D01*
X16344432Y-13247827D02*
X16344432Y-13143065D01*
X16344432Y-13143065D02*
X16334908Y-13124017D01*
X16334908Y-13124017D02*
X16315860Y-13114493D01*
X16315860Y-13114493D02*
X16277765Y-13114493D01*
X16277765Y-13114493D02*
X16258717Y-13124017D01*
X16344432Y-13238303D02*
X16325384Y-13247827D01*
X16325384Y-13247827D02*
X16277765Y-13247827D01*
X16277765Y-13247827D02*
X16258717Y-13238303D01*
X16258717Y-13238303D02*
X16249194Y-13219255D01*
X16249194Y-13219255D02*
X16249194Y-13200208D01*
X16249194Y-13200208D02*
X16258717Y-13181160D01*
X16258717Y-13181160D02*
X16277765Y-13171636D01*
X16277765Y-13171636D02*
X16325384Y-13171636D01*
X16325384Y-13171636D02*
X16344432Y-13162113D01*
X16439670Y-13114493D02*
X16439670Y-13314493D01*
X16439670Y-13124017D02*
X16458717Y-13114493D01*
X16458717Y-13114493D02*
X16496813Y-13114493D01*
X16496813Y-13114493D02*
X16515860Y-13124017D01*
X16515860Y-13124017D02*
X16525384Y-13133541D01*
X16525384Y-13133541D02*
X16534908Y-13152589D01*
X16534908Y-13152589D02*
X16534908Y-13209732D01*
X16534908Y-13209732D02*
X16525384Y-13228779D01*
X16525384Y-13228779D02*
X16515860Y-13238303D01*
X16515860Y-13238303D02*
X16496813Y-13247827D01*
X16496813Y-13247827D02*
X16458717Y-13247827D01*
X16458717Y-13247827D02*
X16439670Y-13238303D01*
X16620622Y-13228779D02*
X16630146Y-13238303D01*
X16630146Y-13238303D02*
X16620622Y-13247827D01*
X16620622Y-13247827D02*
X16611098Y-13238303D01*
X16611098Y-13238303D02*
X16620622Y-13228779D01*
X16620622Y-13228779D02*
X16620622Y-13247827D01*
X16620622Y-13124017D02*
X16630146Y-13133541D01*
X16630146Y-13133541D02*
X16620622Y-13143065D01*
X16620622Y-13143065D02*
X16611098Y-13133541D01*
X16611098Y-13133541D02*
X16620622Y-13124017D01*
X16620622Y-13124017D02*
X16620622Y-13143065D01*
D12*
X14958417Y-13561343D02*
X14988417Y-13591343D01*
X14988417Y-13561343D02*
X14958417Y-13591343D01*
D11*
X15287289Y-13467827D02*
X15306337Y-13467827D01*
X15306337Y-13467827D02*
X15325384Y-13477351D01*
X15325384Y-13477351D02*
X15334908Y-13486874D01*
X15334908Y-13486874D02*
X15344432Y-13505922D01*
X15344432Y-13505922D02*
X15353956Y-13544017D01*
X15353956Y-13544017D02*
X15353956Y-13591636D01*
X15353956Y-13591636D02*
X15344432Y-13629732D01*
X15344432Y-13629732D02*
X15334908Y-13648779D01*
X15334908Y-13648779D02*
X15325384Y-13658303D01*
X15325384Y-13658303D02*
X15306337Y-13667827D01*
X15306337Y-13667827D02*
X15287289Y-13667827D01*
X15287289Y-13667827D02*
X15268241Y-13658303D01*
X15268241Y-13658303D02*
X15258717Y-13648779D01*
X15258717Y-13648779D02*
X15249194Y-13629732D01*
X15249194Y-13629732D02*
X15239670Y-13591636D01*
X15239670Y-13591636D02*
X15239670Y-13544017D01*
X15239670Y-13544017D02*
X15249194Y-13505922D01*
X15249194Y-13505922D02*
X15258717Y-13486874D01*
X15258717Y-13486874D02*
X15268241Y-13477351D01*
X15268241Y-13477351D02*
X15287289Y-13467827D01*
X15439670Y-13648779D02*
X15449194Y-13658303D01*
X15449194Y-13658303D02*
X15439670Y-13667827D01*
X15439670Y-13667827D02*
X15430146Y-13658303D01*
X15430146Y-13658303D02*
X15439670Y-13648779D01*
X15439670Y-13648779D02*
X15439670Y-13667827D01*
X15515860Y-13467827D02*
X15639670Y-13467827D01*
X15639670Y-13467827D02*
X15573003Y-13544017D01*
X15573003Y-13544017D02*
X15601575Y-13544017D01*
X15601575Y-13544017D02*
X15620622Y-13553541D01*
X15620622Y-13553541D02*
X15630146Y-13563065D01*
X15630146Y-13563065D02*
X15639670Y-13582113D01*
X15639670Y-13582113D02*
X15639670Y-13629732D01*
X15639670Y-13629732D02*
X15630146Y-13648779D01*
X15630146Y-13648779D02*
X15620622Y-13658303D01*
X15620622Y-13658303D02*
X15601575Y-13667827D01*
X15601575Y-13667827D02*
X15544432Y-13667827D01*
X15544432Y-13667827D02*
X15525384Y-13658303D01*
X15525384Y-13658303D02*
X15515860Y-13648779D01*
X15763479Y-13467827D02*
X15782527Y-13467827D01*
X15782527Y-13467827D02*
X15801575Y-13477351D01*
X15801575Y-13477351D02*
X15811098Y-13486874D01*
X15811098Y-13486874D02*
X15820622Y-13505922D01*
X15820622Y-13505922D02*
X15830146Y-13544017D01*
X15830146Y-13544017D02*
X15830146Y-13591636D01*
X15830146Y-13591636D02*
X15820622Y-13629732D01*
X15820622Y-13629732D02*
X15811098Y-13648779D01*
X15811098Y-13648779D02*
X15801575Y-13658303D01*
X15801575Y-13658303D02*
X15782527Y-13667827D01*
X15782527Y-13667827D02*
X15763479Y-13667827D01*
X15763479Y-13667827D02*
X15744432Y-13658303D01*
X15744432Y-13658303D02*
X15734908Y-13648779D01*
X15734908Y-13648779D02*
X15725384Y-13629732D01*
X15725384Y-13629732D02*
X15715860Y-13591636D01*
X15715860Y-13591636D02*
X15715860Y-13544017D01*
X15715860Y-13544017D02*
X15725384Y-13505922D01*
X15725384Y-13505922D02*
X15734908Y-13486874D01*
X15734908Y-13486874D02*
X15744432Y-13477351D01*
X15744432Y-13477351D02*
X15763479Y-13467827D01*
X15953956Y-13467827D02*
X15973003Y-13467827D01*
X15973003Y-13467827D02*
X15992051Y-13477351D01*
X15992051Y-13477351D02*
X16001575Y-13486874D01*
X16001575Y-13486874D02*
X16011098Y-13505922D01*
X16011098Y-13505922D02*
X16020622Y-13544017D01*
X16020622Y-13544017D02*
X16020622Y-13591636D01*
X16020622Y-13591636D02*
X16011098Y-13629732D01*
X16011098Y-13629732D02*
X16001575Y-13648779D01*
X16001575Y-13648779D02*
X15992051Y-13658303D01*
X15992051Y-13658303D02*
X15973003Y-13667827D01*
X15973003Y-13667827D02*
X15953956Y-13667827D01*
X15953956Y-13667827D02*
X15934908Y-13658303D01*
X15934908Y-13658303D02*
X15925384Y-13648779D01*
X15925384Y-13648779D02*
X15915860Y-13629732D01*
X15915860Y-13629732D02*
X15906337Y-13591636D01*
X15906337Y-13591636D02*
X15906337Y-13544017D01*
X15906337Y-13544017D02*
X15915860Y-13505922D01*
X15915860Y-13505922D02*
X15925384Y-13486874D01*
X15925384Y-13486874D02*
X15934908Y-13477351D01*
X15934908Y-13477351D02*
X15953956Y-13467827D01*
X16106337Y-13667827D02*
X16106337Y-13534493D01*
X16106337Y-13553541D02*
X16115860Y-13544017D01*
X16115860Y-13544017D02*
X16134908Y-13534493D01*
X16134908Y-13534493D02*
X16163479Y-13534493D01*
X16163479Y-13534493D02*
X16182527Y-13544017D01*
X16182527Y-13544017D02*
X16192051Y-13563065D01*
X16192051Y-13563065D02*
X16192051Y-13667827D01*
X16192051Y-13563065D02*
X16201575Y-13544017D01*
X16201575Y-13544017D02*
X16220622Y-13534493D01*
X16220622Y-13534493D02*
X16249194Y-13534493D01*
X16249194Y-13534493D02*
X16268241Y-13544017D01*
X16268241Y-13544017D02*
X16277765Y-13563065D01*
X16277765Y-13563065D02*
X16277765Y-13667827D01*
X16373003Y-13667827D02*
X16373003Y-13534493D01*
X16373003Y-13553541D02*
X16382527Y-13544017D01*
X16382527Y-13544017D02*
X16401575Y-13534493D01*
X16401575Y-13534493D02*
X16430146Y-13534493D01*
X16430146Y-13534493D02*
X16449194Y-13544017D01*
X16449194Y-13544017D02*
X16458718Y-13563065D01*
X16458718Y-13563065D02*
X16458718Y-13667827D01*
X16458718Y-13563065D02*
X16468241Y-13544017D01*
X16468241Y-13544017D02*
X16487289Y-13534493D01*
X16487289Y-13534493D02*
X16515860Y-13534493D01*
X16515860Y-13534493D02*
X16534908Y-13544017D01*
X16534908Y-13544017D02*
X16544432Y-13563065D01*
X16544432Y-13563065D02*
X16544432Y-13667827D01*
X16934908Y-13458303D02*
X16763480Y-13715446D01*
X17192051Y-13467827D02*
X17211099Y-13467827D01*
X17211099Y-13467827D02*
X17230146Y-13477351D01*
X17230146Y-13477351D02*
X17239670Y-13486874D01*
X17239670Y-13486874D02*
X17249194Y-13505922D01*
X17249194Y-13505922D02*
X17258718Y-13544017D01*
X17258718Y-13544017D02*
X17258718Y-13591636D01*
X17258718Y-13591636D02*
X17249194Y-13629732D01*
X17249194Y-13629732D02*
X17239670Y-13648779D01*
X17239670Y-13648779D02*
X17230146Y-13658303D01*
X17230146Y-13658303D02*
X17211099Y-13667827D01*
X17211099Y-13667827D02*
X17192051Y-13667827D01*
X17192051Y-13667827D02*
X17173003Y-13658303D01*
X17173003Y-13658303D02*
X17163480Y-13648779D01*
X17163480Y-13648779D02*
X17153956Y-13629732D01*
X17153956Y-13629732D02*
X17144432Y-13591636D01*
X17144432Y-13591636D02*
X17144432Y-13544017D01*
X17144432Y-13544017D02*
X17153956Y-13505922D01*
X17153956Y-13505922D02*
X17163480Y-13486874D01*
X17163480Y-13486874D02*
X17173003Y-13477351D01*
X17173003Y-13477351D02*
X17192051Y-13467827D01*
X17344432Y-13648779D02*
X17353956Y-13658303D01*
X17353956Y-13658303D02*
X17344432Y-13667827D01*
X17344432Y-13667827D02*
X17334908Y-13658303D01*
X17334908Y-13658303D02*
X17344432Y-13648779D01*
X17344432Y-13648779D02*
X17344432Y-13667827D01*
X17477765Y-13467827D02*
X17496813Y-13467827D01*
X17496813Y-13467827D02*
X17515861Y-13477351D01*
X17515861Y-13477351D02*
X17525384Y-13486874D01*
X17525384Y-13486874D02*
X17534908Y-13505922D01*
X17534908Y-13505922D02*
X17544432Y-13544017D01*
X17544432Y-13544017D02*
X17544432Y-13591636D01*
X17544432Y-13591636D02*
X17534908Y-13629732D01*
X17534908Y-13629732D02*
X17525384Y-13648779D01*
X17525384Y-13648779D02*
X17515861Y-13658303D01*
X17515861Y-13658303D02*
X17496813Y-13667827D01*
X17496813Y-13667827D02*
X17477765Y-13667827D01*
X17477765Y-13667827D02*
X17458718Y-13658303D01*
X17458718Y-13658303D02*
X17449194Y-13648779D01*
X17449194Y-13648779D02*
X17439670Y-13629732D01*
X17439670Y-13629732D02*
X17430146Y-13591636D01*
X17430146Y-13591636D02*
X17430146Y-13544017D01*
X17430146Y-13544017D02*
X17439670Y-13505922D01*
X17439670Y-13505922D02*
X17449194Y-13486874D01*
X17449194Y-13486874D02*
X17458718Y-13477351D01*
X17458718Y-13477351D02*
X17477765Y-13467827D01*
X17734908Y-13667827D02*
X17620623Y-13667827D01*
X17677765Y-13667827D02*
X17677765Y-13467827D01*
X17677765Y-13467827D02*
X17658718Y-13496398D01*
X17658718Y-13496398D02*
X17639670Y-13515446D01*
X17639670Y-13515446D02*
X17620623Y-13524970D01*
X17925384Y-13667827D02*
X17811099Y-13667827D01*
X17868242Y-13667827D02*
X17868242Y-13467827D01*
X17868242Y-13467827D02*
X17849194Y-13496398D01*
X17849194Y-13496398D02*
X17830146Y-13515446D01*
X17830146Y-13515446D02*
X17811099Y-13524970D01*
X18039670Y-13553541D02*
X18020623Y-13544017D01*
X18020623Y-13544017D02*
X18011099Y-13534493D01*
X18011099Y-13534493D02*
X18001575Y-13515446D01*
X18001575Y-13515446D02*
X18001575Y-13505922D01*
X18001575Y-13505922D02*
X18011099Y-13486874D01*
X18011099Y-13486874D02*
X18020623Y-13477351D01*
X18020623Y-13477351D02*
X18039670Y-13467827D01*
X18039670Y-13467827D02*
X18077765Y-13467827D01*
X18077765Y-13467827D02*
X18096813Y-13477351D01*
X18096813Y-13477351D02*
X18106337Y-13486874D01*
X18106337Y-13486874D02*
X18115861Y-13505922D01*
X18115861Y-13505922D02*
X18115861Y-13515446D01*
X18115861Y-13515446D02*
X18106337Y-13534493D01*
X18106337Y-13534493D02*
X18096813Y-13544017D01*
X18096813Y-13544017D02*
X18077765Y-13553541D01*
X18077765Y-13553541D02*
X18039670Y-13553541D01*
X18039670Y-13553541D02*
X18020623Y-13563065D01*
X18020623Y-13563065D02*
X18011099Y-13572589D01*
X18011099Y-13572589D02*
X18001575Y-13591636D01*
X18001575Y-13591636D02*
X18001575Y-13629732D01*
X18001575Y-13629732D02*
X18011099Y-13648779D01*
X18011099Y-13648779D02*
X18020623Y-13658303D01*
X18020623Y-13658303D02*
X18039670Y-13667827D01*
X18039670Y-13667827D02*
X18077765Y-13667827D01*
X18077765Y-13667827D02*
X18096813Y-13658303D01*
X18096813Y-13658303D02*
X18106337Y-13648779D01*
X18106337Y-13648779D02*
X18115861Y-13629732D01*
X18115861Y-13629732D02*
X18115861Y-13591636D01*
X18115861Y-13591636D02*
X18106337Y-13572589D01*
X18106337Y-13572589D02*
X18096813Y-13563065D01*
X18096813Y-13563065D02*
X18077765Y-13553541D01*
X18192051Y-13467827D02*
X18192051Y-13505922D01*
X18268242Y-13467827D02*
X18268242Y-13505922D01*
X18563480Y-13744017D02*
X18553956Y-13734493D01*
X18553956Y-13734493D02*
X18534908Y-13705922D01*
X18534908Y-13705922D02*
X18525385Y-13686874D01*
X18525385Y-13686874D02*
X18515861Y-13658303D01*
X18515861Y-13658303D02*
X18506337Y-13610684D01*
X18506337Y-13610684D02*
X18506337Y-13572589D01*
X18506337Y-13572589D02*
X18515861Y-13524970D01*
X18515861Y-13524970D02*
X18525385Y-13496398D01*
X18525385Y-13496398D02*
X18534908Y-13477351D01*
X18534908Y-13477351D02*
X18553956Y-13448779D01*
X18553956Y-13448779D02*
X18563480Y-13439255D01*
X18668242Y-13553541D02*
X18649194Y-13544017D01*
X18649194Y-13544017D02*
X18639670Y-13534493D01*
X18639670Y-13534493D02*
X18630146Y-13515446D01*
X18630146Y-13515446D02*
X18630146Y-13505922D01*
X18630146Y-13505922D02*
X18639670Y-13486874D01*
X18639670Y-13486874D02*
X18649194Y-13477351D01*
X18649194Y-13477351D02*
X18668242Y-13467827D01*
X18668242Y-13467827D02*
X18706337Y-13467827D01*
X18706337Y-13467827D02*
X18725385Y-13477351D01*
X18725385Y-13477351D02*
X18734908Y-13486874D01*
X18734908Y-13486874D02*
X18744432Y-13505922D01*
X18744432Y-13505922D02*
X18744432Y-13515446D01*
X18744432Y-13515446D02*
X18734908Y-13534493D01*
X18734908Y-13534493D02*
X18725385Y-13544017D01*
X18725385Y-13544017D02*
X18706337Y-13553541D01*
X18706337Y-13553541D02*
X18668242Y-13553541D01*
X18668242Y-13553541D02*
X18649194Y-13563065D01*
X18649194Y-13563065D02*
X18639670Y-13572589D01*
X18639670Y-13572589D02*
X18630146Y-13591636D01*
X18630146Y-13591636D02*
X18630146Y-13629732D01*
X18630146Y-13629732D02*
X18639670Y-13648779D01*
X18639670Y-13648779D02*
X18649194Y-13658303D01*
X18649194Y-13658303D02*
X18668242Y-13667827D01*
X18668242Y-13667827D02*
X18706337Y-13667827D01*
X18706337Y-13667827D02*
X18725385Y-13658303D01*
X18725385Y-13658303D02*
X18734908Y-13648779D01*
X18734908Y-13648779D02*
X18744432Y-13629732D01*
X18744432Y-13629732D02*
X18744432Y-13591636D01*
X18744432Y-13591636D02*
X18734908Y-13572589D01*
X18734908Y-13572589D02*
X18725385Y-13563065D01*
X18725385Y-13563065D02*
X18706337Y-13553541D01*
X18982527Y-13667827D02*
X18982527Y-13467827D01*
X19068242Y-13667827D02*
X19068242Y-13563065D01*
X19068242Y-13563065D02*
X19058718Y-13544017D01*
X19058718Y-13544017D02*
X19039670Y-13534493D01*
X19039670Y-13534493D02*
X19011099Y-13534493D01*
X19011099Y-13534493D02*
X18992051Y-13544017D01*
X18992051Y-13544017D02*
X18982527Y-13553541D01*
X19192051Y-13667827D02*
X19173004Y-13658303D01*
X19173004Y-13658303D02*
X19163480Y-13648779D01*
X19163480Y-13648779D02*
X19153956Y-13629732D01*
X19153956Y-13629732D02*
X19153956Y-13572589D01*
X19153956Y-13572589D02*
X19163480Y-13553541D01*
X19163480Y-13553541D02*
X19173004Y-13544017D01*
X19173004Y-13544017D02*
X19192051Y-13534493D01*
X19192051Y-13534493D02*
X19220623Y-13534493D01*
X19220623Y-13534493D02*
X19239670Y-13544017D01*
X19239670Y-13544017D02*
X19249194Y-13553541D01*
X19249194Y-13553541D02*
X19258718Y-13572589D01*
X19258718Y-13572589D02*
X19258718Y-13629732D01*
X19258718Y-13629732D02*
X19249194Y-13648779D01*
X19249194Y-13648779D02*
X19239670Y-13658303D01*
X19239670Y-13658303D02*
X19220623Y-13667827D01*
X19220623Y-13667827D02*
X19192051Y-13667827D01*
X19373004Y-13667827D02*
X19353956Y-13658303D01*
X19353956Y-13658303D02*
X19344432Y-13639255D01*
X19344432Y-13639255D02*
X19344432Y-13467827D01*
X19525385Y-13658303D02*
X19506337Y-13667827D01*
X19506337Y-13667827D02*
X19468242Y-13667827D01*
X19468242Y-13667827D02*
X19449194Y-13658303D01*
X19449194Y-13658303D02*
X19439670Y-13639255D01*
X19439670Y-13639255D02*
X19439670Y-13563065D01*
X19439670Y-13563065D02*
X19449194Y-13544017D01*
X19449194Y-13544017D02*
X19468242Y-13534493D01*
X19468242Y-13534493D02*
X19506337Y-13534493D01*
X19506337Y-13534493D02*
X19525385Y-13544017D01*
X19525385Y-13544017D02*
X19534908Y-13563065D01*
X19534908Y-13563065D02*
X19534908Y-13582113D01*
X19534908Y-13582113D02*
X19439670Y-13601160D01*
X19611099Y-13658303D02*
X19630147Y-13667827D01*
X19630147Y-13667827D02*
X19668242Y-13667827D01*
X19668242Y-13667827D02*
X19687289Y-13658303D01*
X19687289Y-13658303D02*
X19696813Y-13639255D01*
X19696813Y-13639255D02*
X19696813Y-13629732D01*
X19696813Y-13629732D02*
X19687289Y-13610684D01*
X19687289Y-13610684D02*
X19668242Y-13601160D01*
X19668242Y-13601160D02*
X19639670Y-13601160D01*
X19639670Y-13601160D02*
X19620623Y-13591636D01*
X19620623Y-13591636D02*
X19611099Y-13572589D01*
X19611099Y-13572589D02*
X19611099Y-13563065D01*
X19611099Y-13563065D02*
X19620623Y-13544017D01*
X19620623Y-13544017D02*
X19639670Y-13534493D01*
X19639670Y-13534493D02*
X19668242Y-13534493D01*
X19668242Y-13534493D02*
X19687289Y-13544017D01*
X19763480Y-13744017D02*
X19773004Y-13734493D01*
X19773004Y-13734493D02*
X19792051Y-13705922D01*
X19792051Y-13705922D02*
X19801575Y-13686874D01*
X19801575Y-13686874D02*
X19811099Y-13658303D01*
X19811099Y-13658303D02*
X19820623Y-13610684D01*
X19820623Y-13610684D02*
X19820623Y-13572589D01*
X19820623Y-13572589D02*
X19811099Y-13524970D01*
X19811099Y-13524970D02*
X19801575Y-13496398D01*
X19801575Y-13496398D02*
X19792051Y-13477351D01*
X19792051Y-13477351D02*
X19773004Y-13448779D01*
X19773004Y-13448779D02*
X19763480Y-13439255D01*
D12*
X14988417Y-13840343D02*
G75*
G02*
X14928417Y-13840343I-30000J0D01*
G01*
X14928417Y-13840343D02*
G75*
G02*
X14988417Y-13840343I30000J0D01*
G01*
D11*
X15287289Y-13731827D02*
X15306337Y-13731827D01*
X15306337Y-13731827D02*
X15325384Y-13741351D01*
X15325384Y-13741351D02*
X15334908Y-13750874D01*
X15334908Y-13750874D02*
X15344432Y-13769922D01*
X15344432Y-13769922D02*
X15353956Y-13808017D01*
X15353956Y-13808017D02*
X15353956Y-13855636D01*
X15353956Y-13855636D02*
X15344432Y-13893732D01*
X15344432Y-13893732D02*
X15334908Y-13912779D01*
X15334908Y-13912779D02*
X15325384Y-13922303D01*
X15325384Y-13922303D02*
X15306337Y-13931827D01*
X15306337Y-13931827D02*
X15287289Y-13931827D01*
X15287289Y-13931827D02*
X15268241Y-13922303D01*
X15268241Y-13922303D02*
X15258717Y-13912779D01*
X15258717Y-13912779D02*
X15249194Y-13893732D01*
X15249194Y-13893732D02*
X15239670Y-13855636D01*
X15239670Y-13855636D02*
X15239670Y-13808017D01*
X15239670Y-13808017D02*
X15249194Y-13769922D01*
X15249194Y-13769922D02*
X15258717Y-13750874D01*
X15258717Y-13750874D02*
X15268241Y-13741351D01*
X15268241Y-13741351D02*
X15287289Y-13731827D01*
X15439670Y-13912779D02*
X15449194Y-13922303D01*
X15449194Y-13922303D02*
X15439670Y-13931827D01*
X15439670Y-13931827D02*
X15430146Y-13922303D01*
X15430146Y-13922303D02*
X15439670Y-13912779D01*
X15439670Y-13912779D02*
X15439670Y-13931827D01*
X15620622Y-13731827D02*
X15582527Y-13731827D01*
X15582527Y-13731827D02*
X15563479Y-13741351D01*
X15563479Y-13741351D02*
X15553956Y-13750874D01*
X15553956Y-13750874D02*
X15534908Y-13779446D01*
X15534908Y-13779446D02*
X15525384Y-13817541D01*
X15525384Y-13817541D02*
X15525384Y-13893732D01*
X15525384Y-13893732D02*
X15534908Y-13912779D01*
X15534908Y-13912779D02*
X15544432Y-13922303D01*
X15544432Y-13922303D02*
X15563479Y-13931827D01*
X15563479Y-13931827D02*
X15601575Y-13931827D01*
X15601575Y-13931827D02*
X15620622Y-13922303D01*
X15620622Y-13922303D02*
X15630146Y-13912779D01*
X15630146Y-13912779D02*
X15639670Y-13893732D01*
X15639670Y-13893732D02*
X15639670Y-13846113D01*
X15639670Y-13846113D02*
X15630146Y-13827065D01*
X15630146Y-13827065D02*
X15620622Y-13817541D01*
X15620622Y-13817541D02*
X15601575Y-13808017D01*
X15601575Y-13808017D02*
X15563479Y-13808017D01*
X15563479Y-13808017D02*
X15544432Y-13817541D01*
X15544432Y-13817541D02*
X15534908Y-13827065D01*
X15534908Y-13827065D02*
X15525384Y-13846113D01*
X15763479Y-13731827D02*
X15782527Y-13731827D01*
X15782527Y-13731827D02*
X15801575Y-13741351D01*
X15801575Y-13741351D02*
X15811098Y-13750874D01*
X15811098Y-13750874D02*
X15820622Y-13769922D01*
X15820622Y-13769922D02*
X15830146Y-13808017D01*
X15830146Y-13808017D02*
X15830146Y-13855636D01*
X15830146Y-13855636D02*
X15820622Y-13893732D01*
X15820622Y-13893732D02*
X15811098Y-13912779D01*
X15811098Y-13912779D02*
X15801575Y-13922303D01*
X15801575Y-13922303D02*
X15782527Y-13931827D01*
X15782527Y-13931827D02*
X15763479Y-13931827D01*
X15763479Y-13931827D02*
X15744432Y-13922303D01*
X15744432Y-13922303D02*
X15734908Y-13912779D01*
X15734908Y-13912779D02*
X15725384Y-13893732D01*
X15725384Y-13893732D02*
X15715860Y-13855636D01*
X15715860Y-13855636D02*
X15715860Y-13808017D01*
X15715860Y-13808017D02*
X15725384Y-13769922D01*
X15725384Y-13769922D02*
X15734908Y-13750874D01*
X15734908Y-13750874D02*
X15744432Y-13741351D01*
X15744432Y-13741351D02*
X15763479Y-13731827D01*
X15953956Y-13731827D02*
X15973003Y-13731827D01*
X15973003Y-13731827D02*
X15992051Y-13741351D01*
X15992051Y-13741351D02*
X16001575Y-13750874D01*
X16001575Y-13750874D02*
X16011098Y-13769922D01*
X16011098Y-13769922D02*
X16020622Y-13808017D01*
X16020622Y-13808017D02*
X16020622Y-13855636D01*
X16020622Y-13855636D02*
X16011098Y-13893732D01*
X16011098Y-13893732D02*
X16001575Y-13912779D01*
X16001575Y-13912779D02*
X15992051Y-13922303D01*
X15992051Y-13922303D02*
X15973003Y-13931827D01*
X15973003Y-13931827D02*
X15953956Y-13931827D01*
X15953956Y-13931827D02*
X15934908Y-13922303D01*
X15934908Y-13922303D02*
X15925384Y-13912779D01*
X15925384Y-13912779D02*
X15915860Y-13893732D01*
X15915860Y-13893732D02*
X15906337Y-13855636D01*
X15906337Y-13855636D02*
X15906337Y-13808017D01*
X15906337Y-13808017D02*
X15915860Y-13769922D01*
X15915860Y-13769922D02*
X15925384Y-13750874D01*
X15925384Y-13750874D02*
X15934908Y-13741351D01*
X15934908Y-13741351D02*
X15953956Y-13731827D01*
X16106337Y-13931827D02*
X16106337Y-13798493D01*
X16106337Y-13817541D02*
X16115860Y-13808017D01*
X16115860Y-13808017D02*
X16134908Y-13798493D01*
X16134908Y-13798493D02*
X16163479Y-13798493D01*
X16163479Y-13798493D02*
X16182527Y-13808017D01*
X16182527Y-13808017D02*
X16192051Y-13827065D01*
X16192051Y-13827065D02*
X16192051Y-13931827D01*
X16192051Y-13827065D02*
X16201575Y-13808017D01*
X16201575Y-13808017D02*
X16220622Y-13798493D01*
X16220622Y-13798493D02*
X16249194Y-13798493D01*
X16249194Y-13798493D02*
X16268241Y-13808017D01*
X16268241Y-13808017D02*
X16277765Y-13827065D01*
X16277765Y-13827065D02*
X16277765Y-13931827D01*
X16373003Y-13931827D02*
X16373003Y-13798493D01*
X16373003Y-13817541D02*
X16382527Y-13808017D01*
X16382527Y-13808017D02*
X16401575Y-13798493D01*
X16401575Y-13798493D02*
X16430146Y-13798493D01*
X16430146Y-13798493D02*
X16449194Y-13808017D01*
X16449194Y-13808017D02*
X16458718Y-13827065D01*
X16458718Y-13827065D02*
X16458718Y-13931827D01*
X16458718Y-13827065D02*
X16468241Y-13808017D01*
X16468241Y-13808017D02*
X16487289Y-13798493D01*
X16487289Y-13798493D02*
X16515860Y-13798493D01*
X16515860Y-13798493D02*
X16534908Y-13808017D01*
X16534908Y-13808017D02*
X16544432Y-13827065D01*
X16544432Y-13827065D02*
X16544432Y-13931827D01*
X16934908Y-13722303D02*
X16763480Y-13979446D01*
X17192051Y-13731827D02*
X17211099Y-13731827D01*
X17211099Y-13731827D02*
X17230146Y-13741351D01*
X17230146Y-13741351D02*
X17239670Y-13750874D01*
X17239670Y-13750874D02*
X17249194Y-13769922D01*
X17249194Y-13769922D02*
X17258718Y-13808017D01*
X17258718Y-13808017D02*
X17258718Y-13855636D01*
X17258718Y-13855636D02*
X17249194Y-13893732D01*
X17249194Y-13893732D02*
X17239670Y-13912779D01*
X17239670Y-13912779D02*
X17230146Y-13922303D01*
X17230146Y-13922303D02*
X17211099Y-13931827D01*
X17211099Y-13931827D02*
X17192051Y-13931827D01*
X17192051Y-13931827D02*
X17173003Y-13922303D01*
X17173003Y-13922303D02*
X17163480Y-13912779D01*
X17163480Y-13912779D02*
X17153956Y-13893732D01*
X17153956Y-13893732D02*
X17144432Y-13855636D01*
X17144432Y-13855636D02*
X17144432Y-13808017D01*
X17144432Y-13808017D02*
X17153956Y-13769922D01*
X17153956Y-13769922D02*
X17163480Y-13750874D01*
X17163480Y-13750874D02*
X17173003Y-13741351D01*
X17173003Y-13741351D02*
X17192051Y-13731827D01*
X17344432Y-13912779D02*
X17353956Y-13922303D01*
X17353956Y-13922303D02*
X17344432Y-13931827D01*
X17344432Y-13931827D02*
X17334908Y-13922303D01*
X17334908Y-13922303D02*
X17344432Y-13912779D01*
X17344432Y-13912779D02*
X17344432Y-13931827D01*
X17477765Y-13731827D02*
X17496813Y-13731827D01*
X17496813Y-13731827D02*
X17515861Y-13741351D01*
X17515861Y-13741351D02*
X17525384Y-13750874D01*
X17525384Y-13750874D02*
X17534908Y-13769922D01*
X17534908Y-13769922D02*
X17544432Y-13808017D01*
X17544432Y-13808017D02*
X17544432Y-13855636D01*
X17544432Y-13855636D02*
X17534908Y-13893732D01*
X17534908Y-13893732D02*
X17525384Y-13912779D01*
X17525384Y-13912779D02*
X17515861Y-13922303D01*
X17515861Y-13922303D02*
X17496813Y-13931827D01*
X17496813Y-13931827D02*
X17477765Y-13931827D01*
X17477765Y-13931827D02*
X17458718Y-13922303D01*
X17458718Y-13922303D02*
X17449194Y-13912779D01*
X17449194Y-13912779D02*
X17439670Y-13893732D01*
X17439670Y-13893732D02*
X17430146Y-13855636D01*
X17430146Y-13855636D02*
X17430146Y-13808017D01*
X17430146Y-13808017D02*
X17439670Y-13769922D01*
X17439670Y-13769922D02*
X17449194Y-13750874D01*
X17449194Y-13750874D02*
X17458718Y-13741351D01*
X17458718Y-13741351D02*
X17477765Y-13731827D01*
X17620623Y-13750874D02*
X17630146Y-13741351D01*
X17630146Y-13741351D02*
X17649194Y-13731827D01*
X17649194Y-13731827D02*
X17696813Y-13731827D01*
X17696813Y-13731827D02*
X17715861Y-13741351D01*
X17715861Y-13741351D02*
X17725384Y-13750874D01*
X17725384Y-13750874D02*
X17734908Y-13769922D01*
X17734908Y-13769922D02*
X17734908Y-13788970D01*
X17734908Y-13788970D02*
X17725384Y-13817541D01*
X17725384Y-13817541D02*
X17611099Y-13931827D01*
X17611099Y-13931827D02*
X17734908Y-13931827D01*
X17801575Y-13731827D02*
X17925384Y-13731827D01*
X17925384Y-13731827D02*
X17858718Y-13808017D01*
X17858718Y-13808017D02*
X17887289Y-13808017D01*
X17887289Y-13808017D02*
X17906337Y-13817541D01*
X17906337Y-13817541D02*
X17915861Y-13827065D01*
X17915861Y-13827065D02*
X17925384Y-13846113D01*
X17925384Y-13846113D02*
X17925384Y-13893732D01*
X17925384Y-13893732D02*
X17915861Y-13912779D01*
X17915861Y-13912779D02*
X17906337Y-13922303D01*
X17906337Y-13922303D02*
X17887289Y-13931827D01*
X17887289Y-13931827D02*
X17830146Y-13931827D01*
X17830146Y-13931827D02*
X17811099Y-13922303D01*
X17811099Y-13922303D02*
X17801575Y-13912779D01*
X18096813Y-13731827D02*
X18058718Y-13731827D01*
X18058718Y-13731827D02*
X18039670Y-13741351D01*
X18039670Y-13741351D02*
X18030146Y-13750874D01*
X18030146Y-13750874D02*
X18011099Y-13779446D01*
X18011099Y-13779446D02*
X18001575Y-13817541D01*
X18001575Y-13817541D02*
X18001575Y-13893732D01*
X18001575Y-13893732D02*
X18011099Y-13912779D01*
X18011099Y-13912779D02*
X18020623Y-13922303D01*
X18020623Y-13922303D02*
X18039670Y-13931827D01*
X18039670Y-13931827D02*
X18077765Y-13931827D01*
X18077765Y-13931827D02*
X18096813Y-13922303D01*
X18096813Y-13922303D02*
X18106337Y-13912779D01*
X18106337Y-13912779D02*
X18115861Y-13893732D01*
X18115861Y-13893732D02*
X18115861Y-13846113D01*
X18115861Y-13846113D02*
X18106337Y-13827065D01*
X18106337Y-13827065D02*
X18096813Y-13817541D01*
X18096813Y-13817541D02*
X18077765Y-13808017D01*
X18077765Y-13808017D02*
X18039670Y-13808017D01*
X18039670Y-13808017D02*
X18020623Y-13817541D01*
X18020623Y-13817541D02*
X18011099Y-13827065D01*
X18011099Y-13827065D02*
X18001575Y-13846113D01*
X18192051Y-13731827D02*
X18192051Y-13769922D01*
X18268242Y-13731827D02*
X18268242Y-13769922D01*
X18563480Y-14008017D02*
X18553956Y-13998493D01*
X18553956Y-13998493D02*
X18534908Y-13969922D01*
X18534908Y-13969922D02*
X18525385Y-13950874D01*
X18525385Y-13950874D02*
X18515861Y-13922303D01*
X18515861Y-13922303D02*
X18506337Y-13874684D01*
X18506337Y-13874684D02*
X18506337Y-13836589D01*
X18506337Y-13836589D02*
X18515861Y-13788970D01*
X18515861Y-13788970D02*
X18525385Y-13760398D01*
X18525385Y-13760398D02*
X18534908Y-13741351D01*
X18534908Y-13741351D02*
X18553956Y-13712779D01*
X18553956Y-13712779D02*
X18563480Y-13703255D01*
X18630146Y-13750874D02*
X18639670Y-13741351D01*
X18639670Y-13741351D02*
X18658718Y-13731827D01*
X18658718Y-13731827D02*
X18706337Y-13731827D01*
X18706337Y-13731827D02*
X18725385Y-13741351D01*
X18725385Y-13741351D02*
X18734908Y-13750874D01*
X18734908Y-13750874D02*
X18744432Y-13769922D01*
X18744432Y-13769922D02*
X18744432Y-13788970D01*
X18744432Y-13788970D02*
X18734908Y-13817541D01*
X18734908Y-13817541D02*
X18620623Y-13931827D01*
X18620623Y-13931827D02*
X18744432Y-13931827D01*
X18982527Y-13931827D02*
X18982527Y-13731827D01*
X19068242Y-13931827D02*
X19068242Y-13827065D01*
X19068242Y-13827065D02*
X19058718Y-13808017D01*
X19058718Y-13808017D02*
X19039670Y-13798493D01*
X19039670Y-13798493D02*
X19011099Y-13798493D01*
X19011099Y-13798493D02*
X18992051Y-13808017D01*
X18992051Y-13808017D02*
X18982527Y-13817541D01*
X19192051Y-13931827D02*
X19173004Y-13922303D01*
X19173004Y-13922303D02*
X19163480Y-13912779D01*
X19163480Y-13912779D02*
X19153956Y-13893732D01*
X19153956Y-13893732D02*
X19153956Y-13836589D01*
X19153956Y-13836589D02*
X19163480Y-13817541D01*
X19163480Y-13817541D02*
X19173004Y-13808017D01*
X19173004Y-13808017D02*
X19192051Y-13798493D01*
X19192051Y-13798493D02*
X19220623Y-13798493D01*
X19220623Y-13798493D02*
X19239670Y-13808017D01*
X19239670Y-13808017D02*
X19249194Y-13817541D01*
X19249194Y-13817541D02*
X19258718Y-13836589D01*
X19258718Y-13836589D02*
X19258718Y-13893732D01*
X19258718Y-13893732D02*
X19249194Y-13912779D01*
X19249194Y-13912779D02*
X19239670Y-13922303D01*
X19239670Y-13922303D02*
X19220623Y-13931827D01*
X19220623Y-13931827D02*
X19192051Y-13931827D01*
X19373004Y-13931827D02*
X19353956Y-13922303D01*
X19353956Y-13922303D02*
X19344432Y-13903255D01*
X19344432Y-13903255D02*
X19344432Y-13731827D01*
X19525385Y-13922303D02*
X19506337Y-13931827D01*
X19506337Y-13931827D02*
X19468242Y-13931827D01*
X19468242Y-13931827D02*
X19449194Y-13922303D01*
X19449194Y-13922303D02*
X19439670Y-13903255D01*
X19439670Y-13903255D02*
X19439670Y-13827065D01*
X19439670Y-13827065D02*
X19449194Y-13808017D01*
X19449194Y-13808017D02*
X19468242Y-13798493D01*
X19468242Y-13798493D02*
X19506337Y-13798493D01*
X19506337Y-13798493D02*
X19525385Y-13808017D01*
X19525385Y-13808017D02*
X19534908Y-13827065D01*
X19534908Y-13827065D02*
X19534908Y-13846113D01*
X19534908Y-13846113D02*
X19439670Y-13865160D01*
X19611099Y-13922303D02*
X19630147Y-13931827D01*
X19630147Y-13931827D02*
X19668242Y-13931827D01*
X19668242Y-13931827D02*
X19687289Y-13922303D01*
X19687289Y-13922303D02*
X19696813Y-13903255D01*
X19696813Y-13903255D02*
X19696813Y-13893732D01*
X19696813Y-13893732D02*
X19687289Y-13874684D01*
X19687289Y-13874684D02*
X19668242Y-13865160D01*
X19668242Y-13865160D02*
X19639670Y-13865160D01*
X19639670Y-13865160D02*
X19620623Y-13855636D01*
X19620623Y-13855636D02*
X19611099Y-13836589D01*
X19611099Y-13836589D02*
X19611099Y-13827065D01*
X19611099Y-13827065D02*
X19620623Y-13808017D01*
X19620623Y-13808017D02*
X19639670Y-13798493D01*
X19639670Y-13798493D02*
X19668242Y-13798493D01*
X19668242Y-13798493D02*
X19687289Y-13808017D01*
X19763480Y-14008017D02*
X19773004Y-13998493D01*
X19773004Y-13998493D02*
X19792051Y-13969922D01*
X19792051Y-13969922D02*
X19801575Y-13950874D01*
X19801575Y-13950874D02*
X19811099Y-13922303D01*
X19811099Y-13922303D02*
X19820623Y-13874684D01*
X19820623Y-13874684D02*
X19820623Y-13836589D01*
X19820623Y-13836589D02*
X19811099Y-13788970D01*
X19811099Y-13788970D02*
X19801575Y-13760398D01*
X19801575Y-13760398D02*
X19792051Y-13741351D01*
X19792051Y-13741351D02*
X19773004Y-13712779D01*
X19773004Y-13712779D02*
X19763480Y-13703255D01*
D12*
X14953417Y-14069343D02*
X14953417Y-14139343D01*
X14918417Y-14104343D02*
X14988417Y-14104343D01*
D11*
X15287289Y-13995827D02*
X15306337Y-13995827D01*
X15306337Y-13995827D02*
X15325384Y-14005351D01*
X15325384Y-14005351D02*
X15334908Y-14014874D01*
X15334908Y-14014874D02*
X15344432Y-14033922D01*
X15344432Y-14033922D02*
X15353956Y-14072017D01*
X15353956Y-14072017D02*
X15353956Y-14119636D01*
X15353956Y-14119636D02*
X15344432Y-14157732D01*
X15344432Y-14157732D02*
X15334908Y-14176779D01*
X15334908Y-14176779D02*
X15325384Y-14186303D01*
X15325384Y-14186303D02*
X15306337Y-14195827D01*
X15306337Y-14195827D02*
X15287289Y-14195827D01*
X15287289Y-14195827D02*
X15268241Y-14186303D01*
X15268241Y-14186303D02*
X15258717Y-14176779D01*
X15258717Y-14176779D02*
X15249194Y-14157732D01*
X15249194Y-14157732D02*
X15239670Y-14119636D01*
X15239670Y-14119636D02*
X15239670Y-14072017D01*
X15239670Y-14072017D02*
X15249194Y-14033922D01*
X15249194Y-14033922D02*
X15258717Y-14014874D01*
X15258717Y-14014874D02*
X15268241Y-14005351D01*
X15268241Y-14005351D02*
X15287289Y-13995827D01*
X15439670Y-14176779D02*
X15449194Y-14186303D01*
X15449194Y-14186303D02*
X15439670Y-14195827D01*
X15439670Y-14195827D02*
X15430146Y-14186303D01*
X15430146Y-14186303D02*
X15439670Y-14176779D01*
X15439670Y-14176779D02*
X15439670Y-14195827D01*
X15515860Y-13995827D02*
X15649194Y-13995827D01*
X15649194Y-13995827D02*
X15563479Y-14195827D01*
X15763479Y-13995827D02*
X15782527Y-13995827D01*
X15782527Y-13995827D02*
X15801575Y-14005351D01*
X15801575Y-14005351D02*
X15811098Y-14014874D01*
X15811098Y-14014874D02*
X15820622Y-14033922D01*
X15820622Y-14033922D02*
X15830146Y-14072017D01*
X15830146Y-14072017D02*
X15830146Y-14119636D01*
X15830146Y-14119636D02*
X15820622Y-14157732D01*
X15820622Y-14157732D02*
X15811098Y-14176779D01*
X15811098Y-14176779D02*
X15801575Y-14186303D01*
X15801575Y-14186303D02*
X15782527Y-14195827D01*
X15782527Y-14195827D02*
X15763479Y-14195827D01*
X15763479Y-14195827D02*
X15744432Y-14186303D01*
X15744432Y-14186303D02*
X15734908Y-14176779D01*
X15734908Y-14176779D02*
X15725384Y-14157732D01*
X15725384Y-14157732D02*
X15715860Y-14119636D01*
X15715860Y-14119636D02*
X15715860Y-14072017D01*
X15715860Y-14072017D02*
X15725384Y-14033922D01*
X15725384Y-14033922D02*
X15734908Y-14014874D01*
X15734908Y-14014874D02*
X15744432Y-14005351D01*
X15744432Y-14005351D02*
X15763479Y-13995827D01*
X15953956Y-13995827D02*
X15973003Y-13995827D01*
X15973003Y-13995827D02*
X15992051Y-14005351D01*
X15992051Y-14005351D02*
X16001575Y-14014874D01*
X16001575Y-14014874D02*
X16011098Y-14033922D01*
X16011098Y-14033922D02*
X16020622Y-14072017D01*
X16020622Y-14072017D02*
X16020622Y-14119636D01*
X16020622Y-14119636D02*
X16011098Y-14157732D01*
X16011098Y-14157732D02*
X16001575Y-14176779D01*
X16001575Y-14176779D02*
X15992051Y-14186303D01*
X15992051Y-14186303D02*
X15973003Y-14195827D01*
X15973003Y-14195827D02*
X15953956Y-14195827D01*
X15953956Y-14195827D02*
X15934908Y-14186303D01*
X15934908Y-14186303D02*
X15925384Y-14176779D01*
X15925384Y-14176779D02*
X15915860Y-14157732D01*
X15915860Y-14157732D02*
X15906337Y-14119636D01*
X15906337Y-14119636D02*
X15906337Y-14072017D01*
X15906337Y-14072017D02*
X15915860Y-14033922D01*
X15915860Y-14033922D02*
X15925384Y-14014874D01*
X15925384Y-14014874D02*
X15934908Y-14005351D01*
X15934908Y-14005351D02*
X15953956Y-13995827D01*
X16106337Y-14195827D02*
X16106337Y-14062493D01*
X16106337Y-14081541D02*
X16115860Y-14072017D01*
X16115860Y-14072017D02*
X16134908Y-14062493D01*
X16134908Y-14062493D02*
X16163479Y-14062493D01*
X16163479Y-14062493D02*
X16182527Y-14072017D01*
X16182527Y-14072017D02*
X16192051Y-14091065D01*
X16192051Y-14091065D02*
X16192051Y-14195827D01*
X16192051Y-14091065D02*
X16201575Y-14072017D01*
X16201575Y-14072017D02*
X16220622Y-14062493D01*
X16220622Y-14062493D02*
X16249194Y-14062493D01*
X16249194Y-14062493D02*
X16268241Y-14072017D01*
X16268241Y-14072017D02*
X16277765Y-14091065D01*
X16277765Y-14091065D02*
X16277765Y-14195827D01*
X16373003Y-14195827D02*
X16373003Y-14062493D01*
X16373003Y-14081541D02*
X16382527Y-14072017D01*
X16382527Y-14072017D02*
X16401575Y-14062493D01*
X16401575Y-14062493D02*
X16430146Y-14062493D01*
X16430146Y-14062493D02*
X16449194Y-14072017D01*
X16449194Y-14072017D02*
X16458718Y-14091065D01*
X16458718Y-14091065D02*
X16458718Y-14195827D01*
X16458718Y-14091065D02*
X16468241Y-14072017D01*
X16468241Y-14072017D02*
X16487289Y-14062493D01*
X16487289Y-14062493D02*
X16515860Y-14062493D01*
X16515860Y-14062493D02*
X16534908Y-14072017D01*
X16534908Y-14072017D02*
X16544432Y-14091065D01*
X16544432Y-14091065D02*
X16544432Y-14195827D01*
X16934908Y-13986303D02*
X16763480Y-14243446D01*
X17192051Y-13995827D02*
X17211099Y-13995827D01*
X17211099Y-13995827D02*
X17230146Y-14005351D01*
X17230146Y-14005351D02*
X17239670Y-14014874D01*
X17239670Y-14014874D02*
X17249194Y-14033922D01*
X17249194Y-14033922D02*
X17258718Y-14072017D01*
X17258718Y-14072017D02*
X17258718Y-14119636D01*
X17258718Y-14119636D02*
X17249194Y-14157732D01*
X17249194Y-14157732D02*
X17239670Y-14176779D01*
X17239670Y-14176779D02*
X17230146Y-14186303D01*
X17230146Y-14186303D02*
X17211099Y-14195827D01*
X17211099Y-14195827D02*
X17192051Y-14195827D01*
X17192051Y-14195827D02*
X17173003Y-14186303D01*
X17173003Y-14186303D02*
X17163480Y-14176779D01*
X17163480Y-14176779D02*
X17153956Y-14157732D01*
X17153956Y-14157732D02*
X17144432Y-14119636D01*
X17144432Y-14119636D02*
X17144432Y-14072017D01*
X17144432Y-14072017D02*
X17153956Y-14033922D01*
X17153956Y-14033922D02*
X17163480Y-14014874D01*
X17163480Y-14014874D02*
X17173003Y-14005351D01*
X17173003Y-14005351D02*
X17192051Y-13995827D01*
X17344432Y-14176779D02*
X17353956Y-14186303D01*
X17353956Y-14186303D02*
X17344432Y-14195827D01*
X17344432Y-14195827D02*
X17334908Y-14186303D01*
X17334908Y-14186303D02*
X17344432Y-14176779D01*
X17344432Y-14176779D02*
X17344432Y-14195827D01*
X17477765Y-13995827D02*
X17496813Y-13995827D01*
X17496813Y-13995827D02*
X17515861Y-14005351D01*
X17515861Y-14005351D02*
X17525384Y-14014874D01*
X17525384Y-14014874D02*
X17534908Y-14033922D01*
X17534908Y-14033922D02*
X17544432Y-14072017D01*
X17544432Y-14072017D02*
X17544432Y-14119636D01*
X17544432Y-14119636D02*
X17534908Y-14157732D01*
X17534908Y-14157732D02*
X17525384Y-14176779D01*
X17525384Y-14176779D02*
X17515861Y-14186303D01*
X17515861Y-14186303D02*
X17496813Y-14195827D01*
X17496813Y-14195827D02*
X17477765Y-14195827D01*
X17477765Y-14195827D02*
X17458718Y-14186303D01*
X17458718Y-14186303D02*
X17449194Y-14176779D01*
X17449194Y-14176779D02*
X17439670Y-14157732D01*
X17439670Y-14157732D02*
X17430146Y-14119636D01*
X17430146Y-14119636D02*
X17430146Y-14072017D01*
X17430146Y-14072017D02*
X17439670Y-14033922D01*
X17439670Y-14033922D02*
X17449194Y-14014874D01*
X17449194Y-14014874D02*
X17458718Y-14005351D01*
X17458718Y-14005351D02*
X17477765Y-13995827D01*
X17620623Y-14014874D02*
X17630146Y-14005351D01*
X17630146Y-14005351D02*
X17649194Y-13995827D01*
X17649194Y-13995827D02*
X17696813Y-13995827D01*
X17696813Y-13995827D02*
X17715861Y-14005351D01*
X17715861Y-14005351D02*
X17725384Y-14014874D01*
X17725384Y-14014874D02*
X17734908Y-14033922D01*
X17734908Y-14033922D02*
X17734908Y-14052970D01*
X17734908Y-14052970D02*
X17725384Y-14081541D01*
X17725384Y-14081541D02*
X17611099Y-14195827D01*
X17611099Y-14195827D02*
X17734908Y-14195827D01*
X17801575Y-13995827D02*
X17934908Y-13995827D01*
X17934908Y-13995827D02*
X17849194Y-14195827D01*
X18096813Y-13995827D02*
X18058718Y-13995827D01*
X18058718Y-13995827D02*
X18039670Y-14005351D01*
X18039670Y-14005351D02*
X18030146Y-14014874D01*
X18030146Y-14014874D02*
X18011099Y-14043446D01*
X18011099Y-14043446D02*
X18001575Y-14081541D01*
X18001575Y-14081541D02*
X18001575Y-14157732D01*
X18001575Y-14157732D02*
X18011099Y-14176779D01*
X18011099Y-14176779D02*
X18020623Y-14186303D01*
X18020623Y-14186303D02*
X18039670Y-14195827D01*
X18039670Y-14195827D02*
X18077765Y-14195827D01*
X18077765Y-14195827D02*
X18096813Y-14186303D01*
X18096813Y-14186303D02*
X18106337Y-14176779D01*
X18106337Y-14176779D02*
X18115861Y-14157732D01*
X18115861Y-14157732D02*
X18115861Y-14110113D01*
X18115861Y-14110113D02*
X18106337Y-14091065D01*
X18106337Y-14091065D02*
X18096813Y-14081541D01*
X18096813Y-14081541D02*
X18077765Y-14072017D01*
X18077765Y-14072017D02*
X18039670Y-14072017D01*
X18039670Y-14072017D02*
X18020623Y-14081541D01*
X18020623Y-14081541D02*
X18011099Y-14091065D01*
X18011099Y-14091065D02*
X18001575Y-14110113D01*
X18192051Y-13995827D02*
X18192051Y-14033922D01*
X18268242Y-13995827D02*
X18268242Y-14033922D01*
X18563480Y-14272017D02*
X18553956Y-14262493D01*
X18553956Y-14262493D02*
X18534908Y-14233922D01*
X18534908Y-14233922D02*
X18525385Y-14214874D01*
X18525385Y-14214874D02*
X18515861Y-14186303D01*
X18515861Y-14186303D02*
X18506337Y-14138684D01*
X18506337Y-14138684D02*
X18506337Y-14100589D01*
X18506337Y-14100589D02*
X18515861Y-14052970D01*
X18515861Y-14052970D02*
X18525385Y-14024398D01*
X18525385Y-14024398D02*
X18534908Y-14005351D01*
X18534908Y-14005351D02*
X18553956Y-13976779D01*
X18553956Y-13976779D02*
X18563480Y-13967255D01*
X18630146Y-14014874D02*
X18639670Y-14005351D01*
X18639670Y-14005351D02*
X18658718Y-13995827D01*
X18658718Y-13995827D02*
X18706337Y-13995827D01*
X18706337Y-13995827D02*
X18725385Y-14005351D01*
X18725385Y-14005351D02*
X18734908Y-14014874D01*
X18734908Y-14014874D02*
X18744432Y-14033922D01*
X18744432Y-14033922D02*
X18744432Y-14052970D01*
X18744432Y-14052970D02*
X18734908Y-14081541D01*
X18734908Y-14081541D02*
X18620623Y-14195827D01*
X18620623Y-14195827D02*
X18744432Y-14195827D01*
X18982527Y-14195827D02*
X18982527Y-13995827D01*
X19068242Y-14195827D02*
X19068242Y-14091065D01*
X19068242Y-14091065D02*
X19058718Y-14072017D01*
X19058718Y-14072017D02*
X19039670Y-14062493D01*
X19039670Y-14062493D02*
X19011099Y-14062493D01*
X19011099Y-14062493D02*
X18992051Y-14072017D01*
X18992051Y-14072017D02*
X18982527Y-14081541D01*
X19192051Y-14195827D02*
X19173004Y-14186303D01*
X19173004Y-14186303D02*
X19163480Y-14176779D01*
X19163480Y-14176779D02*
X19153956Y-14157732D01*
X19153956Y-14157732D02*
X19153956Y-14100589D01*
X19153956Y-14100589D02*
X19163480Y-14081541D01*
X19163480Y-14081541D02*
X19173004Y-14072017D01*
X19173004Y-14072017D02*
X19192051Y-14062493D01*
X19192051Y-14062493D02*
X19220623Y-14062493D01*
X19220623Y-14062493D02*
X19239670Y-14072017D01*
X19239670Y-14072017D02*
X19249194Y-14081541D01*
X19249194Y-14081541D02*
X19258718Y-14100589D01*
X19258718Y-14100589D02*
X19258718Y-14157732D01*
X19258718Y-14157732D02*
X19249194Y-14176779D01*
X19249194Y-14176779D02*
X19239670Y-14186303D01*
X19239670Y-14186303D02*
X19220623Y-14195827D01*
X19220623Y-14195827D02*
X19192051Y-14195827D01*
X19373004Y-14195827D02*
X19353956Y-14186303D01*
X19353956Y-14186303D02*
X19344432Y-14167255D01*
X19344432Y-14167255D02*
X19344432Y-13995827D01*
X19525385Y-14186303D02*
X19506337Y-14195827D01*
X19506337Y-14195827D02*
X19468242Y-14195827D01*
X19468242Y-14195827D02*
X19449194Y-14186303D01*
X19449194Y-14186303D02*
X19439670Y-14167255D01*
X19439670Y-14167255D02*
X19439670Y-14091065D01*
X19439670Y-14091065D02*
X19449194Y-14072017D01*
X19449194Y-14072017D02*
X19468242Y-14062493D01*
X19468242Y-14062493D02*
X19506337Y-14062493D01*
X19506337Y-14062493D02*
X19525385Y-14072017D01*
X19525385Y-14072017D02*
X19534908Y-14091065D01*
X19534908Y-14091065D02*
X19534908Y-14110113D01*
X19534908Y-14110113D02*
X19439670Y-14129160D01*
X19611099Y-14186303D02*
X19630147Y-14195827D01*
X19630147Y-14195827D02*
X19668242Y-14195827D01*
X19668242Y-14195827D02*
X19687289Y-14186303D01*
X19687289Y-14186303D02*
X19696813Y-14167255D01*
X19696813Y-14167255D02*
X19696813Y-14157732D01*
X19696813Y-14157732D02*
X19687289Y-14138684D01*
X19687289Y-14138684D02*
X19668242Y-14129160D01*
X19668242Y-14129160D02*
X19639670Y-14129160D01*
X19639670Y-14129160D02*
X19620623Y-14119636D01*
X19620623Y-14119636D02*
X19611099Y-14100589D01*
X19611099Y-14100589D02*
X19611099Y-14091065D01*
X19611099Y-14091065D02*
X19620623Y-14072017D01*
X19620623Y-14072017D02*
X19639670Y-14062493D01*
X19639670Y-14062493D02*
X19668242Y-14062493D01*
X19668242Y-14062493D02*
X19687289Y-14072017D01*
X19763480Y-14272017D02*
X19773004Y-14262493D01*
X19773004Y-14262493D02*
X19792051Y-14233922D01*
X19792051Y-14233922D02*
X19801575Y-14214874D01*
X19801575Y-14214874D02*
X19811099Y-14186303D01*
X19811099Y-14186303D02*
X19820623Y-14138684D01*
X19820623Y-14138684D02*
X19820623Y-14100589D01*
X19820623Y-14100589D02*
X19811099Y-14052970D01*
X19811099Y-14052970D02*
X19801575Y-14024398D01*
X19801575Y-14024398D02*
X19792051Y-14005351D01*
X19792051Y-14005351D02*
X19773004Y-13976779D01*
X19773004Y-13976779D02*
X19763480Y-13967255D01*
D12*
X14977726Y-14394153D02*
X14977726Y-14342533D01*
X14926107Y-14342533D01*
X14926107Y-14394153D01*
X14977726Y-14394153D01*
D11*
X15287289Y-14259827D02*
X15306337Y-14259827D01*
X15306337Y-14259827D02*
X15325384Y-14269351D01*
X15325384Y-14269351D02*
X15334908Y-14278874D01*
X15334908Y-14278874D02*
X15344432Y-14297922D01*
X15344432Y-14297922D02*
X15353956Y-14336017D01*
X15353956Y-14336017D02*
X15353956Y-14383636D01*
X15353956Y-14383636D02*
X15344432Y-14421732D01*
X15344432Y-14421732D02*
X15334908Y-14440779D01*
X15334908Y-14440779D02*
X15325384Y-14450303D01*
X15325384Y-14450303D02*
X15306337Y-14459827D01*
X15306337Y-14459827D02*
X15287289Y-14459827D01*
X15287289Y-14459827D02*
X15268241Y-14450303D01*
X15268241Y-14450303D02*
X15258717Y-14440779D01*
X15258717Y-14440779D02*
X15249194Y-14421732D01*
X15249194Y-14421732D02*
X15239670Y-14383636D01*
X15239670Y-14383636D02*
X15239670Y-14336017D01*
X15239670Y-14336017D02*
X15249194Y-14297922D01*
X15249194Y-14297922D02*
X15258717Y-14278874D01*
X15258717Y-14278874D02*
X15268241Y-14269351D01*
X15268241Y-14269351D02*
X15287289Y-14259827D01*
X15439670Y-14440779D02*
X15449194Y-14450303D01*
X15449194Y-14450303D02*
X15439670Y-14459827D01*
X15439670Y-14459827D02*
X15430146Y-14450303D01*
X15430146Y-14450303D02*
X15439670Y-14440779D01*
X15439670Y-14440779D02*
X15439670Y-14459827D01*
X15515860Y-14259827D02*
X15649194Y-14259827D01*
X15649194Y-14259827D02*
X15563479Y-14459827D01*
X15706337Y-14259827D02*
X15830146Y-14259827D01*
X15830146Y-14259827D02*
X15763479Y-14336017D01*
X15763479Y-14336017D02*
X15792051Y-14336017D01*
X15792051Y-14336017D02*
X15811098Y-14345541D01*
X15811098Y-14345541D02*
X15820622Y-14355065D01*
X15820622Y-14355065D02*
X15830146Y-14374113D01*
X15830146Y-14374113D02*
X15830146Y-14421732D01*
X15830146Y-14421732D02*
X15820622Y-14440779D01*
X15820622Y-14440779D02*
X15811098Y-14450303D01*
X15811098Y-14450303D02*
X15792051Y-14459827D01*
X15792051Y-14459827D02*
X15734908Y-14459827D01*
X15734908Y-14459827D02*
X15715860Y-14450303D01*
X15715860Y-14450303D02*
X15706337Y-14440779D01*
X15953956Y-14259827D02*
X15973003Y-14259827D01*
X15973003Y-14259827D02*
X15992051Y-14269351D01*
X15992051Y-14269351D02*
X16001575Y-14278874D01*
X16001575Y-14278874D02*
X16011098Y-14297922D01*
X16011098Y-14297922D02*
X16020622Y-14336017D01*
X16020622Y-14336017D02*
X16020622Y-14383636D01*
X16020622Y-14383636D02*
X16011098Y-14421732D01*
X16011098Y-14421732D02*
X16001575Y-14440779D01*
X16001575Y-14440779D02*
X15992051Y-14450303D01*
X15992051Y-14450303D02*
X15973003Y-14459827D01*
X15973003Y-14459827D02*
X15953956Y-14459827D01*
X15953956Y-14459827D02*
X15934908Y-14450303D01*
X15934908Y-14450303D02*
X15925384Y-14440779D01*
X15925384Y-14440779D02*
X15915860Y-14421732D01*
X15915860Y-14421732D02*
X15906337Y-14383636D01*
X15906337Y-14383636D02*
X15906337Y-14336017D01*
X15906337Y-14336017D02*
X15915860Y-14297922D01*
X15915860Y-14297922D02*
X15925384Y-14278874D01*
X15925384Y-14278874D02*
X15934908Y-14269351D01*
X15934908Y-14269351D02*
X15953956Y-14259827D01*
X16106337Y-14459827D02*
X16106337Y-14326493D01*
X16106337Y-14345541D02*
X16115860Y-14336017D01*
X16115860Y-14336017D02*
X16134908Y-14326493D01*
X16134908Y-14326493D02*
X16163479Y-14326493D01*
X16163479Y-14326493D02*
X16182527Y-14336017D01*
X16182527Y-14336017D02*
X16192051Y-14355065D01*
X16192051Y-14355065D02*
X16192051Y-14459827D01*
X16192051Y-14355065D02*
X16201575Y-14336017D01*
X16201575Y-14336017D02*
X16220622Y-14326493D01*
X16220622Y-14326493D02*
X16249194Y-14326493D01*
X16249194Y-14326493D02*
X16268241Y-14336017D01*
X16268241Y-14336017D02*
X16277765Y-14355065D01*
X16277765Y-14355065D02*
X16277765Y-14459827D01*
X16373003Y-14459827D02*
X16373003Y-14326493D01*
X16373003Y-14345541D02*
X16382527Y-14336017D01*
X16382527Y-14336017D02*
X16401575Y-14326493D01*
X16401575Y-14326493D02*
X16430146Y-14326493D01*
X16430146Y-14326493D02*
X16449194Y-14336017D01*
X16449194Y-14336017D02*
X16458718Y-14355065D01*
X16458718Y-14355065D02*
X16458718Y-14459827D01*
X16458718Y-14355065D02*
X16468241Y-14336017D01*
X16468241Y-14336017D02*
X16487289Y-14326493D01*
X16487289Y-14326493D02*
X16515860Y-14326493D01*
X16515860Y-14326493D02*
X16534908Y-14336017D01*
X16534908Y-14336017D02*
X16544432Y-14355065D01*
X16544432Y-14355065D02*
X16544432Y-14459827D01*
X16934908Y-14250303D02*
X16763480Y-14507446D01*
X17192051Y-14259827D02*
X17211099Y-14259827D01*
X17211099Y-14259827D02*
X17230146Y-14269351D01*
X17230146Y-14269351D02*
X17239670Y-14278874D01*
X17239670Y-14278874D02*
X17249194Y-14297922D01*
X17249194Y-14297922D02*
X17258718Y-14336017D01*
X17258718Y-14336017D02*
X17258718Y-14383636D01*
X17258718Y-14383636D02*
X17249194Y-14421732D01*
X17249194Y-14421732D02*
X17239670Y-14440779D01*
X17239670Y-14440779D02*
X17230146Y-14450303D01*
X17230146Y-14450303D02*
X17211099Y-14459827D01*
X17211099Y-14459827D02*
X17192051Y-14459827D01*
X17192051Y-14459827D02*
X17173003Y-14450303D01*
X17173003Y-14450303D02*
X17163480Y-14440779D01*
X17163480Y-14440779D02*
X17153956Y-14421732D01*
X17153956Y-14421732D02*
X17144432Y-14383636D01*
X17144432Y-14383636D02*
X17144432Y-14336017D01*
X17144432Y-14336017D02*
X17153956Y-14297922D01*
X17153956Y-14297922D02*
X17163480Y-14278874D01*
X17163480Y-14278874D02*
X17173003Y-14269351D01*
X17173003Y-14269351D02*
X17192051Y-14259827D01*
X17344432Y-14440779D02*
X17353956Y-14450303D01*
X17353956Y-14450303D02*
X17344432Y-14459827D01*
X17344432Y-14459827D02*
X17334908Y-14450303D01*
X17334908Y-14450303D02*
X17344432Y-14440779D01*
X17344432Y-14440779D02*
X17344432Y-14459827D01*
X17477765Y-14259827D02*
X17496813Y-14259827D01*
X17496813Y-14259827D02*
X17515861Y-14269351D01*
X17515861Y-14269351D02*
X17525384Y-14278874D01*
X17525384Y-14278874D02*
X17534908Y-14297922D01*
X17534908Y-14297922D02*
X17544432Y-14336017D01*
X17544432Y-14336017D02*
X17544432Y-14383636D01*
X17544432Y-14383636D02*
X17534908Y-14421732D01*
X17534908Y-14421732D02*
X17525384Y-14440779D01*
X17525384Y-14440779D02*
X17515861Y-14450303D01*
X17515861Y-14450303D02*
X17496813Y-14459827D01*
X17496813Y-14459827D02*
X17477765Y-14459827D01*
X17477765Y-14459827D02*
X17458718Y-14450303D01*
X17458718Y-14450303D02*
X17449194Y-14440779D01*
X17449194Y-14440779D02*
X17439670Y-14421732D01*
X17439670Y-14421732D02*
X17430146Y-14383636D01*
X17430146Y-14383636D02*
X17430146Y-14336017D01*
X17430146Y-14336017D02*
X17439670Y-14297922D01*
X17439670Y-14297922D02*
X17449194Y-14278874D01*
X17449194Y-14278874D02*
X17458718Y-14269351D01*
X17458718Y-14269351D02*
X17477765Y-14259827D01*
X17620623Y-14278874D02*
X17630146Y-14269351D01*
X17630146Y-14269351D02*
X17649194Y-14259827D01*
X17649194Y-14259827D02*
X17696813Y-14259827D01*
X17696813Y-14259827D02*
X17715861Y-14269351D01*
X17715861Y-14269351D02*
X17725384Y-14278874D01*
X17725384Y-14278874D02*
X17734908Y-14297922D01*
X17734908Y-14297922D02*
X17734908Y-14316970D01*
X17734908Y-14316970D02*
X17725384Y-14345541D01*
X17725384Y-14345541D02*
X17611099Y-14459827D01*
X17611099Y-14459827D02*
X17734908Y-14459827D01*
X17849194Y-14345541D02*
X17830146Y-14336017D01*
X17830146Y-14336017D02*
X17820623Y-14326493D01*
X17820623Y-14326493D02*
X17811099Y-14307446D01*
X17811099Y-14307446D02*
X17811099Y-14297922D01*
X17811099Y-14297922D02*
X17820623Y-14278874D01*
X17820623Y-14278874D02*
X17830146Y-14269351D01*
X17830146Y-14269351D02*
X17849194Y-14259827D01*
X17849194Y-14259827D02*
X17887289Y-14259827D01*
X17887289Y-14259827D02*
X17906337Y-14269351D01*
X17906337Y-14269351D02*
X17915861Y-14278874D01*
X17915861Y-14278874D02*
X17925384Y-14297922D01*
X17925384Y-14297922D02*
X17925384Y-14307446D01*
X17925384Y-14307446D02*
X17915861Y-14326493D01*
X17915861Y-14326493D02*
X17906337Y-14336017D01*
X17906337Y-14336017D02*
X17887289Y-14345541D01*
X17887289Y-14345541D02*
X17849194Y-14345541D01*
X17849194Y-14345541D02*
X17830146Y-14355065D01*
X17830146Y-14355065D02*
X17820623Y-14364589D01*
X17820623Y-14364589D02*
X17811099Y-14383636D01*
X17811099Y-14383636D02*
X17811099Y-14421732D01*
X17811099Y-14421732D02*
X17820623Y-14440779D01*
X17820623Y-14440779D02*
X17830146Y-14450303D01*
X17830146Y-14450303D02*
X17849194Y-14459827D01*
X17849194Y-14459827D02*
X17887289Y-14459827D01*
X17887289Y-14459827D02*
X17906337Y-14450303D01*
X17906337Y-14450303D02*
X17915861Y-14440779D01*
X17915861Y-14440779D02*
X17925384Y-14421732D01*
X17925384Y-14421732D02*
X17925384Y-14383636D01*
X17925384Y-14383636D02*
X17915861Y-14364589D01*
X17915861Y-14364589D02*
X17906337Y-14355065D01*
X17906337Y-14355065D02*
X17887289Y-14345541D01*
X17992051Y-14259827D02*
X18125384Y-14259827D01*
X18125384Y-14259827D02*
X18039670Y-14459827D01*
X18192051Y-14259827D02*
X18192051Y-14297922D01*
X18268242Y-14259827D02*
X18268242Y-14297922D01*
X18563480Y-14536017D02*
X18553956Y-14526493D01*
X18553956Y-14526493D02*
X18534908Y-14497922D01*
X18534908Y-14497922D02*
X18525385Y-14478874D01*
X18525385Y-14478874D02*
X18515861Y-14450303D01*
X18515861Y-14450303D02*
X18506337Y-14402684D01*
X18506337Y-14402684D02*
X18506337Y-14364589D01*
X18506337Y-14364589D02*
X18515861Y-14316970D01*
X18515861Y-14316970D02*
X18525385Y-14288398D01*
X18525385Y-14288398D02*
X18534908Y-14269351D01*
X18534908Y-14269351D02*
X18553956Y-14240779D01*
X18553956Y-14240779D02*
X18563480Y-14231255D01*
X18630146Y-14278874D02*
X18639670Y-14269351D01*
X18639670Y-14269351D02*
X18658718Y-14259827D01*
X18658718Y-14259827D02*
X18706337Y-14259827D01*
X18706337Y-14259827D02*
X18725385Y-14269351D01*
X18725385Y-14269351D02*
X18734908Y-14278874D01*
X18734908Y-14278874D02*
X18744432Y-14297922D01*
X18744432Y-14297922D02*
X18744432Y-14316970D01*
X18744432Y-14316970D02*
X18734908Y-14345541D01*
X18734908Y-14345541D02*
X18620623Y-14459827D01*
X18620623Y-14459827D02*
X18744432Y-14459827D01*
X18915861Y-14326493D02*
X18915861Y-14459827D01*
X18868242Y-14250303D02*
X18820623Y-14393160D01*
X18820623Y-14393160D02*
X18944432Y-14393160D01*
X19173004Y-14459827D02*
X19173004Y-14259827D01*
X19258718Y-14459827D02*
X19258718Y-14355065D01*
X19258718Y-14355065D02*
X19249194Y-14336017D01*
X19249194Y-14336017D02*
X19230147Y-14326493D01*
X19230147Y-14326493D02*
X19201575Y-14326493D01*
X19201575Y-14326493D02*
X19182527Y-14336017D01*
X19182527Y-14336017D02*
X19173004Y-14345541D01*
X19382527Y-14459827D02*
X19363480Y-14450303D01*
X19363480Y-14450303D02*
X19353956Y-14440779D01*
X19353956Y-14440779D02*
X19344432Y-14421732D01*
X19344432Y-14421732D02*
X19344432Y-14364589D01*
X19344432Y-14364589D02*
X19353956Y-14345541D01*
X19353956Y-14345541D02*
X19363480Y-14336017D01*
X19363480Y-14336017D02*
X19382527Y-14326493D01*
X19382527Y-14326493D02*
X19411099Y-14326493D01*
X19411099Y-14326493D02*
X19430147Y-14336017D01*
X19430147Y-14336017D02*
X19439670Y-14345541D01*
X19439670Y-14345541D02*
X19449194Y-14364589D01*
X19449194Y-14364589D02*
X19449194Y-14421732D01*
X19449194Y-14421732D02*
X19439670Y-14440779D01*
X19439670Y-14440779D02*
X19430147Y-14450303D01*
X19430147Y-14450303D02*
X19411099Y-14459827D01*
X19411099Y-14459827D02*
X19382527Y-14459827D01*
X19563480Y-14459827D02*
X19544432Y-14450303D01*
X19544432Y-14450303D02*
X19534908Y-14431255D01*
X19534908Y-14431255D02*
X19534908Y-14259827D01*
X19715861Y-14450303D02*
X19696813Y-14459827D01*
X19696813Y-14459827D02*
X19658718Y-14459827D01*
X19658718Y-14459827D02*
X19639670Y-14450303D01*
X19639670Y-14450303D02*
X19630147Y-14431255D01*
X19630147Y-14431255D02*
X19630147Y-14355065D01*
X19630147Y-14355065D02*
X19639670Y-14336017D01*
X19639670Y-14336017D02*
X19658718Y-14326493D01*
X19658718Y-14326493D02*
X19696813Y-14326493D01*
X19696813Y-14326493D02*
X19715861Y-14336017D01*
X19715861Y-14336017D02*
X19725385Y-14355065D01*
X19725385Y-14355065D02*
X19725385Y-14374113D01*
X19725385Y-14374113D02*
X19630147Y-14393160D01*
X19801575Y-14450303D02*
X19820623Y-14459827D01*
X19820623Y-14459827D02*
X19858718Y-14459827D01*
X19858718Y-14459827D02*
X19877766Y-14450303D01*
X19877766Y-14450303D02*
X19887289Y-14431255D01*
X19887289Y-14431255D02*
X19887289Y-14421732D01*
X19887289Y-14421732D02*
X19877766Y-14402684D01*
X19877766Y-14402684D02*
X19858718Y-14393160D01*
X19858718Y-14393160D02*
X19830147Y-14393160D01*
X19830147Y-14393160D02*
X19811099Y-14383636D01*
X19811099Y-14383636D02*
X19801575Y-14364589D01*
X19801575Y-14364589D02*
X19801575Y-14355065D01*
X19801575Y-14355065D02*
X19811099Y-14336017D01*
X19811099Y-14336017D02*
X19830147Y-14326493D01*
X19830147Y-14326493D02*
X19858718Y-14326493D01*
X19858718Y-14326493D02*
X19877766Y-14336017D01*
X19953956Y-14536017D02*
X19963480Y-14526493D01*
X19963480Y-14526493D02*
X19982528Y-14497922D01*
X19982528Y-14497922D02*
X19992051Y-14478874D01*
X19992051Y-14478874D02*
X20001575Y-14450303D01*
X20001575Y-14450303D02*
X20011099Y-14402684D01*
X20011099Y-14402684D02*
X20011099Y-14364589D01*
X20011099Y-14364589D02*
X20001575Y-14316970D01*
X20001575Y-14316970D02*
X19992051Y-14288398D01*
X19992051Y-14288398D02*
X19982528Y-14269351D01*
X19982528Y-14269351D02*
X19963480Y-14240779D01*
X19963480Y-14240779D02*
X19953956Y-14231255D01*
D12*
X14943417Y-14677343D02*
X14988417Y-14632343D01*
X14943417Y-14587343D01*
X14898417Y-14632343D01*
X14943417Y-14677343D01*
D11*
X15287289Y-14523827D02*
X15306337Y-14523827D01*
X15306337Y-14523827D02*
X15325384Y-14533351D01*
X15325384Y-14533351D02*
X15334908Y-14542874D01*
X15334908Y-14542874D02*
X15344432Y-14561922D01*
X15344432Y-14561922D02*
X15353956Y-14600017D01*
X15353956Y-14600017D02*
X15353956Y-14647636D01*
X15353956Y-14647636D02*
X15344432Y-14685732D01*
X15344432Y-14685732D02*
X15334908Y-14704779D01*
X15334908Y-14704779D02*
X15325384Y-14714303D01*
X15325384Y-14714303D02*
X15306337Y-14723827D01*
X15306337Y-14723827D02*
X15287289Y-14723827D01*
X15287289Y-14723827D02*
X15268241Y-14714303D01*
X15268241Y-14714303D02*
X15258717Y-14704779D01*
X15258717Y-14704779D02*
X15249194Y-14685732D01*
X15249194Y-14685732D02*
X15239670Y-14647636D01*
X15239670Y-14647636D02*
X15239670Y-14600017D01*
X15239670Y-14600017D02*
X15249194Y-14561922D01*
X15249194Y-14561922D02*
X15258717Y-14542874D01*
X15258717Y-14542874D02*
X15268241Y-14533351D01*
X15268241Y-14533351D02*
X15287289Y-14523827D01*
X15439670Y-14704779D02*
X15449194Y-14714303D01*
X15449194Y-14714303D02*
X15439670Y-14723827D01*
X15439670Y-14723827D02*
X15430146Y-14714303D01*
X15430146Y-14714303D02*
X15439670Y-14704779D01*
X15439670Y-14704779D02*
X15439670Y-14723827D01*
X15544432Y-14723827D02*
X15582527Y-14723827D01*
X15582527Y-14723827D02*
X15601575Y-14714303D01*
X15601575Y-14714303D02*
X15611098Y-14704779D01*
X15611098Y-14704779D02*
X15630146Y-14676208D01*
X15630146Y-14676208D02*
X15639670Y-14638113D01*
X15639670Y-14638113D02*
X15639670Y-14561922D01*
X15639670Y-14561922D02*
X15630146Y-14542874D01*
X15630146Y-14542874D02*
X15620622Y-14533351D01*
X15620622Y-14533351D02*
X15601575Y-14523827D01*
X15601575Y-14523827D02*
X15563479Y-14523827D01*
X15563479Y-14523827D02*
X15544432Y-14533351D01*
X15544432Y-14533351D02*
X15534908Y-14542874D01*
X15534908Y-14542874D02*
X15525384Y-14561922D01*
X15525384Y-14561922D02*
X15525384Y-14609541D01*
X15525384Y-14609541D02*
X15534908Y-14628589D01*
X15534908Y-14628589D02*
X15544432Y-14638113D01*
X15544432Y-14638113D02*
X15563479Y-14647636D01*
X15563479Y-14647636D02*
X15601575Y-14647636D01*
X15601575Y-14647636D02*
X15620622Y-14638113D01*
X15620622Y-14638113D02*
X15630146Y-14628589D01*
X15630146Y-14628589D02*
X15639670Y-14609541D01*
X15763479Y-14523827D02*
X15782527Y-14523827D01*
X15782527Y-14523827D02*
X15801575Y-14533351D01*
X15801575Y-14533351D02*
X15811098Y-14542874D01*
X15811098Y-14542874D02*
X15820622Y-14561922D01*
X15820622Y-14561922D02*
X15830146Y-14600017D01*
X15830146Y-14600017D02*
X15830146Y-14647636D01*
X15830146Y-14647636D02*
X15820622Y-14685732D01*
X15820622Y-14685732D02*
X15811098Y-14704779D01*
X15811098Y-14704779D02*
X15801575Y-14714303D01*
X15801575Y-14714303D02*
X15782527Y-14723827D01*
X15782527Y-14723827D02*
X15763479Y-14723827D01*
X15763479Y-14723827D02*
X15744432Y-14714303D01*
X15744432Y-14714303D02*
X15734908Y-14704779D01*
X15734908Y-14704779D02*
X15725384Y-14685732D01*
X15725384Y-14685732D02*
X15715860Y-14647636D01*
X15715860Y-14647636D02*
X15715860Y-14600017D01*
X15715860Y-14600017D02*
X15725384Y-14561922D01*
X15725384Y-14561922D02*
X15734908Y-14542874D01*
X15734908Y-14542874D02*
X15744432Y-14533351D01*
X15744432Y-14533351D02*
X15763479Y-14523827D01*
X15953956Y-14523827D02*
X15973003Y-14523827D01*
X15973003Y-14523827D02*
X15992051Y-14533351D01*
X15992051Y-14533351D02*
X16001575Y-14542874D01*
X16001575Y-14542874D02*
X16011098Y-14561922D01*
X16011098Y-14561922D02*
X16020622Y-14600017D01*
X16020622Y-14600017D02*
X16020622Y-14647636D01*
X16020622Y-14647636D02*
X16011098Y-14685732D01*
X16011098Y-14685732D02*
X16001575Y-14704779D01*
X16001575Y-14704779D02*
X15992051Y-14714303D01*
X15992051Y-14714303D02*
X15973003Y-14723827D01*
X15973003Y-14723827D02*
X15953956Y-14723827D01*
X15953956Y-14723827D02*
X15934908Y-14714303D01*
X15934908Y-14714303D02*
X15925384Y-14704779D01*
X15925384Y-14704779D02*
X15915860Y-14685732D01*
X15915860Y-14685732D02*
X15906337Y-14647636D01*
X15906337Y-14647636D02*
X15906337Y-14600017D01*
X15906337Y-14600017D02*
X15915860Y-14561922D01*
X15915860Y-14561922D02*
X15925384Y-14542874D01*
X15925384Y-14542874D02*
X15934908Y-14533351D01*
X15934908Y-14533351D02*
X15953956Y-14523827D01*
X16106337Y-14723827D02*
X16106337Y-14590493D01*
X16106337Y-14609541D02*
X16115860Y-14600017D01*
X16115860Y-14600017D02*
X16134908Y-14590493D01*
X16134908Y-14590493D02*
X16163479Y-14590493D01*
X16163479Y-14590493D02*
X16182527Y-14600017D01*
X16182527Y-14600017D02*
X16192051Y-14619065D01*
X16192051Y-14619065D02*
X16192051Y-14723827D01*
X16192051Y-14619065D02*
X16201575Y-14600017D01*
X16201575Y-14600017D02*
X16220622Y-14590493D01*
X16220622Y-14590493D02*
X16249194Y-14590493D01*
X16249194Y-14590493D02*
X16268241Y-14600017D01*
X16268241Y-14600017D02*
X16277765Y-14619065D01*
X16277765Y-14619065D02*
X16277765Y-14723827D01*
X16373003Y-14723827D02*
X16373003Y-14590493D01*
X16373003Y-14609541D02*
X16382527Y-14600017D01*
X16382527Y-14600017D02*
X16401575Y-14590493D01*
X16401575Y-14590493D02*
X16430146Y-14590493D01*
X16430146Y-14590493D02*
X16449194Y-14600017D01*
X16449194Y-14600017D02*
X16458718Y-14619065D01*
X16458718Y-14619065D02*
X16458718Y-14723827D01*
X16458718Y-14619065D02*
X16468241Y-14600017D01*
X16468241Y-14600017D02*
X16487289Y-14590493D01*
X16487289Y-14590493D02*
X16515860Y-14590493D01*
X16515860Y-14590493D02*
X16534908Y-14600017D01*
X16534908Y-14600017D02*
X16544432Y-14619065D01*
X16544432Y-14619065D02*
X16544432Y-14723827D01*
X16934908Y-14514303D02*
X16763480Y-14771446D01*
X17192051Y-14523827D02*
X17211099Y-14523827D01*
X17211099Y-14523827D02*
X17230146Y-14533351D01*
X17230146Y-14533351D02*
X17239670Y-14542874D01*
X17239670Y-14542874D02*
X17249194Y-14561922D01*
X17249194Y-14561922D02*
X17258718Y-14600017D01*
X17258718Y-14600017D02*
X17258718Y-14647636D01*
X17258718Y-14647636D02*
X17249194Y-14685732D01*
X17249194Y-14685732D02*
X17239670Y-14704779D01*
X17239670Y-14704779D02*
X17230146Y-14714303D01*
X17230146Y-14714303D02*
X17211099Y-14723827D01*
X17211099Y-14723827D02*
X17192051Y-14723827D01*
X17192051Y-14723827D02*
X17173003Y-14714303D01*
X17173003Y-14714303D02*
X17163480Y-14704779D01*
X17163480Y-14704779D02*
X17153956Y-14685732D01*
X17153956Y-14685732D02*
X17144432Y-14647636D01*
X17144432Y-14647636D02*
X17144432Y-14600017D01*
X17144432Y-14600017D02*
X17153956Y-14561922D01*
X17153956Y-14561922D02*
X17163480Y-14542874D01*
X17163480Y-14542874D02*
X17173003Y-14533351D01*
X17173003Y-14533351D02*
X17192051Y-14523827D01*
X17344432Y-14704779D02*
X17353956Y-14714303D01*
X17353956Y-14714303D02*
X17344432Y-14723827D01*
X17344432Y-14723827D02*
X17334908Y-14714303D01*
X17334908Y-14714303D02*
X17344432Y-14704779D01*
X17344432Y-14704779D02*
X17344432Y-14723827D01*
X17477765Y-14523827D02*
X17496813Y-14523827D01*
X17496813Y-14523827D02*
X17515861Y-14533351D01*
X17515861Y-14533351D02*
X17525384Y-14542874D01*
X17525384Y-14542874D02*
X17534908Y-14561922D01*
X17534908Y-14561922D02*
X17544432Y-14600017D01*
X17544432Y-14600017D02*
X17544432Y-14647636D01*
X17544432Y-14647636D02*
X17534908Y-14685732D01*
X17534908Y-14685732D02*
X17525384Y-14704779D01*
X17525384Y-14704779D02*
X17515861Y-14714303D01*
X17515861Y-14714303D02*
X17496813Y-14723827D01*
X17496813Y-14723827D02*
X17477765Y-14723827D01*
X17477765Y-14723827D02*
X17458718Y-14714303D01*
X17458718Y-14714303D02*
X17449194Y-14704779D01*
X17449194Y-14704779D02*
X17439670Y-14685732D01*
X17439670Y-14685732D02*
X17430146Y-14647636D01*
X17430146Y-14647636D02*
X17430146Y-14600017D01*
X17430146Y-14600017D02*
X17439670Y-14561922D01*
X17439670Y-14561922D02*
X17449194Y-14542874D01*
X17449194Y-14542874D02*
X17458718Y-14533351D01*
X17458718Y-14533351D02*
X17477765Y-14523827D01*
X17611099Y-14523827D02*
X17734908Y-14523827D01*
X17734908Y-14523827D02*
X17668242Y-14600017D01*
X17668242Y-14600017D02*
X17696813Y-14600017D01*
X17696813Y-14600017D02*
X17715861Y-14609541D01*
X17715861Y-14609541D02*
X17725384Y-14619065D01*
X17725384Y-14619065D02*
X17734908Y-14638113D01*
X17734908Y-14638113D02*
X17734908Y-14685732D01*
X17734908Y-14685732D02*
X17725384Y-14704779D01*
X17725384Y-14704779D02*
X17715861Y-14714303D01*
X17715861Y-14714303D02*
X17696813Y-14723827D01*
X17696813Y-14723827D02*
X17639670Y-14723827D01*
X17639670Y-14723827D02*
X17620623Y-14714303D01*
X17620623Y-14714303D02*
X17611099Y-14704779D01*
X17915861Y-14523827D02*
X17820623Y-14523827D01*
X17820623Y-14523827D02*
X17811099Y-14619065D01*
X17811099Y-14619065D02*
X17820623Y-14609541D01*
X17820623Y-14609541D02*
X17839670Y-14600017D01*
X17839670Y-14600017D02*
X17887289Y-14600017D01*
X17887289Y-14600017D02*
X17906337Y-14609541D01*
X17906337Y-14609541D02*
X17915861Y-14619065D01*
X17915861Y-14619065D02*
X17925384Y-14638113D01*
X17925384Y-14638113D02*
X17925384Y-14685732D01*
X17925384Y-14685732D02*
X17915861Y-14704779D01*
X17915861Y-14704779D02*
X17906337Y-14714303D01*
X17906337Y-14714303D02*
X17887289Y-14723827D01*
X17887289Y-14723827D02*
X17839670Y-14723827D01*
X17839670Y-14723827D02*
X17820623Y-14714303D01*
X17820623Y-14714303D02*
X17811099Y-14704779D01*
X18096813Y-14590493D02*
X18096813Y-14723827D01*
X18049194Y-14514303D02*
X18001575Y-14657160D01*
X18001575Y-14657160D02*
X18125384Y-14657160D01*
X18192051Y-14523827D02*
X18192051Y-14561922D01*
X18268242Y-14523827D02*
X18268242Y-14561922D01*
X18563480Y-14800017D02*
X18553956Y-14790493D01*
X18553956Y-14790493D02*
X18534908Y-14761922D01*
X18534908Y-14761922D02*
X18525385Y-14742874D01*
X18525385Y-14742874D02*
X18515861Y-14714303D01*
X18515861Y-14714303D02*
X18506337Y-14666684D01*
X18506337Y-14666684D02*
X18506337Y-14628589D01*
X18506337Y-14628589D02*
X18515861Y-14580970D01*
X18515861Y-14580970D02*
X18525385Y-14552398D01*
X18525385Y-14552398D02*
X18534908Y-14533351D01*
X18534908Y-14533351D02*
X18553956Y-14504779D01*
X18553956Y-14504779D02*
X18563480Y-14495255D01*
X18725385Y-14590493D02*
X18725385Y-14723827D01*
X18677765Y-14514303D02*
X18630146Y-14657160D01*
X18630146Y-14657160D02*
X18753956Y-14657160D01*
X18858718Y-14609541D02*
X18839670Y-14600017D01*
X18839670Y-14600017D02*
X18830146Y-14590493D01*
X18830146Y-14590493D02*
X18820623Y-14571446D01*
X18820623Y-14571446D02*
X18820623Y-14561922D01*
X18820623Y-14561922D02*
X18830146Y-14542874D01*
X18830146Y-14542874D02*
X18839670Y-14533351D01*
X18839670Y-14533351D02*
X18858718Y-14523827D01*
X18858718Y-14523827D02*
X18896813Y-14523827D01*
X18896813Y-14523827D02*
X18915861Y-14533351D01*
X18915861Y-14533351D02*
X18925385Y-14542874D01*
X18925385Y-14542874D02*
X18934908Y-14561922D01*
X18934908Y-14561922D02*
X18934908Y-14571446D01*
X18934908Y-14571446D02*
X18925385Y-14590493D01*
X18925385Y-14590493D02*
X18915861Y-14600017D01*
X18915861Y-14600017D02*
X18896813Y-14609541D01*
X18896813Y-14609541D02*
X18858718Y-14609541D01*
X18858718Y-14609541D02*
X18839670Y-14619065D01*
X18839670Y-14619065D02*
X18830146Y-14628589D01*
X18830146Y-14628589D02*
X18820623Y-14647636D01*
X18820623Y-14647636D02*
X18820623Y-14685732D01*
X18820623Y-14685732D02*
X18830146Y-14704779D01*
X18830146Y-14704779D02*
X18839670Y-14714303D01*
X18839670Y-14714303D02*
X18858718Y-14723827D01*
X18858718Y-14723827D02*
X18896813Y-14723827D01*
X18896813Y-14723827D02*
X18915861Y-14714303D01*
X18915861Y-14714303D02*
X18925385Y-14704779D01*
X18925385Y-14704779D02*
X18934908Y-14685732D01*
X18934908Y-14685732D02*
X18934908Y-14647636D01*
X18934908Y-14647636D02*
X18925385Y-14628589D01*
X18925385Y-14628589D02*
X18915861Y-14619065D01*
X18915861Y-14619065D02*
X18896813Y-14609541D01*
X19173004Y-14723827D02*
X19173004Y-14523827D01*
X19258718Y-14723827D02*
X19258718Y-14619065D01*
X19258718Y-14619065D02*
X19249194Y-14600017D01*
X19249194Y-14600017D02*
X19230147Y-14590493D01*
X19230147Y-14590493D02*
X19201575Y-14590493D01*
X19201575Y-14590493D02*
X19182527Y-14600017D01*
X19182527Y-14600017D02*
X19173004Y-14609541D01*
X19382527Y-14723827D02*
X19363480Y-14714303D01*
X19363480Y-14714303D02*
X19353956Y-14704779D01*
X19353956Y-14704779D02*
X19344432Y-14685732D01*
X19344432Y-14685732D02*
X19344432Y-14628589D01*
X19344432Y-14628589D02*
X19353956Y-14609541D01*
X19353956Y-14609541D02*
X19363480Y-14600017D01*
X19363480Y-14600017D02*
X19382527Y-14590493D01*
X19382527Y-14590493D02*
X19411099Y-14590493D01*
X19411099Y-14590493D02*
X19430147Y-14600017D01*
X19430147Y-14600017D02*
X19439670Y-14609541D01*
X19439670Y-14609541D02*
X19449194Y-14628589D01*
X19449194Y-14628589D02*
X19449194Y-14685732D01*
X19449194Y-14685732D02*
X19439670Y-14704779D01*
X19439670Y-14704779D02*
X19430147Y-14714303D01*
X19430147Y-14714303D02*
X19411099Y-14723827D01*
X19411099Y-14723827D02*
X19382527Y-14723827D01*
X19563480Y-14723827D02*
X19544432Y-14714303D01*
X19544432Y-14714303D02*
X19534908Y-14695255D01*
X19534908Y-14695255D02*
X19534908Y-14523827D01*
X19715861Y-14714303D02*
X19696813Y-14723827D01*
X19696813Y-14723827D02*
X19658718Y-14723827D01*
X19658718Y-14723827D02*
X19639670Y-14714303D01*
X19639670Y-14714303D02*
X19630147Y-14695255D01*
X19630147Y-14695255D02*
X19630147Y-14619065D01*
X19630147Y-14619065D02*
X19639670Y-14600017D01*
X19639670Y-14600017D02*
X19658718Y-14590493D01*
X19658718Y-14590493D02*
X19696813Y-14590493D01*
X19696813Y-14590493D02*
X19715861Y-14600017D01*
X19715861Y-14600017D02*
X19725385Y-14619065D01*
X19725385Y-14619065D02*
X19725385Y-14638113D01*
X19725385Y-14638113D02*
X19630147Y-14657160D01*
X19801575Y-14714303D02*
X19820623Y-14723827D01*
X19820623Y-14723827D02*
X19858718Y-14723827D01*
X19858718Y-14723827D02*
X19877766Y-14714303D01*
X19877766Y-14714303D02*
X19887289Y-14695255D01*
X19887289Y-14695255D02*
X19887289Y-14685732D01*
X19887289Y-14685732D02*
X19877766Y-14666684D01*
X19877766Y-14666684D02*
X19858718Y-14657160D01*
X19858718Y-14657160D02*
X19830147Y-14657160D01*
X19830147Y-14657160D02*
X19811099Y-14647636D01*
X19811099Y-14647636D02*
X19801575Y-14628589D01*
X19801575Y-14628589D02*
X19801575Y-14619065D01*
X19801575Y-14619065D02*
X19811099Y-14600017D01*
X19811099Y-14600017D02*
X19830147Y-14590493D01*
X19830147Y-14590493D02*
X19858718Y-14590493D01*
X19858718Y-14590493D02*
X19877766Y-14600017D01*
X19953956Y-14800017D02*
X19963480Y-14790493D01*
X19963480Y-14790493D02*
X19982528Y-14761922D01*
X19982528Y-14761922D02*
X19992051Y-14742874D01*
X19992051Y-14742874D02*
X20001575Y-14714303D01*
X20001575Y-14714303D02*
X20011099Y-14666684D01*
X20011099Y-14666684D02*
X20011099Y-14628589D01*
X20011099Y-14628589D02*
X20001575Y-14580970D01*
X20001575Y-14580970D02*
X19992051Y-14552398D01*
X19992051Y-14552398D02*
X19982528Y-14533351D01*
X19982528Y-14533351D02*
X19963480Y-14504779D01*
X19963480Y-14504779D02*
X19953956Y-14495255D01*
D12*
X14888417Y-14846343D02*
X14988417Y-14946343D01*
X14988417Y-14846343D02*
X14888417Y-14946343D01*
X14988417Y-14896343D02*
G75*
G02*
X14888417Y-14896343I-50000J0D01*
G01*
X14888417Y-14896343D02*
G75*
G02*
X14988417Y-14896343I50000J0D01*
G01*
D11*
X15353956Y-14987827D02*
X15239670Y-14987827D01*
X15296813Y-14987827D02*
X15296813Y-14787827D01*
X15296813Y-14787827D02*
X15277765Y-14816398D01*
X15277765Y-14816398D02*
X15258717Y-14835446D01*
X15258717Y-14835446D02*
X15239670Y-14844970D01*
X15439670Y-14968779D02*
X15449194Y-14978303D01*
X15449194Y-14978303D02*
X15439670Y-14987827D01*
X15439670Y-14987827D02*
X15430146Y-14978303D01*
X15430146Y-14978303D02*
X15439670Y-14968779D01*
X15439670Y-14968779D02*
X15439670Y-14987827D01*
X15573003Y-14787827D02*
X15592051Y-14787827D01*
X15592051Y-14787827D02*
X15611098Y-14797351D01*
X15611098Y-14797351D02*
X15620622Y-14806874D01*
X15620622Y-14806874D02*
X15630146Y-14825922D01*
X15630146Y-14825922D02*
X15639670Y-14864017D01*
X15639670Y-14864017D02*
X15639670Y-14911636D01*
X15639670Y-14911636D02*
X15630146Y-14949732D01*
X15630146Y-14949732D02*
X15620622Y-14968779D01*
X15620622Y-14968779D02*
X15611098Y-14978303D01*
X15611098Y-14978303D02*
X15592051Y-14987827D01*
X15592051Y-14987827D02*
X15573003Y-14987827D01*
X15573003Y-14987827D02*
X15553956Y-14978303D01*
X15553956Y-14978303D02*
X15544432Y-14968779D01*
X15544432Y-14968779D02*
X15534908Y-14949732D01*
X15534908Y-14949732D02*
X15525384Y-14911636D01*
X15525384Y-14911636D02*
X15525384Y-14864017D01*
X15525384Y-14864017D02*
X15534908Y-14825922D01*
X15534908Y-14825922D02*
X15544432Y-14806874D01*
X15544432Y-14806874D02*
X15553956Y-14797351D01*
X15553956Y-14797351D02*
X15573003Y-14787827D01*
X15763479Y-14787827D02*
X15782527Y-14787827D01*
X15782527Y-14787827D02*
X15801575Y-14797351D01*
X15801575Y-14797351D02*
X15811098Y-14806874D01*
X15811098Y-14806874D02*
X15820622Y-14825922D01*
X15820622Y-14825922D02*
X15830146Y-14864017D01*
X15830146Y-14864017D02*
X15830146Y-14911636D01*
X15830146Y-14911636D02*
X15820622Y-14949732D01*
X15820622Y-14949732D02*
X15811098Y-14968779D01*
X15811098Y-14968779D02*
X15801575Y-14978303D01*
X15801575Y-14978303D02*
X15782527Y-14987827D01*
X15782527Y-14987827D02*
X15763479Y-14987827D01*
X15763479Y-14987827D02*
X15744432Y-14978303D01*
X15744432Y-14978303D02*
X15734908Y-14968779D01*
X15734908Y-14968779D02*
X15725384Y-14949732D01*
X15725384Y-14949732D02*
X15715860Y-14911636D01*
X15715860Y-14911636D02*
X15715860Y-14864017D01*
X15715860Y-14864017D02*
X15725384Y-14825922D01*
X15725384Y-14825922D02*
X15734908Y-14806874D01*
X15734908Y-14806874D02*
X15744432Y-14797351D01*
X15744432Y-14797351D02*
X15763479Y-14787827D01*
X15953956Y-14787827D02*
X15973003Y-14787827D01*
X15973003Y-14787827D02*
X15992051Y-14797351D01*
X15992051Y-14797351D02*
X16001575Y-14806874D01*
X16001575Y-14806874D02*
X16011098Y-14825922D01*
X16011098Y-14825922D02*
X16020622Y-14864017D01*
X16020622Y-14864017D02*
X16020622Y-14911636D01*
X16020622Y-14911636D02*
X16011098Y-14949732D01*
X16011098Y-14949732D02*
X16001575Y-14968779D01*
X16001575Y-14968779D02*
X15992051Y-14978303D01*
X15992051Y-14978303D02*
X15973003Y-14987827D01*
X15973003Y-14987827D02*
X15953956Y-14987827D01*
X15953956Y-14987827D02*
X15934908Y-14978303D01*
X15934908Y-14978303D02*
X15925384Y-14968779D01*
X15925384Y-14968779D02*
X15915860Y-14949732D01*
X15915860Y-14949732D02*
X15906337Y-14911636D01*
X15906337Y-14911636D02*
X15906337Y-14864017D01*
X15906337Y-14864017D02*
X15915860Y-14825922D01*
X15915860Y-14825922D02*
X15925384Y-14806874D01*
X15925384Y-14806874D02*
X15934908Y-14797351D01*
X15934908Y-14797351D02*
X15953956Y-14787827D01*
X16106337Y-14987827D02*
X16106337Y-14854493D01*
X16106337Y-14873541D02*
X16115860Y-14864017D01*
X16115860Y-14864017D02*
X16134908Y-14854493D01*
X16134908Y-14854493D02*
X16163479Y-14854493D01*
X16163479Y-14854493D02*
X16182527Y-14864017D01*
X16182527Y-14864017D02*
X16192051Y-14883065D01*
X16192051Y-14883065D02*
X16192051Y-14987827D01*
X16192051Y-14883065D02*
X16201575Y-14864017D01*
X16201575Y-14864017D02*
X16220622Y-14854493D01*
X16220622Y-14854493D02*
X16249194Y-14854493D01*
X16249194Y-14854493D02*
X16268241Y-14864017D01*
X16268241Y-14864017D02*
X16277765Y-14883065D01*
X16277765Y-14883065D02*
X16277765Y-14987827D01*
X16373003Y-14987827D02*
X16373003Y-14854493D01*
X16373003Y-14873541D02*
X16382527Y-14864017D01*
X16382527Y-14864017D02*
X16401575Y-14854493D01*
X16401575Y-14854493D02*
X16430146Y-14854493D01*
X16430146Y-14854493D02*
X16449194Y-14864017D01*
X16449194Y-14864017D02*
X16458718Y-14883065D01*
X16458718Y-14883065D02*
X16458718Y-14987827D01*
X16458718Y-14883065D02*
X16468241Y-14864017D01*
X16468241Y-14864017D02*
X16487289Y-14854493D01*
X16487289Y-14854493D02*
X16515860Y-14854493D01*
X16515860Y-14854493D02*
X16534908Y-14864017D01*
X16534908Y-14864017D02*
X16544432Y-14883065D01*
X16544432Y-14883065D02*
X16544432Y-14987827D01*
X16934908Y-14778303D02*
X16763480Y-15035446D01*
X17192051Y-14787827D02*
X17211099Y-14787827D01*
X17211099Y-14787827D02*
X17230146Y-14797351D01*
X17230146Y-14797351D02*
X17239670Y-14806874D01*
X17239670Y-14806874D02*
X17249194Y-14825922D01*
X17249194Y-14825922D02*
X17258718Y-14864017D01*
X17258718Y-14864017D02*
X17258718Y-14911636D01*
X17258718Y-14911636D02*
X17249194Y-14949732D01*
X17249194Y-14949732D02*
X17239670Y-14968779D01*
X17239670Y-14968779D02*
X17230146Y-14978303D01*
X17230146Y-14978303D02*
X17211099Y-14987827D01*
X17211099Y-14987827D02*
X17192051Y-14987827D01*
X17192051Y-14987827D02*
X17173003Y-14978303D01*
X17173003Y-14978303D02*
X17163480Y-14968779D01*
X17163480Y-14968779D02*
X17153956Y-14949732D01*
X17153956Y-14949732D02*
X17144432Y-14911636D01*
X17144432Y-14911636D02*
X17144432Y-14864017D01*
X17144432Y-14864017D02*
X17153956Y-14825922D01*
X17153956Y-14825922D02*
X17163480Y-14806874D01*
X17163480Y-14806874D02*
X17173003Y-14797351D01*
X17173003Y-14797351D02*
X17192051Y-14787827D01*
X17344432Y-14968779D02*
X17353956Y-14978303D01*
X17353956Y-14978303D02*
X17344432Y-14987827D01*
X17344432Y-14987827D02*
X17334908Y-14978303D01*
X17334908Y-14978303D02*
X17344432Y-14968779D01*
X17344432Y-14968779D02*
X17344432Y-14987827D01*
X17477765Y-14787827D02*
X17496813Y-14787827D01*
X17496813Y-14787827D02*
X17515861Y-14797351D01*
X17515861Y-14797351D02*
X17525384Y-14806874D01*
X17525384Y-14806874D02*
X17534908Y-14825922D01*
X17534908Y-14825922D02*
X17544432Y-14864017D01*
X17544432Y-14864017D02*
X17544432Y-14911636D01*
X17544432Y-14911636D02*
X17534908Y-14949732D01*
X17534908Y-14949732D02*
X17525384Y-14968779D01*
X17525384Y-14968779D02*
X17515861Y-14978303D01*
X17515861Y-14978303D02*
X17496813Y-14987827D01*
X17496813Y-14987827D02*
X17477765Y-14987827D01*
X17477765Y-14987827D02*
X17458718Y-14978303D01*
X17458718Y-14978303D02*
X17449194Y-14968779D01*
X17449194Y-14968779D02*
X17439670Y-14949732D01*
X17439670Y-14949732D02*
X17430146Y-14911636D01*
X17430146Y-14911636D02*
X17430146Y-14864017D01*
X17430146Y-14864017D02*
X17439670Y-14825922D01*
X17439670Y-14825922D02*
X17449194Y-14806874D01*
X17449194Y-14806874D02*
X17458718Y-14797351D01*
X17458718Y-14797351D02*
X17477765Y-14787827D01*
X17611099Y-14787827D02*
X17734908Y-14787827D01*
X17734908Y-14787827D02*
X17668242Y-14864017D01*
X17668242Y-14864017D02*
X17696813Y-14864017D01*
X17696813Y-14864017D02*
X17715861Y-14873541D01*
X17715861Y-14873541D02*
X17725384Y-14883065D01*
X17725384Y-14883065D02*
X17734908Y-14902113D01*
X17734908Y-14902113D02*
X17734908Y-14949732D01*
X17734908Y-14949732D02*
X17725384Y-14968779D01*
X17725384Y-14968779D02*
X17715861Y-14978303D01*
X17715861Y-14978303D02*
X17696813Y-14987827D01*
X17696813Y-14987827D02*
X17639670Y-14987827D01*
X17639670Y-14987827D02*
X17620623Y-14978303D01*
X17620623Y-14978303D02*
X17611099Y-14968779D01*
X17830146Y-14987827D02*
X17868242Y-14987827D01*
X17868242Y-14987827D02*
X17887289Y-14978303D01*
X17887289Y-14978303D02*
X17896813Y-14968779D01*
X17896813Y-14968779D02*
X17915861Y-14940208D01*
X17915861Y-14940208D02*
X17925384Y-14902113D01*
X17925384Y-14902113D02*
X17925384Y-14825922D01*
X17925384Y-14825922D02*
X17915861Y-14806874D01*
X17915861Y-14806874D02*
X17906337Y-14797351D01*
X17906337Y-14797351D02*
X17887289Y-14787827D01*
X17887289Y-14787827D02*
X17849194Y-14787827D01*
X17849194Y-14787827D02*
X17830146Y-14797351D01*
X17830146Y-14797351D02*
X17820623Y-14806874D01*
X17820623Y-14806874D02*
X17811099Y-14825922D01*
X17811099Y-14825922D02*
X17811099Y-14873541D01*
X17811099Y-14873541D02*
X17820623Y-14892589D01*
X17820623Y-14892589D02*
X17830146Y-14902113D01*
X17830146Y-14902113D02*
X17849194Y-14911636D01*
X17849194Y-14911636D02*
X17887289Y-14911636D01*
X17887289Y-14911636D02*
X17906337Y-14902113D01*
X17906337Y-14902113D02*
X17915861Y-14892589D01*
X17915861Y-14892589D02*
X17925384Y-14873541D01*
X18096813Y-14854493D02*
X18096813Y-14987827D01*
X18049194Y-14778303D02*
X18001575Y-14921160D01*
X18001575Y-14921160D02*
X18125384Y-14921160D01*
X18192051Y-14787827D02*
X18192051Y-14825922D01*
X18268242Y-14787827D02*
X18268242Y-14825922D01*
X18563480Y-15064017D02*
X18553956Y-15054493D01*
X18553956Y-15054493D02*
X18534908Y-15025922D01*
X18534908Y-15025922D02*
X18525385Y-15006874D01*
X18525385Y-15006874D02*
X18515861Y-14978303D01*
X18515861Y-14978303D02*
X18506337Y-14930684D01*
X18506337Y-14930684D02*
X18506337Y-14892589D01*
X18506337Y-14892589D02*
X18515861Y-14844970D01*
X18515861Y-14844970D02*
X18525385Y-14816398D01*
X18525385Y-14816398D02*
X18534908Y-14797351D01*
X18534908Y-14797351D02*
X18553956Y-14768779D01*
X18553956Y-14768779D02*
X18563480Y-14759255D01*
X18620623Y-14787827D02*
X18744432Y-14787827D01*
X18744432Y-14787827D02*
X18677765Y-14864017D01*
X18677765Y-14864017D02*
X18706337Y-14864017D01*
X18706337Y-14864017D02*
X18725385Y-14873541D01*
X18725385Y-14873541D02*
X18734908Y-14883065D01*
X18734908Y-14883065D02*
X18744432Y-14902113D01*
X18744432Y-14902113D02*
X18744432Y-14949732D01*
X18744432Y-14949732D02*
X18734908Y-14968779D01*
X18734908Y-14968779D02*
X18725385Y-14978303D01*
X18725385Y-14978303D02*
X18706337Y-14987827D01*
X18706337Y-14987827D02*
X18649194Y-14987827D01*
X18649194Y-14987827D02*
X18630146Y-14978303D01*
X18630146Y-14978303D02*
X18620623Y-14968779D01*
X18982527Y-14987827D02*
X18982527Y-14787827D01*
X19068242Y-14987827D02*
X19068242Y-14883065D01*
X19068242Y-14883065D02*
X19058718Y-14864017D01*
X19058718Y-14864017D02*
X19039670Y-14854493D01*
X19039670Y-14854493D02*
X19011099Y-14854493D01*
X19011099Y-14854493D02*
X18992051Y-14864017D01*
X18992051Y-14864017D02*
X18982527Y-14873541D01*
X19192051Y-14987827D02*
X19173004Y-14978303D01*
X19173004Y-14978303D02*
X19163480Y-14968779D01*
X19163480Y-14968779D02*
X19153956Y-14949732D01*
X19153956Y-14949732D02*
X19153956Y-14892589D01*
X19153956Y-14892589D02*
X19163480Y-14873541D01*
X19163480Y-14873541D02*
X19173004Y-14864017D01*
X19173004Y-14864017D02*
X19192051Y-14854493D01*
X19192051Y-14854493D02*
X19220623Y-14854493D01*
X19220623Y-14854493D02*
X19239670Y-14864017D01*
X19239670Y-14864017D02*
X19249194Y-14873541D01*
X19249194Y-14873541D02*
X19258718Y-14892589D01*
X19258718Y-14892589D02*
X19258718Y-14949732D01*
X19258718Y-14949732D02*
X19249194Y-14968779D01*
X19249194Y-14968779D02*
X19239670Y-14978303D01*
X19239670Y-14978303D02*
X19220623Y-14987827D01*
X19220623Y-14987827D02*
X19192051Y-14987827D01*
X19373004Y-14987827D02*
X19353956Y-14978303D01*
X19353956Y-14978303D02*
X19344432Y-14959255D01*
X19344432Y-14959255D02*
X19344432Y-14787827D01*
X19525385Y-14978303D02*
X19506337Y-14987827D01*
X19506337Y-14987827D02*
X19468242Y-14987827D01*
X19468242Y-14987827D02*
X19449194Y-14978303D01*
X19449194Y-14978303D02*
X19439670Y-14959255D01*
X19439670Y-14959255D02*
X19439670Y-14883065D01*
X19439670Y-14883065D02*
X19449194Y-14864017D01*
X19449194Y-14864017D02*
X19468242Y-14854493D01*
X19468242Y-14854493D02*
X19506337Y-14854493D01*
X19506337Y-14854493D02*
X19525385Y-14864017D01*
X19525385Y-14864017D02*
X19534908Y-14883065D01*
X19534908Y-14883065D02*
X19534908Y-14902113D01*
X19534908Y-14902113D02*
X19439670Y-14921160D01*
X19611099Y-14978303D02*
X19630147Y-14987827D01*
X19630147Y-14987827D02*
X19668242Y-14987827D01*
X19668242Y-14987827D02*
X19687289Y-14978303D01*
X19687289Y-14978303D02*
X19696813Y-14959255D01*
X19696813Y-14959255D02*
X19696813Y-14949732D01*
X19696813Y-14949732D02*
X19687289Y-14930684D01*
X19687289Y-14930684D02*
X19668242Y-14921160D01*
X19668242Y-14921160D02*
X19639670Y-14921160D01*
X19639670Y-14921160D02*
X19620623Y-14911636D01*
X19620623Y-14911636D02*
X19611099Y-14892589D01*
X19611099Y-14892589D02*
X19611099Y-14883065D01*
X19611099Y-14883065D02*
X19620623Y-14864017D01*
X19620623Y-14864017D02*
X19639670Y-14854493D01*
X19639670Y-14854493D02*
X19668242Y-14854493D01*
X19668242Y-14854493D02*
X19687289Y-14864017D01*
X19934909Y-14911636D02*
X20087290Y-14911636D01*
X20011099Y-14987827D02*
X20011099Y-14835446D01*
X20315861Y-14787827D02*
X20439670Y-14787827D01*
X20439670Y-14787827D02*
X20373004Y-14864017D01*
X20373004Y-14864017D02*
X20401575Y-14864017D01*
X20401575Y-14864017D02*
X20420623Y-14873541D01*
X20420623Y-14873541D02*
X20430147Y-14883065D01*
X20430147Y-14883065D02*
X20439670Y-14902113D01*
X20439670Y-14902113D02*
X20439670Y-14949732D01*
X20439670Y-14949732D02*
X20430147Y-14968779D01*
X20430147Y-14968779D02*
X20420623Y-14978303D01*
X20420623Y-14978303D02*
X20401575Y-14987827D01*
X20401575Y-14987827D02*
X20344432Y-14987827D01*
X20344432Y-14987827D02*
X20325385Y-14978303D01*
X20325385Y-14978303D02*
X20315861Y-14968779D01*
X20668242Y-14978303D02*
X20687290Y-14987827D01*
X20687290Y-14987827D02*
X20725385Y-14987827D01*
X20725385Y-14987827D02*
X20744432Y-14978303D01*
X20744432Y-14978303D02*
X20753956Y-14959255D01*
X20753956Y-14959255D02*
X20753956Y-14949732D01*
X20753956Y-14949732D02*
X20744432Y-14930684D01*
X20744432Y-14930684D02*
X20725385Y-14921160D01*
X20725385Y-14921160D02*
X20696813Y-14921160D01*
X20696813Y-14921160D02*
X20677766Y-14911636D01*
X20677766Y-14911636D02*
X20668242Y-14892589D01*
X20668242Y-14892589D02*
X20668242Y-14883065D01*
X20668242Y-14883065D02*
X20677766Y-14864017D01*
X20677766Y-14864017D02*
X20696813Y-14854493D01*
X20696813Y-14854493D02*
X20725385Y-14854493D01*
X20725385Y-14854493D02*
X20744432Y-14864017D01*
X20868242Y-14987827D02*
X20849194Y-14978303D01*
X20849194Y-14978303D02*
X20839671Y-14959255D01*
X20839671Y-14959255D02*
X20839671Y-14787827D01*
X20973004Y-14987827D02*
X20953956Y-14978303D01*
X20953956Y-14978303D02*
X20944432Y-14968779D01*
X20944432Y-14968779D02*
X20934909Y-14949732D01*
X20934909Y-14949732D02*
X20934909Y-14892589D01*
X20934909Y-14892589D02*
X20944432Y-14873541D01*
X20944432Y-14873541D02*
X20953956Y-14864017D01*
X20953956Y-14864017D02*
X20973004Y-14854493D01*
X20973004Y-14854493D02*
X21001575Y-14854493D01*
X21001575Y-14854493D02*
X21020623Y-14864017D01*
X21020623Y-14864017D02*
X21030147Y-14873541D01*
X21030147Y-14873541D02*
X21039671Y-14892589D01*
X21039671Y-14892589D02*
X21039671Y-14949732D01*
X21039671Y-14949732D02*
X21030147Y-14968779D01*
X21030147Y-14968779D02*
X21020623Y-14978303D01*
X21020623Y-14978303D02*
X21001575Y-14987827D01*
X21001575Y-14987827D02*
X20973004Y-14987827D01*
X21096813Y-14854493D02*
X21173004Y-14854493D01*
X21125385Y-14787827D02*
X21125385Y-14959255D01*
X21125385Y-14959255D02*
X21134909Y-14978303D01*
X21134909Y-14978303D02*
X21153956Y-14987827D01*
X21153956Y-14987827D02*
X21173004Y-14987827D01*
X21230147Y-14978303D02*
X21249194Y-14987827D01*
X21249194Y-14987827D02*
X21287290Y-14987827D01*
X21287290Y-14987827D02*
X21306337Y-14978303D01*
X21306337Y-14978303D02*
X21315861Y-14959255D01*
X21315861Y-14959255D02*
X21315861Y-14949732D01*
X21315861Y-14949732D02*
X21306337Y-14930684D01*
X21306337Y-14930684D02*
X21287290Y-14921160D01*
X21287290Y-14921160D02*
X21258718Y-14921160D01*
X21258718Y-14921160D02*
X21239671Y-14911636D01*
X21239671Y-14911636D02*
X21230147Y-14892589D01*
X21230147Y-14892589D02*
X21230147Y-14883065D01*
X21230147Y-14883065D02*
X21239671Y-14864017D01*
X21239671Y-14864017D02*
X21258718Y-14854493D01*
X21258718Y-14854493D02*
X21287290Y-14854493D01*
X21287290Y-14854493D02*
X21306337Y-14864017D01*
X21382528Y-15064017D02*
X21392052Y-15054493D01*
X21392052Y-15054493D02*
X21411099Y-15025922D01*
X21411099Y-15025922D02*
X21420623Y-15006874D01*
X21420623Y-15006874D02*
X21430147Y-14978303D01*
X21430147Y-14978303D02*
X21439671Y-14930684D01*
X21439671Y-14930684D02*
X21439671Y-14892589D01*
X21439671Y-14892589D02*
X21430147Y-14844970D01*
X21430147Y-14844970D02*
X21420623Y-14816398D01*
X21420623Y-14816398D02*
X21411099Y-14797351D01*
X21411099Y-14797351D02*
X21392052Y-14768779D01*
X21392052Y-14768779D02*
X21382528Y-14759255D01*
M02*
