M48
; DRILL file {KiCad 8.0.9} date 2025-12-12T10:11:08+0100
; FORMAT={-:-/ absolute / inch / decimal}
; #@! TF.CreationDate,2025-12-12T10:11:08+01:00
; #@! TF.GenerationSoftware,Kicad,Pcbnew,8.0.9
; #@! TF.FileFunction,Plated,1,2,PTH
FMAT,2
INCH
; #@! TA.AperFunction,Plated,PTH,ViaDrill
T1C0.0118
; #@! TA.AperFunction,Plated,PTH,ComponentDrill
T2C0.0236
; #@! TA.AperFunction,Plated,PTH,ComponentDrill
T3C0.0276
; #@! TA.AperFunction,Plated,PTH,ComponentDrill
T4C0.0287
; #@! TA.AperFunction,Plated,PTH,ComponentDrill
T5C0.0354
; #@! TA.AperFunction,Plated,PTH,ComponentDrill
T6C0.0394
%
G90
G05
T1
X6.1294Y-3.5938
X6.1549Y-4.3524
X6.6504Y-3.0381
X6.7087Y-4.8687
X7.4101Y-3.0161
X7.4667Y-4.8452
X7.9628Y-3.5343
X7.9857Y-4.2931
T2
X7.3056Y-4.094
X7.3843Y-4.094
T3
X6.416Y-4.195
X6.716Y-4.195
T4
X6.4167Y-3.791
X6.4167Y-3.891
X6.4167Y-3.991
X6.4167Y-4.091
X6.703Y-3.5193
X6.703Y-3.2067
X6.7293Y-3.791
X6.7293Y-3.891
X6.7293Y-3.991
X6.7293Y-4.091
X6.803Y-3.2067
X6.803Y-3.5193
X6.903Y-3.2067
X6.903Y-3.5193
X7.003Y-3.5193
X7.003Y-3.2067
X7.103Y-3.5193
X7.103Y-3.2067
X7.203Y-3.2067
X7.203Y-3.5193
X7.303Y-3.2067
X7.303Y-3.5193
X7.403Y-3.5193
X7.403Y-3.2067
T5
X6.009Y-4.021
X6.009Y-3.921
X6.0246Y-3.7459
X6.0393Y-4.1935
X6.0504Y-3.6493
X6.0652Y-4.2901
X6.11Y-3.485
X6.14Y-4.4484
X6.16Y-3.3984
X6.19Y-4.535
X6.2607Y-3.255
X6.3023Y-4.6683
X6.3314Y-3.1843
X6.373Y-4.739
X6.465Y-3.071
X6.5154Y-4.839
X6.5516Y-3.021
X6.602Y-4.889
X6.7109Y-2.9482
X6.766Y-4.949
X6.8075Y-2.9223
X6.8626Y-4.9749
X6.981Y-2.894
X7.036Y-4.99
X7.081Y-2.894
X7.136Y-4.99
X7.255Y-2.909
X7.3084Y-4.9599
X7.3516Y-2.9349
X7.405Y-4.934
X7.514Y-2.994
X7.5634Y-4.86
X7.6006Y-3.044
X7.65Y-4.81
X7.744Y-3.144
X7.7843Y-4.6977
X7.8147Y-3.2147
X7.855Y-4.627
X7.927Y-3.349
X7.955Y-4.4843
X7.977Y-3.4356
X8.005Y-4.3977
X8.051Y-3.594
X8.0651Y-4.2336
X8.0769Y-3.6906
X8.091Y-4.137
X8.107Y-3.863
X8.107Y-3.963
T6
X7.3886Y-4.3198
X7.487Y-4.5167
X7.5854Y-4.3198
T6
G00X6.869Y-4.4633
M15
G01X6.869Y-4.3845
M16
G05
G00X7.0146Y-4.542
M15
G01X7.0934Y-4.542
M16
G05
G00X7.0146Y-4.3058
M15
G01X7.0934Y-4.3058
M16
G05
M30
