%TF.GenerationSoftware,KiCad,Pcbnew,8.0.9*%
%TF.CreationDate,2025-12-12T10:11:10+01:00*%
%TF.ProjectId,Project,50726f6a-6563-4742-9e6b-696361645f70,rev?*%
%TF.SameCoordinates,Original*%
%TF.FileFunction,Legend,Top*%
%TF.FilePolarity,Positive*%
%FSLAX46Y46*%
G04 Gerber Fmt 4.6, Leading zero omitted, Abs format (unit mm)*
G04 Created by KiCad (PCBNEW 8.0.9) date 2025-12-12 10:11:10*
%MOMM*%
%LPD*%
G01*
G04 APERTURE LIST*
%ADD10C,0.150000*%
%ADD11C,0.254000*%
%ADD12C,0.120000*%
%ADD13C,0.200000*%
%ADD14C,0.000000*%
G04 APERTURE END LIST*
D10*
X166158942Y-108989019D02*
X165825609Y-108512828D01*
X165587514Y-108989019D02*
X165587514Y-107989019D01*
X165587514Y-107989019D02*
X165968466Y-107989019D01*
X165968466Y-107989019D02*
X166063704Y-108036638D01*
X166063704Y-108036638D02*
X166111323Y-108084257D01*
X166111323Y-108084257D02*
X166158942Y-108179495D01*
X166158942Y-108179495D02*
X166158942Y-108322352D01*
X166158942Y-108322352D02*
X166111323Y-108417590D01*
X166111323Y-108417590D02*
X166063704Y-108465209D01*
X166063704Y-108465209D02*
X165968466Y-108512828D01*
X165968466Y-108512828D02*
X165587514Y-108512828D01*
X166539895Y-108084257D02*
X166587514Y-108036638D01*
X166587514Y-108036638D02*
X166682752Y-107989019D01*
X166682752Y-107989019D02*
X166920847Y-107989019D01*
X166920847Y-107989019D02*
X167016085Y-108036638D01*
X167016085Y-108036638D02*
X167063704Y-108084257D01*
X167063704Y-108084257D02*
X167111323Y-108179495D01*
X167111323Y-108179495D02*
X167111323Y-108274733D01*
X167111323Y-108274733D02*
X167063704Y-108417590D01*
X167063704Y-108417590D02*
X166492276Y-108989019D01*
X166492276Y-108989019D02*
X167111323Y-108989019D01*
X168016085Y-107989019D02*
X167539895Y-107989019D01*
X167539895Y-107989019D02*
X167492276Y-108465209D01*
X167492276Y-108465209D02*
X167539895Y-108417590D01*
X167539895Y-108417590D02*
X167635133Y-108369971D01*
X167635133Y-108369971D02*
X167873228Y-108369971D01*
X167873228Y-108369971D02*
X167968466Y-108417590D01*
X167968466Y-108417590D02*
X168016085Y-108465209D01*
X168016085Y-108465209D02*
X168063704Y-108560447D01*
X168063704Y-108560447D02*
X168063704Y-108798542D01*
X168063704Y-108798542D02*
X168016085Y-108893780D01*
X168016085Y-108893780D02*
X167968466Y-108941400D01*
X167968466Y-108941400D02*
X167873228Y-108989019D01*
X167873228Y-108989019D02*
X167635133Y-108989019D01*
X167635133Y-108989019D02*
X167539895Y-108941400D01*
X167539895Y-108941400D02*
X167492276Y-108893780D01*
D11*
X177906437Y-85994518D02*
X177906437Y-84724518D01*
X179236914Y-85873565D02*
X179176438Y-85934042D01*
X179176438Y-85934042D02*
X178995009Y-85994518D01*
X178995009Y-85994518D02*
X178874057Y-85994518D01*
X178874057Y-85994518D02*
X178692628Y-85934042D01*
X178692628Y-85934042D02*
X178571676Y-85813089D01*
X178571676Y-85813089D02*
X178511199Y-85692137D01*
X178511199Y-85692137D02*
X178450723Y-85450232D01*
X178450723Y-85450232D02*
X178450723Y-85268803D01*
X178450723Y-85268803D02*
X178511199Y-85026899D01*
X178511199Y-85026899D02*
X178571676Y-84905946D01*
X178571676Y-84905946D02*
X178692628Y-84784994D01*
X178692628Y-84784994D02*
X178874057Y-84724518D01*
X178874057Y-84724518D02*
X178995009Y-84724518D01*
X178995009Y-84724518D02*
X179176438Y-84784994D01*
X179176438Y-84784994D02*
X179236914Y-84845470D01*
X180446438Y-85994518D02*
X179720723Y-85994518D01*
X180083580Y-85994518D02*
X180083580Y-84724518D01*
X180083580Y-84724518D02*
X179962628Y-84905946D01*
X179962628Y-84905946D02*
X179841676Y-85026899D01*
X179841676Y-85026899D02*
X179720723Y-85087375D01*
D10*
X189674561Y-107678019D02*
X189341228Y-107201828D01*
X189103133Y-107678019D02*
X189103133Y-106678019D01*
X189103133Y-106678019D02*
X189484085Y-106678019D01*
X189484085Y-106678019D02*
X189579323Y-106725638D01*
X189579323Y-106725638D02*
X189626942Y-106773257D01*
X189626942Y-106773257D02*
X189674561Y-106868495D01*
X189674561Y-106868495D02*
X189674561Y-107011352D01*
X189674561Y-107011352D02*
X189626942Y-107106590D01*
X189626942Y-107106590D02*
X189579323Y-107154209D01*
X189579323Y-107154209D02*
X189484085Y-107201828D01*
X189484085Y-107201828D02*
X189103133Y-107201828D01*
X189960276Y-106678019D02*
X190293609Y-107678019D01*
X190293609Y-107678019D02*
X190626942Y-106678019D01*
X191484085Y-107678019D02*
X190912657Y-107678019D01*
X191198371Y-107678019D02*
X191198371Y-106678019D01*
X191198371Y-106678019D02*
X191103133Y-106820876D01*
X191103133Y-106820876D02*
X191007895Y-106916114D01*
X191007895Y-106916114D02*
X190912657Y-106963733D01*
D11*
X165714437Y-100675718D02*
X165714437Y-99405718D01*
X167044914Y-100554765D02*
X166984438Y-100615242D01*
X166984438Y-100615242D02*
X166803009Y-100675718D01*
X166803009Y-100675718D02*
X166682057Y-100675718D01*
X166682057Y-100675718D02*
X166500628Y-100615242D01*
X166500628Y-100615242D02*
X166379676Y-100494289D01*
X166379676Y-100494289D02*
X166319199Y-100373337D01*
X166319199Y-100373337D02*
X166258723Y-100131432D01*
X166258723Y-100131432D02*
X166258723Y-99950003D01*
X166258723Y-99950003D02*
X166319199Y-99708099D01*
X166319199Y-99708099D02*
X166379676Y-99587146D01*
X166379676Y-99587146D02*
X166500628Y-99466194D01*
X166500628Y-99466194D02*
X166682057Y-99405718D01*
X166682057Y-99405718D02*
X166803009Y-99405718D01*
X166803009Y-99405718D02*
X166984438Y-99466194D01*
X166984438Y-99466194D02*
X167044914Y-99526670D01*
X167528723Y-99526670D02*
X167589199Y-99466194D01*
X167589199Y-99466194D02*
X167710152Y-99405718D01*
X167710152Y-99405718D02*
X168012533Y-99405718D01*
X168012533Y-99405718D02*
X168133485Y-99466194D01*
X168133485Y-99466194D02*
X168193961Y-99526670D01*
X168193961Y-99526670D02*
X168254438Y-99647622D01*
X168254438Y-99647622D02*
X168254438Y-99768575D01*
X168254438Y-99768575D02*
X168193961Y-99950003D01*
X168193961Y-99950003D02*
X167468247Y-100675718D01*
X167468247Y-100675718D02*
X168254438Y-100675718D01*
D10*
X183043533Y-104321780D02*
X182995914Y-104369400D01*
X182995914Y-104369400D02*
X182853057Y-104417019D01*
X182853057Y-104417019D02*
X182757819Y-104417019D01*
X182757819Y-104417019D02*
X182614962Y-104369400D01*
X182614962Y-104369400D02*
X182519724Y-104274161D01*
X182519724Y-104274161D02*
X182472105Y-104178923D01*
X182472105Y-104178923D02*
X182424486Y-103988447D01*
X182424486Y-103988447D02*
X182424486Y-103845590D01*
X182424486Y-103845590D02*
X182472105Y-103655114D01*
X182472105Y-103655114D02*
X182519724Y-103559876D01*
X182519724Y-103559876D02*
X182614962Y-103464638D01*
X182614962Y-103464638D02*
X182757819Y-103417019D01*
X182757819Y-103417019D02*
X182853057Y-103417019D01*
X182853057Y-103417019D02*
X182995914Y-103464638D01*
X182995914Y-103464638D02*
X183043533Y-103512257D01*
X183995914Y-104417019D02*
X183424486Y-104417019D01*
X183710200Y-104417019D02*
X183710200Y-103417019D01*
X183710200Y-103417019D02*
X183614962Y-103559876D01*
X183614962Y-103559876D02*
X183519724Y-103655114D01*
X183519724Y-103655114D02*
X183424486Y-103702733D01*
D12*
%TO.C,D3*%
X204837800Y-97830200D02*
X204681800Y-97830199D01*
X207153800Y-97830201D02*
X206997800Y-97830200D01*
X204837739Y-101061596D02*
G75*
G02*
X204682285Y-97830201I1080061J1671396D01*
G01*
X204837751Y-100431110D02*
G75*
G02*
X204837801Y-98349239I1080049J1040910D01*
G01*
X206997800Y-98349239D02*
G75*
G02*
X206997849Y-100431110I-1080000J-1040961D01*
G01*
X207153316Y-97830200D02*
G75*
G02*
X206997859Y-101061598I-1235516J-1560000D01*
G01*
%TO.C,D9*%
X183717357Y-74856742D02*
X183676981Y-75007427D01*
X184316782Y-72619658D02*
X184276406Y-72770343D01*
X184316657Y-72620126D02*
G75*
G02*
X187397712Y-73606631I1187069J-1597174D01*
G01*
X184777759Y-72904680D02*
G75*
G02*
X186788705Y-73443460I725967J-1312620D01*
G01*
X186229630Y-75529955D02*
G75*
G02*
X184218711Y-74991080I-725904J1312655D01*
G01*
X186838631Y-75693148D02*
G75*
G02*
X183677107Y-75006959I-1334905J1475848D01*
G01*
%TO.C,D8*%
X157941985Y-82007730D02*
X158052295Y-82118039D01*
X159579645Y-83645389D02*
X159689955Y-83755698D01*
X157942328Y-82008073D02*
G75*
G02*
X160337194Y-79833055I1976729J229443D01*
G01*
X158419310Y-81751023D02*
G75*
G02*
X159891381Y-80278881I1499747J-27604D01*
G01*
X161418801Y-81806303D02*
G75*
G02*
X159946661Y-83278372I-1499744J27676D01*
G01*
X161864631Y-81360489D02*
G75*
G02*
X159689612Y-83755355I-1945574J-418138D01*
G01*
%TO.C,R24*%
X174547637Y-74795896D02*
X174424823Y-74337548D01*
X175557029Y-74525430D02*
X175434215Y-74067082D01*
%TO.C,R17*%
X193807226Y-78876236D02*
X194044483Y-78465292D01*
X194712221Y-79398736D02*
X194949478Y-78987792D01*
%TO.C,R18*%
X204583091Y-95377567D02*
X205041439Y-95254753D01*
X204853557Y-96386959D02*
X205311905Y-96264145D01*
%TO.C,D12*%
X194021148Y-121093693D02*
X193943149Y-120958592D01*
X195179147Y-123099408D02*
X195101147Y-122964307D01*
X191222646Y-122709338D02*
G75*
G02*
X193943390Y-120959013I1987502J-99662D01*
G01*
X191768669Y-122394105D02*
G75*
G02*
X193571648Y-121353212I1441479J-414895D01*
G01*
X194651646Y-123223827D02*
G75*
G02*
X192848718Y-124264804I-1441498J414827D01*
G01*
X195178905Y-123098988D02*
G75*
G02*
X192302704Y-124580057I-1968757J289988D01*
G01*
%TO.C,D17*%
X190064453Y-76837907D02*
X189986452Y-76973008D01*
X191222453Y-74832192D02*
X191144452Y-74967293D01*
X191222211Y-74832612D02*
G75*
G02*
X193942954Y-76582939I733241J-1849988D01*
G01*
X191593953Y-75226812D02*
G75*
G02*
X193396931Y-76267705I361499J-1455788D01*
G01*
X192316882Y-78138405D02*
G75*
G02*
X190513953Y-77097427I-361430J1455805D01*
G01*
X192862895Y-78453658D02*
G75*
G02*
X189986694Y-76972588I-907442J1771061D01*
G01*
%TO.C,R21*%
X163831753Y-120828065D02*
X163594496Y-121239009D01*
X164736748Y-121350565D02*
X164499491Y-121761509D01*
%TO.C,R12*%
X189477096Y-123839765D02*
X189714353Y-124250709D01*
X190382091Y-123317265D02*
X190619348Y-123728209D01*
%TO.C,R5*%
X176236099Y-125772144D02*
X176236099Y-126246660D01*
X177281099Y-125772144D02*
X177281099Y-126246660D01*
%TO.C,D24*%
X169857651Y-73764760D02*
X169898027Y-73915445D01*
X170457076Y-76001844D02*
X170497452Y-76152529D01*
X169857776Y-73765228D02*
G75*
G02*
X173019302Y-73079038I1826620J-789659D01*
G01*
X170399380Y-73781107D02*
G75*
G02*
X172410300Y-73242231I1285016J-773780D01*
G01*
X172969375Y-75328727D02*
G75*
G02*
X170958429Y-75867507I-1284979J773840D01*
G01*
X173578382Y-75165556D02*
G75*
G02*
X170497327Y-76152061I-1893986J610669D01*
G01*
%TO.C,R19*%
X199974465Y-115560595D02*
X200385409Y-115797852D01*
X200496965Y-114655600D02*
X200907909Y-114892857D01*
%TO.C,R2*%
X198818526Y-83355769D02*
X199154059Y-83020236D01*
X199557453Y-84094696D02*
X199892986Y-83759163D01*
%TO.C,R15*%
X154992630Y-91559229D02*
X154534282Y-91436415D01*
X155263096Y-90549837D02*
X154804748Y-90427023D01*
%TO.C,D19*%
X202536693Y-110910400D02*
X202401594Y-110832398D01*
X204542407Y-112068400D02*
X204407307Y-111990399D01*
X200920942Y-113708840D02*
G75*
G02*
X202402012Y-110832642I1771061J907440D01*
G01*
X201236195Y-113162829D02*
G75*
G02*
X202277174Y-111359900I1455805J361430D01*
G01*
X204147788Y-112439900D02*
G75*
G02*
X203106895Y-114242878I-1455788J-361499D01*
G01*
X204541988Y-112068158D02*
G75*
G02*
X202791660Y-114788901I-1849988J-733241D01*
G01*
%TO.C,R20*%
X182987640Y-125681758D02*
X183110454Y-126140106D01*
X183997032Y-125411292D02*
X184119846Y-125869640D01*
%TO.C,R25*%
X163906400Y-106553000D02*
X164856400Y-106553000D01*
X164856400Y-105633000D02*
X164856400Y-107473000D01*
X164856400Y-107473000D02*
X168696400Y-107473000D01*
X168696400Y-105633000D02*
X164856400Y-105633000D01*
X168696400Y-107473000D02*
X168696400Y-105633000D01*
X169646400Y-106553000D02*
X168696400Y-106553000D01*
%TO.C,R14*%
X155560235Y-110356098D02*
X155149291Y-110593355D01*
X156082735Y-111261093D02*
X155671791Y-111498350D01*
%TO.C,D10*%
X200265493Y-85353452D02*
X200130392Y-85431452D01*
X202271208Y-84195453D02*
X202136107Y-84273453D01*
X201565905Y-87605931D02*
G75*
G02*
X200525012Y-85802953I414895J1441479D01*
G01*
X201881138Y-88151954D02*
G75*
G02*
X200130813Y-85431210I99662J1987502D01*
G01*
X202270788Y-84195695D02*
G75*
G02*
X203751858Y-87071895I-289988J-1968757D01*
G01*
X202395627Y-84722954D02*
G75*
G02*
X203436604Y-86525882I-414827J-1441498D01*
G01*
%TO.C,D15*%
X151754648Y-95105308D02*
X151905333Y-95145683D01*
X153991732Y-95704732D02*
X154142417Y-95745107D01*
X151755116Y-95105432D02*
G75*
G02*
X152741620Y-92024378I1597174J1187069D01*
G01*
X152039670Y-94644331D02*
G75*
G02*
X152578450Y-92633384I1312620J725968D01*
G01*
X154664945Y-93192459D02*
G75*
G02*
X154126070Y-95203378I-1312655J-725904D01*
G01*
X154828137Y-92583457D02*
G75*
G02*
X154141949Y-95744982I-1475847J-1334906D01*
G01*
%TO.C,D6*%
X161205278Y-121449646D02*
X161315586Y-121339336D01*
X162842936Y-119811986D02*
X162953244Y-119701676D01*
X160558035Y-117527000D02*
G75*
G02*
X162952901Y-119702019I418137J-1945575D01*
G01*
X160948570Y-120972321D02*
G75*
G02*
X159476428Y-119500250I27604J1499747D01*
G01*
X161003850Y-117972830D02*
G75*
G02*
X162475919Y-119444970I-27676J-1499744D01*
G01*
X161205620Y-121449303D02*
G75*
G02*
X159030602Y-119054437I-229443J1976729D01*
G01*
D13*
%TO.C,IC1*%
X169301200Y-89955200D02*
X169301199Y-82120199D01*
X188991201Y-88720201D02*
X188991199Y-82120200D01*
D12*
%TO.C,D23*%
X153978592Y-88152148D02*
X154113693Y-88230148D01*
X155984307Y-89310147D02*
X156119408Y-89388147D01*
X153979013Y-88152390D02*
G75*
G02*
X155729338Y-85431646I1849987J733242D01*
G01*
X154373211Y-87780647D02*
G75*
G02*
X155414105Y-85977668I1455789J361499D01*
G01*
X157284805Y-87057718D02*
G75*
G02*
X156243827Y-88860647I-1455805J-361430D01*
G01*
X157600058Y-86511705D02*
G75*
G02*
X156118988Y-89387906I-1771058J-907443D01*
G01*
%TO.C,D18*%
X203377143Y-91287006D02*
X203226458Y-91327381D01*
X205614227Y-90687582D02*
X205463542Y-90727957D01*
X204050260Y-93799305D02*
G75*
G02*
X203511480Y-91788358I773840J1284979D01*
G01*
X204213430Y-94408311D02*
G75*
G02*
X203226926Y-91327257I610670J1893985D01*
G01*
X205597880Y-91229310D02*
G75*
G02*
X206136756Y-93240230I-773780J-1285016D01*
G01*
X205613759Y-90687706D02*
G75*
G02*
X206299948Y-93849233I-789659J-1826620D01*
G01*
%TO.C,R6*%
X159014346Y-116133505D02*
X158678813Y-116469038D01*
X159753273Y-116872432D02*
X159417740Y-117207965D01*
%TO.C,D20*%
X188087594Y-124205343D02*
X188047220Y-124054658D01*
X188687017Y-126442427D02*
X188646643Y-126291742D01*
X184966289Y-125041630D02*
G75*
G02*
X188047343Y-124055126I1893985J-610670D01*
G01*
X185575295Y-124878460D02*
G75*
G02*
X187586242Y-124339680I1284979J-773840D01*
G01*
X188145290Y-126426080D02*
G75*
G02*
X186134370Y-126964956I-1285016J773780D01*
G01*
X188686894Y-126441959D02*
G75*
G02*
X185525367Y-127128147I-1826620J789659D01*
G01*
%TO.C,R23*%
X158024036Y-85564949D02*
X157613092Y-85327692D01*
X158546536Y-84659954D02*
X158135592Y-84422697D01*
%TO.C,D14*%
X156300594Y-116058149D02*
X156435693Y-115980147D01*
X158306307Y-114900148D02*
X158441407Y-114822147D01*
X156176174Y-115530647D02*
G75*
G02*
X155135195Y-113727718I414826J1441499D01*
G01*
X156301012Y-116057906D02*
G75*
G02*
X154819941Y-113181707I289991J1968759D01*
G01*
X156690660Y-112101645D02*
G75*
G02*
X158440988Y-114822389I-99662J-1987504D01*
G01*
X157005895Y-112647669D02*
G75*
G02*
X158046788Y-114450647I-414895J-1441479D01*
G01*
%TO.C,RV1*%
X186859800Y-108513200D02*
X186859800Y-108763200D01*
X186859800Y-114223200D02*
X186859800Y-110683200D01*
X186959800Y-108313200D02*
X186959800Y-108513200D01*
X186959800Y-108313200D02*
X188379800Y-108313200D01*
X186959800Y-108513200D02*
X186859800Y-108513200D01*
X188379800Y-108513200D02*
X188379800Y-108313200D01*
X188379800Y-108513200D02*
X191959800Y-108513200D01*
X189659800Y-115533200D02*
X188169800Y-115533200D01*
X191959800Y-108313200D02*
X193379800Y-108313200D01*
X191959800Y-108513200D02*
X191959800Y-108313200D01*
X192169800Y-115533200D02*
X190679800Y-115533200D01*
X193379800Y-108313200D02*
X193379800Y-108513200D01*
X193379800Y-108513200D02*
X193479800Y-108513200D01*
X193479800Y-108513200D02*
X193479800Y-109203200D01*
X193479800Y-110243200D02*
X193479800Y-114223200D01*
X188169800Y-115533200D02*
G75*
G02*
X186859800Y-114223200I0J1310000D01*
G01*
X193479800Y-114223200D02*
G75*
G02*
X192169800Y-115533200I-1310000J0D01*
G01*
D14*
%TO.C,G\u002A\u002A\u002A*%
G36*
X192060424Y-100454580D02*
G01*
X192082729Y-100493716D01*
X192085502Y-100543163D01*
X192074693Y-100585099D01*
X192045881Y-100613526D01*
X192022073Y-100626511D01*
X191970448Y-100649300D01*
X191942055Y-100652667D01*
X191931547Y-100634137D01*
X191933579Y-100591234D01*
X191934227Y-100585827D01*
X191950313Y-100514730D01*
X191976875Y-100464904D01*
X192010823Y-100441560D01*
X192020422Y-100440471D01*
X192060424Y-100454580D01*
G37*
G36*
X195427416Y-100455309D02*
G01*
X195453212Y-100495686D01*
X195460791Y-100545528D01*
X195453584Y-100574859D01*
X195427220Y-100599518D01*
X195386217Y-100621375D01*
X195341067Y-100641672D01*
X195309123Y-100654327D01*
X195301043Y-100656429D01*
X195296422Y-100641588D01*
X195296230Y-100603643D01*
X195298370Y-100573919D01*
X195311571Y-100502206D01*
X195335919Y-100459144D01*
X195373657Y-100441373D01*
X195387486Y-100440471D01*
X195427416Y-100455309D01*
G37*
G36*
X190573717Y-100687674D02*
G01*
X190577931Y-100724823D01*
X190577138Y-100774366D01*
X190571938Y-100826179D01*
X190562928Y-100870139D01*
X190550710Y-100896119D01*
X190513702Y-100918457D01*
X190477560Y-100918503D01*
X190454129Y-100896278D01*
X190454001Y-100895947D01*
X190445982Y-100855609D01*
X190444868Y-100805728D01*
X190450370Y-100762581D01*
X190456631Y-100746833D01*
X190479593Y-100724159D01*
X190514541Y-100698268D01*
X190548026Y-100678410D01*
X190563899Y-100673041D01*
X190573717Y-100687674D01*
G37*
G36*
X188379579Y-100476703D02*
G01*
X188409580Y-100520126D01*
X188429821Y-100591232D01*
X188439297Y-100688406D01*
X188439841Y-100713428D01*
X188435764Y-100814561D01*
X188420678Y-100886372D01*
X188393681Y-100931192D01*
X188353874Y-100951347D01*
X188347458Y-100952307D01*
X188311717Y-100949047D01*
X188286165Y-100923728D01*
X188276980Y-100907448D01*
X188263325Y-100867409D01*
X188255007Y-100807548D01*
X188251387Y-100722319D01*
X188251111Y-100682555D01*
X188251478Y-100604401D01*
X188253556Y-100552561D01*
X188258817Y-100520125D01*
X188268728Y-100500183D01*
X188284760Y-100485826D01*
X188294320Y-100479374D01*
X188340824Y-100462581D01*
X188379579Y-100476703D01*
G37*
G36*
X189816931Y-100231618D02*
G01*
X189889472Y-100258735D01*
X189950768Y-100299555D01*
X189994206Y-100356285D01*
X190021589Y-100433198D01*
X190034725Y-100534562D01*
X190036526Y-100606592D01*
X190032776Y-100706427D01*
X190020450Y-100780880D01*
X189997072Y-100837228D01*
X189960168Y-100882750D01*
X189935338Y-100904145D01*
X189891106Y-100925802D01*
X189833732Y-100937578D01*
X189775837Y-100938621D01*
X189730043Y-100928083D01*
X189716304Y-100918901D01*
X189708926Y-100895209D01*
X189703129Y-100844757D01*
X189698914Y-100773970D01*
X189696281Y-100689274D01*
X189695230Y-100597097D01*
X189695761Y-100503863D01*
X189697874Y-100415999D01*
X189701569Y-100339931D01*
X189706846Y-100282085D01*
X189713704Y-100248888D01*
X189716304Y-100244447D01*
X189757078Y-100226395D01*
X189816931Y-100231618D01*
G37*
G36*
X193063538Y-94706429D02*
G01*
X193099680Y-94737759D01*
X193147506Y-94807081D01*
X193182936Y-94907038D01*
X193205995Y-95037716D01*
X193213223Y-95119683D01*
X193216913Y-95198723D01*
X193215590Y-95252456D01*
X193208628Y-95288511D01*
X193197524Y-95311397D01*
X193172464Y-95333840D01*
X193123724Y-95365549D01*
X193058281Y-95402981D01*
X192983111Y-95442592D01*
X192905189Y-95480839D01*
X192831492Y-95514177D01*
X192768995Y-95539063D01*
X192724676Y-95551954D01*
X192723625Y-95552131D01*
X192666942Y-95561329D01*
X192673499Y-95297270D01*
X192677447Y-95181300D01*
X192683167Y-95092657D01*
X192691275Y-95025460D01*
X192702390Y-94973833D01*
X192709934Y-94950150D01*
X192757480Y-94847255D01*
X192817283Y-94773195D01*
X192892845Y-94724757D01*
X192983106Y-94699436D01*
X193030327Y-94695445D01*
X193063538Y-94706429D01*
G37*
G36*
X190570269Y-95529953D02*
G01*
X190578425Y-95537115D01*
X190584454Y-95554117D01*
X190588564Y-95584924D01*
X190590962Y-95633501D01*
X190591855Y-95703814D01*
X190591450Y-95799829D01*
X190590158Y-95910660D01*
X190585121Y-96281802D01*
X190538331Y-96343100D01*
X190500414Y-96387051D01*
X190462207Y-96422789D01*
X190451750Y-96430471D01*
X190389239Y-96456436D01*
X190318359Y-96463804D01*
X190254225Y-96451537D01*
X190240510Y-96444997D01*
X190204515Y-96414072D01*
X190169424Y-96367595D01*
X190159894Y-96350710D01*
X190144265Y-96316086D01*
X190134580Y-96280806D01*
X190129900Y-96236539D01*
X190129289Y-96174954D01*
X190131442Y-96097857D01*
X190135424Y-96012118D01*
X190141443Y-95949947D01*
X190151387Y-95901687D01*
X190167147Y-95857681D01*
X190186513Y-95816438D01*
X190221993Y-95756187D01*
X190263415Y-95701257D01*
X190292393Y-95671923D01*
X190344652Y-95633600D01*
X190405429Y-95596101D01*
X190466772Y-95563489D01*
X190520726Y-95539828D01*
X190559339Y-95529180D01*
X190570269Y-95529953D01*
G37*
G36*
X188113450Y-93667632D02*
G01*
X188172840Y-93694045D01*
X188236623Y-93725866D01*
X188418274Y-93831377D01*
X188575454Y-93955231D01*
X188714069Y-94102315D01*
X188755814Y-94155544D01*
X188891418Y-94358443D01*
X188996607Y-94567469D01*
X189074189Y-94788767D01*
X189107658Y-94925232D01*
X189124915Y-95036591D01*
X189135578Y-95168606D01*
X189139618Y-95310861D01*
X189137010Y-95452941D01*
X189127728Y-95584429D01*
X189111744Y-95694911D01*
X189109639Y-95705038D01*
X189048796Y-95935150D01*
X188969928Y-96147597D01*
X188874611Y-96339774D01*
X188764416Y-96509076D01*
X188640917Y-96652897D01*
X188505687Y-96768634D01*
X188442151Y-96810424D01*
X188337321Y-96862710D01*
X188206515Y-96910719D01*
X188056927Y-96952084D01*
X187933100Y-96977984D01*
X187872795Y-96987068D01*
X187797372Y-96995715D01*
X187713094Y-97003533D01*
X187626227Y-97010129D01*
X187543034Y-97015114D01*
X187469780Y-97018094D01*
X187412731Y-97018679D01*
X187378151Y-97016477D01*
X187370667Y-97013139D01*
X187379163Y-96995700D01*
X187402040Y-96957022D01*
X187435375Y-96903596D01*
X187459989Y-96865274D01*
X187528303Y-96756199D01*
X187581621Y-96660716D01*
X187625984Y-96566700D01*
X187667434Y-96462029D01*
X187684309Y-96415151D01*
X187717392Y-96314761D01*
X187745576Y-96213409D01*
X187769519Y-96106642D01*
X187789880Y-95990003D01*
X187807316Y-95859038D01*
X187822486Y-95709292D01*
X187836048Y-95536310D01*
X187848659Y-95335637D01*
X187851643Y-95282394D01*
X187864431Y-95054500D01*
X187876204Y-94856381D01*
X187887292Y-94684612D01*
X187898022Y-94535771D01*
X187908722Y-94406435D01*
X187919721Y-94293180D01*
X187931346Y-94192584D01*
X187943927Y-94101222D01*
X187957790Y-94015672D01*
X187973264Y-93932511D01*
X187987817Y-93861667D01*
X188007649Y-93769802D01*
X188024864Y-93707339D01*
X188044726Y-93671405D01*
X188072500Y-93659127D01*
X188113450Y-93667632D01*
G37*
G36*
X192253920Y-89323862D02*
G01*
X192421674Y-89433910D01*
X192568762Y-89530758D01*
X192702424Y-89619235D01*
X192829901Y-89704170D01*
X192958432Y-89790391D01*
X193095258Y-89882728D01*
X193247620Y-89986010D01*
X193297595Y-90019957D01*
X193386646Y-90080313D01*
X193501201Y-90157703D01*
X193639136Y-90250701D01*
X193798328Y-90357886D01*
X193976655Y-90477832D01*
X194171992Y-90609117D01*
X194382218Y-90750318D01*
X194605209Y-90900010D01*
X194838841Y-91056770D01*
X195080993Y-91219174D01*
X195329540Y-91385799D01*
X195582361Y-91555222D01*
X195837331Y-91726019D01*
X196092328Y-91896766D01*
X196345228Y-92066040D01*
X196593909Y-92232417D01*
X196836248Y-92394474D01*
X197070121Y-92550787D01*
X197293405Y-92699932D01*
X197503978Y-92840487D01*
X197529006Y-92857184D01*
X198725081Y-93655139D01*
X198725081Y-96545287D01*
X198725081Y-99435435D01*
X196972498Y-100602827D01*
X196640127Y-100824175D01*
X196322138Y-101035849D01*
X196015232Y-101240040D01*
X195716107Y-101438937D01*
X195421463Y-101634729D01*
X195127999Y-101829607D01*
X194832414Y-102025761D01*
X194531408Y-102225380D01*
X194221679Y-102430655D01*
X193899927Y-102643775D01*
X193562852Y-102866930D01*
X193207152Y-103102309D01*
X192829527Y-103352103D01*
X192524434Y-103553863D01*
X192400994Y-103635319D01*
X192285774Y-103711028D01*
X192181806Y-103779024D01*
X192092119Y-103837339D01*
X192019743Y-103884005D01*
X191967708Y-103917055D01*
X191939046Y-103934523D01*
X191934702Y-103936740D01*
X191919042Y-103928299D01*
X191877111Y-103902235D01*
X191810234Y-103859427D01*
X191719736Y-103800750D01*
X191606945Y-103727081D01*
X191473186Y-103639298D01*
X191319785Y-103538277D01*
X191148068Y-103424895D01*
X190959361Y-103300029D01*
X190754991Y-103164556D01*
X190536282Y-103019353D01*
X190304562Y-102865295D01*
X190061156Y-102703261D01*
X189807390Y-102534127D01*
X189544591Y-102358770D01*
X189274084Y-102178067D01*
X189181393Y-102116102D01*
X188898467Y-101926928D01*
X188617119Y-101738810D01*
X188339094Y-101552917D01*
X188066136Y-101370413D01*
X187799990Y-101192465D01*
X187721887Y-101140245D01*
X188591208Y-101140245D01*
X188593288Y-101201302D01*
X188607188Y-101230224D01*
X188644838Y-101260219D01*
X188699500Y-101272558D01*
X188759774Y-101266799D01*
X188814256Y-101242504D01*
X188819742Y-101238418D01*
X188856355Y-101199114D01*
X188879345Y-101159510D01*
X188896229Y-101114843D01*
X188921662Y-101045702D01*
X188934164Y-101011274D01*
X189475175Y-101011274D01*
X189476107Y-101012520D01*
X189499497Y-101018907D01*
X189548361Y-101021456D01*
X189615229Y-101020643D01*
X189692632Y-101016943D01*
X189773100Y-101010832D01*
X189849163Y-101002787D01*
X189913353Y-100993283D01*
X189958199Y-100982796D01*
X189961691Y-100981581D01*
X190047341Y-100937803D01*
X190112037Y-100875220D01*
X190115424Y-100868989D01*
X190294996Y-100868989D01*
X190306615Y-100941055D01*
X190340915Y-100991028D01*
X190395026Y-101016128D01*
X190447618Y-101016862D01*
X190499980Y-101002711D01*
X190542988Y-100979345D01*
X190549005Y-100974028D01*
X190582769Y-100940264D01*
X190600942Y-100976927D01*
X190632941Y-101008512D01*
X190679091Y-101018456D01*
X190723930Y-101005284D01*
X190820206Y-101005284D01*
X190958894Y-101005284D01*
X191097583Y-101005284D01*
X191451468Y-101005284D01*
X191590157Y-101005284D01*
X191728845Y-101005284D01*
X191691931Y-100965990D01*
X191678383Y-100950096D01*
X191668754Y-100932222D01*
X191662502Y-100906983D01*
X191659083Y-100868994D01*
X191657954Y-100812871D01*
X191658573Y-100733230D01*
X191659964Y-100648878D01*
X191660253Y-100632633D01*
X191791279Y-100632633D01*
X191792034Y-100697748D01*
X191793237Y-100727107D01*
X191801323Y-100820535D01*
X191818184Y-100888266D01*
X191847305Y-100937403D01*
X191892171Y-100975049D01*
X191923581Y-100992799D01*
X192005254Y-101019119D01*
X192083462Y-101012589D01*
X192121562Y-100997073D01*
X192173245Y-100959375D01*
X192209242Y-100912040D01*
X192221419Y-100869191D01*
X192218089Y-100853490D01*
X192203505Y-100854831D01*
X192170777Y-100874582D01*
X192160958Y-100881194D01*
X192096452Y-100914465D01*
X192042051Y-100918232D01*
X191999759Y-100897966D01*
X191976539Y-100870147D01*
X191954538Y-100828233D01*
X191938326Y-100783838D01*
X191932472Y-100748577D01*
X191936147Y-100736291D01*
X191955785Y-100724814D01*
X191998036Y-100704537D01*
X192054790Y-100679300D01*
X192071909Y-100671980D01*
X192131526Y-100645131D01*
X192178975Y-100620819D01*
X192206005Y-100603362D01*
X192208705Y-100600425D01*
X192222172Y-100551134D01*
X192208780Y-100493123D01*
X192170449Y-100434278D01*
X192167429Y-100430927D01*
X192126783Y-100392715D01*
X192088170Y-100375243D01*
X192043556Y-100371080D01*
X191957919Y-100385057D01*
X191886145Y-100428990D01*
X191829470Y-100502103D01*
X191826720Y-100507135D01*
X191807005Y-100547950D01*
X191795731Y-100586242D01*
X191791279Y-100632633D01*
X191660253Y-100632633D01*
X191664911Y-100371059D01*
X191603591Y-100380887D01*
X191548486Y-100392492D01*
X191499179Y-100407109D01*
X191497347Y-100407795D01*
X191452423Y-100424875D01*
X191488065Y-100462815D01*
X191502834Y-100481153D01*
X191512865Y-100503293D01*
X191519063Y-100535609D01*
X191522328Y-100584476D01*
X191523565Y-100656268D01*
X191523708Y-100714572D01*
X191523283Y-100803543D01*
X191521397Y-100865684D01*
X191517136Y-100907385D01*
X191509586Y-100935033D01*
X191497830Y-100955020D01*
X191487588Y-100966836D01*
X191451468Y-101005284D01*
X191097583Y-101005284D01*
X191061463Y-100966836D01*
X191041432Y-100934869D01*
X191029302Y-100887359D01*
X191024760Y-100819977D01*
X191027494Y-100728398D01*
X191036288Y-100617783D01*
X191044102Y-100554068D01*
X191054869Y-100514461D01*
X191071903Y-100489852D01*
X191087082Y-100478117D01*
X191117399Y-100461851D01*
X191139613Y-100466694D01*
X191163469Y-100488088D01*
X191177999Y-100505230D01*
X191188437Y-100526862D01*
X191195751Y-100558898D01*
X191200910Y-100607250D01*
X191204881Y-100677832D01*
X191208077Y-100760651D01*
X191216383Y-100996978D01*
X191303597Y-101001999D01*
X191361243Y-101001706D01*
X191387557Y-100992017D01*
X191383223Y-100972423D01*
X191365892Y-100955448D01*
X191355416Y-100940196D01*
X191348179Y-100911411D01*
X191343663Y-100864005D01*
X191341351Y-100792887D01*
X191340729Y-100708384D01*
X191339344Y-100600598D01*
X191334537Y-100520781D01*
X191324932Y-100463744D01*
X191309150Y-100424296D01*
X191285814Y-100397245D01*
X191253546Y-100377401D01*
X191252802Y-100377043D01*
X191194065Y-100365842D01*
X191130945Y-100380681D01*
X191074551Y-100418207D01*
X191058827Y-100435608D01*
X191025343Y-100478176D01*
X191025343Y-100426099D01*
X191022751Y-100393398D01*
X191010370Y-100378053D01*
X190981293Y-100377950D01*
X190928613Y-100390974D01*
X190919291Y-100393630D01*
X190870826Y-100407901D01*
X190848788Y-100418663D01*
X190847923Y-100432413D01*
X190862977Y-100455644D01*
X190865833Y-100459705D01*
X190877442Y-100483391D01*
X190885286Y-100519221D01*
X190889977Y-100573009D01*
X190892124Y-100650571D01*
X190892446Y-100713044D01*
X190892027Y-100802358D01*
X190890168Y-100864812D01*
X190885964Y-100906762D01*
X190878510Y-100934568D01*
X190866900Y-100954589D01*
X190856326Y-100966836D01*
X190820206Y-101005284D01*
X190723930Y-101005284D01*
X190726565Y-101004510D01*
X190733142Y-101000121D01*
X190754065Y-100981159D01*
X190752789Y-100961856D01*
X190737280Y-100937578D01*
X190725529Y-100914589D01*
X190717525Y-100881173D01*
X190712641Y-100831405D01*
X190710251Y-100759361D01*
X190709712Y-100676896D01*
X190709421Y-100586951D01*
X190707897Y-100523950D01*
X190704163Y-100481613D01*
X190697242Y-100453661D01*
X190686157Y-100433815D01*
X190669932Y-100415794D01*
X190668937Y-100414797D01*
X190637504Y-100389928D01*
X190599673Y-100377625D01*
X190542848Y-100374048D01*
X190535214Y-100374022D01*
X190443222Y-100382206D01*
X190378910Y-100407404D01*
X190340862Y-100450589D01*
X190327665Y-100512732D01*
X190327632Y-100516584D01*
X190335157Y-100547621D01*
X190363695Y-100556707D01*
X190367537Y-100556756D01*
X190401704Y-100546224D01*
X190423732Y-100509978D01*
X190424612Y-100507504D01*
X190454305Y-100462873D01*
X190484595Y-100447506D01*
X190533564Y-100447179D01*
X190564111Y-100473662D01*
X190574191Y-100524855D01*
X190573501Y-100538722D01*
X190568653Y-100570135D01*
X190556066Y-100593778D01*
X190529259Y-100616145D01*
X190481751Y-100643726D01*
X190453920Y-100658505D01*
X190379551Y-100702130D01*
X190331882Y-100743607D01*
X190305661Y-100789894D01*
X190295634Y-100847947D01*
X190294996Y-100868989D01*
X190115424Y-100868989D01*
X190158229Y-100790246D01*
X190188372Y-100679293D01*
X190194582Y-100640894D01*
X190200619Y-100519749D01*
X190184596Y-100408742D01*
X190148280Y-100313075D01*
X190093433Y-100237949D01*
X190052220Y-100205957D01*
X191497320Y-100205957D01*
X191499617Y-100229515D01*
X191522403Y-100270922D01*
X191556796Y-100300358D01*
X191581329Y-100307573D01*
X191607470Y-100298752D01*
X191636297Y-100281713D01*
X191667756Y-100242145D01*
X191669365Y-100190946D01*
X191656021Y-100156972D01*
X191637454Y-100140314D01*
X192307385Y-100140314D01*
X192318123Y-100161520D01*
X192332211Y-100177784D01*
X192341309Y-100191183D01*
X192348080Y-100211403D01*
X192352781Y-100242787D01*
X192355669Y-100289673D01*
X192357001Y-100356404D01*
X192357035Y-100447318D01*
X192356027Y-100566757D01*
X192355908Y-100577784D01*
X192354227Y-100701471D01*
X192352021Y-100796110D01*
X192348972Y-100865876D01*
X192344764Y-100914947D01*
X192339077Y-100947497D01*
X192331596Y-100967702D01*
X192325602Y-100976213D01*
X192314637Y-100990723D01*
X192317716Y-100999382D01*
X192340179Y-101003692D01*
X192387366Y-101005152D01*
X192429071Y-101005284D01*
X192493461Y-101004856D01*
X192529950Y-101002518D01*
X192543862Y-100996688D01*
X192540517Y-100985784D01*
X192531319Y-100974905D01*
X192522830Y-100962139D01*
X192516260Y-100942255D01*
X192511373Y-100911287D01*
X192507931Y-100865271D01*
X192507176Y-100843316D01*
X192869520Y-100843316D01*
X192870230Y-100919557D01*
X192875945Y-100968849D01*
X192892645Y-100997296D01*
X192926308Y-101011001D01*
X192982914Y-101016066D01*
X193040434Y-101017767D01*
X193118432Y-101018644D01*
X193172252Y-101015369D01*
X193210813Y-101006718D01*
X193243034Y-100991466D01*
X193246317Y-100989489D01*
X193308204Y-100939028D01*
X193344328Y-100875880D01*
X193358343Y-100793037D01*
X193358814Y-100773596D01*
X193355100Y-100709525D01*
X193340061Y-100657919D01*
X193309101Y-100611978D01*
X193257624Y-100564905D01*
X193181036Y-100509901D01*
X193180195Y-100509333D01*
X193108491Y-100459544D01*
X193080271Y-100437270D01*
X193459216Y-100437270D01*
X193474343Y-100455652D01*
X193485661Y-100472502D01*
X193493178Y-100497307D01*
X193497396Y-100535821D01*
X193498815Y-100593800D01*
X193497938Y-100677000D01*
X193497097Y-100716872D01*
X193494196Y-100803149D01*
X193489908Y-100879125D01*
X193484754Y-100937779D01*
X193479257Y-100972091D01*
X193477810Y-100976213D01*
X193473639Y-100991199D01*
X193483170Y-100999936D01*
X193512441Y-101004073D01*
X193567496Y-101005257D01*
X193584414Y-101005284D01*
X193645924Y-101004811D01*
X193679613Y-101002217D01*
X193690879Y-100995741D01*
X193685123Y-100983621D01*
X193677558Y-100974905D01*
X193667341Y-100959203D01*
X193659950Y-100934810D01*
X193654956Y-100896773D01*
X193651930Y-100840136D01*
X193650443Y-100759944D01*
X193650343Y-100732742D01*
X193766350Y-100732742D01*
X193777810Y-100838187D01*
X193811299Y-100921280D01*
X193865479Y-100980348D01*
X193939013Y-101013720D01*
X193996722Y-101020844D01*
X194038819Y-101015060D01*
X194055886Y-101005284D01*
X194209087Y-101005284D01*
X194356883Y-101005284D01*
X194426300Y-101004898D01*
X194467158Y-101003013D01*
X194484117Y-100998543D01*
X194481841Y-100990401D01*
X194467757Y-100979424D01*
X194452842Y-100967148D01*
X194442594Y-100950974D01*
X194436141Y-100925028D01*
X194432612Y-100883437D01*
X194431134Y-100820326D01*
X194430837Y-100730625D01*
X194431089Y-100640593D01*
X194432463Y-100577922D01*
X194435882Y-100536748D01*
X194442272Y-100511207D01*
X194452555Y-100495436D01*
X194467656Y-100483572D01*
X194470026Y-100482007D01*
X194517548Y-100465531D01*
X194557103Y-100480612D01*
X194581619Y-100518573D01*
X194587704Y-100550824D01*
X194592646Y-100607949D01*
X194595907Y-100681603D01*
X194596958Y-100755825D01*
X194597777Y-100835477D01*
X194600004Y-100904430D01*
X194603291Y-100955025D01*
X194607042Y-100979007D01*
X194625553Y-100996524D01*
X194667531Y-101004410D01*
X194698409Y-101005284D01*
X194824379Y-101005284D01*
X194962747Y-101005284D01*
X195101115Y-101005284D01*
X195064995Y-100966836D01*
X195054007Y-100954041D01*
X195045508Y-100939170D01*
X195039178Y-100918098D01*
X195034698Y-100886698D01*
X195031749Y-100840842D01*
X195030012Y-100776406D01*
X195029660Y-100740088D01*
X195146357Y-100740088D01*
X195150460Y-100788913D01*
X195164903Y-100834989D01*
X195184619Y-100877947D01*
X195236296Y-100953884D01*
X195301183Y-101002679D01*
X195374653Y-101022723D01*
X195452082Y-101012407D01*
X195467137Y-101005284D01*
X195654988Y-101005284D01*
X195793355Y-101005284D01*
X195931723Y-101005284D01*
X195895603Y-100966836D01*
X195879019Y-100945810D01*
X195868416Y-100920325D01*
X195862494Y-100882878D01*
X195859954Y-100825969D01*
X195859483Y-100758359D01*
X195861670Y-100662354D01*
X195868654Y-100593892D01*
X195881074Y-100547553D01*
X195885362Y-100538286D01*
X195913700Y-100502951D01*
X195943089Y-100494592D01*
X195965782Y-100513311D01*
X195972896Y-100537118D01*
X195984772Y-100565142D01*
X196005301Y-100563785D01*
X196030258Y-100534292D01*
X196039252Y-100517564D01*
X196053629Y-100461339D01*
X196041799Y-100414465D01*
X196006854Y-100384146D01*
X195979021Y-100377151D01*
X195940573Y-100378618D01*
X195913349Y-100397792D01*
X195893148Y-100426987D01*
X195859607Y-100482001D01*
X195859545Y-100428012D01*
X195854779Y-100391267D01*
X195843253Y-100374177D01*
X195841921Y-100374022D01*
X195807801Y-100378563D01*
X195761122Y-100389792D01*
X195714038Y-100404121D01*
X195678703Y-100417964D01*
X195667400Y-100425546D01*
X195670487Y-100446961D01*
X195689446Y-100481231D01*
X195694044Y-100487678D01*
X195709098Y-100510824D01*
X195718868Y-100536298D01*
X195724197Y-100571098D01*
X195725926Y-100622222D01*
X195724898Y-100696668D01*
X195723876Y-100735524D01*
X195720653Y-100823724D01*
X195716114Y-100885124D01*
X195709239Y-100926147D01*
X195699011Y-100953217D01*
X195686634Y-100970368D01*
X195654988Y-101005284D01*
X195467137Y-101005284D01*
X195502559Y-100988525D01*
X195538065Y-100958324D01*
X195568609Y-100918758D01*
X195588393Y-100879540D01*
X195591620Y-100850380D01*
X195588320Y-100844869D01*
X195570858Y-100848283D01*
X195539049Y-100868710D01*
X195526667Y-100878626D01*
X195467542Y-100914598D01*
X195412013Y-100918417D01*
X195365301Y-100896704D01*
X195339066Y-100867141D01*
X195316429Y-100823442D01*
X195301432Y-100777016D01*
X195298115Y-100739272D01*
X195304339Y-100724612D01*
X195326319Y-100712365D01*
X195370684Y-100692462D01*
X195428662Y-100668793D01*
X195441064Y-100663971D01*
X195518098Y-100629969D01*
X195565863Y-100597110D01*
X195587960Y-100561711D01*
X195587992Y-100520090D01*
X195586800Y-100514959D01*
X195555013Y-100448195D01*
X195502069Y-100398138D01*
X195436176Y-100369340D01*
X195365541Y-100366356D01*
X195334097Y-100374761D01*
X195257184Y-100418531D01*
X195201502Y-100484568D01*
X195165774Y-100574946D01*
X195150053Y-100673485D01*
X195146357Y-100740088D01*
X195029660Y-100740088D01*
X195029167Y-100689261D01*
X195028895Y-100575282D01*
X195028875Y-100499895D01*
X195028875Y-100071401D01*
X194985406Y-100082311D01*
X194934428Y-100094215D01*
X194894039Y-100102801D01*
X194855723Y-100119271D01*
X194848492Y-100145003D01*
X194871922Y-100175392D01*
X194880393Y-100186385D01*
X194886652Y-100206113D01*
X194890918Y-100238731D01*
X194893414Y-100288391D01*
X194894359Y-100359248D01*
X194893974Y-100455456D01*
X194892687Y-100566106D01*
X194890827Y-100687304D01*
X194888700Y-100779725D01*
X194885903Y-100847813D01*
X194882033Y-100896015D01*
X194876688Y-100928777D01*
X194869463Y-100950545D01*
X194859955Y-100965764D01*
X194856025Y-100970353D01*
X194824379Y-101005284D01*
X194698409Y-101005284D01*
X194753341Y-101001768D01*
X194776944Y-100990499D01*
X194770438Y-100970401D01*
X194754774Y-100955448D01*
X194744557Y-100940683D01*
X194737438Y-100912859D01*
X194732935Y-100866986D01*
X194730568Y-100798076D01*
X194729857Y-100701140D01*
X194729856Y-100696852D01*
X194729545Y-100602702D01*
X194728062Y-100535686D01*
X194724582Y-100489715D01*
X194718282Y-100458699D01*
X194708336Y-100436550D01*
X194693919Y-100417178D01*
X194691612Y-100414475D01*
X194640717Y-100378549D01*
X194578158Y-100368264D01*
X194513196Y-100383449D01*
X194460391Y-100418695D01*
X194411262Y-100465389D01*
X194423351Y-100275963D01*
X194435440Y-100086536D01*
X194395761Y-100097391D01*
X194351975Y-100107586D01*
X194298577Y-100117852D01*
X194293786Y-100118666D01*
X194248030Y-100129941D01*
X194233422Y-100145085D01*
X194247892Y-100167198D01*
X194256409Y-100174676D01*
X194264750Y-100186439D01*
X194271061Y-100208754D01*
X194275603Y-100245668D01*
X194278635Y-100301230D01*
X194280419Y-100379490D01*
X194281215Y-100484496D01*
X194281327Y-100561872D01*
X194281197Y-100681532D01*
X194280536Y-100772497D01*
X194278941Y-100839297D01*
X194276008Y-100886463D01*
X194271332Y-100918523D01*
X194264511Y-100940008D01*
X194255138Y-100955447D01*
X194245207Y-100966836D01*
X194209087Y-101005284D01*
X194055886Y-101005284D01*
X194079024Y-100992030D01*
X194117160Y-100957402D01*
X194155185Y-100914441D01*
X194177619Y-100879649D01*
X194183701Y-100857463D01*
X194172673Y-100852320D01*
X194143776Y-100868655D01*
X194130543Y-100879216D01*
X194070371Y-100916264D01*
X194017465Y-100922198D01*
X193973708Y-100898690D01*
X193940979Y-100847412D01*
X193921159Y-100770035D01*
X193915860Y-100688436D01*
X193921199Y-100580960D01*
X193937240Y-100504823D01*
X193964019Y-100459900D01*
X193983548Y-100448383D01*
X194017994Y-100444641D01*
X194044354Y-100462605D01*
X194069201Y-100507331D01*
X194073613Y-100517640D01*
X194099312Y-100560531D01*
X194125571Y-100570494D01*
X194161573Y-100550552D01*
X194176154Y-100514624D01*
X194170932Y-100470666D01*
X194147521Y-100426630D01*
X194107540Y-100390473D01*
X194086818Y-100379808D01*
X194012832Y-100364440D01*
X193943237Y-100378901D01*
X193881092Y-100419821D01*
X193829458Y-100483830D01*
X193791394Y-100567560D01*
X193769958Y-100667641D01*
X193766350Y-100732742D01*
X193650343Y-100732742D01*
X193650065Y-100657425D01*
X193650065Y-100370325D01*
X193590149Y-100381565D01*
X193536580Y-100393904D01*
X193489643Y-100408243D01*
X193488283Y-100408754D01*
X193459693Y-100422252D01*
X193459216Y-100437270D01*
X193080271Y-100437270D01*
X193060691Y-100421815D01*
X193032188Y-100391145D01*
X193018378Y-100362534D01*
X193014654Y-100330980D01*
X193014650Y-100329583D01*
X193029329Y-100281800D01*
X193068228Y-100250156D01*
X193112767Y-100241125D01*
X193150364Y-100253123D01*
X193196490Y-100283185D01*
X193240259Y-100322415D01*
X193270784Y-100361914D01*
X193276616Y-100375045D01*
X193290723Y-100404907D01*
X193303007Y-100404070D01*
X193312260Y-100375051D01*
X193317271Y-100320371D01*
X193317822Y-100289160D01*
X193317359Y-100227991D01*
X193316540Y-100218704D01*
X193483943Y-100218704D01*
X193496534Y-100269984D01*
X193528717Y-100300033D01*
X193572112Y-100305063D01*
X193618338Y-100281283D01*
X193619686Y-100280081D01*
X193643364Y-100240963D01*
X193649029Y-100192648D01*
X193635453Y-100151070D01*
X193630130Y-100144774D01*
X193599067Y-100129424D01*
X193567004Y-100124840D01*
X193517704Y-100135873D01*
X193490721Y-100170374D01*
X193483943Y-100218704D01*
X193316540Y-100218704D01*
X193314316Y-100193482D01*
X193306210Y-100179073D01*
X193290559Y-100178199D01*
X193277025Y-100181314D01*
X193235844Y-100183377D01*
X193181516Y-100176277D01*
X193162179Y-100171748D01*
X193072118Y-100161585D01*
X192994622Y-100179929D01*
X192933707Y-100223800D01*
X192893386Y-100290216D01*
X192877674Y-100376197D01*
X192877599Y-100383059D01*
X192882199Y-100443343D01*
X192899006Y-100493321D01*
X192932527Y-100539331D01*
X192987271Y-100587713D01*
X193060172Y-100639708D01*
X193148439Y-100707143D01*
X193204459Y-100768486D01*
X193228161Y-100823570D01*
X193219476Y-100872229D01*
X193178335Y-100914298D01*
X193176034Y-100915828D01*
X193123277Y-100932140D01*
X193062971Y-100922942D01*
X193003040Y-100892126D01*
X192951405Y-100843585D01*
X192919269Y-100789663D01*
X192898725Y-100750265D01*
X192883451Y-100743462D01*
X192873675Y-100769009D01*
X192869622Y-100826661D01*
X192869520Y-100843316D01*
X192507176Y-100843316D01*
X192505695Y-100800243D01*
X192504429Y-100712236D01*
X192503894Y-100597287D01*
X192503826Y-100516133D01*
X192503826Y-100087740D01*
X192466448Y-100098850D01*
X192424412Y-100108967D01*
X192371919Y-100118774D01*
X192366775Y-100119587D01*
X192322377Y-100128399D01*
X192307385Y-100140314D01*
X191637454Y-100140314D01*
X191626899Y-100130844D01*
X191587164Y-100126994D01*
X191546120Y-100141106D01*
X191513071Y-100168865D01*
X191497320Y-100205957D01*
X190052220Y-100205957D01*
X190045216Y-100200520D01*
X190018272Y-100186903D01*
X189987167Y-100177199D01*
X189945631Y-100170628D01*
X189887391Y-100166411D01*
X189806176Y-100163767D01*
X189739927Y-100162551D01*
X189652093Y-100161800D01*
X189575946Y-100162291D01*
X189517721Y-100163897D01*
X189483655Y-100166488D01*
X189477856Y-100167949D01*
X189477977Y-100184882D01*
X189496315Y-100216092D01*
X189505865Y-100228178D01*
X189548788Y-100279189D01*
X189543671Y-100599410D01*
X189541719Y-100710466D01*
X189539525Y-100793241D01*
X189536505Y-100852676D01*
X189532074Y-100893711D01*
X189525646Y-100921287D01*
X189516636Y-100940347D01*
X189504460Y-100955830D01*
X189501025Y-100959537D01*
X189478952Y-100990058D01*
X189475175Y-101011274D01*
X188934164Y-101011274D01*
X188953163Y-100958955D01*
X188988252Y-100861467D01*
X189024451Y-100760107D01*
X189059279Y-100661740D01*
X189066405Y-100641487D01*
X189094157Y-100568892D01*
X189123129Y-100503578D01*
X189148863Y-100455191D01*
X189159636Y-100439743D01*
X189185059Y-100406988D01*
X189197696Y-100385725D01*
X189198005Y-100384083D01*
X189182910Y-100378776D01*
X189143675Y-100375131D01*
X189098332Y-100374022D01*
X189036623Y-100377510D01*
X189003342Y-100387405D01*
X189000198Y-100402851D01*
X189015271Y-100415553D01*
X189027769Y-100438273D01*
X189031883Y-100469543D01*
X189027711Y-100504694D01*
X189016797Y-100556734D01*
X189001543Y-100617140D01*
X188984351Y-100677390D01*
X188967623Y-100728961D01*
X188953763Y-100763329D01*
X188946430Y-100772714D01*
X188935960Y-100758198D01*
X188918658Y-100720089D01*
X188897471Y-100666550D01*
X188875344Y-100605741D01*
X188855224Y-100545824D01*
X188840055Y-100494958D01*
X188832785Y-100461307D01*
X188832537Y-100457195D01*
X188840367Y-100425756D01*
X188849149Y-100415553D01*
X188865128Y-100394315D01*
X188865762Y-100389654D01*
X188850802Y-100382530D01*
X188812422Y-100377482D01*
X188760371Y-100374677D01*
X188704400Y-100374278D01*
X188654256Y-100376451D01*
X188619689Y-100381362D01*
X188610809Y-100385329D01*
X188613210Y-100403609D01*
X188633798Y-100433834D01*
X188638656Y-100439319D01*
X188657793Y-100469216D01*
X188685155Y-100523990D01*
X188717822Y-100597221D01*
X188752877Y-100682485D01*
X188773764Y-100736545D01*
X188869718Y-100991089D01*
X188840520Y-101055837D01*
X188802830Y-101120842D01*
X188762782Y-101157994D01*
X188723622Y-101166203D01*
X188688594Y-101144380D01*
X188669442Y-101113272D01*
X188646060Y-101084243D01*
X188620630Y-101085509D01*
X188598935Y-101115075D01*
X188591208Y-101140245D01*
X187721887Y-101140245D01*
X187542400Y-101020240D01*
X187295113Y-100854905D01*
X187059872Y-100697626D01*
X186838422Y-100549569D01*
X186632508Y-100411902D01*
X186443874Y-100285790D01*
X186274267Y-100172400D01*
X186190549Y-100116433D01*
X188062101Y-100116433D01*
X188068221Y-100133821D01*
X188076555Y-100146309D01*
X188084478Y-100162689D01*
X188090599Y-100189023D01*
X188095130Y-100229193D01*
X188098283Y-100287083D01*
X188100272Y-100366577D01*
X188101307Y-100471558D01*
X188101602Y-100604557D01*
X188101690Y-100733557D01*
X188102137Y-100832869D01*
X188103214Y-100906031D01*
X188105193Y-100956579D01*
X188108346Y-100988050D01*
X188112945Y-101003981D01*
X188119263Y-101007909D01*
X188127571Y-101003370D01*
X188131981Y-100999553D01*
X188161795Y-100978237D01*
X188179266Y-100972060D01*
X188204383Y-100978964D01*
X188243831Y-100995891D01*
X188250093Y-100998960D01*
X188324182Y-101019089D01*
X188398514Y-101009893D01*
X188467007Y-100974663D01*
X188523580Y-100916691D01*
X188562152Y-100839268D01*
X188565436Y-100828272D01*
X188578651Y-100752898D01*
X188582542Y-100665721D01*
X188577154Y-100581841D01*
X188564482Y-100521857D01*
X188528132Y-100449944D01*
X188477896Y-100400141D01*
X188419556Y-100374693D01*
X188358896Y-100375846D01*
X188301697Y-100405844D01*
X188291006Y-100415678D01*
X188249351Y-100457334D01*
X188252241Y-100262015D01*
X188252219Y-100186281D01*
X188250019Y-100124768D01*
X188246024Y-100083823D01*
X188240662Y-100069780D01*
X188215716Y-100074539D01*
X188173850Y-100082099D01*
X188168051Y-100083125D01*
X188106832Y-100094665D01*
X188073243Y-100104574D01*
X188062101Y-100116433D01*
X186190549Y-100116433D01*
X186125429Y-100072899D01*
X185999107Y-99988453D01*
X185897044Y-99920229D01*
X185825735Y-99872566D01*
X185695795Y-99785525D01*
X185636746Y-99745788D01*
X189850823Y-99745788D01*
X189878383Y-99830650D01*
X189935026Y-99904223D01*
X190017764Y-99963900D01*
X190123610Y-100007074D01*
X190161510Y-100016896D01*
X190255530Y-100030381D01*
X190368615Y-100034632D01*
X190488033Y-100030036D01*
X190601048Y-100016981D01*
X190676488Y-100001197D01*
X190819978Y-99950421D01*
X190962962Y-99874800D01*
X191106696Y-99773172D01*
X191252440Y-99644377D01*
X191401452Y-99487251D01*
X191554990Y-99300634D01*
X191714313Y-99083363D01*
X191788652Y-98974656D01*
X191824293Y-98924213D01*
X191853566Y-98887766D01*
X191871422Y-98871445D01*
X191873705Y-98871327D01*
X191879125Y-98889687D01*
X191885373Y-98934290D01*
X191891633Y-98998195D01*
X191896540Y-99065459D01*
X191909019Y-99211713D01*
X191927263Y-99331088D01*
X191952760Y-99429653D01*
X191986995Y-99513478D01*
X192020775Y-99572615D01*
X192114394Y-99689319D01*
X192227243Y-99779128D01*
X192359930Y-99842434D01*
X192489860Y-99875891D01*
X192606652Y-99885057D01*
X192717995Y-99873086D01*
X192819384Y-99842426D01*
X192906314Y-99795524D01*
X192974278Y-99734829D01*
X193018772Y-99662789D01*
X193035289Y-99581852D01*
X193035305Y-99579513D01*
X193029437Y-99523437D01*
X193006705Y-99480873D01*
X192986856Y-99459075D01*
X192937795Y-99423675D01*
X192888845Y-99411018D01*
X192848645Y-99422710D01*
X192839215Y-99431644D01*
X192830335Y-99458682D01*
X192825197Y-99507245D01*
X192824722Y-99554400D01*
X192824004Y-99618042D01*
X192815597Y-99659748D01*
X192797142Y-99690380D01*
X192794539Y-99693381D01*
X192731556Y-99740884D01*
X192650945Y-99768068D01*
X192561504Y-99774754D01*
X192472031Y-99760760D01*
X192391326Y-99725904D01*
X192359036Y-99702359D01*
X192330377Y-99674298D01*
X192325284Y-99654448D01*
X192337146Y-99635453D01*
X192347405Y-99617461D01*
X192342373Y-99598692D01*
X192318044Y-99572068D01*
X192284516Y-99542514D01*
X192222982Y-99474843D01*
X192171874Y-99384534D01*
X192129574Y-99268092D01*
X192098142Y-99140224D01*
X192079246Y-99013024D01*
X192073615Y-98885284D01*
X192080615Y-98763973D01*
X192099613Y-98656060D01*
X192129977Y-98568514D01*
X192153719Y-98528211D01*
X192175515Y-98496954D01*
X192184193Y-98480831D01*
X192183784Y-98480235D01*
X192167988Y-98487778D01*
X192129172Y-98508262D01*
X192073348Y-98538471D01*
X192013014Y-98571602D01*
X191946186Y-98607969D01*
X191890056Y-98637470D01*
X191850938Y-98656856D01*
X191835526Y-98662969D01*
X191821211Y-98676373D01*
X191799792Y-98709997D01*
X191791477Y-98725548D01*
X191757292Y-98782796D01*
X191704528Y-98858963D01*
X191637408Y-98948804D01*
X191560157Y-99047073D01*
X191476996Y-99148527D01*
X191392150Y-99247920D01*
X191309841Y-99340006D01*
X191234294Y-99419541D01*
X191225827Y-99428049D01*
X191092714Y-99554351D01*
X190970234Y-99655730D01*
X190852820Y-99736270D01*
X190734904Y-99800057D01*
X190693100Y-99818915D01*
X190633850Y-99842168D01*
X190580588Y-99856332D01*
X190520943Y-99863612D01*
X190442544Y-99866213D01*
X190427002Y-99866345D01*
X190339085Y-99864926D01*
X190274541Y-99858491D01*
X190223723Y-99845734D01*
X190197527Y-99835280D01*
X190126757Y-99786291D01*
X190075068Y-99715640D01*
X190047959Y-99631989D01*
X190045225Y-99595423D01*
X190038786Y-99541590D01*
X190018013Y-99517062D01*
X189980727Y-99520737D01*
X189939622Y-99541945D01*
X189881760Y-99595276D01*
X189852203Y-99665530D01*
X189850823Y-99745788D01*
X185636746Y-99745788D01*
X185573388Y-99703151D01*
X185461499Y-99627480D01*
X185363112Y-99560548D01*
X185281212Y-99504390D01*
X185218783Y-99461042D01*
X185178811Y-99432541D01*
X185165402Y-99422167D01*
X185128024Y-99388113D01*
X185128054Y-98822524D01*
X187620959Y-98822524D01*
X187626371Y-98874127D01*
X187641585Y-98922363D01*
X187662972Y-98969088D01*
X187727268Y-99064462D01*
X187817176Y-99145638D01*
X187926498Y-99208001D01*
X188030742Y-99242932D01*
X188089428Y-99254392D01*
X188141771Y-99257445D01*
X188198099Y-99251257D01*
X188268740Y-99234990D01*
X188325654Y-99219072D01*
X188499797Y-99158130D01*
X188686457Y-99073947D01*
X188879027Y-98970450D01*
X189070899Y-98851565D01*
X189255464Y-98721220D01*
X189426115Y-98583340D01*
X189486557Y-98529217D01*
X189600681Y-98423805D01*
X189555325Y-98384791D01*
X189509969Y-98345778D01*
X189416283Y-98434386D01*
X189275184Y-98557426D01*
X189130978Y-98663848D01*
X189014105Y-98735342D01*
X188957676Y-98765138D01*
X188921090Y-98780135D01*
X188895571Y-98782413D01*
X188872344Y-98774052D01*
X188865762Y-98770483D01*
X188817146Y-98752342D01*
X188778548Y-98746619D01*
X188747792Y-98749878D01*
X188735179Y-98767323D01*
X188732864Y-98804125D01*
X188717228Y-98865176D01*
X188673850Y-98926547D01*
X188608031Y-98985061D01*
X188525069Y-99037542D01*
X188430263Y-99080812D01*
X188328912Y-99111695D01*
X188226316Y-99127012D01*
X188192494Y-99128110D01*
X188083967Y-99115662D01*
X187979588Y-99081042D01*
X187888037Y-99028337D01*
X187817995Y-98961635D01*
X187807131Y-98946677D01*
X187778931Y-98885096D01*
X187770101Y-98819598D01*
X187778674Y-98757473D01*
X187802683Y-98706009D01*
X187840160Y-98672496D01*
X187883514Y-98663690D01*
X187933535Y-98664811D01*
X187958874Y-98656202D01*
X187967794Y-98632435D01*
X187968705Y-98607722D01*
X187954560Y-98547457D01*
X187917368Y-98503245D01*
X187864990Y-98478953D01*
X187805288Y-98478450D01*
X187752253Y-98501219D01*
X187691269Y-98550400D01*
X187652558Y-98603927D01*
X187631165Y-98671408D01*
X187622589Y-98752765D01*
X187620959Y-98822524D01*
X185128054Y-98822524D01*
X185128176Y-96521257D01*
X185128256Y-95018671D01*
X185413111Y-95018671D01*
X185421769Y-95165134D01*
X185434238Y-95249169D01*
X185480613Y-95434000D01*
X185549259Y-95601524D01*
X185637888Y-95749766D01*
X185744210Y-95876751D01*
X185865939Y-95980503D01*
X186000784Y-96059049D01*
X186146457Y-96110411D01*
X186300669Y-96132617D01*
X186449593Y-96125391D01*
X186520099Y-96114802D01*
X186563130Y-96105505D01*
X186584212Y-96094964D01*
X186588874Y-96080642D01*
X186584087Y-96063684D01*
X186571737Y-96049023D01*
X186544494Y-96043973D01*
X186494182Y-96047291D01*
X186483950Y-96048456D01*
X186379918Y-96046411D01*
X186264764Y-96019834D01*
X186145636Y-95971945D01*
X186029681Y-95905963D01*
X185924047Y-95825107D01*
X185869428Y-95771696D01*
X185795720Y-95676301D01*
X185726706Y-95557302D01*
X185667460Y-95424317D01*
X185633289Y-95323924D01*
X185620036Y-95271710D01*
X185610935Y-95215582D01*
X185605353Y-95148086D01*
X185602654Y-95061769D01*
X185602175Y-94958456D01*
X185604298Y-94827976D01*
X185611245Y-94721299D01*
X185625079Y-94629121D01*
X185645020Y-94552980D01*
X186282214Y-94552980D01*
X186287149Y-94566524D01*
X186308218Y-94596833D01*
X186341943Y-94608517D01*
X186366830Y-94609601D01*
X186410669Y-94604713D01*
X186431703Y-94587028D01*
X186435572Y-94576377D01*
X186457002Y-94550698D01*
X186496459Y-94543262D01*
X186543853Y-94554610D01*
X186569809Y-94569168D01*
X186613761Y-94616046D01*
X186649010Y-94683169D01*
X186669715Y-94757682D01*
X186672794Y-94795826D01*
X186658103Y-94884261D01*
X186617286Y-94977429D01*
X186554658Y-95066753D01*
X186515811Y-95107966D01*
X186459163Y-95165095D01*
X186426171Y-95206589D01*
X186414173Y-95237089D01*
X186420505Y-95261238D01*
X186424655Y-95266843D01*
X186464249Y-95290762D01*
X186517394Y-95289029D01*
X186578168Y-95262915D01*
X186631457Y-95222449D01*
X186713468Y-95126250D01*
X186767890Y-95017131D01*
X186793648Y-94900362D01*
X186789671Y-94781214D01*
X186754887Y-94664956D01*
X186747937Y-94650107D01*
X186684635Y-94556638D01*
X186596039Y-94478116D01*
X186488800Y-94420357D01*
X186482305Y-94417827D01*
X186433326Y-94401796D01*
X186399133Y-94400122D01*
X186364864Y-94412169D01*
X186363649Y-94412750D01*
X186311459Y-94451049D01*
X186283019Y-94500395D01*
X186282214Y-94552980D01*
X185645020Y-94552980D01*
X185647860Y-94542137D01*
X185681651Y-94451041D01*
X185728512Y-94346530D01*
X185745711Y-94310582D01*
X185785589Y-94231159D01*
X185821698Y-94169004D01*
X185861100Y-94114377D01*
X185910853Y-94057537D01*
X185978017Y-93988744D01*
X185981525Y-93985248D01*
X186149734Y-93836730D01*
X186328040Y-93717499D01*
X186520669Y-93625390D01*
X186731847Y-93558235D01*
X186872302Y-93528471D01*
X187023656Y-93507125D01*
X187170741Y-93498631D01*
X187325136Y-93502838D01*
X187498419Y-93519596D01*
X187504195Y-93520312D01*
X187609713Y-93534478D01*
X187684472Y-93546983D01*
X187730866Y-93558333D01*
X187751290Y-93569034D01*
X187752747Y-93572781D01*
X187743408Y-93588059D01*
X187718949Y-93622088D01*
X187685409Y-93666524D01*
X187648930Y-93719698D01*
X187605309Y-93791875D01*
X187561149Y-93871807D01*
X187536461Y-93920196D01*
X187483076Y-94040533D01*
X187437856Y-94169202D01*
X187400060Y-94310123D01*
X187368949Y-94467220D01*
X187343782Y-94644414D01*
X187323819Y-94845628D01*
X187308319Y-95074783D01*
X187304432Y-95149496D01*
X187294217Y-95345940D01*
X187283072Y-95538019D01*
X187271302Y-95721680D01*
X187259208Y-95892866D01*
X187247094Y-96047522D01*
X187235263Y-96181594D01*
X187224018Y-96291026D01*
X187213662Y-96371763D01*
X187212578Y-96378796D01*
X187171395Y-96568260D01*
X187110499Y-96747399D01*
X187054821Y-96866743D01*
X187002736Y-96964465D01*
X186709102Y-96972866D01*
X186573064Y-96978204D01*
X186464177Y-96986373D01*
X186376405Y-96998617D01*
X186303715Y-97016178D01*
X186240069Y-97040301D01*
X186179434Y-97072229D01*
X186155460Y-97086963D01*
X186075289Y-97147556D01*
X185998714Y-97222551D01*
X185934519Y-97302300D01*
X185891657Y-97376755D01*
X185867802Y-97461069D01*
X185859543Y-97557099D01*
X185867182Y-97650303D01*
X185884689Y-97712456D01*
X185940682Y-97805236D01*
X186023018Y-97884249D01*
X186127124Y-97947892D01*
X186248428Y-97994565D01*
X186382357Y-98022666D01*
X186524336Y-98030594D01*
X186669793Y-98016746D01*
X186722792Y-98005967D01*
X186933529Y-97940229D01*
X187137287Y-97844477D01*
X187250998Y-97771644D01*
X187819191Y-97771644D01*
X187834736Y-97772212D01*
X187877141Y-97771889D01*
X187940055Y-97770763D01*
X188017130Y-97768923D01*
X188022690Y-97768776D01*
X188287640Y-97777801D01*
X188547507Y-97818641D01*
X188798953Y-97890565D01*
X189031883Y-97989455D01*
X189090101Y-98021225D01*
X189168503Y-98067916D01*
X189260191Y-98125207D01*
X189358262Y-98188780D01*
X189455815Y-98254315D01*
X189463799Y-98259794D01*
X189651613Y-98386072D01*
X189819358Y-98492354D01*
X189971561Y-98580985D01*
X190112744Y-98654310D01*
X190247431Y-98714673D01*
X190380147Y-98764420D01*
X190515415Y-98805895D01*
X190519570Y-98807039D01*
X190711165Y-98843251D01*
X190916396Y-98851535D01*
X191132075Y-98832610D01*
X191355010Y-98787196D01*
X191582013Y-98716014D01*
X191809892Y-98619783D01*
X192035459Y-98499222D01*
X192122918Y-98445249D01*
X192169958Y-98413787D01*
X192283565Y-98413787D01*
X192378361Y-98413787D01*
X192436659Y-98411431D01*
X192475184Y-98401361D01*
X192507231Y-98379073D01*
X192521716Y-98365228D01*
X192556730Y-98320168D01*
X192569555Y-98269698D01*
X192570274Y-98247889D01*
X192570274Y-98179108D01*
X192484590Y-98225845D01*
X192423836Y-98266355D01*
X192365312Y-98317035D01*
X192341235Y-98343185D01*
X192283565Y-98413787D01*
X192169958Y-98413787D01*
X192183734Y-98404573D01*
X192236766Y-98366117D01*
X192273356Y-98336266D01*
X192281028Y-98328642D01*
X192302179Y-98303752D01*
X192300726Y-98297431D01*
X192279561Y-98302653D01*
X192178233Y-98324007D01*
X192054930Y-98337924D01*
X191919772Y-98344314D01*
X191782880Y-98343087D01*
X191654372Y-98334153D01*
X191544368Y-98317423D01*
X191511249Y-98309475D01*
X191463426Y-98298579D01*
X191431748Y-98295403D01*
X191424035Y-98298551D01*
X191436626Y-98315684D01*
X191439372Y-98316882D01*
X191458749Y-98330467D01*
X191493906Y-98360320D01*
X191531456Y-98394608D01*
X191573802Y-98437296D01*
X191593043Y-98465529D01*
X191592599Y-98484861D01*
X191589634Y-98489171D01*
X191562743Y-98506703D01*
X191510700Y-98529111D01*
X191440788Y-98554082D01*
X191360291Y-98579305D01*
X191276495Y-98602466D01*
X191196683Y-98621253D01*
X191141628Y-98631420D01*
X190965151Y-98645141D01*
X190772566Y-98635894D01*
X190570897Y-98604563D01*
X190367168Y-98552030D01*
X190281147Y-98523308D01*
X190175624Y-98479414D01*
X190046347Y-98414968D01*
X189894935Y-98330872D01*
X189723006Y-98228022D01*
X189616925Y-98160924D01*
X189713050Y-98160924D01*
X189726328Y-98175141D01*
X189760324Y-98198695D01*
X189789307Y-98215984D01*
X189865497Y-98259058D01*
X189967820Y-98203649D01*
X190028751Y-98174307D01*
X190108938Y-98140706D01*
X190195763Y-98107968D01*
X190244571Y-98091270D01*
X190400833Y-98044439D01*
X190542776Y-98010296D01*
X190665748Y-97989764D01*
X190765099Y-97983763D01*
X190783457Y-97984493D01*
X190834190Y-97986943D01*
X190857431Y-97984591D01*
X190858794Y-97975438D01*
X190847684Y-97961634D01*
X190824901Y-97944872D01*
X190780876Y-97918421D01*
X190723385Y-97886373D01*
X190660204Y-97852818D01*
X190599110Y-97821846D01*
X190547879Y-97797549D01*
X190514287Y-97784015D01*
X190507189Y-97782524D01*
X190497344Y-97796867D01*
X190490704Y-97827810D01*
X190484406Y-97853167D01*
X190467661Y-97871126D01*
X190432995Y-97886689D01*
X190377469Y-97903580D01*
X190240665Y-97942894D01*
X190130052Y-97976437D01*
X190039538Y-98006288D01*
X189963030Y-98034528D01*
X189894435Y-98063238D01*
X189850032Y-98083695D01*
X189789893Y-98113551D01*
X189743198Y-98139068D01*
X189716661Y-98156461D01*
X189713050Y-98160924D01*
X189616925Y-98160924D01*
X189532178Y-98107320D01*
X189530733Y-98106385D01*
X189381622Y-98011039D01*
X189254135Y-97932925D01*
X189143005Y-97869766D01*
X189042964Y-97819285D01*
X188948742Y-97779206D01*
X188855071Y-97747252D01*
X188756683Y-97721145D01*
X188648309Y-97698610D01*
X188545977Y-97680819D01*
X188485595Y-97669445D01*
X188440395Y-97658080D01*
X188418246Y-97648789D01*
X188417233Y-97647028D01*
X188431722Y-97635554D01*
X188468245Y-97621524D01*
X188487835Y-97615925D01*
X188548368Y-97600206D01*
X188607205Y-97584977D01*
X188616579Y-97582557D01*
X188748727Y-97553642D01*
X188899999Y-97529145D01*
X189061979Y-97509749D01*
X189226253Y-97496139D01*
X189384403Y-97488998D01*
X189528014Y-97489011D01*
X189648670Y-97496862D01*
X189657733Y-97497930D01*
X189781288Y-97518467D01*
X189926462Y-97551365D01*
X190085157Y-97594124D01*
X190249277Y-97644244D01*
X190410724Y-97699225D01*
X190561402Y-97756567D01*
X190693214Y-97813771D01*
X190715814Y-97824592D01*
X190783548Y-97862643D01*
X190862810Y-97914753D01*
X190940854Y-97972293D01*
X190975199Y-98000201D01*
X191074310Y-98079357D01*
X191163451Y-98138353D01*
X191253507Y-98182893D01*
X191355363Y-98218683D01*
X191432347Y-98239777D01*
X191651461Y-98284596D01*
X191855879Y-98302858D01*
X192050100Y-98293751D01*
X192238622Y-98256462D01*
X192425945Y-98190180D01*
X192558301Y-98123464D01*
X192691189Y-98123464D01*
X192694866Y-98125198D01*
X192785323Y-98108616D01*
X192901729Y-98096352D01*
X193037093Y-98088384D01*
X193184425Y-98084690D01*
X193336733Y-98085247D01*
X193487028Y-98090034D01*
X193628318Y-98099029D01*
X193753613Y-98112209D01*
X193852621Y-98128837D01*
X194059051Y-98184423D01*
X194243964Y-98257232D01*
X194405153Y-98345977D01*
X194540407Y-98449369D01*
X194647516Y-98566121D01*
X194677839Y-98609736D01*
X194737684Y-98731765D01*
X194767636Y-98860183D01*
X194768969Y-98990130D01*
X194742959Y-99116747D01*
X194690882Y-99235175D01*
X194614013Y-99340555D01*
X194513627Y-99428027D01*
X194453533Y-99464310D01*
X194321592Y-99519504D01*
X194188570Y-99548855D01*
X194059340Y-99552600D01*
X193938775Y-99530978D01*
X193831749Y-99484229D01*
X193760714Y-99430391D01*
X193710400Y-99374881D01*
X193682189Y-99319913D01*
X193672364Y-99254469D01*
X193675991Y-99179293D01*
X193681070Y-99118648D01*
X193680200Y-99081783D01*
X193671565Y-99059509D01*
X193653353Y-99042642D01*
X193648290Y-99039030D01*
X193598294Y-99015141D01*
X193552471Y-99020497D01*
X193503596Y-99056133D01*
X193499278Y-99060383D01*
X193472130Y-99091193D01*
X193457557Y-99122202D01*
X193451824Y-99165316D01*
X193451084Y-99214046D01*
X193462026Y-99321423D01*
X193496671Y-99411571D01*
X193558988Y-99493415D01*
X193587763Y-99521469D01*
X193700146Y-99608154D01*
X193822590Y-99669215D01*
X193959852Y-99706226D01*
X194116694Y-99720759D01*
X194189960Y-99720527D01*
X194277908Y-99716989D01*
X194342499Y-99710832D01*
X194393591Y-99700338D01*
X194441040Y-99683793D01*
X194467710Y-99672151D01*
X194590684Y-99599556D01*
X194691256Y-99503900D01*
X194770163Y-99384165D01*
X194828139Y-99239339D01*
X194853074Y-99140509D01*
X194875662Y-98962262D01*
X194867289Y-98795841D01*
X194827895Y-98641120D01*
X194757420Y-98497976D01*
X194655802Y-98366282D01*
X194522981Y-98245914D01*
X194367677Y-98141844D01*
X194200026Y-98059813D01*
X194011514Y-97997873D01*
X193800836Y-97955824D01*
X193566688Y-97933465D01*
X193307766Y-97930597D01*
X193071079Y-97943034D01*
X193004934Y-97949112D01*
X192955949Y-97957815D01*
X192913228Y-97973142D01*
X192865874Y-97999095D01*
X192802992Y-98039672D01*
X192796978Y-98043660D01*
X192743730Y-98080256D01*
X192707071Y-98107973D01*
X192691189Y-98123464D01*
X192558301Y-98123464D01*
X192616567Y-98094094D01*
X192769702Y-97998427D01*
X193028355Y-97843237D01*
X193304139Y-97714290D01*
X193598560Y-97611038D01*
X193913123Y-97532933D01*
X194164072Y-97490402D01*
X194432173Y-97464896D01*
X194695937Y-97462352D01*
X194953061Y-97481727D01*
X195201243Y-97521980D01*
X195438179Y-97582070D01*
X195661567Y-97660955D01*
X195869104Y-97757595D01*
X196058486Y-97870948D01*
X196227412Y-97999973D01*
X196373577Y-98143628D01*
X196494679Y-98300872D01*
X196588415Y-98470663D01*
X196640793Y-98610285D01*
X196668943Y-98751837D01*
X196669854Y-98893012D01*
X196644686Y-99027954D01*
X196594602Y-99150807D01*
X196520762Y-99255716D01*
X196510642Y-99266529D01*
X196443603Y-99327191D01*
X196381076Y-99362205D01*
X196313803Y-99376163D01*
X196288071Y-99376927D01*
X196192098Y-99361443D01*
X196107284Y-99319205D01*
X196039444Y-99255013D01*
X195994392Y-99173663D01*
X195981526Y-99123930D01*
X195980998Y-99061049D01*
X195995459Y-98996392D01*
X196021041Y-98943808D01*
X196036664Y-98926478D01*
X196059028Y-98915095D01*
X196080389Y-98927825D01*
X196092467Y-98941762D01*
X196120416Y-98970857D01*
X196144138Y-98974593D01*
X196175002Y-98953057D01*
X196186503Y-98942480D01*
X196219662Y-98896657D01*
X196224226Y-98853402D01*
X196204818Y-98815948D01*
X196166061Y-98787528D01*
X196112579Y-98771374D01*
X196048993Y-98770718D01*
X195979926Y-98788792D01*
X195971690Y-98792285D01*
X195929170Y-98814345D01*
X195897917Y-98841566D01*
X195869716Y-98883044D01*
X195842482Y-98935342D01*
X195813472Y-98998446D01*
X195798637Y-99045529D01*
X195795091Y-99089080D01*
X195798144Y-99127271D01*
X195816009Y-99212323D01*
X195851162Y-99287976D01*
X195909177Y-99365575D01*
X195922718Y-99380891D01*
X196013170Y-99458215D01*
X196116219Y-99506331D01*
X196227360Y-99524515D01*
X196342087Y-99512045D01*
X196455895Y-99468196D01*
X196458300Y-99466903D01*
X196546474Y-99408545D01*
X196634810Y-99331861D01*
X196712289Y-99247371D01*
X196760988Y-99177946D01*
X196815555Y-99054464D01*
X196847044Y-98915509D01*
X196854494Y-98770397D01*
X196836948Y-98628444D01*
X196822971Y-98575457D01*
X196787211Y-98486869D01*
X196731813Y-98383795D01*
X196661675Y-98274154D01*
X196581691Y-98165863D01*
X196534341Y-98108664D01*
X196460574Y-98031012D01*
X196365916Y-97942798D01*
X196258010Y-97850483D01*
X196144496Y-97760529D01*
X196033017Y-97679394D01*
X196000525Y-97657349D01*
X195942222Y-97617489D01*
X195896884Y-97584441D01*
X195869970Y-97562315D01*
X195865107Y-97555404D01*
X195885814Y-97555456D01*
X195930355Y-97567558D01*
X195992613Y-97589386D01*
X196066470Y-97618615D01*
X196145808Y-97652918D01*
X196224509Y-97689973D01*
X196241563Y-97698481D01*
X196472425Y-97828905D01*
X196680859Y-97975166D01*
X196863392Y-98134606D01*
X196987794Y-98269094D01*
X197033080Y-98322120D01*
X197070155Y-98363096D01*
X197094261Y-98386905D01*
X197100821Y-98390674D01*
X197098934Y-98372176D01*
X197085523Y-98332214D01*
X197064092Y-98278955D01*
X197038147Y-98220565D01*
X197011194Y-98165210D01*
X196986737Y-98121057D01*
X196981682Y-98113114D01*
X196942022Y-98053185D01*
X197135841Y-98061133D01*
X197297241Y-98061018D01*
X197434194Y-98045119D01*
X197552361Y-98011702D01*
X197657404Y-97959029D01*
X197754983Y-97885365D01*
X197778101Y-97864198D01*
X197857369Y-97771555D01*
X197908701Y-97673514D01*
X197933384Y-97574159D01*
X197932701Y-97477575D01*
X197907937Y-97387846D01*
X197860377Y-97309056D01*
X197791305Y-97245289D01*
X197702007Y-97200631D01*
X197593767Y-97179164D01*
X197562230Y-97177881D01*
X197476809Y-97184841D01*
X197415002Y-97210212D01*
X197370551Y-97257857D01*
X197344030Y-97312635D01*
X197327490Y-97359763D01*
X197323941Y-97391108D01*
X197333749Y-97421615D01*
X197347324Y-97447825D01*
X197389443Y-97500345D01*
X197435300Y-97523294D01*
X197490055Y-97531367D01*
X197524560Y-97516147D01*
X197541939Y-97474801D01*
X197545618Y-97423354D01*
X197545618Y-97342302D01*
X197603099Y-97342302D01*
X197645682Y-97348041D01*
X197677435Y-97370746D01*
X197700099Y-97400445D01*
X197725173Y-97445718D01*
X197734005Y-97491557D01*
X197731911Y-97541235D01*
X197723562Y-97594355D01*
X197705523Y-97633000D01*
X197670074Y-97671639D01*
X197655064Y-97685238D01*
X197559134Y-97748696D01*
X197439447Y-97790848D01*
X197298064Y-97811298D01*
X197137046Y-97809650D01*
X197052845Y-97800822D01*
X196956294Y-97786067D01*
X196863456Y-97767317D01*
X196768352Y-97742765D01*
X196665003Y-97710603D01*
X196547429Y-97669021D01*
X196409652Y-97616213D01*
X196307352Y-97575384D01*
X196120293Y-97501304D01*
X195956969Y-97440172D01*
X195811276Y-97390325D01*
X195677109Y-97350098D01*
X195548364Y-97317829D01*
X195418938Y-97291852D01*
X195282727Y-97270504D01*
X195133625Y-97252122D01*
X195113113Y-97249878D01*
X194954297Y-97238817D01*
X194772888Y-97236516D01*
X194578207Y-97242481D01*
X194379570Y-97256218D01*
X194186296Y-97277233D01*
X194007702Y-97305031D01*
X193982308Y-97309842D01*
X193919682Y-97324059D01*
X193833728Y-97346364D01*
X193732652Y-97374385D01*
X193624663Y-97405752D01*
X193517966Y-97438094D01*
X193420770Y-97469040D01*
X193359352Y-97489800D01*
X193125705Y-97579082D01*
X192914067Y-97676504D01*
X192713348Y-97787316D01*
X192653335Y-97824125D01*
X192506030Y-97913451D01*
X192377818Y-97983744D01*
X192262460Y-98037471D01*
X192153721Y-98077101D01*
X192045365Y-98105102D01*
X191931155Y-98123943D01*
X191881681Y-98129544D01*
X191722542Y-98136693D01*
X191583801Y-98122488D01*
X191459134Y-98085321D01*
X191342219Y-98023584D01*
X191274525Y-97975148D01*
X191210100Y-97930072D01*
X191154432Y-97904981D01*
X191104357Y-97895004D01*
X191014648Y-97869128D01*
X190937046Y-97815593D01*
X190879040Y-97739640D01*
X190877062Y-97735879D01*
X190847598Y-97690699D01*
X190821770Y-97663831D01*
X190909472Y-97663831D01*
X190930798Y-97733187D01*
X190978475Y-97792555D01*
X191025985Y-97824387D01*
X191070408Y-97842055D01*
X191107015Y-97848973D01*
X191153045Y-97840120D01*
X191203420Y-97818047D01*
X191245770Y-97789479D01*
X191267568Y-97761664D01*
X191271590Y-97728438D01*
X191254284Y-97720642D01*
X191227204Y-97731342D01*
X191172261Y-97746855D01*
X191128001Y-97732952D01*
X191099604Y-97692981D01*
X191091792Y-97643831D01*
X191104106Y-97579901D01*
X191142928Y-97530775D01*
X191211079Y-97492995D01*
X191216462Y-97490899D01*
X191319200Y-97469270D01*
X191435486Y-97477230D01*
X191564476Y-97514420D01*
X191705325Y-97580484D01*
X191857190Y-97675065D01*
X192019226Y-97797805D01*
X192096828Y-97863520D01*
X192174080Y-97927258D01*
X192231902Y-97966649D01*
X192269689Y-97981378D01*
X192286837Y-97971130D01*
X192287868Y-97962816D01*
X192278016Y-97940029D01*
X192252773Y-97902315D01*
X192231914Y-97875478D01*
X192174183Y-97800004D01*
X192125967Y-97727313D01*
X192091086Y-97663884D01*
X192073358Y-97616195D01*
X192071909Y-97604019D01*
X192087199Y-97536451D01*
X192127795Y-97477555D01*
X192185791Y-97435189D01*
X192253280Y-97417211D01*
X192260036Y-97417057D01*
X192300926Y-97422586D01*
X192354094Y-97436397D01*
X192370928Y-97441975D01*
X192431460Y-97459304D01*
X192481354Y-97466243D01*
X192513076Y-97462259D01*
X192520438Y-97452521D01*
X192511017Y-97430886D01*
X192487976Y-97396953D01*
X192484366Y-97392292D01*
X192422734Y-97338645D01*
X192341562Y-97302496D01*
X192250550Y-97285560D01*
X192159393Y-97289552D01*
X192077791Y-97316188D01*
X192071976Y-97319342D01*
X192014427Y-97365818D01*
X191968666Y-97428870D01*
X191942295Y-97496628D01*
X191938758Y-97527298D01*
X191935133Y-97573995D01*
X191922184Y-97596197D01*
X191895846Y-97594342D01*
X191852057Y-97568873D01*
X191813647Y-97540875D01*
X191747099Y-97494845D01*
X191667348Y-97445868D01*
X191591555Y-97404477D01*
X191590918Y-97404159D01*
X191528173Y-97374081D01*
X191479192Y-97355731D01*
X191431254Y-97346238D01*
X191371639Y-97342732D01*
X191316817Y-97342302D01*
X191241179Y-97343404D01*
X191187509Y-97348257D01*
X191144584Y-97359179D01*
X191101179Y-97378488D01*
X191075558Y-97392139D01*
X190997540Y-97448641D01*
X190943449Y-97516278D01*
X190913891Y-97589768D01*
X190909472Y-97663831D01*
X190821770Y-97663831D01*
X190814871Y-97656654D01*
X190808333Y-97652120D01*
X190745894Y-97621470D01*
X190656300Y-97587431D01*
X190545248Y-97551566D01*
X190418437Y-97515438D01*
X190281565Y-97480612D01*
X190140330Y-97448650D01*
X190000430Y-97421117D01*
X189912328Y-97406245D01*
X189783609Y-97391065D01*
X189633921Y-97381445D01*
X189472970Y-97377373D01*
X189310462Y-97378839D01*
X189156103Y-97385832D01*
X189019599Y-97398340D01*
X188957128Y-97407316D01*
X188815314Y-97434208D01*
X188664656Y-97468106D01*
X188510988Y-97507265D01*
X188360144Y-97549939D01*
X188217956Y-97594382D01*
X188090257Y-97638847D01*
X187982882Y-97681590D01*
X187901663Y-97720864D01*
X187893047Y-97725789D01*
X187851379Y-97750660D01*
X187824596Y-97767513D01*
X187819191Y-97771644D01*
X187250998Y-97771644D01*
X187328689Y-97721882D01*
X187502355Y-97575616D01*
X187570213Y-97506264D01*
X187644767Y-97425363D01*
X187582181Y-97420190D01*
X187545236Y-97420078D01*
X187514511Y-97430338D01*
X187480126Y-97456116D01*
X187440977Y-97493738D01*
X187317405Y-97598863D01*
X187167794Y-97694849D01*
X186998888Y-97777965D01*
X186817429Y-97844483D01*
X186794425Y-97851380D01*
X186718051Y-97870756D01*
X186642231Y-97882658D01*
X186554768Y-97888553D01*
X186473610Y-97889914D01*
X186390114Y-97889711D01*
X186331237Y-97887457D01*
X186288378Y-97881602D01*
X186252933Y-97870594D01*
X186216301Y-97852880D01*
X186191203Y-97838968D01*
X186111384Y-97783615D01*
X186048194Y-97719289D01*
X186006673Y-97652301D01*
X185991857Y-97589368D01*
X186002703Y-97519524D01*
X186037640Y-97453489D01*
X186100265Y-97384738D01*
X186109186Y-97376559D01*
X186169839Y-97327712D01*
X186233623Y-97290064D01*
X186304628Y-97263108D01*
X186386948Y-97246339D01*
X186484673Y-97239253D01*
X186601896Y-97241344D01*
X186742709Y-97252106D01*
X186911202Y-97271035D01*
X186937227Y-97274307D01*
X187212754Y-97302755D01*
X187463814Y-97314304D01*
X187694802Y-97308511D01*
X187910116Y-97284932D01*
X188114150Y-97243123D01*
X188311301Y-97182641D01*
X188468934Y-97119670D01*
X188630826Y-97035258D01*
X188796291Y-96924528D01*
X188958844Y-96792828D01*
X189111998Y-96645505D01*
X189249268Y-96487906D01*
X189274004Y-96455941D01*
X189359677Y-96330144D01*
X189421836Y-96221605D01*
X189722451Y-96221605D01*
X189728342Y-96347040D01*
X189750053Y-96459915D01*
X189779487Y-96536085D01*
X189843008Y-96625180D01*
X189926949Y-96692175D01*
X190025289Y-96735093D01*
X190132009Y-96751954D01*
X190241090Y-96740781D01*
X190319326Y-96713517D01*
X190383212Y-96674387D01*
X190453645Y-96615947D01*
X190496968Y-96572543D01*
X190540598Y-96527553D01*
X190575357Y-96495781D01*
X190595707Y-96482129D01*
X190598497Y-96482690D01*
X190607007Y-96506436D01*
X190617343Y-96544918D01*
X190652225Y-96635240D01*
X190706374Y-96700642D01*
X190777178Y-96739093D01*
X190862022Y-96748563D01*
X190877667Y-96747144D01*
X190927099Y-96737032D01*
X190982476Y-96719510D01*
X191034530Y-96698390D01*
X191073991Y-96677482D01*
X191091589Y-96660596D01*
X191091792Y-96659111D01*
X191082082Y-96641299D01*
X191058032Y-96609415D01*
X191050900Y-96600790D01*
X191033341Y-96578636D01*
X191018580Y-96555452D01*
X191006339Y-96528235D01*
X190996341Y-96493985D01*
X190988307Y-96449698D01*
X190981962Y-96392374D01*
X190977026Y-96319011D01*
X190973224Y-96226606D01*
X190970277Y-96112158D01*
X190967908Y-95972665D01*
X190965840Y-95805126D01*
X190964371Y-95664473D01*
X190962327Y-95469350D01*
X190960169Y-95304459D01*
X190957502Y-95166813D01*
X190953929Y-95053421D01*
X190949054Y-94961293D01*
X190942480Y-94887440D01*
X190933813Y-94828872D01*
X190922654Y-94782600D01*
X190908608Y-94745634D01*
X190891278Y-94714984D01*
X190870268Y-94687660D01*
X190854553Y-94670753D01*
X191133322Y-94670753D01*
X191145955Y-94691669D01*
X191177490Y-94719946D01*
X191189937Y-94728896D01*
X191236089Y-94765933D01*
X191275221Y-94806379D01*
X191279398Y-94811766D01*
X191287001Y-94823105D01*
X191293315Y-94836723D01*
X191298445Y-94855567D01*
X191302499Y-94882586D01*
X191305581Y-94920730D01*
X191307799Y-94972947D01*
X191309257Y-95042185D01*
X191310063Y-95131395D01*
X191310322Y-95243523D01*
X191310141Y-95381520D01*
X191309625Y-95548333D01*
X191309279Y-95642374D01*
X191308164Y-95837562D01*
X191306397Y-96011386D01*
X191304026Y-96161914D01*
X191301096Y-96287212D01*
X191297654Y-96385348D01*
X191293746Y-96454391D01*
X191289419Y-96492407D01*
X191288799Y-96495082D01*
X191268532Y-96547526D01*
X191236171Y-96607909D01*
X191215555Y-96639373D01*
X191185306Y-96683829D01*
X191173798Y-96708902D01*
X191178938Y-96721092D01*
X191188105Y-96724660D01*
X191219394Y-96728514D01*
X191275243Y-96731271D01*
X191348977Y-96732973D01*
X191433918Y-96733665D01*
X191523390Y-96733388D01*
X191610718Y-96732188D01*
X191689224Y-96730107D01*
X191752233Y-96727189D01*
X191793067Y-96723478D01*
X191804586Y-96720642D01*
X191814820Y-96706778D01*
X191807238Y-96683703D01*
X191779325Y-96644437D01*
X191775279Y-96639301D01*
X191747853Y-96604398D01*
X191725393Y-96573214D01*
X191707403Y-96542113D01*
X191693388Y-96507461D01*
X191682852Y-96465624D01*
X191675299Y-96412968D01*
X191670232Y-96345858D01*
X191667156Y-96260659D01*
X191665574Y-96153738D01*
X191664991Y-96021461D01*
X191664911Y-95860192D01*
X191664911Y-95830595D01*
X191664966Y-95697362D01*
X192264699Y-95697362D01*
X192274205Y-95912307D01*
X192305870Y-96113385D01*
X192313656Y-96146226D01*
X192345943Y-96248545D01*
X192390690Y-96354194D01*
X192442557Y-96452306D01*
X192496205Y-96532015D01*
X192513121Y-96552132D01*
X192616349Y-96642843D01*
X192734626Y-96705899D01*
X192863482Y-96740528D01*
X192998446Y-96745961D01*
X193135047Y-96721427D01*
X193166506Y-96709129D01*
X193567004Y-96709129D01*
X193582744Y-96712386D01*
X193626478Y-96715213D01*
X193692975Y-96717434D01*
X193777006Y-96718870D01*
X193867408Y-96719346D01*
X193962616Y-96718696D01*
X194044690Y-96716890D01*
X194108549Y-96714144D01*
X194149109Y-96710672D01*
X194161426Y-96706887D01*
X194123987Y-96631657D01*
X194100743Y-96576821D01*
X194089572Y-96533831D01*
X194088353Y-96494139D01*
X194094967Y-96449194D01*
X194096093Y-96443506D01*
X194107972Y-96403729D01*
X194130406Y-96345169D01*
X194160816Y-96273214D01*
X194196622Y-96193256D01*
X194235243Y-96110682D01*
X194274101Y-96030884D01*
X194310616Y-95959249D01*
X194342208Y-95901169D01*
X194366296Y-95862032D01*
X194380303Y-95847227D01*
X194381397Y-95847452D01*
X194395511Y-95866761D01*
X194419697Y-95910560D01*
X194451108Y-95972727D01*
X194486900Y-96047141D01*
X194524225Y-96127681D01*
X194560238Y-96208227D01*
X194592092Y-96282658D01*
X194616942Y-96344852D01*
X194630003Y-96382127D01*
X194654556Y-96476818D01*
X194661597Y-96549044D01*
X194651130Y-96604575D01*
X194630183Y-96640818D01*
X194606973Y-96675517D01*
X194596967Y-96700771D01*
X194596958Y-96701201D01*
X194610659Y-96708090D01*
X194652616Y-96713278D01*
X194724115Y-96716835D01*
X194826440Y-96718829D01*
X194937508Y-96719346D01*
X195048740Y-96718619D01*
X195142238Y-96716554D01*
X195214171Y-96713325D01*
X195260711Y-96709107D01*
X195278026Y-96704073D01*
X195278057Y-96703841D01*
X195267218Y-96685103D01*
X195238672Y-96650265D01*
X195198378Y-96606550D01*
X195194413Y-96602461D01*
X195151970Y-96553519D01*
X195109020Y-96491965D01*
X195062089Y-96412210D01*
X195007707Y-96308663D01*
X194989985Y-96273264D01*
X194936046Y-96165053D01*
X194874662Y-96042627D01*
X194812832Y-95919909D01*
X194757555Y-95810817D01*
X194749693Y-95795373D01*
X194708855Y-95713943D01*
X194674020Y-95642053D01*
X194647785Y-95585258D01*
X194632749Y-95549114D01*
X194630183Y-95539737D01*
X194637840Y-95516790D01*
X194658991Y-95470035D01*
X194690908Y-95404660D01*
X194730863Y-95325852D01*
X194776126Y-95238796D01*
X194821798Y-95152769D01*
X195345425Y-95152769D01*
X195346925Y-95207927D01*
X195354089Y-95250492D01*
X195368222Y-95290710D01*
X195378811Y-95314206D01*
X195435887Y-95408024D01*
X195521073Y-95505459D01*
X195635604Y-95607687D01*
X195780720Y-95715887D01*
X195850195Y-95762809D01*
X195970210Y-95844593D01*
X196064185Y-95915461D01*
X196135975Y-95978991D01*
X196189436Y-96038763D01*
X196228422Y-96098356D01*
X196242850Y-96127338D01*
X196268891Y-96218899D01*
X196266709Y-96309555D01*
X196238082Y-96392449D01*
X196184789Y-96460725D01*
X196149532Y-96487186D01*
X196068851Y-96519206D01*
X195974137Y-96528356D01*
X195875472Y-96514624D01*
X195801340Y-96487581D01*
X195715671Y-96432947D01*
X195628556Y-96354213D01*
X195547497Y-96259275D01*
X195479998Y-96156029D01*
X195471671Y-96140627D01*
X195440287Y-96085797D01*
X195412360Y-96045675D01*
X195392632Y-96026804D01*
X195388799Y-96026331D01*
X195381626Y-96044601D01*
X195376031Y-96089988D01*
X195371998Y-96156425D01*
X195369511Y-96237842D01*
X195368555Y-96328170D01*
X195369115Y-96421342D01*
X195371173Y-96511288D01*
X195374715Y-96591941D01*
X195379726Y-96657231D01*
X195386188Y-96701089D01*
X195390582Y-96714293D01*
X195408327Y-96737922D01*
X195431544Y-96741836D01*
X195465047Y-96732308D01*
X195513887Y-96712435D01*
X195553719Y-96691465D01*
X195579134Y-96679801D01*
X195607756Y-96681197D01*
X195651094Y-96696880D01*
X195666179Y-96703443D01*
X195799636Y-96746306D01*
X195941896Y-96763358D01*
X196083246Y-96754263D01*
X196205252Y-96722092D01*
X196246699Y-96701130D01*
X196690091Y-96701130D01*
X196703379Y-96707870D01*
X196744185Y-96712990D01*
X196813927Y-96716561D01*
X196914021Y-96718655D01*
X197045884Y-96719346D01*
X197047253Y-96719346D01*
X197169261Y-96718616D01*
X197268639Y-96716507D01*
X197342729Y-96713138D01*
X197388871Y-96708630D01*
X197404414Y-96703219D01*
X197395574Y-96681335D01*
X197372958Y-96642975D01*
X197354973Y-96616006D01*
X197324474Y-96566981D01*
X197300641Y-96514758D01*
X197282717Y-96454598D01*
X197269947Y-96381759D01*
X197261576Y-96291501D01*
X197256848Y-96179085D01*
X197255007Y-96039769D01*
X197254905Y-95988243D01*
X197255555Y-95856123D01*
X197257591Y-95754803D01*
X197261139Y-95681884D01*
X197266324Y-95634966D01*
X197273274Y-95611649D01*
X197274839Y-95609653D01*
X197297258Y-95601157D01*
X197346315Y-95595105D01*
X197424012Y-95591361D01*
X197532346Y-95589789D01*
X197566304Y-95589719D01*
X197837833Y-95589719D01*
X197832929Y-96043884D01*
X197828024Y-96498049D01*
X197765729Y-96591830D01*
X197734191Y-96641644D01*
X197711784Y-96681497D01*
X197703433Y-96702478D01*
X197719819Y-96708711D01*
X197768119Y-96713571D01*
X197847050Y-96716995D01*
X197955328Y-96718921D01*
X198052289Y-96719346D01*
X198158414Y-96718667D01*
X198250826Y-96716761D01*
X198324948Y-96713824D01*
X198376203Y-96710053D01*
X198400013Y-96705642D01*
X198401144Y-96704403D01*
X198392484Y-96683635D01*
X198369984Y-96644784D01*
X198344227Y-96604881D01*
X198323572Y-96573089D01*
X198306145Y-96542151D01*
X198291695Y-96509077D01*
X198279969Y-96470874D01*
X198270717Y-96424551D01*
X198263685Y-96367118D01*
X198258622Y-96295582D01*
X198255277Y-96206952D01*
X198253397Y-96098237D01*
X198252731Y-95966445D01*
X198253026Y-95808586D01*
X198254031Y-95621667D01*
X198254564Y-95539882D01*
X198255830Y-95355415D01*
X198257045Y-95201181D01*
X198258352Y-95074188D01*
X198259892Y-94971447D01*
X198261809Y-94889965D01*
X198264244Y-94826753D01*
X198267340Y-94778819D01*
X198271239Y-94743172D01*
X198276083Y-94716822D01*
X198282015Y-94696777D01*
X198289176Y-94680046D01*
X198296104Y-94666632D01*
X198323871Y-94620519D01*
X198350560Y-94585128D01*
X198358400Y-94577384D01*
X198380175Y-94549040D01*
X198384532Y-94532812D01*
X198379102Y-94524904D01*
X198360289Y-94518973D01*
X198324311Y-94514767D01*
X198267386Y-94512030D01*
X198185729Y-94510508D01*
X198075558Y-94509948D01*
X198043983Y-94509928D01*
X197941681Y-94510286D01*
X197851675Y-94511287D01*
X197778877Y-94512820D01*
X197728197Y-94514771D01*
X197704548Y-94517031D01*
X197703433Y-94517657D01*
X197711613Y-94534777D01*
X197732725Y-94570875D01*
X197753477Y-94604298D01*
X197780989Y-94650583D01*
X197801683Y-94694757D01*
X197816511Y-94742577D01*
X197826426Y-94799798D01*
X197832381Y-94872175D01*
X197835329Y-94965465D01*
X197836223Y-95085423D01*
X197836238Y-95104205D01*
X197836331Y-95407769D01*
X197549771Y-95403224D01*
X197263211Y-95398679D01*
X197258537Y-95091354D01*
X197257426Y-94966726D01*
X197259031Y-94869598D01*
X197264354Y-94794287D01*
X197274398Y-94735114D01*
X197290165Y-94686397D01*
X197312660Y-94642455D01*
X197342886Y-94597607D01*
X197346605Y-94592537D01*
X197371604Y-94550291D01*
X197374224Y-94523589D01*
X197372318Y-94521023D01*
X197351734Y-94516728D01*
X197304383Y-94513890D01*
X197236686Y-94512399D01*
X197155061Y-94512144D01*
X197065930Y-94513013D01*
X196975712Y-94514898D01*
X196890827Y-94517687D01*
X196817697Y-94521271D01*
X196762740Y-94525537D01*
X196732378Y-94530377D01*
X196728833Y-94532097D01*
X196730794Y-94550617D01*
X196751037Y-94579797D01*
X196751762Y-94580595D01*
X196783028Y-94621200D01*
X196813986Y-94670708D01*
X196816892Y-94676050D01*
X196824007Y-94691172D01*
X196829983Y-94709535D01*
X196834940Y-94734076D01*
X196839000Y-94767732D01*
X196842283Y-94813440D01*
X196844909Y-94874137D01*
X196847000Y-94952759D01*
X196848676Y-95052245D01*
X196850057Y-95175530D01*
X196851265Y-95325552D01*
X196852420Y-95505248D01*
X196852666Y-95546789D01*
X196853578Y-95775220D01*
X196853447Y-95970833D01*
X196852274Y-96133559D01*
X196850061Y-96263329D01*
X196846808Y-96360072D01*
X196842516Y-96423720D01*
X196839301Y-96446690D01*
X196811215Y-96528868D01*
X196759396Y-96604136D01*
X196755634Y-96608453D01*
X196720520Y-96651199D01*
X196696733Y-96685617D01*
X196690091Y-96701130D01*
X196246699Y-96701130D01*
X196333887Y-96657035D01*
X196438506Y-96569518D01*
X196518402Y-96460759D01*
X196572869Y-96331973D01*
X196601201Y-96184378D01*
X196603750Y-96036122D01*
X196592103Y-95935363D01*
X196567071Y-95844805D01*
X196525817Y-95760683D01*
X196465507Y-95679231D01*
X196383304Y-95596682D01*
X196276373Y-95509271D01*
X196141877Y-95413231D01*
X196127214Y-95403286D01*
X196044643Y-95346072D01*
X195966170Y-95289126D01*
X195898566Y-95237544D01*
X195848601Y-95196423D01*
X195832183Y-95181213D01*
X195758626Y-95093449D01*
X195712283Y-95006048D01*
X195694325Y-94922520D01*
X195705917Y-94846373D01*
X195714371Y-94827329D01*
X195756654Y-94779190D01*
X195821283Y-94745886D01*
X195900160Y-94728951D01*
X195985187Y-94729922D01*
X196068263Y-94750333D01*
X196084543Y-94757160D01*
X196156417Y-94802427D01*
X196231196Y-94871207D01*
X196301299Y-94955487D01*
X196359147Y-95047253D01*
X196359381Y-95047696D01*
X196395042Y-95111803D01*
X196422931Y-95152633D01*
X196443830Y-95168757D01*
X196458521Y-95158743D01*
X196467789Y-95121163D01*
X196472414Y-95054587D01*
X196473181Y-94957584D01*
X196471225Y-94843390D01*
X196467251Y-94717727D01*
X196461965Y-94624042D01*
X196455262Y-94561111D01*
X196447038Y-94527710D01*
X196443905Y-94522891D01*
X196424427Y-94513795D01*
X196393787Y-94521084D01*
X196352374Y-94541605D01*
X196281077Y-94580552D01*
X196149188Y-94534933D01*
X196003857Y-94499839D01*
X195865107Y-94496921D01*
X195734181Y-94525932D01*
X195612323Y-94586626D01*
X195519958Y-94659938D01*
X195449688Y-94736360D01*
X195400591Y-94816071D01*
X195369214Y-94907409D01*
X195352108Y-95018710D01*
X195348281Y-95074773D01*
X195345425Y-95152769D01*
X194821798Y-95152769D01*
X194823968Y-95148681D01*
X194871662Y-95060692D01*
X194916478Y-94980017D01*
X194955687Y-94911843D01*
X194986561Y-94861355D01*
X194989213Y-94857284D01*
X195038942Y-94789047D01*
X195100504Y-94714926D01*
X195160665Y-94650844D01*
X195161283Y-94650241D01*
X195207238Y-94603079D01*
X195242088Y-94562749D01*
X195260143Y-94536007D01*
X195261445Y-94531302D01*
X195254015Y-94523025D01*
X195229219Y-94517045D01*
X195183301Y-94513068D01*
X195112504Y-94510802D01*
X195013072Y-94509953D01*
X194987344Y-94509928D01*
X194880645Y-94510333D01*
X194803583Y-94512258D01*
X194752571Y-94516766D01*
X194724025Y-94524921D01*
X194714360Y-94537787D01*
X194719992Y-94556428D01*
X194737333Y-94581906D01*
X194738690Y-94583705D01*
X194758685Y-94635034D01*
X194760592Y-94708242D01*
X194744419Y-94797342D01*
X194738462Y-94818391D01*
X194720672Y-94868525D01*
X194693771Y-94933292D01*
X194660528Y-95007154D01*
X194623713Y-95084577D01*
X194586094Y-95160026D01*
X194550440Y-95227964D01*
X194519520Y-95282856D01*
X194496103Y-95319166D01*
X194482958Y-95331360D01*
X194482124Y-95330860D01*
X194470015Y-95308337D01*
X194449681Y-95260624D01*
X194423435Y-95194039D01*
X194393588Y-95114900D01*
X194362453Y-95029527D01*
X194332342Y-94944237D01*
X194305567Y-94865349D01*
X194284442Y-94799181D01*
X194273337Y-94760329D01*
X194259471Y-94692600D01*
X194251749Y-94626042D01*
X194251336Y-94587040D01*
X194256409Y-94518234D01*
X193944931Y-94515878D01*
X193832233Y-94515463D01*
X193748938Y-94516328D01*
X193691238Y-94518712D01*
X193655329Y-94522856D01*
X193637403Y-94529001D01*
X193633453Y-94535584D01*
X193643786Y-94557704D01*
X193671235Y-94596901D01*
X193710473Y-94645750D01*
X193722720Y-94660001D01*
X193769477Y-94721038D01*
X193828203Y-94810117D01*
X193897516Y-94924855D01*
X193976035Y-95062872D01*
X194062377Y-95221783D01*
X194155160Y-95399209D01*
X194181853Y-95451385D01*
X194267910Y-95620377D01*
X194160751Y-95816853D01*
X194078884Y-95966684D01*
X194010673Y-96090611D01*
X193954027Y-96191988D01*
X193906855Y-96274166D01*
X193867067Y-96340497D01*
X193832570Y-96394335D01*
X193801276Y-96439031D01*
X193771091Y-96477937D01*
X193739926Y-96514407D01*
X193705690Y-96551792D01*
X193695748Y-96562371D01*
X193644434Y-96617645D01*
X193602830Y-96664080D01*
X193575535Y-96696434D01*
X193567004Y-96709129D01*
X193166506Y-96709129D01*
X193245340Y-96678311D01*
X193352693Y-96612489D01*
X193444219Y-96531167D01*
X193515867Y-96439659D01*
X193563583Y-96343281D01*
X193583317Y-96247346D01*
X193583616Y-96234634D01*
X193576250Y-96197785D01*
X193554247Y-96190685D01*
X193517752Y-96213327D01*
X193491204Y-96238822D01*
X193424930Y-96295751D01*
X193341007Y-96350413D01*
X193252683Y-96395141D01*
X193174882Y-96421889D01*
X193072549Y-96429765D01*
X192977389Y-96405445D01*
X192894335Y-96351758D01*
X192841834Y-96290663D01*
X192791662Y-96205627D01*
X192747503Y-96105908D01*
X192713042Y-96000761D01*
X192691962Y-95899443D01*
X192687153Y-95831258D01*
X192687746Y-95764146D01*
X193082292Y-95570631D01*
X193191084Y-95516384D01*
X193292537Y-95464126D01*
X193382000Y-95416385D01*
X193454821Y-95375688D01*
X193506347Y-95344563D01*
X193530227Y-95327243D01*
X193561732Y-95293923D01*
X193577674Y-95261463D01*
X193583178Y-95216227D01*
X193583616Y-95185179D01*
X193571626Y-95042772D01*
X193537489Y-94906516D01*
X193483960Y-94781689D01*
X193413791Y-94673569D01*
X193329737Y-94587433D01*
X193243067Y-94532402D01*
X193142456Y-94502363D01*
X193028012Y-94496687D01*
X192907490Y-94514485D01*
X192788647Y-94554866D01*
X192715880Y-94592860D01*
X192616692Y-94668964D01*
X192523658Y-94770273D01*
X192442827Y-94888764D01*
X192380246Y-95016419D01*
X192364938Y-95058266D01*
X192310485Y-95261447D01*
X192276932Y-95477443D01*
X192264699Y-95697362D01*
X191664966Y-95697362D01*
X191664977Y-95671043D01*
X191665300Y-95541084D01*
X191666067Y-95437087D01*
X191667468Y-95355421D01*
X191669689Y-95292455D01*
X191672921Y-95244558D01*
X191677349Y-95208098D01*
X191683164Y-95179446D01*
X191690552Y-95154969D01*
X191699702Y-95131037D01*
X191701372Y-95126944D01*
X191754045Y-95018520D01*
X191810327Y-94941020D01*
X191857755Y-94901891D01*
X191918278Y-94878068D01*
X191966117Y-94884403D01*
X192000008Y-94919851D01*
X192018686Y-94983371D01*
X192022073Y-95037429D01*
X192027208Y-95099616D01*
X192044841Y-95133073D01*
X192078313Y-95141007D01*
X192119408Y-95130899D01*
X192167879Y-95097380D01*
X192205634Y-95039204D01*
X192232181Y-94963329D01*
X192247029Y-94876710D01*
X192249685Y-94786304D01*
X192239657Y-94699067D01*
X192216455Y-94621954D01*
X192179585Y-94561923D01*
X192160889Y-94544242D01*
X192095675Y-94511806D01*
X192024362Y-94509395D01*
X191950073Y-94535115D01*
X191875932Y-94587072D01*
X191805062Y-94663372D01*
X191740587Y-94762121D01*
X191713473Y-94815550D01*
X191658396Y-94933538D01*
X191653348Y-94725886D01*
X191648299Y-94518234D01*
X191598463Y-94514022D01*
X191564362Y-94517418D01*
X191510012Y-94529746D01*
X191442229Y-94548710D01*
X191367826Y-94572012D01*
X191293619Y-94597357D01*
X191226421Y-94622449D01*
X191173049Y-94644992D01*
X191140315Y-94662688D01*
X191133322Y-94670753D01*
X190854553Y-94670753D01*
X190845183Y-94660673D01*
X190829172Y-94644559D01*
X190746688Y-94577822D01*
X190654334Y-94535148D01*
X190546085Y-94514606D01*
X190421689Y-94513909D01*
X190278012Y-94534586D01*
X190150080Y-94577287D01*
X190040898Y-94639644D01*
X189953472Y-94719290D01*
X189890806Y-94813856D01*
X189855906Y-94920975D01*
X189850593Y-94963866D01*
X189853311Y-95044969D01*
X189873867Y-95102250D01*
X189911174Y-95133319D01*
X189929665Y-95137773D01*
X189976194Y-95126724D01*
X190026536Y-95083821D01*
X190079752Y-95010091D01*
X190128286Y-94920375D01*
X190178229Y-94832170D01*
X190230401Y-94773074D01*
X190289955Y-94739103D01*
X190362043Y-94726269D01*
X190379663Y-94725886D01*
X190461077Y-94739331D01*
X190522487Y-94779175D01*
X190563064Y-94844685D01*
X190577980Y-94901320D01*
X190584523Y-94957720D01*
X190589130Y-95029929D01*
X190591698Y-95109148D01*
X190592128Y-95186580D01*
X190590317Y-95253429D01*
X190586163Y-95300898D01*
X190582757Y-95315787D01*
X190565015Y-95331484D01*
X190522040Y-95358499D01*
X190458706Y-95394097D01*
X190379885Y-95435541D01*
X190290451Y-95480096D01*
X190287891Y-95481338D01*
X190157981Y-95546146D01*
X190054864Y-95602475D01*
X189974266Y-95653627D01*
X189911916Y-95702906D01*
X189863539Y-95753614D01*
X189824863Y-95809054D01*
X189797305Y-95860541D01*
X189757171Y-95969295D01*
X189732140Y-96092670D01*
X189722451Y-96221605D01*
X189421836Y-96221605D01*
X189443162Y-96184367D01*
X189519007Y-96029663D01*
X189581759Y-95877088D01*
X189623392Y-95747534D01*
X189641243Y-95675533D01*
X189654234Y-95608355D01*
X189663383Y-95537326D01*
X189669706Y-95453767D01*
X189674220Y-95349003D01*
X189675691Y-95301193D01*
X189677512Y-95130716D01*
X189671433Y-94984817D01*
X189656003Y-94855480D01*
X189629769Y-94734691D01*
X189591283Y-94614435D01*
X189539091Y-94486697D01*
X189520983Y-94446672D01*
X189475924Y-94364503D01*
X189796043Y-94364503D01*
X189810454Y-94376673D01*
X189848859Y-94378830D01*
X189904019Y-94372283D01*
X189968694Y-94358344D01*
X190035641Y-94338321D01*
X190097623Y-94313525D01*
X190109385Y-94307806D01*
X190190238Y-94257640D01*
X190280590Y-94186407D01*
X190372853Y-94101533D01*
X190459438Y-94010444D01*
X190532757Y-93920566D01*
X190581950Y-93845367D01*
X190634613Y-93732649D01*
X190672220Y-93616255D01*
X190691369Y-93507677D01*
X190693100Y-93469927D01*
X190686646Y-93406929D01*
X190669687Y-93331652D01*
X190645828Y-93255747D01*
X190618675Y-93190865D01*
X190594672Y-93151845D01*
X190560335Y-93125805D01*
X190529657Y-93130212D01*
X190504448Y-93162339D01*
X190486521Y-93219459D01*
X190477688Y-93298846D01*
X190477078Y-93328790D01*
X190464441Y-93512536D01*
X190428148Y-93690249D01*
X190370245Y-93856415D01*
X190292782Y-94005519D01*
X190197807Y-94132050D01*
X190166707Y-94164294D01*
X190110845Y-94211230D01*
X190044219Y-94256117D01*
X189976043Y-94293794D01*
X189915527Y-94319099D01*
X189876309Y-94327032D01*
X189832118Y-94334060D01*
X189802285Y-94351003D01*
X189796043Y-94364503D01*
X189475924Y-94364503D01*
X189409678Y-94243698D01*
X189269822Y-94053459D01*
X189104584Y-93878810D01*
X188917134Y-93722603D01*
X188710641Y-93587692D01*
X188488274Y-93476933D01*
X188408326Y-93444795D01*
X188113028Y-93344469D01*
X187837920Y-93274061D01*
X188162660Y-93274061D01*
X188277487Y-93317585D01*
X188337517Y-93339150D01*
X188387917Y-93355124D01*
X188418492Y-93362299D01*
X188419828Y-93362399D01*
X188443529Y-93350431D01*
X188477101Y-93318057D01*
X188506482Y-93281368D01*
X188659211Y-93091507D01*
X188823204Y-92931035D01*
X188964872Y-92822535D01*
X189042954Y-92767525D01*
X189064394Y-92749984D01*
X192214556Y-92749984D01*
X192222060Y-92878933D01*
X192251547Y-93016029D01*
X192279230Y-93103380D01*
X192345708Y-93248430D01*
X192436046Y-93370565D01*
X192549785Y-93469511D01*
X192686471Y-93544993D01*
X192845645Y-93596736D01*
X193026851Y-93624465D01*
X193154433Y-93629483D01*
X193325229Y-93622412D01*
X193486996Y-93599977D01*
X193644860Y-93560350D01*
X193803945Y-93501699D01*
X193969374Y-93422196D01*
X194146273Y-93320008D01*
X194300026Y-93220338D01*
X194418421Y-93141787D01*
X194515934Y-93080706D01*
X194598179Y-93034517D01*
X194670769Y-93000646D01*
X194739318Y-92976516D01*
X194809442Y-92959553D01*
X194886755Y-92947181D01*
X194898867Y-92945618D01*
X195100645Y-92935918D01*
X195310824Y-92955312D01*
X195524424Y-93002481D01*
X195736469Y-93076107D01*
X195941979Y-93174874D01*
X196078868Y-93257988D01*
X196143719Y-93306407D01*
X196223503Y-93374073D01*
X196311801Y-93454777D01*
X196402194Y-93542310D01*
X196488263Y-93630465D01*
X196563588Y-93713032D01*
X196619579Y-93780944D01*
X196676455Y-93859493D01*
X196729677Y-93940253D01*
X196777746Y-94019905D01*
X196819157Y-94095125D01*
X196852411Y-94162594D01*
X196876004Y-94218989D01*
X196888434Y-94260989D01*
X196888200Y-94285272D01*
X196873800Y-94288517D01*
X196843732Y-94267401D01*
X196836546Y-94260763D01*
X196769298Y-94205546D01*
X196682363Y-94146462D01*
X196587352Y-94090802D01*
X196495871Y-94045858D01*
X196491280Y-94043887D01*
X196349995Y-93992191D01*
X196210994Y-93960024D01*
X196066779Y-93946756D01*
X195909853Y-93951756D01*
X195732717Y-93974393D01*
X195710275Y-93978174D01*
X195517956Y-94006948D01*
X195352530Y-94021960D01*
X195210604Y-94023102D01*
X195088783Y-94010269D01*
X194983672Y-93983355D01*
X194912590Y-93953274D01*
X194840304Y-93909718D01*
X194796714Y-93865096D01*
X194777474Y-93814882D01*
X194777083Y-93812217D01*
X194776240Y-93785714D01*
X194789329Y-93774778D01*
X194824933Y-93774032D01*
X194836929Y-93774719D01*
X194894419Y-93769049D01*
X194924768Y-93745959D01*
X194926316Y-93709346D01*
X194897407Y-93663107D01*
X194888426Y-93653646D01*
X194832414Y-93618395D01*
X194769829Y-93613099D01*
X194707901Y-93637490D01*
X194678741Y-93661430D01*
X194649305Y-93695985D01*
X194634802Y-93731933D01*
X194630316Y-93783325D01*
X194630183Y-93800176D01*
X194644778Y-93896718D01*
X194688055Y-93977625D01*
X194759248Y-94042648D01*
X194857593Y-94091542D01*
X194982326Y-94124059D01*
X195132682Y-94139952D01*
X195307897Y-94138974D01*
X195507206Y-94120879D01*
X195587883Y-94109647D01*
X195712887Y-94092772D01*
X195821187Y-94083452D01*
X195928203Y-94080772D01*
X196033911Y-94083192D01*
X196166673Y-94091924D01*
X196283897Y-94108738D01*
X196392810Y-94136160D01*
X196500639Y-94176716D01*
X196614610Y-94232932D01*
X196741950Y-94307332D01*
X196824044Y-94359336D01*
X196888668Y-94399945D01*
X196944314Y-94432724D01*
X196984412Y-94453939D01*
X197001286Y-94460091D01*
X197014123Y-94450415D01*
X197015579Y-94417636D01*
X197012109Y-94389490D01*
X196987444Y-94275930D01*
X196947953Y-94151532D01*
X196898587Y-94029487D01*
X196844298Y-93922990D01*
X196825792Y-93892964D01*
X196750370Y-93785806D01*
X196658267Y-93667751D01*
X196558242Y-93549269D01*
X196459055Y-93440831D01*
X196389332Y-93371302D01*
X196192523Y-93204134D01*
X195981874Y-93060196D01*
X195762187Y-92942196D01*
X195538265Y-92852842D01*
X195399442Y-92813025D01*
X195283012Y-92791380D01*
X195153868Y-92778424D01*
X195021083Y-92774170D01*
X194893731Y-92778631D01*
X194780884Y-92791820D01*
X194696631Y-92812022D01*
X194614197Y-92836581D01*
X194550454Y-92846442D01*
X194494500Y-92842006D01*
X194435430Y-92823672D01*
X194430688Y-92821796D01*
X194370956Y-92789435D01*
X194342827Y-92751600D01*
X194344826Y-92705901D01*
X194350366Y-92691845D01*
X194361277Y-92645504D01*
X194350799Y-92607835D01*
X194321271Y-92574395D01*
X194279884Y-92564685D01*
X194233960Y-92575303D01*
X194190820Y-92602850D01*
X194157786Y-92643926D01*
X194142179Y-92695130D01*
X194141785Y-92704901D01*
X194153084Y-92762303D01*
X194189046Y-92813365D01*
X194252767Y-92861451D01*
X194318178Y-92896407D01*
X194414154Y-92942471D01*
X194268833Y-93050104D01*
X194116474Y-93157577D01*
X193974736Y-93246835D01*
X193846206Y-93316555D01*
X193733474Y-93365414D01*
X193639127Y-93392091D01*
X193590078Y-93396913D01*
X193512828Y-93389386D01*
X193462662Y-93365096D01*
X193436628Y-93321481D01*
X193431580Y-93259342D01*
X193430076Y-93202821D01*
X193416030Y-93175364D01*
X193386321Y-93174171D01*
X193352542Y-93188487D01*
X193292061Y-93234483D01*
X193259853Y-93291034D01*
X193255483Y-93351966D01*
X193278519Y-93411105D01*
X193328528Y-93462278D01*
X193373532Y-93487579D01*
X193394981Y-93497923D01*
X193399912Y-93504641D01*
X193384331Y-93508573D01*
X193344245Y-93510561D01*
X193275660Y-93511446D01*
X193259679Y-93511554D01*
X193083786Y-93503165D01*
X192926554Y-93474374D01*
X192779110Y-93423378D01*
X192740522Y-93405897D01*
X192621862Y-93335214D01*
X192516521Y-93244624D01*
X192431963Y-93141320D01*
X192390913Y-93069126D01*
X192369487Y-93019314D01*
X192356126Y-92974028D01*
X192349002Y-92922603D01*
X192346287Y-92854372D01*
X192346010Y-92807181D01*
X192347789Y-92717833D01*
X192354280Y-92649707D01*
X192367214Y-92590935D01*
X192385388Y-92537299D01*
X192438976Y-92431823D01*
X192513497Y-92334378D01*
X192600011Y-92256134D01*
X192622883Y-92240618D01*
X192689684Y-92207577D01*
X192773465Y-92178628D01*
X192858897Y-92158274D01*
X192927911Y-92151001D01*
X193031645Y-92165804D01*
X193133837Y-92206772D01*
X193221884Y-92268739D01*
X193227005Y-92273551D01*
X193269295Y-92317040D01*
X193291697Y-92351231D01*
X193300236Y-92387624D01*
X193301210Y-92415225D01*
X193294780Y-92471594D01*
X193270405Y-92515093D01*
X193252651Y-92534358D01*
X193213880Y-92565336D01*
X193177851Y-92581998D01*
X193170416Y-92582917D01*
X193134765Y-92595256D01*
X193117046Y-92626252D01*
X193116829Y-92666875D01*
X193133682Y-92708092D01*
X193167176Y-92740872D01*
X193178227Y-92746749D01*
X193241076Y-92764274D01*
X193298633Y-92753758D01*
X193358614Y-92713602D01*
X193364799Y-92708115D01*
X193421842Y-92637767D01*
X193457780Y-92553875D01*
X193467331Y-92486093D01*
X193455492Y-92417124D01*
X193423403Y-92336920D01*
X193376207Y-92255670D01*
X193319047Y-92183565D01*
X193309862Y-92174098D01*
X193237801Y-92106752D01*
X193173508Y-92060373D01*
X193107632Y-92031269D01*
X193030824Y-92015747D01*
X192933733Y-92010115D01*
X192893840Y-92009797D01*
X192811323Y-92010411D01*
X192752304Y-92013447D01*
X192707065Y-92020699D01*
X192665885Y-92033957D01*
X192619046Y-92055016D01*
X192601091Y-92063786D01*
X192480889Y-92140965D01*
X192381991Y-92243387D01*
X192304777Y-92370486D01*
X192249624Y-92521699D01*
X192228014Y-92619547D01*
X192214556Y-92749984D01*
X189064394Y-92749984D01*
X189092019Y-92727382D01*
X189112365Y-92701332D01*
X189104289Y-92688604D01*
X189068088Y-92688426D01*
X189012720Y-92698138D01*
X188879883Y-92740057D01*
X188736001Y-92810662D01*
X188583654Y-92908337D01*
X188425420Y-93031466D01*
X188296317Y-93147219D01*
X188162660Y-93274061D01*
X187837920Y-93274061D01*
X187833141Y-93272838D01*
X187567380Y-93229877D01*
X187314457Y-93215558D01*
X187073084Y-93229855D01*
X186841975Y-93272741D01*
X186619843Y-93344189D01*
X186481916Y-93404834D01*
X186255327Y-93530867D01*
X186054220Y-93675386D01*
X185879562Y-93837307D01*
X185732320Y-94015540D01*
X185613460Y-94209000D01*
X185523950Y-94416599D01*
X185492800Y-94516899D01*
X185448048Y-94701790D01*
X185421678Y-94866636D01*
X185413111Y-95018671D01*
X185128256Y-95018671D01*
X185128328Y-93654401D01*
X186021080Y-93062115D01*
X186181273Y-92955731D01*
X186359307Y-92837305D01*
X186552781Y-92708449D01*
X186759291Y-92570769D01*
X186976436Y-92425876D01*
X187201811Y-92275378D01*
X187433014Y-92120884D01*
X187667644Y-91964002D01*
X187903296Y-91806342D01*
X188137569Y-91649513D01*
X188368059Y-91495124D01*
X188592364Y-91344782D01*
X188808082Y-91200098D01*
X189012809Y-91062680D01*
X189204144Y-90934137D01*
X189379682Y-90816078D01*
X189537022Y-90710111D01*
X189673761Y-90617846D01*
X189787496Y-90540892D01*
X189870798Y-90484284D01*
X189979306Y-90410499D01*
X190107090Y-90323913D01*
X190245791Y-90230172D01*
X190387050Y-90134921D01*
X190522509Y-90043805D01*
X190610039Y-89985079D01*
X190728491Y-89905465D01*
X190851432Y-89822395D01*
X190972287Y-89740342D01*
X191084485Y-89663777D01*
X191181451Y-89597175D01*
X191249607Y-89549905D01*
X191349128Y-89480849D01*
X191460739Y-89404161D01*
X191572510Y-89327996D01*
X191672510Y-89260508D01*
X191697412Y-89243852D01*
X191912647Y-89100270D01*
X192253920Y-89323862D01*
G37*
D12*
%TO.C,D22*%
X152936560Y-109567750D02*
X153087245Y-109527372D01*
X155173644Y-108968323D02*
X155324329Y-108927946D01*
X152937028Y-109567623D02*
G75*
G02*
X152250838Y-106406098I789659J1826620D01*
G01*
X152952908Y-109026020D02*
G75*
G02*
X152414031Y-107015099I773779J1285017D01*
G01*
X154337355Y-105847017D02*
G75*
G02*
X155323861Y-108928072I-610668J-1893986D01*
G01*
X154500527Y-106456024D02*
G75*
G02*
X155039307Y-108466970I-773840J-1284979D01*
G01*
%TO.C,R13*%
X169714601Y-124122494D02*
X169591787Y-124580842D01*
X170723993Y-124392960D02*
X170601179Y-124851308D01*
%TO.C,R7*%
X153614658Y-97115100D02*
X153140142Y-97115100D01*
X153614658Y-98160100D02*
X153140142Y-98160100D01*
%TO.C,D11*%
X204543258Y-104520157D02*
X204392573Y-104479780D01*
X206780342Y-105119583D02*
X206629657Y-105079206D01*
X203706852Y-107641430D02*
G75*
G02*
X204393042Y-104479907I1475848J1334904D01*
G01*
X203870045Y-107032430D02*
G75*
G02*
X204408921Y-105021510I1312655J725904D01*
G01*
X206495320Y-105580559D02*
G75*
G02*
X205956540Y-107591505I-1312620J-725967D01*
G01*
X206779874Y-105119457D02*
G75*
G02*
X205793367Y-108200512I-1597174J-1187069D01*
G01*
%TO.C,R16*%
X168138908Y-76860136D02*
X167901651Y-76449192D01*
X169043903Y-76337636D02*
X168806646Y-75926692D01*
%TO.C,R3*%
X204931742Y-102093500D02*
X205406258Y-102093500D01*
X204931742Y-103138500D02*
X205406258Y-103138500D01*
%TO.C,D5*%
X181544399Y-127982000D02*
X181544401Y-127826000D01*
X181544401Y-125666000D02*
X181544403Y-125510000D01*
X178313005Y-125665939D02*
G75*
G02*
X181544400Y-125510485I1671396J-1080061D01*
G01*
X178943491Y-125665951D02*
G75*
G02*
X181025363Y-125666001I1040910J-1080049D01*
G01*
X181025362Y-127826000D02*
G75*
G02*
X178943491Y-127826049I-1040961J1080000D01*
G01*
X181544401Y-127981516D02*
G75*
G02*
X178313002Y-127826059I-1560000J1235516D01*
G01*
%TO.C,R8*%
X162509866Y-80546393D02*
X162174333Y-80210860D01*
X163248793Y-79807466D02*
X162913260Y-79471933D01*
%TO.C,R22*%
X153697230Y-103868371D02*
X153238882Y-103991185D01*
X153967696Y-104877763D02*
X153509348Y-105000577D01*
%TO.C,R11*%
X203271893Y-109675053D02*
X203730241Y-109797867D01*
X203542359Y-108665661D02*
X204000707Y-108788475D01*
%TO.C,D7*%
X151392600Y-102423401D02*
X151548600Y-102423400D01*
X153708600Y-102423400D02*
X153864600Y-102423399D01*
X151393084Y-102423400D02*
G75*
G02*
X151548539Y-99192003I1235516J1560000D01*
G01*
X151548600Y-101904362D02*
G75*
G02*
X151548550Y-99822489I1080000J1040962D01*
G01*
X153708649Y-99822490D02*
G75*
G02*
X153708600Y-101904361I-1080049J-1040910D01*
G01*
X153708659Y-99192002D02*
G75*
G02*
X153864116Y-102423400I-1080059J-1671398D01*
G01*
%TO.C,R1*%
X181290700Y-74481458D02*
X181290700Y-74006942D01*
X182335700Y-74481458D02*
X182335700Y-74006942D01*
%TO.C,D1*%
X177027400Y-72271600D02*
X177027400Y-72427600D01*
X177027400Y-74587600D02*
X177027400Y-74743600D01*
X177027400Y-72272084D02*
G75*
G02*
X180258797Y-72427539I1560000J-1235516D01*
G01*
X177546439Y-72427600D02*
G75*
G02*
X179628310Y-72427551I1040961J-1080000D01*
G01*
X179628310Y-74587649D02*
G75*
G02*
X177546439Y-74587600I-1040910J1080049D01*
G01*
X180258797Y-74587661D02*
G75*
G02*
X177027400Y-74743116I-1671397J1080061D01*
G01*
%TO.C,R9*%
X187855734Y-75848691D02*
X187978548Y-75390343D01*
X188865126Y-76119157D02*
X188987940Y-75660809D01*
%TO.C,D4*%
X198958386Y-116557064D02*
X198848078Y-116446754D01*
X200596044Y-118194724D02*
X200485736Y-118084414D01*
X196673401Y-118841963D02*
G75*
G02*
X198848420Y-116447096I1945576J418137D01*
G01*
X197119230Y-118396150D02*
G75*
G02*
X198591370Y-116924081I1499744J-27676D01*
G01*
X200118721Y-118451430D02*
G75*
G02*
X198646650Y-119923572I-1499747J27604D01*
G01*
X200595702Y-118194381D02*
G75*
G02*
X198200835Y-120369400I-1976728J-229445D01*
G01*
%TO.C,R4*%
X195279904Y-120385654D02*
X195615437Y-120721187D01*
X196018831Y-119646727D02*
X196354364Y-119982260D01*
%TO.C,R10*%
X202489064Y-88992509D02*
X202900008Y-88755252D01*
X203011564Y-89897504D02*
X203422508Y-89660247D01*
%TO.C,D2*%
X195728864Y-80416214D02*
X195618554Y-80526523D01*
X197366524Y-78778555D02*
X197256214Y-78888864D01*
X197366181Y-78778898D02*
G75*
G02*
X199541200Y-81173764I229445J-1976728D01*
G01*
X197567950Y-82255370D02*
G75*
G02*
X196095881Y-80783230I27676J1499744D01*
G01*
X197623230Y-79255879D02*
G75*
G02*
X199095372Y-80727950I-27604J-1499747D01*
G01*
X198013763Y-82701199D02*
G75*
G02*
X195618896Y-80526180I-418137J1945576D01*
G01*
%TO.C,D16*%
X163341852Y-77077992D02*
X163419853Y-77213093D01*
X164499852Y-79083707D02*
X164577854Y-79218808D01*
X163342094Y-77078412D02*
G75*
G02*
X166218293Y-75597341I1968759J-289991D01*
G01*
X163869354Y-76953573D02*
G75*
G02*
X165672282Y-75912596I1441498J-414827D01*
G01*
X166752331Y-77783295D02*
G75*
G02*
X164949353Y-78824188I-1441479J414895D01*
G01*
X167298355Y-77468061D02*
G75*
G02*
X164577611Y-79218389I-1987503J99661D01*
G01*
%TO.C,D13*%
X174270071Y-127630941D02*
X174310449Y-127480257D01*
X174869498Y-125393858D02*
X174909876Y-125243174D01*
X171748225Y-124557452D02*
G75*
G02*
X174909748Y-125243642I1334904J-1475848D01*
G01*
X172357225Y-124720645D02*
G75*
G02*
X174368146Y-125259522I725904J-1312655D01*
G01*
X173809096Y-127345920D02*
G75*
G02*
X171798150Y-126807140I-725967J1312620D01*
G01*
X174270198Y-127630474D02*
G75*
G02*
X171189143Y-126643967I-1187069J1597174D01*
G01*
D13*
%TO.C,IC2*%
X162419200Y-95021400D02*
X170254200Y-95021400D01*
X163654200Y-105181400D02*
X170254200Y-105181400D01*
D12*
%TO.C,D21*%
X167323949Y-125396008D02*
X167401948Y-125260907D01*
X168481947Y-123390293D02*
X168559947Y-123255192D01*
X165683504Y-121774542D02*
G75*
G02*
X168559706Y-123255612I907443J-1771060D01*
G01*
X166229518Y-122089795D02*
G75*
G02*
X168032447Y-123130773I361430J-1455805D01*
G01*
X166952448Y-125001388D02*
G75*
G02*
X165149469Y-123960495I-361500J1455788D01*
G01*
X167324190Y-125395587D02*
G75*
G02*
X164603446Y-123645262I-733242J1849987D01*
G01*
%TO.C,C1*%
X184479999Y-104357602D02*
X184479997Y-103617600D01*
X184519996Y-104524599D02*
X184519997Y-103450602D01*
X184559996Y-104651600D02*
X184559998Y-103323600D01*
X184599998Y-104755600D02*
X184599998Y-103219600D01*
X184639997Y-104846599D02*
X184639999Y-103128600D01*
X184679998Y-104927600D02*
X184679998Y-103047600D01*
X184719997Y-105000598D02*
X184719998Y-102974602D01*
X184759997Y-105067598D02*
X184759999Y-104827600D01*
X184759999Y-103147599D02*
X184760000Y-102907602D01*
X184799998Y-103147600D02*
X184799997Y-102845599D01*
X184800000Y-105129598D02*
X184799998Y-104827600D01*
X184839998Y-103147600D02*
X184839998Y-102787602D01*
X184839998Y-105187602D02*
X184839998Y-104827600D01*
X184879998Y-103147600D02*
X184879998Y-102733600D01*
X184879998Y-105241600D02*
X184879996Y-104827601D01*
X184919998Y-103147600D02*
X184919998Y-102683600D01*
X184919998Y-105291600D02*
X184919998Y-104827600D01*
X184959996Y-105338599D02*
X184959998Y-104827600D01*
X184959998Y-103147600D02*
X184959998Y-102636600D01*
X184999998Y-103147600D02*
X184999997Y-102591598D01*
X184999998Y-105383600D02*
X184999998Y-104827600D01*
X185039996Y-103147601D02*
X185039999Y-102549599D01*
X185039999Y-105425598D02*
X185039996Y-104827601D01*
X185079998Y-103147600D02*
X185079997Y-102509600D01*
X185079998Y-105465600D02*
X185079998Y-104827600D01*
X185119996Y-105503599D02*
X185119998Y-104827600D01*
X185119998Y-103147600D02*
X185119998Y-102471602D01*
X185159998Y-103147600D02*
X185159998Y-102435600D01*
X185159998Y-105539600D02*
X185159998Y-104827600D01*
X185199996Y-103147601D02*
X185200000Y-102400599D01*
X185199998Y-105574600D02*
X185199999Y-104827599D01*
X185239998Y-103147600D02*
X185239998Y-102368600D01*
X185239998Y-105606600D02*
X185239998Y-104827600D01*
X185279998Y-103147600D02*
X185279998Y-102337600D01*
X185279998Y-105637600D02*
X185279998Y-104827600D01*
X185319998Y-103147600D02*
X185319998Y-102307600D01*
X185319998Y-105667600D02*
X185319998Y-104827600D01*
X185359998Y-103147601D02*
X185360000Y-102279599D01*
X185359998Y-105695600D02*
X185359997Y-104827599D01*
X185399997Y-103147599D02*
X185399998Y-102252600D01*
X185399998Y-105722600D02*
X185399998Y-104827600D01*
X185439996Y-105747599D02*
X185439996Y-104827599D01*
X185439998Y-103147600D02*
X185439998Y-102227600D01*
X185479998Y-103147600D02*
X185479998Y-102202600D01*
X185479998Y-105772600D02*
X185479998Y-104827600D01*
X185519996Y-105795600D02*
X185519997Y-104827598D01*
X185519998Y-103147601D02*
X185519997Y-102179602D01*
X185559996Y-105817600D02*
X185559998Y-104827600D01*
X185559999Y-103147601D02*
X185559998Y-102157601D01*
X185599998Y-103147600D02*
X185599997Y-102136600D01*
X185599998Y-105838601D02*
X185599998Y-104827602D01*
X185639998Y-103147600D02*
X185640000Y-102117599D01*
X185639999Y-105857599D02*
X185639997Y-104827600D01*
X185679999Y-103147600D02*
X185679997Y-102098601D01*
X185680000Y-105876601D02*
X185679999Y-104827603D01*
X185719997Y-105894599D02*
X185720001Y-104827600D01*
X185720000Y-103147601D02*
X185719999Y-102080600D01*
X185759998Y-103147600D02*
X185759997Y-102063602D01*
X185759998Y-105911600D02*
X185760001Y-104827601D01*
X185799998Y-103147600D02*
X185799999Y-102047600D01*
X185800000Y-105927600D02*
X185799998Y-104827600D01*
X185839997Y-103147599D02*
X185839997Y-102033600D01*
X185839997Y-105941602D02*
X185840000Y-104827600D01*
X185880997Y-105955598D02*
X185880997Y-104827601D01*
X185880998Y-103147600D02*
X185880998Y-102019600D01*
X185920998Y-105969600D02*
X185920998Y-104827600D01*
X185921000Y-103147601D02*
X185920998Y-102005599D01*
X185960998Y-103147600D02*
X185960999Y-101993600D01*
X185961000Y-105981602D02*
X185960998Y-104827600D01*
X186000996Y-103147601D02*
X186001000Y-101982602D01*
X186000997Y-105992602D02*
X186000998Y-104827600D01*
X186040998Y-106003598D02*
X186040999Y-104827600D01*
X186040999Y-103147602D02*
X186041001Y-101971599D01*
X186080998Y-103147599D02*
X186080998Y-101962598D01*
X186080999Y-106012599D02*
X186080998Y-104827599D01*
X186120998Y-103147600D02*
X186120998Y-101953600D01*
X186120999Y-106021600D02*
X186120998Y-104827600D01*
X186160997Y-106029598D02*
X186160998Y-104827600D01*
X186160998Y-103147600D02*
X186160999Y-101945600D01*
X186200998Y-103147600D02*
X186200998Y-101937600D01*
X186200998Y-106037600D02*
X186200999Y-104827599D01*
X186240998Y-103147598D02*
X186240998Y-101931600D01*
X186240998Y-106043602D02*
X186240998Y-104827598D01*
X186280999Y-103147600D02*
X186280999Y-101925598D01*
X186281000Y-106049601D02*
X186280998Y-104827600D01*
X186320997Y-106054598D02*
X186320998Y-104827600D01*
X186320998Y-103147600D02*
X186320998Y-101920600D01*
X186360998Y-103147601D02*
X186360997Y-101916598D01*
X186360998Y-106058598D02*
X186360998Y-104827601D01*
X186401000Y-106061600D02*
X186400998Y-101913599D01*
X186440998Y-106064601D02*
X186441000Y-101910599D01*
X186481001Y-106066599D02*
X186480999Y-101908598D01*
X186520998Y-106067600D02*
X186520998Y-101907599D01*
X186560999Y-106067601D02*
X186560998Y-101907600D01*
X188630799Y-105382600D02*
X188630797Y-104982601D01*
X188830799Y-105182600D02*
X188430801Y-105182600D01*
X188681000Y-103987600D02*
G75*
G02*
X184440996Y-103987600I-2120002J0D01*
G01*
X184440996Y-103987600D02*
G75*
G02*
X188681000Y-103987600I2120002J0D01*
G01*
%TD*%
M02*
