%TF.GenerationSoftware,KiCad,Pcbnew,8.0.9*%
%TF.CreationDate,2025-12-12T10:11:10+01:00*%
%TF.ProjectId,Project,50726f6a-6563-4742-9e6b-696361645f70,rev?*%
%TF.SameCoordinates,Original*%
%TF.FileFunction,Legend,Bot*%
%TF.FilePolarity,Positive*%
%FSLAX46Y46*%
G04 Gerber Fmt 4.6, Leading zero omitted, Abs format (unit mm)*
G04 Created by KiCad (PCBNEW 8.0.9) date 2025-12-12 10:11:10*
%MOMM*%
%LPD*%
G01*
G04 APERTURE LIST*
%ADD10C,0.100000*%
%ADD11C,0.150000*%
%ADD12C,0.000000*%
%ADD13C,0.120000*%
G04 APERTURE END LIST*
D10*
X162878000Y-109398800D02*
X170878000Y-109398800D01*
X170878000Y-117398800D01*
X162878000Y-117398800D01*
X162878000Y-109398800D01*
G36*
X162878000Y-109398800D02*
G01*
X170878000Y-109398800D01*
X170878000Y-117398800D01*
X162878000Y-117398800D01*
X162878000Y-109398800D01*
G37*
D11*
X182730733Y-114567619D02*
X182730733Y-115281904D01*
X182730733Y-115281904D02*
X182778352Y-115424761D01*
X182778352Y-115424761D02*
X182873590Y-115520000D01*
X182873590Y-115520000D02*
X183016447Y-115567619D01*
X183016447Y-115567619D02*
X183111685Y-115567619D01*
X181730733Y-115567619D02*
X182302161Y-115567619D01*
X182016447Y-115567619D02*
X182016447Y-114567619D01*
X182016447Y-114567619D02*
X182111685Y-114710476D01*
X182111685Y-114710476D02*
X182206923Y-114805714D01*
X182206923Y-114805714D02*
X182302161Y-114853333D01*
D12*
%TO.C,G\u002A\u002A\u002A*%
G36*
X191833977Y-100441560D02*
G01*
X191867925Y-100464904D01*
X191894487Y-100514730D01*
X191910573Y-100585827D01*
X191911221Y-100591234D01*
X191913253Y-100634137D01*
X191902745Y-100652667D01*
X191874352Y-100649300D01*
X191822727Y-100626511D01*
X191798919Y-100613526D01*
X191770107Y-100585099D01*
X191759298Y-100543163D01*
X191762071Y-100493716D01*
X191784376Y-100454580D01*
X191824378Y-100440471D01*
X191833977Y-100441560D01*
G37*
G36*
X188471143Y-100441373D02*
G01*
X188508881Y-100459144D01*
X188533229Y-100502206D01*
X188546430Y-100573919D01*
X188548570Y-100603643D01*
X188548378Y-100641588D01*
X188543757Y-100656429D01*
X188535677Y-100654327D01*
X188503733Y-100641672D01*
X188458583Y-100621375D01*
X188417580Y-100599518D01*
X188391216Y-100574859D01*
X188384009Y-100545528D01*
X188391588Y-100495686D01*
X188417384Y-100455309D01*
X188457314Y-100440471D01*
X188471143Y-100441373D01*
G37*
G36*
X193296774Y-100678410D02*
G01*
X193330259Y-100698268D01*
X193365207Y-100724159D01*
X193388169Y-100746833D01*
X193394430Y-100762581D01*
X193399932Y-100805728D01*
X193398818Y-100855609D01*
X193390799Y-100895947D01*
X193390671Y-100896278D01*
X193367240Y-100918503D01*
X193331098Y-100918457D01*
X193294090Y-100896119D01*
X193281872Y-100870139D01*
X193272862Y-100826179D01*
X193267662Y-100774366D01*
X193266869Y-100724823D01*
X193271083Y-100687674D01*
X193280901Y-100673041D01*
X193296774Y-100678410D01*
G37*
G36*
X195550480Y-100479374D02*
G01*
X195560040Y-100485826D01*
X195576072Y-100500183D01*
X195585983Y-100520125D01*
X195591244Y-100552561D01*
X195593322Y-100604401D01*
X195593689Y-100682555D01*
X195593413Y-100722319D01*
X195589793Y-100807548D01*
X195581475Y-100867409D01*
X195567820Y-100907448D01*
X195558635Y-100923728D01*
X195533083Y-100949047D01*
X195497342Y-100952307D01*
X195490926Y-100951347D01*
X195451119Y-100931192D01*
X195424122Y-100886372D01*
X195409036Y-100814561D01*
X195404959Y-100713428D01*
X195405503Y-100688406D01*
X195414979Y-100591232D01*
X195435220Y-100520126D01*
X195465221Y-100476703D01*
X195503976Y-100462581D01*
X195550480Y-100479374D01*
G37*
G36*
X194128496Y-100244447D02*
G01*
X194131096Y-100248888D01*
X194137954Y-100282085D01*
X194143231Y-100339931D01*
X194146926Y-100415999D01*
X194149039Y-100503863D01*
X194149570Y-100597097D01*
X194148519Y-100689274D01*
X194145886Y-100773970D01*
X194141671Y-100844757D01*
X194135874Y-100895209D01*
X194128496Y-100918901D01*
X194114757Y-100928083D01*
X194068963Y-100938621D01*
X194011068Y-100937578D01*
X193953694Y-100925802D01*
X193909462Y-100904145D01*
X193884632Y-100882750D01*
X193847728Y-100837228D01*
X193824350Y-100780880D01*
X193812024Y-100706427D01*
X193808274Y-100606592D01*
X193810075Y-100534562D01*
X193823211Y-100433198D01*
X193850594Y-100356285D01*
X193894032Y-100299555D01*
X193955328Y-100258735D01*
X194027869Y-100231618D01*
X194087722Y-100226395D01*
X194128496Y-100244447D01*
G37*
G36*
X190861694Y-94699436D02*
G01*
X190951955Y-94724757D01*
X191027517Y-94773195D01*
X191087320Y-94847255D01*
X191134866Y-94950150D01*
X191142410Y-94973833D01*
X191153525Y-95025460D01*
X191161633Y-95092657D01*
X191167353Y-95181300D01*
X191171301Y-95297270D01*
X191177858Y-95561329D01*
X191121175Y-95552131D01*
X191120124Y-95551954D01*
X191075805Y-95539063D01*
X191013308Y-95514177D01*
X190939611Y-95480839D01*
X190861689Y-95442592D01*
X190786519Y-95402981D01*
X190721076Y-95365549D01*
X190672336Y-95333840D01*
X190647276Y-95311397D01*
X190636172Y-95288511D01*
X190629210Y-95252456D01*
X190627887Y-95198723D01*
X190631577Y-95119683D01*
X190638805Y-95037716D01*
X190661864Y-94907038D01*
X190697294Y-94807081D01*
X190745120Y-94737759D01*
X190781262Y-94706429D01*
X190814473Y-94695445D01*
X190861694Y-94699436D01*
G37*
G36*
X193324074Y-95539828D02*
G01*
X193378028Y-95563489D01*
X193439371Y-95596101D01*
X193500148Y-95633600D01*
X193552407Y-95671923D01*
X193581385Y-95701257D01*
X193622807Y-95756187D01*
X193658287Y-95816438D01*
X193677653Y-95857681D01*
X193693413Y-95901687D01*
X193703357Y-95949947D01*
X193709376Y-96012118D01*
X193713358Y-96097857D01*
X193715511Y-96174954D01*
X193714900Y-96236539D01*
X193710220Y-96280806D01*
X193700535Y-96316086D01*
X193684906Y-96350710D01*
X193675376Y-96367595D01*
X193640285Y-96414072D01*
X193604290Y-96444997D01*
X193590575Y-96451537D01*
X193526441Y-96463804D01*
X193455561Y-96456436D01*
X193393050Y-96430471D01*
X193382593Y-96422789D01*
X193344386Y-96387051D01*
X193306469Y-96343100D01*
X193259679Y-96281802D01*
X193254642Y-95910660D01*
X193253350Y-95799829D01*
X193252945Y-95703814D01*
X193253838Y-95633501D01*
X193256236Y-95584924D01*
X193260346Y-95554117D01*
X193266375Y-95537115D01*
X193274531Y-95529953D01*
X193285461Y-95529180D01*
X193324074Y-95539828D01*
G37*
G36*
X195800074Y-93671405D02*
G01*
X195819936Y-93707339D01*
X195837151Y-93769802D01*
X195856983Y-93861667D01*
X195871536Y-93932511D01*
X195887010Y-94015672D01*
X195900873Y-94101222D01*
X195913454Y-94192584D01*
X195925079Y-94293180D01*
X195936078Y-94406435D01*
X195946778Y-94535771D01*
X195957508Y-94684612D01*
X195968596Y-94856381D01*
X195980369Y-95054500D01*
X195993157Y-95282394D01*
X195996141Y-95335637D01*
X196008752Y-95536310D01*
X196022314Y-95709292D01*
X196037484Y-95859038D01*
X196054920Y-95990003D01*
X196075281Y-96106642D01*
X196099224Y-96213409D01*
X196127408Y-96314761D01*
X196160491Y-96415151D01*
X196177366Y-96462029D01*
X196218816Y-96566700D01*
X196263179Y-96660716D01*
X196316497Y-96756199D01*
X196384811Y-96865274D01*
X196409425Y-96903596D01*
X196442760Y-96957022D01*
X196465637Y-96995700D01*
X196474133Y-97013139D01*
X196466649Y-97016477D01*
X196432069Y-97018679D01*
X196375020Y-97018094D01*
X196301766Y-97015114D01*
X196218573Y-97010129D01*
X196131706Y-97003533D01*
X196047428Y-96995715D01*
X195972005Y-96987068D01*
X195911700Y-96977984D01*
X195787873Y-96952084D01*
X195638285Y-96910719D01*
X195507479Y-96862710D01*
X195402649Y-96810424D01*
X195339113Y-96768634D01*
X195203883Y-96652897D01*
X195080384Y-96509076D01*
X194970189Y-96339774D01*
X194874872Y-96147597D01*
X194796004Y-95935150D01*
X194735161Y-95705038D01*
X194733056Y-95694911D01*
X194717072Y-95584429D01*
X194707790Y-95452941D01*
X194705182Y-95310861D01*
X194709222Y-95168606D01*
X194719885Y-95036591D01*
X194737142Y-94925232D01*
X194770611Y-94788767D01*
X194848193Y-94567469D01*
X194953382Y-94358443D01*
X195088986Y-94155544D01*
X195130731Y-94102315D01*
X195269346Y-93955231D01*
X195426526Y-93831377D01*
X195608177Y-93725866D01*
X195671960Y-93694045D01*
X195731350Y-93667632D01*
X195772300Y-93659127D01*
X195800074Y-93671405D01*
G37*
G36*
X198716624Y-96521257D02*
G01*
X198716746Y-98822524D01*
X198716776Y-99388113D01*
X198679398Y-99422167D01*
X198665989Y-99432541D01*
X198626017Y-99461042D01*
X198563588Y-99504390D01*
X198481688Y-99560548D01*
X198383301Y-99627480D01*
X198271412Y-99703151D01*
X198208054Y-99745788D01*
X198149005Y-99785525D01*
X198019065Y-99872566D01*
X197947756Y-99920229D01*
X197845693Y-99988453D01*
X197719371Y-100072899D01*
X197654251Y-100116433D01*
X197570533Y-100172400D01*
X197400926Y-100285790D01*
X197212292Y-100411902D01*
X197006378Y-100549569D01*
X196784928Y-100697626D01*
X196549687Y-100854905D01*
X196302400Y-101020240D01*
X196122913Y-101140245D01*
X196044810Y-101192465D01*
X195778664Y-101370413D01*
X195505706Y-101552917D01*
X195227681Y-101738810D01*
X194946333Y-101926928D01*
X194663407Y-102116102D01*
X194570716Y-102178067D01*
X194300209Y-102358770D01*
X194037410Y-102534127D01*
X193783644Y-102703261D01*
X193540238Y-102865295D01*
X193308518Y-103019353D01*
X193089809Y-103164556D01*
X192885439Y-103300029D01*
X192696732Y-103424895D01*
X192525015Y-103538277D01*
X192371614Y-103639298D01*
X192237855Y-103727081D01*
X192125064Y-103800750D01*
X192034566Y-103859427D01*
X191967689Y-103902235D01*
X191925758Y-103928299D01*
X191910098Y-103936740D01*
X191905754Y-103934523D01*
X191877092Y-103917055D01*
X191825057Y-103884005D01*
X191752681Y-103837339D01*
X191662994Y-103779024D01*
X191559026Y-103711028D01*
X191443806Y-103635319D01*
X191320366Y-103553863D01*
X191015273Y-103352103D01*
X190637648Y-103102309D01*
X190281948Y-102866930D01*
X189944873Y-102643775D01*
X189623121Y-102430655D01*
X189313392Y-102225380D01*
X189012386Y-102025761D01*
X188716801Y-101829607D01*
X188423337Y-101634729D01*
X188128693Y-101438937D01*
X187829568Y-101240040D01*
X187522662Y-101035849D01*
X187204673Y-100824175D01*
X186872302Y-100602827D01*
X186659889Y-100461339D01*
X187791171Y-100461339D01*
X187805548Y-100517564D01*
X187814542Y-100534292D01*
X187839499Y-100563785D01*
X187860028Y-100565142D01*
X187871904Y-100537118D01*
X187879018Y-100513311D01*
X187901711Y-100494592D01*
X187931100Y-100502951D01*
X187959438Y-100538286D01*
X187963726Y-100547553D01*
X187976146Y-100593892D01*
X187983130Y-100662354D01*
X187985317Y-100758359D01*
X187984846Y-100825969D01*
X187982306Y-100882878D01*
X187976384Y-100920325D01*
X187965781Y-100945810D01*
X187949197Y-100966836D01*
X187913077Y-101005284D01*
X188051445Y-101005284D01*
X188189812Y-101005284D01*
X188158166Y-100970368D01*
X188145789Y-100953217D01*
X188135561Y-100926147D01*
X188128686Y-100885124D01*
X188126118Y-100850380D01*
X188253180Y-100850380D01*
X188256407Y-100879540D01*
X188276191Y-100918758D01*
X188306735Y-100958324D01*
X188342241Y-100988525D01*
X188377663Y-101005284D01*
X188392718Y-101012407D01*
X188470147Y-101022723D01*
X188534069Y-101005284D01*
X188743685Y-101005284D01*
X188882053Y-101005284D01*
X189020421Y-101005284D01*
X189007026Y-100990499D01*
X189067856Y-100990499D01*
X189091459Y-101001768D01*
X189146391Y-101005284D01*
X189177269Y-101004410D01*
X189219247Y-100996524D01*
X189237758Y-100979007D01*
X189241509Y-100955025D01*
X189244796Y-100904430D01*
X189247023Y-100835477D01*
X189247842Y-100755825D01*
X189248893Y-100681603D01*
X189252154Y-100607949D01*
X189257096Y-100550824D01*
X189263181Y-100518573D01*
X189287697Y-100480612D01*
X189327252Y-100465531D01*
X189374774Y-100482007D01*
X189377144Y-100483572D01*
X189392245Y-100495436D01*
X189402528Y-100511207D01*
X189408918Y-100536748D01*
X189412337Y-100577922D01*
X189413711Y-100640593D01*
X189413963Y-100730625D01*
X189413666Y-100820326D01*
X189412188Y-100883437D01*
X189408659Y-100925028D01*
X189402206Y-100950974D01*
X189391958Y-100967148D01*
X189377043Y-100979424D01*
X189362959Y-100990401D01*
X189360683Y-100998543D01*
X189377642Y-101003013D01*
X189418500Y-101004898D01*
X189487917Y-101005284D01*
X189635713Y-101005284D01*
X189599593Y-100966836D01*
X189589662Y-100955447D01*
X189580289Y-100940008D01*
X189573468Y-100918523D01*
X189568792Y-100886463D01*
X189566989Y-100857463D01*
X189661099Y-100857463D01*
X189667181Y-100879649D01*
X189689615Y-100914441D01*
X189727640Y-100957402D01*
X189765776Y-100992030D01*
X189788914Y-101005284D01*
X189805981Y-101015060D01*
X189848078Y-101020844D01*
X189905787Y-101013720D01*
X189945403Y-100995741D01*
X190153921Y-100995741D01*
X190165187Y-101002217D01*
X190198876Y-101004811D01*
X190260386Y-101005284D01*
X190277304Y-101005257D01*
X190332359Y-101004073D01*
X190361630Y-100999936D01*
X190371161Y-100991199D01*
X190366990Y-100976213D01*
X190365543Y-100972091D01*
X190360046Y-100937779D01*
X190354892Y-100879125D01*
X190350604Y-100803149D01*
X190349610Y-100773596D01*
X190485986Y-100773596D01*
X190486457Y-100793037D01*
X190500472Y-100875880D01*
X190536596Y-100939028D01*
X190598483Y-100989489D01*
X190601766Y-100991466D01*
X190633987Y-101006718D01*
X190672548Y-101015369D01*
X190726368Y-101018644D01*
X190804366Y-101017767D01*
X190861886Y-101016066D01*
X190918492Y-101011001D01*
X190952155Y-100997296D01*
X190952512Y-100996688D01*
X191300938Y-100996688D01*
X191314850Y-101002518D01*
X191351339Y-101004856D01*
X191415729Y-101005284D01*
X191457434Y-101005152D01*
X191504621Y-101003692D01*
X191527084Y-100999382D01*
X191530163Y-100990723D01*
X191519198Y-100976213D01*
X191513204Y-100967702D01*
X191505723Y-100947497D01*
X191500036Y-100914947D01*
X191495828Y-100865876D01*
X191492779Y-100796110D01*
X191490573Y-100701471D01*
X191488892Y-100577784D01*
X191488773Y-100566757D01*
X191488641Y-100551134D01*
X191622628Y-100551134D01*
X191636095Y-100600425D01*
X191638795Y-100603362D01*
X191665825Y-100620819D01*
X191713274Y-100645131D01*
X191772891Y-100671980D01*
X191790010Y-100679300D01*
X191846764Y-100704537D01*
X191889015Y-100724814D01*
X191908653Y-100736291D01*
X191912328Y-100748577D01*
X191906474Y-100783838D01*
X191890262Y-100828233D01*
X191868261Y-100870147D01*
X191845041Y-100897966D01*
X191802749Y-100918232D01*
X191748348Y-100914465D01*
X191683842Y-100881194D01*
X191674023Y-100874582D01*
X191641295Y-100854831D01*
X191626711Y-100853490D01*
X191623381Y-100869191D01*
X191635558Y-100912040D01*
X191671555Y-100959375D01*
X191723238Y-100997073D01*
X191761338Y-101012589D01*
X191839546Y-101019119D01*
X191882477Y-101005284D01*
X192115955Y-101005284D01*
X192254643Y-101005284D01*
X192393332Y-101005284D01*
X192380868Y-100992017D01*
X192457243Y-100992017D01*
X192483557Y-101001706D01*
X192541203Y-101001999D01*
X192628417Y-100996978D01*
X192636723Y-100760651D01*
X192639919Y-100677832D01*
X192643890Y-100607250D01*
X192649049Y-100558898D01*
X192656363Y-100526862D01*
X192666801Y-100505230D01*
X192681331Y-100488088D01*
X192705187Y-100466694D01*
X192727401Y-100461851D01*
X192757718Y-100478117D01*
X192772897Y-100489852D01*
X192789931Y-100514461D01*
X192800698Y-100554068D01*
X192808512Y-100617783D01*
X192817306Y-100728398D01*
X192820040Y-100819977D01*
X192815498Y-100887359D01*
X192803368Y-100934869D01*
X192783337Y-100966836D01*
X192747217Y-101005284D01*
X192885906Y-101005284D01*
X193024594Y-101005284D01*
X193001930Y-100981159D01*
X193090735Y-100981159D01*
X193111658Y-101000121D01*
X193118235Y-101004510D01*
X193120870Y-101005284D01*
X193165709Y-101018456D01*
X193211859Y-101008512D01*
X193243858Y-100976927D01*
X193262031Y-100940264D01*
X193295795Y-100974028D01*
X193301812Y-100979345D01*
X193344820Y-101002711D01*
X193397182Y-101016862D01*
X193449774Y-101016128D01*
X193503885Y-100991028D01*
X193538185Y-100941055D01*
X193549804Y-100868989D01*
X193549166Y-100847947D01*
X193539139Y-100789894D01*
X193512918Y-100743607D01*
X193465249Y-100702130D01*
X193390880Y-100658505D01*
X193363049Y-100643726D01*
X193315541Y-100616145D01*
X193288734Y-100593778D01*
X193276147Y-100570135D01*
X193271299Y-100538722D01*
X193270609Y-100524855D01*
X193280689Y-100473662D01*
X193311236Y-100447179D01*
X193360205Y-100447506D01*
X193390495Y-100462873D01*
X193420188Y-100507504D01*
X193421068Y-100509978D01*
X193443096Y-100546224D01*
X193477263Y-100556756D01*
X193481105Y-100556707D01*
X193509643Y-100547621D01*
X193516401Y-100519749D01*
X193644181Y-100519749D01*
X193650218Y-100640894D01*
X193656428Y-100679293D01*
X193686571Y-100790246D01*
X193729376Y-100868989D01*
X193732763Y-100875220D01*
X193797459Y-100937803D01*
X193883109Y-100981581D01*
X193886601Y-100982796D01*
X193931447Y-100993283D01*
X193995637Y-101002787D01*
X194071700Y-101010832D01*
X194152168Y-101016943D01*
X194229571Y-101020643D01*
X194296439Y-101021456D01*
X194345303Y-101018907D01*
X194368693Y-101012520D01*
X194369625Y-101011274D01*
X194365848Y-100990058D01*
X194343775Y-100959537D01*
X194340340Y-100955830D01*
X194328164Y-100940347D01*
X194319154Y-100921287D01*
X194312726Y-100893711D01*
X194308295Y-100852676D01*
X194305275Y-100793241D01*
X194303081Y-100710466D01*
X194301129Y-100599410D01*
X194297688Y-100384083D01*
X194646795Y-100384083D01*
X194647104Y-100385725D01*
X194659741Y-100406988D01*
X194685164Y-100439743D01*
X194695937Y-100455191D01*
X194721671Y-100503578D01*
X194750643Y-100568892D01*
X194778395Y-100641487D01*
X194785521Y-100661740D01*
X194820349Y-100760107D01*
X194856548Y-100861467D01*
X194891637Y-100958955D01*
X194910636Y-101011274D01*
X194923138Y-101045702D01*
X194948571Y-101114843D01*
X194965455Y-101159510D01*
X194988445Y-101199114D01*
X195025058Y-101238418D01*
X195030544Y-101242504D01*
X195085026Y-101266799D01*
X195145300Y-101272558D01*
X195199962Y-101260219D01*
X195237612Y-101230224D01*
X195251512Y-101201302D01*
X195253592Y-101140245D01*
X195245865Y-101115075D01*
X195224170Y-101085509D01*
X195198740Y-101084243D01*
X195175358Y-101113272D01*
X195156206Y-101144380D01*
X195121178Y-101166203D01*
X195082018Y-101157994D01*
X195041970Y-101120842D01*
X195004280Y-101055837D01*
X194975082Y-100991089D01*
X195071036Y-100736545D01*
X195091923Y-100682485D01*
X195098815Y-100665721D01*
X195262258Y-100665721D01*
X195266149Y-100752898D01*
X195279364Y-100828272D01*
X195282648Y-100839268D01*
X195321220Y-100916691D01*
X195377793Y-100974663D01*
X195446286Y-101009893D01*
X195520618Y-101019089D01*
X195594707Y-100998960D01*
X195600969Y-100995891D01*
X195640417Y-100978964D01*
X195665534Y-100972060D01*
X195683005Y-100978237D01*
X195712819Y-100999553D01*
X195717229Y-101003370D01*
X195725537Y-101007909D01*
X195731855Y-101003981D01*
X195736454Y-100988050D01*
X195739607Y-100956579D01*
X195741586Y-100906031D01*
X195742663Y-100832869D01*
X195743110Y-100733557D01*
X195743198Y-100604557D01*
X195743493Y-100471558D01*
X195744528Y-100366577D01*
X195746517Y-100287083D01*
X195749670Y-100229193D01*
X195754201Y-100189023D01*
X195760322Y-100162689D01*
X195768245Y-100146309D01*
X195776579Y-100133821D01*
X195782699Y-100116433D01*
X195771557Y-100104574D01*
X195737968Y-100094665D01*
X195676749Y-100083125D01*
X195670950Y-100082099D01*
X195629084Y-100074539D01*
X195604138Y-100069780D01*
X195598776Y-100083823D01*
X195594781Y-100124768D01*
X195592581Y-100186281D01*
X195592559Y-100262015D01*
X195595449Y-100457334D01*
X195553794Y-100415678D01*
X195543103Y-100405844D01*
X195485904Y-100375846D01*
X195425244Y-100374693D01*
X195366904Y-100400141D01*
X195316668Y-100449944D01*
X195280318Y-100521857D01*
X195267646Y-100581841D01*
X195262258Y-100665721D01*
X195098815Y-100665721D01*
X195126978Y-100597221D01*
X195159645Y-100523990D01*
X195187007Y-100469216D01*
X195206144Y-100439319D01*
X195211002Y-100433834D01*
X195231590Y-100403609D01*
X195233991Y-100385329D01*
X195225111Y-100381362D01*
X195190544Y-100376451D01*
X195140400Y-100374278D01*
X195084429Y-100374677D01*
X195032378Y-100377482D01*
X194993998Y-100382530D01*
X194979038Y-100389654D01*
X194979672Y-100394315D01*
X194995651Y-100415553D01*
X195004433Y-100425756D01*
X195012263Y-100457195D01*
X195012015Y-100461307D01*
X195004745Y-100494958D01*
X194989576Y-100545824D01*
X194969456Y-100605741D01*
X194947329Y-100666550D01*
X194926142Y-100720089D01*
X194908840Y-100758198D01*
X194898370Y-100772714D01*
X194891037Y-100763329D01*
X194877177Y-100728961D01*
X194860449Y-100677390D01*
X194843257Y-100617140D01*
X194828003Y-100556734D01*
X194817089Y-100504694D01*
X194812917Y-100469543D01*
X194817031Y-100438273D01*
X194829529Y-100415553D01*
X194844602Y-100402851D01*
X194841458Y-100387405D01*
X194808177Y-100377510D01*
X194746468Y-100374022D01*
X194701125Y-100375131D01*
X194661890Y-100378776D01*
X194646795Y-100384083D01*
X194297688Y-100384083D01*
X194296012Y-100279189D01*
X194338935Y-100228178D01*
X194348485Y-100216092D01*
X194366823Y-100184882D01*
X194366944Y-100167949D01*
X194361145Y-100166488D01*
X194327079Y-100163897D01*
X194268854Y-100162291D01*
X194192707Y-100161800D01*
X194104873Y-100162551D01*
X194038624Y-100163767D01*
X193957409Y-100166411D01*
X193899169Y-100170628D01*
X193857633Y-100177199D01*
X193826528Y-100186903D01*
X193799584Y-100200520D01*
X193792580Y-100205957D01*
X193751367Y-100237949D01*
X193696520Y-100313075D01*
X193660204Y-100408742D01*
X193644181Y-100519749D01*
X193516401Y-100519749D01*
X193517168Y-100516584D01*
X193517135Y-100512732D01*
X193503938Y-100450589D01*
X193465890Y-100407404D01*
X193401578Y-100382206D01*
X193309586Y-100374022D01*
X193301952Y-100374048D01*
X193245127Y-100377625D01*
X193207296Y-100389928D01*
X193175863Y-100414797D01*
X193174868Y-100415794D01*
X193158643Y-100433815D01*
X193147558Y-100453661D01*
X193140637Y-100481613D01*
X193136903Y-100523950D01*
X193135379Y-100586951D01*
X193135088Y-100676896D01*
X193134549Y-100759361D01*
X193132159Y-100831405D01*
X193127275Y-100881173D01*
X193119271Y-100914589D01*
X193107520Y-100937578D01*
X193092011Y-100961856D01*
X193090735Y-100981159D01*
X193001930Y-100981159D01*
X192988474Y-100966836D01*
X192977900Y-100954589D01*
X192966290Y-100934568D01*
X192958836Y-100906762D01*
X192954632Y-100864812D01*
X192952773Y-100802358D01*
X192952354Y-100713044D01*
X192952676Y-100650571D01*
X192954823Y-100573009D01*
X192959514Y-100519221D01*
X192967358Y-100483391D01*
X192978967Y-100459705D01*
X192981823Y-100455644D01*
X192996877Y-100432413D01*
X192996012Y-100418663D01*
X192973974Y-100407901D01*
X192925509Y-100393630D01*
X192916187Y-100390974D01*
X192863507Y-100377950D01*
X192834430Y-100378053D01*
X192822049Y-100393398D01*
X192819457Y-100426099D01*
X192819457Y-100478176D01*
X192785973Y-100435608D01*
X192770249Y-100418207D01*
X192713855Y-100380681D01*
X192650735Y-100365842D01*
X192591998Y-100377043D01*
X192591254Y-100377401D01*
X192558986Y-100397245D01*
X192535650Y-100424296D01*
X192519868Y-100463744D01*
X192510263Y-100520781D01*
X192505456Y-100600598D01*
X192504071Y-100708384D01*
X192503449Y-100792887D01*
X192501137Y-100864005D01*
X192496621Y-100911411D01*
X192489384Y-100940196D01*
X192478908Y-100955448D01*
X192461577Y-100972423D01*
X192457243Y-100992017D01*
X192380868Y-100992017D01*
X192357212Y-100966836D01*
X192346970Y-100955020D01*
X192335214Y-100935033D01*
X192327664Y-100907385D01*
X192323403Y-100865684D01*
X192321517Y-100803543D01*
X192321092Y-100714572D01*
X192321235Y-100656268D01*
X192322472Y-100584476D01*
X192325737Y-100535609D01*
X192331935Y-100503293D01*
X192341966Y-100481153D01*
X192356735Y-100462815D01*
X192392377Y-100424875D01*
X192347453Y-100407795D01*
X192345621Y-100407109D01*
X192296314Y-100392492D01*
X192241209Y-100380887D01*
X192179889Y-100371059D01*
X192184547Y-100632633D01*
X192184836Y-100648878D01*
X192186227Y-100733230D01*
X192186846Y-100812871D01*
X192185717Y-100868994D01*
X192182298Y-100906983D01*
X192176046Y-100932222D01*
X192166417Y-100950096D01*
X192152869Y-100965990D01*
X192115955Y-101005284D01*
X191882477Y-101005284D01*
X191921219Y-100992799D01*
X191952629Y-100975049D01*
X191997495Y-100937403D01*
X192026616Y-100888266D01*
X192043477Y-100820535D01*
X192051563Y-100727107D01*
X192052766Y-100697748D01*
X192053521Y-100632633D01*
X192049069Y-100586242D01*
X192037795Y-100547950D01*
X192018080Y-100507135D01*
X192015330Y-100502103D01*
X191958655Y-100428990D01*
X191886881Y-100385057D01*
X191801244Y-100371080D01*
X191756630Y-100375243D01*
X191718017Y-100392715D01*
X191677371Y-100430927D01*
X191674351Y-100434278D01*
X191636020Y-100493123D01*
X191622628Y-100551134D01*
X191488641Y-100551134D01*
X191487765Y-100447318D01*
X191487799Y-100356404D01*
X191489131Y-100289673D01*
X191492019Y-100242787D01*
X191496720Y-100211403D01*
X191503491Y-100191183D01*
X191503652Y-100190946D01*
X192175435Y-100190946D01*
X192177044Y-100242145D01*
X192208503Y-100281713D01*
X192237330Y-100298752D01*
X192263471Y-100307573D01*
X192288004Y-100300358D01*
X192322397Y-100270922D01*
X192345183Y-100229515D01*
X192347480Y-100205957D01*
X192331729Y-100168865D01*
X192298680Y-100141106D01*
X192257636Y-100126994D01*
X192217901Y-100130844D01*
X192207346Y-100140314D01*
X192188779Y-100156972D01*
X192175435Y-100190946D01*
X191503652Y-100190946D01*
X191512589Y-100177784D01*
X191526677Y-100161520D01*
X191537415Y-100140314D01*
X191522423Y-100128399D01*
X191478025Y-100119587D01*
X191472881Y-100118774D01*
X191420388Y-100108967D01*
X191378352Y-100098850D01*
X191340974Y-100087740D01*
X191340974Y-100516133D01*
X191340906Y-100597287D01*
X191340371Y-100712236D01*
X191339105Y-100800243D01*
X191337624Y-100843316D01*
X191336869Y-100865271D01*
X191333427Y-100911287D01*
X191328540Y-100942255D01*
X191321970Y-100962139D01*
X191313481Y-100974905D01*
X191304283Y-100985784D01*
X191300938Y-100996688D01*
X190952512Y-100996688D01*
X190968855Y-100968849D01*
X190974570Y-100919557D01*
X190975280Y-100843316D01*
X190975178Y-100826661D01*
X190971125Y-100769009D01*
X190961349Y-100743462D01*
X190946075Y-100750265D01*
X190925531Y-100789663D01*
X190893395Y-100843585D01*
X190841760Y-100892126D01*
X190781829Y-100922942D01*
X190721523Y-100932140D01*
X190668766Y-100915828D01*
X190666465Y-100914298D01*
X190625324Y-100872229D01*
X190616639Y-100823570D01*
X190640341Y-100768486D01*
X190696361Y-100707143D01*
X190784628Y-100639708D01*
X190857529Y-100587713D01*
X190912273Y-100539331D01*
X190945794Y-100493321D01*
X190962601Y-100443343D01*
X190967201Y-100383059D01*
X190967126Y-100376197D01*
X190951414Y-100290216D01*
X190911093Y-100223800D01*
X190850178Y-100179929D01*
X190772682Y-100161585D01*
X190682621Y-100171748D01*
X190663284Y-100176277D01*
X190608956Y-100183377D01*
X190567775Y-100181314D01*
X190554241Y-100178199D01*
X190538590Y-100179073D01*
X190530484Y-100193482D01*
X190528260Y-100218704D01*
X190527441Y-100227991D01*
X190526978Y-100289160D01*
X190527529Y-100320371D01*
X190532540Y-100375051D01*
X190541793Y-100404070D01*
X190554077Y-100404907D01*
X190568184Y-100375045D01*
X190574016Y-100361914D01*
X190604541Y-100322415D01*
X190648310Y-100283185D01*
X190694436Y-100253123D01*
X190732033Y-100241125D01*
X190776572Y-100250156D01*
X190815471Y-100281800D01*
X190830150Y-100329583D01*
X190830146Y-100330980D01*
X190826422Y-100362534D01*
X190812612Y-100391145D01*
X190784109Y-100421815D01*
X190764529Y-100437270D01*
X190736309Y-100459544D01*
X190664605Y-100509333D01*
X190663764Y-100509901D01*
X190587176Y-100564905D01*
X190535699Y-100611978D01*
X190504739Y-100657919D01*
X190489700Y-100709525D01*
X190485986Y-100773596D01*
X190349610Y-100773596D01*
X190347703Y-100716872D01*
X190346862Y-100677000D01*
X190345985Y-100593800D01*
X190347404Y-100535821D01*
X190351622Y-100497307D01*
X190359139Y-100472502D01*
X190370457Y-100455652D01*
X190385584Y-100437270D01*
X190385107Y-100422252D01*
X190356517Y-100408754D01*
X190355157Y-100408243D01*
X190308220Y-100393904D01*
X190254651Y-100381565D01*
X190194735Y-100370325D01*
X190194735Y-100657425D01*
X190194457Y-100732742D01*
X190194357Y-100759944D01*
X190192870Y-100840136D01*
X190189844Y-100896773D01*
X190184850Y-100934810D01*
X190177459Y-100959203D01*
X190167242Y-100974905D01*
X190159677Y-100983621D01*
X190153921Y-100995741D01*
X189945403Y-100995741D01*
X189979321Y-100980348D01*
X190033501Y-100921280D01*
X190066990Y-100838187D01*
X190078450Y-100732742D01*
X190074842Y-100667641D01*
X190053406Y-100567560D01*
X190015342Y-100483830D01*
X189963708Y-100419821D01*
X189901563Y-100378901D01*
X189831968Y-100364440D01*
X189757982Y-100379808D01*
X189737260Y-100390473D01*
X189697279Y-100426630D01*
X189673868Y-100470666D01*
X189668646Y-100514624D01*
X189683227Y-100550552D01*
X189719229Y-100570494D01*
X189745488Y-100560531D01*
X189771187Y-100517640D01*
X189775599Y-100507331D01*
X189800446Y-100462605D01*
X189826806Y-100444641D01*
X189861252Y-100448383D01*
X189880781Y-100459900D01*
X189907560Y-100504823D01*
X189923601Y-100580960D01*
X189928940Y-100688436D01*
X189923641Y-100770035D01*
X189903821Y-100847412D01*
X189871092Y-100898690D01*
X189827335Y-100922198D01*
X189774429Y-100916264D01*
X189714257Y-100879216D01*
X189701024Y-100868655D01*
X189672127Y-100852320D01*
X189661099Y-100857463D01*
X189566989Y-100857463D01*
X189565859Y-100839297D01*
X189564264Y-100772497D01*
X189563603Y-100681532D01*
X189563473Y-100561872D01*
X189563585Y-100484496D01*
X189564381Y-100379490D01*
X189566165Y-100301230D01*
X189569197Y-100245668D01*
X189573739Y-100208754D01*
X189578294Y-100192648D01*
X190195771Y-100192648D01*
X190201436Y-100240963D01*
X190225114Y-100280081D01*
X190226462Y-100281283D01*
X190272688Y-100305063D01*
X190316083Y-100300033D01*
X190348266Y-100269984D01*
X190360857Y-100218704D01*
X190354079Y-100170374D01*
X190327096Y-100135873D01*
X190277796Y-100124840D01*
X190245733Y-100129424D01*
X190214670Y-100144774D01*
X190209347Y-100151070D01*
X190195771Y-100192648D01*
X189578294Y-100192648D01*
X189580050Y-100186439D01*
X189588391Y-100174676D01*
X189596908Y-100167198D01*
X189611378Y-100145085D01*
X189596770Y-100129941D01*
X189551014Y-100118666D01*
X189546223Y-100117852D01*
X189492825Y-100107586D01*
X189449039Y-100097391D01*
X189409360Y-100086536D01*
X189421449Y-100275963D01*
X189433538Y-100465389D01*
X189384409Y-100418695D01*
X189331604Y-100383449D01*
X189266642Y-100368264D01*
X189204083Y-100378549D01*
X189153188Y-100414475D01*
X189150881Y-100417178D01*
X189136464Y-100436550D01*
X189126518Y-100458699D01*
X189120218Y-100489715D01*
X189116738Y-100535686D01*
X189115255Y-100602702D01*
X189114944Y-100696852D01*
X189114943Y-100701140D01*
X189114232Y-100798076D01*
X189111865Y-100866986D01*
X189107362Y-100912859D01*
X189100243Y-100940683D01*
X189090026Y-100955448D01*
X189074362Y-100970401D01*
X189067856Y-100990499D01*
X189007026Y-100990499D01*
X188988775Y-100970353D01*
X188984845Y-100965764D01*
X188975337Y-100950545D01*
X188968112Y-100928777D01*
X188962767Y-100896015D01*
X188958897Y-100847813D01*
X188956100Y-100779725D01*
X188953973Y-100687304D01*
X188952113Y-100566106D01*
X188950826Y-100455456D01*
X188950441Y-100359248D01*
X188951386Y-100288391D01*
X188953882Y-100238731D01*
X188958148Y-100206113D01*
X188964407Y-100186385D01*
X188972878Y-100175392D01*
X188996308Y-100145003D01*
X188989077Y-100119271D01*
X188950761Y-100102801D01*
X188910372Y-100094215D01*
X188859394Y-100082311D01*
X188815925Y-100071401D01*
X188815925Y-100499895D01*
X188815905Y-100575282D01*
X188815633Y-100689261D01*
X188815140Y-100740088D01*
X188814788Y-100776406D01*
X188813051Y-100840842D01*
X188810102Y-100886698D01*
X188805622Y-100918098D01*
X188799292Y-100939170D01*
X188790793Y-100954041D01*
X188779805Y-100966836D01*
X188743685Y-101005284D01*
X188534069Y-101005284D01*
X188543617Y-101002679D01*
X188608504Y-100953884D01*
X188660181Y-100877947D01*
X188679897Y-100834989D01*
X188694340Y-100788913D01*
X188698443Y-100740088D01*
X188694747Y-100673485D01*
X188679026Y-100574946D01*
X188643298Y-100484568D01*
X188587616Y-100418531D01*
X188510703Y-100374761D01*
X188479259Y-100366356D01*
X188408624Y-100369340D01*
X188342731Y-100398138D01*
X188289787Y-100448195D01*
X188258000Y-100514959D01*
X188256808Y-100520090D01*
X188256840Y-100561711D01*
X188278937Y-100597110D01*
X188326702Y-100629969D01*
X188403736Y-100663971D01*
X188416138Y-100668793D01*
X188474116Y-100692462D01*
X188518481Y-100712365D01*
X188540461Y-100724612D01*
X188546685Y-100739272D01*
X188543368Y-100777016D01*
X188528371Y-100823442D01*
X188505734Y-100867141D01*
X188479499Y-100896704D01*
X188432787Y-100918417D01*
X188377258Y-100914598D01*
X188318133Y-100878626D01*
X188305751Y-100868710D01*
X188273942Y-100848283D01*
X188256480Y-100844869D01*
X188253180Y-100850380D01*
X188126118Y-100850380D01*
X188124147Y-100823724D01*
X188120924Y-100735524D01*
X188119902Y-100696668D01*
X188118874Y-100622222D01*
X188120603Y-100571098D01*
X188125932Y-100536298D01*
X188135702Y-100510824D01*
X188150756Y-100487678D01*
X188155354Y-100481231D01*
X188174313Y-100446961D01*
X188177400Y-100425546D01*
X188166097Y-100417964D01*
X188130762Y-100404121D01*
X188083678Y-100389792D01*
X188036999Y-100378563D01*
X188002879Y-100374022D01*
X188001547Y-100374177D01*
X187990021Y-100391267D01*
X187985255Y-100428012D01*
X187985193Y-100482001D01*
X187951652Y-100426987D01*
X187931451Y-100397792D01*
X187904227Y-100378618D01*
X187865779Y-100377151D01*
X187837946Y-100384146D01*
X187803001Y-100414465D01*
X187791171Y-100461339D01*
X186659889Y-100461339D01*
X185119719Y-99435435D01*
X185119719Y-97574159D01*
X185911416Y-97574159D01*
X185936099Y-97673514D01*
X185987431Y-97771555D01*
X186066699Y-97864198D01*
X186089817Y-97885365D01*
X186187396Y-97959029D01*
X186292439Y-98011702D01*
X186410606Y-98045119D01*
X186547559Y-98061018D01*
X186708959Y-98061133D01*
X186902778Y-98053185D01*
X186863118Y-98113114D01*
X186858063Y-98121057D01*
X186833606Y-98165210D01*
X186806653Y-98220565D01*
X186780708Y-98278955D01*
X186759277Y-98332214D01*
X186745866Y-98372176D01*
X186743979Y-98390674D01*
X186750539Y-98386905D01*
X186774645Y-98363096D01*
X186811720Y-98322120D01*
X186857006Y-98269094D01*
X186981408Y-98134606D01*
X187163941Y-97975166D01*
X187372375Y-97828905D01*
X187603237Y-97698481D01*
X187620291Y-97689973D01*
X187698992Y-97652918D01*
X187778330Y-97618615D01*
X187852187Y-97589386D01*
X187914445Y-97567558D01*
X187958986Y-97555456D01*
X187979693Y-97555404D01*
X187974830Y-97562315D01*
X187947916Y-97584441D01*
X187902578Y-97617489D01*
X187844275Y-97657349D01*
X187811783Y-97679394D01*
X187700304Y-97760529D01*
X187586790Y-97850483D01*
X187478884Y-97942798D01*
X187384226Y-98031012D01*
X187310459Y-98108664D01*
X187263109Y-98165863D01*
X187183125Y-98274154D01*
X187112987Y-98383795D01*
X187057589Y-98486869D01*
X187021829Y-98575457D01*
X187007852Y-98628444D01*
X186990306Y-98770397D01*
X186997756Y-98915509D01*
X187029245Y-99054464D01*
X187083812Y-99177946D01*
X187132511Y-99247371D01*
X187209990Y-99331861D01*
X187298326Y-99408545D01*
X187386500Y-99466903D01*
X187388905Y-99468196D01*
X187502713Y-99512045D01*
X187617440Y-99524515D01*
X187728581Y-99506331D01*
X187831630Y-99458215D01*
X187922082Y-99380891D01*
X187935623Y-99365575D01*
X187993638Y-99287976D01*
X188028791Y-99212323D01*
X188046656Y-99127271D01*
X188049709Y-99089080D01*
X188046163Y-99045529D01*
X188031328Y-98998446D01*
X188014694Y-98962262D01*
X188969138Y-98962262D01*
X188991726Y-99140509D01*
X189016661Y-99239339D01*
X189074637Y-99384165D01*
X189153544Y-99503900D01*
X189254116Y-99599556D01*
X189377090Y-99672151D01*
X189403760Y-99683793D01*
X189451209Y-99700338D01*
X189502301Y-99710832D01*
X189566892Y-99716989D01*
X189654840Y-99720527D01*
X189728106Y-99720759D01*
X189884948Y-99706226D01*
X190022210Y-99669215D01*
X190144654Y-99608154D01*
X190181786Y-99579513D01*
X190809495Y-99579513D01*
X190809511Y-99581852D01*
X190826028Y-99662789D01*
X190870522Y-99734829D01*
X190938486Y-99795524D01*
X191025416Y-99842426D01*
X191126805Y-99873086D01*
X191238148Y-99885057D01*
X191354940Y-99875891D01*
X191484870Y-99842434D01*
X191617557Y-99779128D01*
X191730406Y-99689319D01*
X191824025Y-99572615D01*
X191857805Y-99513478D01*
X191892040Y-99429653D01*
X191917537Y-99331088D01*
X191935781Y-99211713D01*
X191948260Y-99065459D01*
X191953167Y-98998195D01*
X191959427Y-98934290D01*
X191965675Y-98889687D01*
X191971095Y-98871327D01*
X191973378Y-98871445D01*
X191991234Y-98887766D01*
X192020507Y-98924213D01*
X192056148Y-98974656D01*
X192130487Y-99083363D01*
X192289810Y-99300634D01*
X192443348Y-99487251D01*
X192592360Y-99644377D01*
X192738104Y-99773172D01*
X192881838Y-99874800D01*
X193024822Y-99950421D01*
X193168312Y-100001197D01*
X193243752Y-100016981D01*
X193356767Y-100030036D01*
X193476185Y-100034632D01*
X193589270Y-100030381D01*
X193683290Y-100016896D01*
X193721190Y-100007074D01*
X193827036Y-99963900D01*
X193909774Y-99904223D01*
X193966417Y-99830650D01*
X193993977Y-99745788D01*
X193992597Y-99665530D01*
X193963040Y-99595276D01*
X193905178Y-99541945D01*
X193864073Y-99520737D01*
X193826787Y-99517062D01*
X193806014Y-99541590D01*
X193799575Y-99595423D01*
X193796841Y-99631989D01*
X193769732Y-99715640D01*
X193718043Y-99786291D01*
X193647273Y-99835280D01*
X193621077Y-99845734D01*
X193570259Y-99858491D01*
X193505715Y-99864926D01*
X193417798Y-99866345D01*
X193402256Y-99866213D01*
X193323857Y-99863612D01*
X193264212Y-99856332D01*
X193210950Y-99842168D01*
X193151700Y-99818915D01*
X193109896Y-99800057D01*
X192991980Y-99736270D01*
X192874566Y-99655730D01*
X192752086Y-99554351D01*
X192618973Y-99428049D01*
X192610506Y-99419541D01*
X192534959Y-99340006D01*
X192452650Y-99247920D01*
X192367804Y-99148527D01*
X192284643Y-99047073D01*
X192207392Y-98948804D01*
X192140272Y-98858963D01*
X192087508Y-98782796D01*
X192053323Y-98725548D01*
X192045008Y-98709997D01*
X192023589Y-98676373D01*
X192009274Y-98662969D01*
X191993862Y-98656856D01*
X191954744Y-98637470D01*
X191898614Y-98607969D01*
X191831786Y-98571602D01*
X191771452Y-98538471D01*
X191715628Y-98508262D01*
X191676812Y-98487778D01*
X191661016Y-98480235D01*
X191660607Y-98480831D01*
X191669285Y-98496954D01*
X191691081Y-98528211D01*
X191714823Y-98568514D01*
X191745187Y-98656060D01*
X191764185Y-98763973D01*
X191771185Y-98885284D01*
X191765554Y-99013024D01*
X191746658Y-99140224D01*
X191715226Y-99268092D01*
X191672926Y-99384534D01*
X191621818Y-99474843D01*
X191560284Y-99542514D01*
X191526756Y-99572068D01*
X191502427Y-99598692D01*
X191497395Y-99617461D01*
X191507654Y-99635453D01*
X191519516Y-99654448D01*
X191514423Y-99674298D01*
X191485764Y-99702359D01*
X191453474Y-99725904D01*
X191372769Y-99760760D01*
X191283296Y-99774754D01*
X191193855Y-99768068D01*
X191113244Y-99740884D01*
X191050261Y-99693381D01*
X191047658Y-99690380D01*
X191029203Y-99659748D01*
X191020796Y-99618042D01*
X191020078Y-99554400D01*
X191019603Y-99507245D01*
X191014465Y-99458682D01*
X191005585Y-99431644D01*
X190996155Y-99422710D01*
X190955955Y-99411018D01*
X190907005Y-99423675D01*
X190857944Y-99459075D01*
X190838095Y-99480873D01*
X190815363Y-99523437D01*
X190809495Y-99579513D01*
X190181786Y-99579513D01*
X190257037Y-99521469D01*
X190285812Y-99493415D01*
X190348129Y-99411571D01*
X190382774Y-99321423D01*
X190393716Y-99214046D01*
X190392976Y-99165316D01*
X190387243Y-99122202D01*
X190372670Y-99091193D01*
X190345522Y-99060383D01*
X190341204Y-99056133D01*
X190292329Y-99020497D01*
X190246506Y-99015141D01*
X190196510Y-99039030D01*
X190191447Y-99042642D01*
X190173235Y-99059509D01*
X190164600Y-99081783D01*
X190163730Y-99118648D01*
X190168809Y-99179293D01*
X190172436Y-99254469D01*
X190162611Y-99319913D01*
X190134400Y-99374881D01*
X190084086Y-99430391D01*
X190013051Y-99484229D01*
X189906025Y-99530978D01*
X189785460Y-99552600D01*
X189656230Y-99548855D01*
X189523208Y-99519504D01*
X189391267Y-99464310D01*
X189331173Y-99428027D01*
X189230787Y-99340555D01*
X189153918Y-99235175D01*
X189101841Y-99116747D01*
X189075831Y-98990130D01*
X189077164Y-98860183D01*
X189107116Y-98731765D01*
X189166961Y-98609736D01*
X189197284Y-98566121D01*
X189304393Y-98449369D01*
X189439647Y-98345977D01*
X189600836Y-98257232D01*
X189785749Y-98184423D01*
X189805487Y-98179108D01*
X191274526Y-98179108D01*
X191274526Y-98247889D01*
X191275245Y-98269698D01*
X191288070Y-98320168D01*
X191323084Y-98365228D01*
X191337569Y-98379073D01*
X191369616Y-98401361D01*
X191408141Y-98411431D01*
X191466439Y-98413787D01*
X191561235Y-98413787D01*
X191503565Y-98343185D01*
X191479488Y-98317035D01*
X191420964Y-98266355D01*
X191360210Y-98225845D01*
X191274526Y-98179108D01*
X189805487Y-98179108D01*
X189992179Y-98128837D01*
X190091187Y-98112209D01*
X190216482Y-98099029D01*
X190357772Y-98090034D01*
X190508067Y-98085247D01*
X190660375Y-98084690D01*
X190807707Y-98088384D01*
X190943071Y-98096352D01*
X191059477Y-98108616D01*
X191149934Y-98125198D01*
X191153611Y-98123464D01*
X191137729Y-98107973D01*
X191101070Y-98080256D01*
X191047822Y-98043660D01*
X191041808Y-98039672D01*
X190978926Y-97999095D01*
X190931572Y-97973142D01*
X190888851Y-97957815D01*
X190839866Y-97949112D01*
X190773721Y-97943034D01*
X190537034Y-97930597D01*
X190278112Y-97933465D01*
X190043964Y-97955824D01*
X189833286Y-97997873D01*
X189644774Y-98059813D01*
X189477123Y-98141844D01*
X189321819Y-98245914D01*
X189188998Y-98366282D01*
X189087380Y-98497976D01*
X189016905Y-98641120D01*
X188977511Y-98795841D01*
X188969138Y-98962262D01*
X188014694Y-98962262D01*
X188002318Y-98935342D01*
X187975084Y-98883044D01*
X187946883Y-98841566D01*
X187915630Y-98814345D01*
X187873110Y-98792285D01*
X187864874Y-98788792D01*
X187795807Y-98770718D01*
X187732221Y-98771374D01*
X187678739Y-98787528D01*
X187639982Y-98815948D01*
X187620574Y-98853402D01*
X187625138Y-98896657D01*
X187658297Y-98942480D01*
X187669798Y-98953057D01*
X187700662Y-98974593D01*
X187724384Y-98970857D01*
X187752333Y-98941762D01*
X187764411Y-98927825D01*
X187785772Y-98915095D01*
X187808136Y-98926478D01*
X187823759Y-98943808D01*
X187849341Y-98996392D01*
X187863802Y-99061049D01*
X187863274Y-99123930D01*
X187850408Y-99173663D01*
X187805356Y-99255013D01*
X187737516Y-99319205D01*
X187652702Y-99361443D01*
X187556729Y-99376927D01*
X187530997Y-99376163D01*
X187463724Y-99362205D01*
X187401197Y-99327191D01*
X187334158Y-99266529D01*
X187324038Y-99255716D01*
X187250198Y-99150807D01*
X187200114Y-99027954D01*
X187174946Y-98893012D01*
X187175857Y-98751837D01*
X187204007Y-98610285D01*
X187256385Y-98470663D01*
X187350121Y-98300872D01*
X187471223Y-98143628D01*
X187617388Y-97999973D01*
X187786314Y-97870948D01*
X187975696Y-97757595D01*
X188183233Y-97660955D01*
X188406621Y-97582070D01*
X188643557Y-97521980D01*
X188891739Y-97481727D01*
X189148863Y-97462352D01*
X189412627Y-97464896D01*
X189680728Y-97490402D01*
X189931677Y-97532933D01*
X190246240Y-97611038D01*
X190540661Y-97714290D01*
X190816445Y-97843237D01*
X191075098Y-97998427D01*
X191228233Y-98094094D01*
X191286499Y-98123464D01*
X191418855Y-98190180D01*
X191606178Y-98256462D01*
X191794700Y-98293751D01*
X191988921Y-98302858D01*
X192193339Y-98284596D01*
X192412453Y-98239777D01*
X192489437Y-98218683D01*
X192591293Y-98182893D01*
X192681349Y-98138353D01*
X192770490Y-98079357D01*
X192869601Y-98000201D01*
X192900076Y-97975438D01*
X192986006Y-97975438D01*
X192987369Y-97984591D01*
X193010610Y-97986943D01*
X193061343Y-97984493D01*
X193079701Y-97983763D01*
X193179052Y-97989764D01*
X193302024Y-98010296D01*
X193443967Y-98044439D01*
X193600229Y-98091270D01*
X193649037Y-98107968D01*
X193735862Y-98140706D01*
X193816049Y-98174307D01*
X193876980Y-98203649D01*
X193979303Y-98259058D01*
X194055493Y-98215984D01*
X194084476Y-98198695D01*
X194118472Y-98175141D01*
X194131750Y-98160924D01*
X194128139Y-98156461D01*
X194101602Y-98139068D01*
X194054907Y-98113551D01*
X193994768Y-98083695D01*
X193950365Y-98063238D01*
X193881770Y-98034528D01*
X193805262Y-98006288D01*
X193714748Y-97976437D01*
X193604135Y-97942894D01*
X193467331Y-97903580D01*
X193411805Y-97886689D01*
X193377139Y-97871126D01*
X193360394Y-97853167D01*
X193354096Y-97827810D01*
X193347456Y-97796867D01*
X193337611Y-97782524D01*
X193330513Y-97784015D01*
X193296921Y-97797549D01*
X193245690Y-97821846D01*
X193184596Y-97852818D01*
X193121415Y-97886373D01*
X193063924Y-97918421D01*
X193019899Y-97944872D01*
X192997116Y-97961634D01*
X192986006Y-97975438D01*
X192900076Y-97975438D01*
X192903946Y-97972293D01*
X192981990Y-97914753D01*
X193061252Y-97862643D01*
X193128986Y-97824592D01*
X193151586Y-97813771D01*
X193283398Y-97756567D01*
X193434076Y-97699225D01*
X193595523Y-97644244D01*
X193759643Y-97594124D01*
X193918338Y-97551365D01*
X194063512Y-97518467D01*
X194187067Y-97497930D01*
X194196130Y-97496862D01*
X194316786Y-97489011D01*
X194460397Y-97488998D01*
X194618547Y-97496139D01*
X194782821Y-97509749D01*
X194944801Y-97529145D01*
X195096073Y-97553642D01*
X195228221Y-97582557D01*
X195237595Y-97584977D01*
X195296432Y-97600206D01*
X195356965Y-97615925D01*
X195376555Y-97621524D01*
X195413078Y-97635554D01*
X195427567Y-97647028D01*
X195426554Y-97648789D01*
X195404405Y-97658080D01*
X195359205Y-97669445D01*
X195298823Y-97680819D01*
X195196491Y-97698610D01*
X195088117Y-97721145D01*
X194989729Y-97747252D01*
X194896058Y-97779206D01*
X194801836Y-97819285D01*
X194701795Y-97869766D01*
X194590665Y-97932925D01*
X194463178Y-98011039D01*
X194314067Y-98106385D01*
X194312622Y-98107320D01*
X194227875Y-98160924D01*
X194121794Y-98228022D01*
X193949865Y-98330872D01*
X193798453Y-98414968D01*
X193669176Y-98479414D01*
X193563653Y-98523308D01*
X193477632Y-98552030D01*
X193273903Y-98604563D01*
X193072234Y-98635894D01*
X192879649Y-98645141D01*
X192703172Y-98631420D01*
X192648117Y-98621253D01*
X192568305Y-98602466D01*
X192484509Y-98579305D01*
X192404012Y-98554082D01*
X192334100Y-98529111D01*
X192282057Y-98506703D01*
X192255166Y-98489171D01*
X192252201Y-98484861D01*
X192251757Y-98465529D01*
X192270998Y-98437296D01*
X192313344Y-98394608D01*
X192350894Y-98360320D01*
X192386051Y-98330467D01*
X192405428Y-98316882D01*
X192408174Y-98315684D01*
X192420765Y-98298551D01*
X192413052Y-98295403D01*
X192381374Y-98298579D01*
X192333551Y-98309475D01*
X192300432Y-98317423D01*
X192190428Y-98334153D01*
X192061920Y-98343087D01*
X191925028Y-98344314D01*
X191789870Y-98337924D01*
X191666567Y-98324007D01*
X191565239Y-98302653D01*
X191544074Y-98297431D01*
X191542621Y-98303752D01*
X191563772Y-98328642D01*
X191571444Y-98336266D01*
X191608034Y-98366117D01*
X191661066Y-98404573D01*
X191674842Y-98413787D01*
X191721882Y-98445249D01*
X191809341Y-98499222D01*
X192034908Y-98619783D01*
X192262787Y-98716014D01*
X192489790Y-98787196D01*
X192712725Y-98832610D01*
X192928404Y-98851535D01*
X193133635Y-98843251D01*
X193325230Y-98807039D01*
X193329385Y-98805895D01*
X193464653Y-98764420D01*
X193597369Y-98714673D01*
X193732056Y-98654310D01*
X193873239Y-98580985D01*
X194025442Y-98492354D01*
X194133633Y-98423805D01*
X194244119Y-98423805D01*
X194358243Y-98529217D01*
X194418685Y-98583340D01*
X194589336Y-98721220D01*
X194773901Y-98851565D01*
X194965773Y-98970450D01*
X195158343Y-99073947D01*
X195345003Y-99158130D01*
X195519146Y-99219072D01*
X195576060Y-99234990D01*
X195646701Y-99251257D01*
X195703029Y-99257445D01*
X195755372Y-99254392D01*
X195814058Y-99242932D01*
X195918302Y-99208001D01*
X196027624Y-99145638D01*
X196117532Y-99064462D01*
X196181828Y-98969088D01*
X196203215Y-98922363D01*
X196218429Y-98874127D01*
X196223841Y-98822524D01*
X196222211Y-98752765D01*
X196213635Y-98671408D01*
X196192242Y-98603927D01*
X196153531Y-98550400D01*
X196092547Y-98501219D01*
X196039512Y-98478450D01*
X195979810Y-98478953D01*
X195927432Y-98503245D01*
X195890240Y-98547457D01*
X195876095Y-98607722D01*
X195877006Y-98632435D01*
X195885926Y-98656202D01*
X195911265Y-98664811D01*
X195961286Y-98663690D01*
X196004640Y-98672496D01*
X196042117Y-98706009D01*
X196066126Y-98757473D01*
X196074699Y-98819598D01*
X196065869Y-98885096D01*
X196037669Y-98946677D01*
X196026805Y-98961635D01*
X195956763Y-99028337D01*
X195865212Y-99081042D01*
X195760833Y-99115662D01*
X195652306Y-99128110D01*
X195618484Y-99127012D01*
X195515888Y-99111695D01*
X195414537Y-99080812D01*
X195319731Y-99037542D01*
X195236769Y-98985061D01*
X195170950Y-98926547D01*
X195127572Y-98865176D01*
X195111936Y-98804125D01*
X195109621Y-98767323D01*
X195097008Y-98749878D01*
X195066252Y-98746619D01*
X195027654Y-98752342D01*
X194979038Y-98770483D01*
X194972456Y-98774052D01*
X194949229Y-98782413D01*
X194923710Y-98780135D01*
X194887124Y-98765138D01*
X194830695Y-98735342D01*
X194713822Y-98663848D01*
X194569616Y-98557426D01*
X194428517Y-98434386D01*
X194334831Y-98345778D01*
X194289475Y-98384791D01*
X194244119Y-98423805D01*
X194133633Y-98423805D01*
X194193187Y-98386072D01*
X194381001Y-98259794D01*
X194388985Y-98254315D01*
X194486538Y-98188780D01*
X194584609Y-98125207D01*
X194676297Y-98067916D01*
X194754699Y-98021225D01*
X194812917Y-97989455D01*
X195045847Y-97890565D01*
X195297293Y-97818641D01*
X195557160Y-97777801D01*
X195822110Y-97768776D01*
X195827670Y-97768923D01*
X195904745Y-97770763D01*
X195967659Y-97771889D01*
X196010064Y-97772212D01*
X196025609Y-97771644D01*
X196020204Y-97767513D01*
X195993421Y-97750660D01*
X195951753Y-97725789D01*
X195943137Y-97720864D01*
X195861918Y-97681590D01*
X195754543Y-97638847D01*
X195626844Y-97594382D01*
X195484656Y-97549939D01*
X195333812Y-97507265D01*
X195180144Y-97468106D01*
X195029486Y-97434208D01*
X194887672Y-97407316D01*
X194825201Y-97398340D01*
X194688697Y-97385832D01*
X194534338Y-97378839D01*
X194371830Y-97377373D01*
X194210879Y-97381445D01*
X194061191Y-97391065D01*
X193932472Y-97406245D01*
X193844370Y-97421117D01*
X193704470Y-97448650D01*
X193563235Y-97480612D01*
X193426363Y-97515438D01*
X193299552Y-97551566D01*
X193188500Y-97587431D01*
X193098906Y-97621470D01*
X193036467Y-97652120D01*
X193029929Y-97656654D01*
X193023030Y-97663831D01*
X192997202Y-97690699D01*
X192967738Y-97735879D01*
X192965760Y-97739640D01*
X192907754Y-97815593D01*
X192830152Y-97869128D01*
X192740443Y-97895004D01*
X192690368Y-97904981D01*
X192634700Y-97930072D01*
X192570275Y-97975148D01*
X192502581Y-98023584D01*
X192385666Y-98085321D01*
X192260999Y-98122488D01*
X192122258Y-98136693D01*
X191963119Y-98129544D01*
X191913645Y-98123943D01*
X191799435Y-98105102D01*
X191691079Y-98077101D01*
X191582340Y-98037471D01*
X191466982Y-97983744D01*
X191338770Y-97913451D01*
X191191465Y-97824125D01*
X191131452Y-97787316D01*
X190930733Y-97676504D01*
X190719095Y-97579082D01*
X190485448Y-97489800D01*
X190424030Y-97469040D01*
X190372147Y-97452521D01*
X191324362Y-97452521D01*
X191331724Y-97462259D01*
X191363446Y-97466243D01*
X191413340Y-97459304D01*
X191473872Y-97441975D01*
X191490706Y-97436397D01*
X191543874Y-97422586D01*
X191584764Y-97417057D01*
X191591520Y-97417211D01*
X191659009Y-97435189D01*
X191717005Y-97477555D01*
X191757601Y-97536451D01*
X191772891Y-97604019D01*
X191771442Y-97616195D01*
X191753714Y-97663884D01*
X191718833Y-97727313D01*
X191670617Y-97800004D01*
X191612886Y-97875478D01*
X191592027Y-97902315D01*
X191566784Y-97940029D01*
X191556932Y-97962816D01*
X191557963Y-97971130D01*
X191575111Y-97981378D01*
X191612898Y-97966649D01*
X191670720Y-97927258D01*
X191747972Y-97863520D01*
X191825574Y-97797805D01*
X191987610Y-97675065D01*
X192139475Y-97580484D01*
X192280324Y-97514420D01*
X192409314Y-97477230D01*
X192525600Y-97469270D01*
X192628338Y-97490899D01*
X192633721Y-97492995D01*
X192701872Y-97530775D01*
X192740694Y-97579901D01*
X192753008Y-97643831D01*
X192745196Y-97692981D01*
X192716799Y-97732952D01*
X192672539Y-97746855D01*
X192617596Y-97731342D01*
X192590516Y-97720642D01*
X192573210Y-97728438D01*
X192577232Y-97761664D01*
X192599030Y-97789479D01*
X192641380Y-97818047D01*
X192691755Y-97840120D01*
X192737785Y-97848973D01*
X192774392Y-97842055D01*
X192818815Y-97824387D01*
X192866325Y-97792555D01*
X192914002Y-97733187D01*
X192935328Y-97663831D01*
X192930909Y-97589768D01*
X192901351Y-97516278D01*
X192847260Y-97448641D01*
X192769242Y-97392139D01*
X192743621Y-97378488D01*
X192700216Y-97359179D01*
X192657291Y-97348257D01*
X192603621Y-97343404D01*
X192527983Y-97342302D01*
X192473161Y-97342732D01*
X192413546Y-97346238D01*
X192365608Y-97355731D01*
X192316627Y-97374081D01*
X192253882Y-97404159D01*
X192253245Y-97404477D01*
X192177452Y-97445868D01*
X192097701Y-97494845D01*
X192031153Y-97540875D01*
X191992743Y-97568873D01*
X191948954Y-97594342D01*
X191922616Y-97596197D01*
X191909667Y-97573995D01*
X191906042Y-97527298D01*
X191902505Y-97496628D01*
X191876134Y-97428870D01*
X191830373Y-97365818D01*
X191772824Y-97319342D01*
X191767009Y-97316188D01*
X191685407Y-97289552D01*
X191594250Y-97285560D01*
X191503238Y-97302496D01*
X191422066Y-97338645D01*
X191360434Y-97392292D01*
X191356824Y-97396953D01*
X191333783Y-97430886D01*
X191324362Y-97452521D01*
X190372147Y-97452521D01*
X190326834Y-97438094D01*
X190220137Y-97405752D01*
X190112148Y-97374385D01*
X190011072Y-97346364D01*
X189925118Y-97324059D01*
X189862492Y-97309842D01*
X189837098Y-97305031D01*
X189658504Y-97277233D01*
X189465230Y-97256218D01*
X189266593Y-97242481D01*
X189071912Y-97236516D01*
X188890503Y-97238817D01*
X188731687Y-97249878D01*
X188711175Y-97252122D01*
X188562073Y-97270504D01*
X188425862Y-97291852D01*
X188296436Y-97317829D01*
X188167691Y-97350098D01*
X188033524Y-97390325D01*
X187887831Y-97440172D01*
X187724507Y-97501304D01*
X187537448Y-97575384D01*
X187435148Y-97616213D01*
X187297371Y-97669021D01*
X187179797Y-97710603D01*
X187076448Y-97742765D01*
X186981344Y-97767317D01*
X186888506Y-97786067D01*
X186791955Y-97800822D01*
X186707754Y-97809650D01*
X186546736Y-97811298D01*
X186405353Y-97790848D01*
X186285666Y-97748696D01*
X186189736Y-97685238D01*
X186174726Y-97671639D01*
X186139277Y-97633000D01*
X186121238Y-97594355D01*
X186112889Y-97541235D01*
X186110795Y-97491557D01*
X186119627Y-97445718D01*
X186144701Y-97400445D01*
X186167365Y-97370746D01*
X186199118Y-97348041D01*
X186241701Y-97342302D01*
X186299182Y-97342302D01*
X186299182Y-97423354D01*
X186302861Y-97474801D01*
X186320240Y-97516147D01*
X186354745Y-97531367D01*
X186409500Y-97523294D01*
X186455357Y-97500345D01*
X186497476Y-97447825D01*
X186511051Y-97421615D01*
X186520859Y-97391108D01*
X186517310Y-97359763D01*
X186500770Y-97312635D01*
X186474249Y-97257857D01*
X186429798Y-97210212D01*
X186367991Y-97184841D01*
X186282570Y-97177881D01*
X186251033Y-97179164D01*
X186142793Y-97200631D01*
X186053495Y-97245289D01*
X185984423Y-97309056D01*
X185936863Y-97387846D01*
X185912099Y-97477575D01*
X185911416Y-97574159D01*
X185119719Y-97574159D01*
X185119719Y-96704403D01*
X185443656Y-96704403D01*
X185444787Y-96705642D01*
X185468597Y-96710053D01*
X185519852Y-96713824D01*
X185593974Y-96716761D01*
X185686386Y-96718667D01*
X185792511Y-96719346D01*
X185889472Y-96718921D01*
X185997750Y-96716995D01*
X186076681Y-96713571D01*
X186124981Y-96708711D01*
X186141367Y-96702478D01*
X186133016Y-96681497D01*
X186110609Y-96641644D01*
X186079071Y-96591830D01*
X186016776Y-96498049D01*
X186011871Y-96043884D01*
X186006967Y-95589719D01*
X186278496Y-95589719D01*
X186312454Y-95589789D01*
X186420788Y-95591361D01*
X186498485Y-95595105D01*
X186547542Y-95601157D01*
X186569961Y-95609653D01*
X186571526Y-95611649D01*
X186578476Y-95634966D01*
X186583661Y-95681884D01*
X186587209Y-95754803D01*
X186589245Y-95856123D01*
X186589895Y-95988243D01*
X186589793Y-96039769D01*
X186587952Y-96179085D01*
X186583224Y-96291501D01*
X186574853Y-96381759D01*
X186562083Y-96454598D01*
X186544159Y-96514758D01*
X186520326Y-96566981D01*
X186489827Y-96616006D01*
X186471842Y-96642975D01*
X186449226Y-96681335D01*
X186440386Y-96703219D01*
X186455929Y-96708630D01*
X186502071Y-96713138D01*
X186576161Y-96716507D01*
X186675539Y-96718616D01*
X186797547Y-96719346D01*
X186798916Y-96719346D01*
X186930779Y-96718655D01*
X187030873Y-96716561D01*
X187100615Y-96712990D01*
X187141421Y-96707870D01*
X187154709Y-96701130D01*
X187148067Y-96685617D01*
X187124280Y-96651199D01*
X187089166Y-96608453D01*
X187085404Y-96604136D01*
X187033585Y-96528868D01*
X187005499Y-96446690D01*
X187002284Y-96423720D01*
X186997992Y-96360072D01*
X186994739Y-96263329D01*
X186992526Y-96133559D01*
X186991824Y-96036122D01*
X187241050Y-96036122D01*
X187243599Y-96184378D01*
X187271931Y-96331973D01*
X187326398Y-96460759D01*
X187406294Y-96569518D01*
X187510913Y-96657035D01*
X187598101Y-96701130D01*
X187639548Y-96722092D01*
X187761554Y-96754263D01*
X187902904Y-96763358D01*
X188045164Y-96746306D01*
X188178621Y-96703443D01*
X188193706Y-96696880D01*
X188237044Y-96681197D01*
X188265666Y-96679801D01*
X188291081Y-96691465D01*
X188330913Y-96712435D01*
X188379753Y-96732308D01*
X188413256Y-96741836D01*
X188436473Y-96737922D01*
X188454218Y-96714293D01*
X188457696Y-96703841D01*
X188566743Y-96703841D01*
X188566774Y-96704073D01*
X188584089Y-96709107D01*
X188630629Y-96713325D01*
X188702562Y-96716554D01*
X188796060Y-96718619D01*
X188907292Y-96719346D01*
X189018360Y-96718829D01*
X189120685Y-96716835D01*
X189192184Y-96713278D01*
X189234141Y-96708090D01*
X189247842Y-96701201D01*
X189247833Y-96700771D01*
X189237827Y-96675517D01*
X189214617Y-96640818D01*
X189193670Y-96604575D01*
X189183203Y-96549044D01*
X189190244Y-96476818D01*
X189214797Y-96382127D01*
X189227858Y-96344852D01*
X189252708Y-96282658D01*
X189284562Y-96208227D01*
X189320575Y-96127681D01*
X189357900Y-96047141D01*
X189393692Y-95972727D01*
X189425103Y-95910560D01*
X189449289Y-95866761D01*
X189463403Y-95847452D01*
X189464497Y-95847227D01*
X189478504Y-95862032D01*
X189502592Y-95901169D01*
X189534184Y-95959249D01*
X189570699Y-96030884D01*
X189609557Y-96110682D01*
X189648178Y-96193256D01*
X189683984Y-96273214D01*
X189714394Y-96345169D01*
X189736828Y-96403729D01*
X189748707Y-96443506D01*
X189749833Y-96449194D01*
X189756447Y-96494139D01*
X189755228Y-96533831D01*
X189744057Y-96576821D01*
X189720813Y-96631657D01*
X189683374Y-96706887D01*
X189695691Y-96710672D01*
X189736251Y-96714144D01*
X189800110Y-96716890D01*
X189882184Y-96718696D01*
X189977392Y-96719346D01*
X190067794Y-96718870D01*
X190151825Y-96717434D01*
X190218322Y-96715213D01*
X190262056Y-96712386D01*
X190277796Y-96709129D01*
X190269265Y-96696434D01*
X190241970Y-96664080D01*
X190200366Y-96617645D01*
X190149052Y-96562371D01*
X190139110Y-96551792D01*
X190104874Y-96514407D01*
X190073709Y-96477937D01*
X190043524Y-96439031D01*
X190012230Y-96394335D01*
X189977733Y-96340497D01*
X189937945Y-96274166D01*
X189890773Y-96191988D01*
X189834127Y-96090611D01*
X189765916Y-95966684D01*
X189684049Y-95816853D01*
X189576890Y-95620377D01*
X189662947Y-95451385D01*
X189689640Y-95399209D01*
X189782423Y-95221783D01*
X189802311Y-95185179D01*
X190261184Y-95185179D01*
X190261622Y-95216227D01*
X190267126Y-95261463D01*
X190283068Y-95293923D01*
X190314573Y-95327243D01*
X190338453Y-95344563D01*
X190389979Y-95375688D01*
X190462800Y-95416385D01*
X190552263Y-95464126D01*
X190653716Y-95516384D01*
X190762508Y-95570631D01*
X191157054Y-95764146D01*
X191157647Y-95831258D01*
X191152838Y-95899443D01*
X191131758Y-96000761D01*
X191097297Y-96105908D01*
X191053138Y-96205627D01*
X191002966Y-96290663D01*
X190950465Y-96351758D01*
X190867411Y-96405445D01*
X190772251Y-96429765D01*
X190669918Y-96421889D01*
X190592117Y-96395141D01*
X190503793Y-96350413D01*
X190419870Y-96295751D01*
X190353596Y-96238822D01*
X190327048Y-96213327D01*
X190290553Y-96190685D01*
X190268550Y-96197785D01*
X190261184Y-96234634D01*
X190261483Y-96247346D01*
X190281217Y-96343281D01*
X190328933Y-96439659D01*
X190400581Y-96531167D01*
X190492107Y-96612489D01*
X190599460Y-96678311D01*
X190678294Y-96709129D01*
X190709753Y-96721427D01*
X190846354Y-96745961D01*
X190981318Y-96740528D01*
X191110174Y-96705899D01*
X191228451Y-96642843D01*
X191331679Y-96552132D01*
X191348595Y-96532015D01*
X191402243Y-96452306D01*
X191454110Y-96354194D01*
X191498857Y-96248545D01*
X191531144Y-96146226D01*
X191538930Y-96113385D01*
X191570595Y-95912307D01*
X191580101Y-95697362D01*
X191567868Y-95477443D01*
X191534315Y-95261447D01*
X191479862Y-95058266D01*
X191464554Y-95016419D01*
X191401973Y-94888764D01*
X191332078Y-94786304D01*
X191595115Y-94786304D01*
X191597771Y-94876710D01*
X191612619Y-94963329D01*
X191639166Y-95039204D01*
X191676921Y-95097380D01*
X191725392Y-95130899D01*
X191766487Y-95141007D01*
X191799959Y-95133073D01*
X191817592Y-95099616D01*
X191822727Y-95037429D01*
X191826114Y-94983371D01*
X191844792Y-94919851D01*
X191878683Y-94884403D01*
X191926522Y-94878068D01*
X191987045Y-94901891D01*
X192034473Y-94941020D01*
X192090755Y-95018520D01*
X192143428Y-95126944D01*
X192145098Y-95131037D01*
X192154248Y-95154969D01*
X192161636Y-95179446D01*
X192167451Y-95208098D01*
X192171879Y-95244558D01*
X192175111Y-95292455D01*
X192177332Y-95355421D01*
X192178733Y-95437087D01*
X192179500Y-95541084D01*
X192179823Y-95671043D01*
X192179834Y-95697362D01*
X192179889Y-95830595D01*
X192179889Y-95860192D01*
X192179809Y-96021461D01*
X192179226Y-96153738D01*
X192177644Y-96260659D01*
X192174568Y-96345858D01*
X192169501Y-96412968D01*
X192161948Y-96465624D01*
X192151412Y-96507461D01*
X192137397Y-96542113D01*
X192119407Y-96573214D01*
X192096947Y-96604398D01*
X192069521Y-96639301D01*
X192065475Y-96644437D01*
X192037562Y-96683703D01*
X192029980Y-96706778D01*
X192040214Y-96720642D01*
X192051733Y-96723478D01*
X192092567Y-96727189D01*
X192155576Y-96730107D01*
X192234082Y-96732188D01*
X192321410Y-96733388D01*
X192410882Y-96733665D01*
X192495823Y-96732973D01*
X192569557Y-96731271D01*
X192625406Y-96728514D01*
X192656695Y-96724660D01*
X192665862Y-96721092D01*
X192671002Y-96708902D01*
X192659494Y-96683829D01*
X192642675Y-96659111D01*
X192753008Y-96659111D01*
X192753211Y-96660596D01*
X192770809Y-96677482D01*
X192810270Y-96698390D01*
X192862324Y-96719510D01*
X192917701Y-96737032D01*
X192967133Y-96747144D01*
X192982778Y-96748563D01*
X193067622Y-96739093D01*
X193138426Y-96700642D01*
X193192575Y-96635240D01*
X193227457Y-96544918D01*
X193237793Y-96506436D01*
X193246303Y-96482690D01*
X193249093Y-96482129D01*
X193269443Y-96495781D01*
X193304202Y-96527553D01*
X193347832Y-96572543D01*
X193391155Y-96615947D01*
X193461588Y-96674387D01*
X193525474Y-96713517D01*
X193603710Y-96740781D01*
X193712791Y-96751954D01*
X193819511Y-96735093D01*
X193917851Y-96692175D01*
X194001792Y-96625180D01*
X194065313Y-96536085D01*
X194094747Y-96459915D01*
X194116458Y-96347040D01*
X194122349Y-96221605D01*
X194112660Y-96092670D01*
X194087629Y-95969295D01*
X194047495Y-95860541D01*
X194019937Y-95809054D01*
X193981261Y-95753614D01*
X193932884Y-95702906D01*
X193870534Y-95653627D01*
X193789936Y-95602475D01*
X193686819Y-95546146D01*
X193556909Y-95481338D01*
X193554349Y-95480096D01*
X193464915Y-95435541D01*
X193386094Y-95394097D01*
X193322760Y-95358499D01*
X193279785Y-95331484D01*
X193262043Y-95315787D01*
X193258637Y-95300898D01*
X193254483Y-95253429D01*
X193252672Y-95186580D01*
X193253102Y-95109148D01*
X193255670Y-95029929D01*
X193260277Y-94957720D01*
X193266820Y-94901320D01*
X193281736Y-94844685D01*
X193322313Y-94779175D01*
X193383723Y-94739331D01*
X193465137Y-94725886D01*
X193482757Y-94726269D01*
X193554845Y-94739103D01*
X193614399Y-94773074D01*
X193666571Y-94832170D01*
X193716514Y-94920375D01*
X193765048Y-95010091D01*
X193818264Y-95083821D01*
X193868606Y-95126724D01*
X193915135Y-95137773D01*
X193933626Y-95133319D01*
X193936752Y-95130716D01*
X194167288Y-95130716D01*
X194169109Y-95301193D01*
X194170580Y-95349003D01*
X194175094Y-95453767D01*
X194181417Y-95537326D01*
X194190566Y-95608355D01*
X194203557Y-95675533D01*
X194221408Y-95747534D01*
X194263041Y-95877088D01*
X194325793Y-96029663D01*
X194401638Y-96184367D01*
X194422964Y-96221605D01*
X194485123Y-96330144D01*
X194570796Y-96455941D01*
X194595532Y-96487906D01*
X194732802Y-96645505D01*
X194885956Y-96792828D01*
X195048509Y-96924528D01*
X195213974Y-97035258D01*
X195375866Y-97119670D01*
X195533499Y-97182641D01*
X195730650Y-97243123D01*
X195934684Y-97284932D01*
X196149998Y-97308511D01*
X196380986Y-97314304D01*
X196632046Y-97302755D01*
X196907573Y-97274307D01*
X196933598Y-97271035D01*
X197102091Y-97252106D01*
X197242904Y-97241344D01*
X197360127Y-97239253D01*
X197457852Y-97246339D01*
X197540172Y-97263108D01*
X197611177Y-97290064D01*
X197674961Y-97327712D01*
X197735614Y-97376559D01*
X197744535Y-97384738D01*
X197807160Y-97453489D01*
X197842097Y-97519524D01*
X197852943Y-97589368D01*
X197838127Y-97652301D01*
X197796606Y-97719289D01*
X197733416Y-97783615D01*
X197653597Y-97838968D01*
X197628499Y-97852880D01*
X197591867Y-97870594D01*
X197556422Y-97881602D01*
X197513563Y-97887457D01*
X197454686Y-97889711D01*
X197371190Y-97889914D01*
X197290032Y-97888553D01*
X197202569Y-97882658D01*
X197126749Y-97870756D01*
X197050375Y-97851380D01*
X197027371Y-97844483D01*
X196845912Y-97777965D01*
X196677006Y-97694849D01*
X196527395Y-97598863D01*
X196403823Y-97493738D01*
X196364674Y-97456116D01*
X196330289Y-97430338D01*
X196299564Y-97420078D01*
X196262619Y-97420190D01*
X196200033Y-97425363D01*
X196274587Y-97506264D01*
X196342445Y-97575616D01*
X196516111Y-97721882D01*
X196593802Y-97771644D01*
X196707513Y-97844477D01*
X196911271Y-97940229D01*
X197122008Y-98005967D01*
X197175007Y-98016746D01*
X197320464Y-98030594D01*
X197462443Y-98022666D01*
X197596372Y-97994565D01*
X197717676Y-97947892D01*
X197821782Y-97884249D01*
X197904118Y-97805236D01*
X197960111Y-97712456D01*
X197977618Y-97650303D01*
X197985257Y-97557099D01*
X197976998Y-97461069D01*
X197953143Y-97376755D01*
X197910281Y-97302300D01*
X197846086Y-97222551D01*
X197769511Y-97147556D01*
X197689340Y-97086963D01*
X197665366Y-97072229D01*
X197604731Y-97040301D01*
X197541085Y-97016178D01*
X197468395Y-96998617D01*
X197380623Y-96986373D01*
X197271736Y-96978204D01*
X197135698Y-96972866D01*
X196842064Y-96964465D01*
X196789979Y-96866743D01*
X196734301Y-96747399D01*
X196673405Y-96568260D01*
X196632222Y-96378796D01*
X196631138Y-96371763D01*
X196620782Y-96291026D01*
X196609537Y-96181594D01*
X196597706Y-96047522D01*
X196585592Y-95892866D01*
X196573498Y-95721680D01*
X196561728Y-95538019D01*
X196550583Y-95345940D01*
X196540368Y-95149496D01*
X196536481Y-95074783D01*
X196524683Y-94900362D01*
X197051152Y-94900362D01*
X197076910Y-95017131D01*
X197131332Y-95126250D01*
X197213343Y-95222449D01*
X197266632Y-95262915D01*
X197327406Y-95289029D01*
X197380551Y-95290762D01*
X197420145Y-95266843D01*
X197424295Y-95261238D01*
X197430627Y-95237089D01*
X197418629Y-95206589D01*
X197385637Y-95165095D01*
X197328989Y-95107966D01*
X197290142Y-95066753D01*
X197227514Y-94977429D01*
X197186697Y-94884261D01*
X197172006Y-94795826D01*
X197175085Y-94757682D01*
X197195790Y-94683169D01*
X197231039Y-94616046D01*
X197274991Y-94569168D01*
X197300947Y-94554610D01*
X197348341Y-94543262D01*
X197387798Y-94550698D01*
X197409228Y-94576377D01*
X197413097Y-94587028D01*
X197434131Y-94604713D01*
X197477970Y-94609601D01*
X197502857Y-94608517D01*
X197536582Y-94596833D01*
X197557651Y-94566524D01*
X197562586Y-94552980D01*
X197561781Y-94500395D01*
X197533341Y-94451049D01*
X197481151Y-94412750D01*
X197479936Y-94412169D01*
X197445667Y-94400122D01*
X197411474Y-94401796D01*
X197362495Y-94417827D01*
X197356000Y-94420357D01*
X197248761Y-94478116D01*
X197160165Y-94556638D01*
X197096863Y-94650107D01*
X197089913Y-94664956D01*
X197055129Y-94781214D01*
X197051152Y-94900362D01*
X196524683Y-94900362D01*
X196520981Y-94845628D01*
X196501018Y-94644414D01*
X196475851Y-94467220D01*
X196444740Y-94310123D01*
X196406944Y-94169202D01*
X196361724Y-94040533D01*
X196308339Y-93920196D01*
X196283651Y-93871807D01*
X196239491Y-93791875D01*
X196195870Y-93719698D01*
X196159391Y-93666524D01*
X196125851Y-93622088D01*
X196101392Y-93588059D01*
X196092053Y-93572781D01*
X196093510Y-93569034D01*
X196113934Y-93558333D01*
X196160328Y-93546983D01*
X196235087Y-93534478D01*
X196340605Y-93520312D01*
X196346381Y-93519596D01*
X196519664Y-93502838D01*
X196674059Y-93498631D01*
X196821144Y-93507125D01*
X196972498Y-93528471D01*
X197112953Y-93558235D01*
X197324131Y-93625390D01*
X197516760Y-93717499D01*
X197695066Y-93836730D01*
X197863275Y-93985248D01*
X197866783Y-93988744D01*
X197933947Y-94057537D01*
X197983700Y-94114377D01*
X198023102Y-94169004D01*
X198059211Y-94231159D01*
X198099089Y-94310582D01*
X198116288Y-94346530D01*
X198163149Y-94451041D01*
X198196940Y-94542137D01*
X198199780Y-94552980D01*
X198219721Y-94629121D01*
X198233555Y-94721299D01*
X198240502Y-94827976D01*
X198242625Y-94958456D01*
X198242146Y-95061769D01*
X198239447Y-95148086D01*
X198233865Y-95215582D01*
X198224764Y-95271710D01*
X198211511Y-95323924D01*
X198177340Y-95424317D01*
X198118094Y-95557302D01*
X198049080Y-95676301D01*
X197975372Y-95771696D01*
X197920753Y-95825107D01*
X197815119Y-95905963D01*
X197699164Y-95971945D01*
X197580036Y-96019834D01*
X197464882Y-96046411D01*
X197360850Y-96048456D01*
X197350618Y-96047291D01*
X197300306Y-96043973D01*
X197273063Y-96049023D01*
X197260713Y-96063684D01*
X197255926Y-96080642D01*
X197260588Y-96094964D01*
X197281670Y-96105505D01*
X197324701Y-96114802D01*
X197395207Y-96125391D01*
X197544131Y-96132617D01*
X197698343Y-96110411D01*
X197844016Y-96059049D01*
X197978861Y-95980503D01*
X198100590Y-95876751D01*
X198206912Y-95749766D01*
X198295541Y-95601524D01*
X198364187Y-95434000D01*
X198410562Y-95249169D01*
X198423031Y-95165134D01*
X198431689Y-95018671D01*
X198423122Y-94866636D01*
X198396752Y-94701790D01*
X198352000Y-94516899D01*
X198320850Y-94416599D01*
X198231340Y-94209000D01*
X198112480Y-94015540D01*
X197965238Y-93837307D01*
X197790580Y-93675386D01*
X197589473Y-93530867D01*
X197362884Y-93404834D01*
X197224957Y-93344189D01*
X197002825Y-93272741D01*
X196771716Y-93229855D01*
X196530343Y-93215558D01*
X196277420Y-93229877D01*
X196011659Y-93272838D01*
X196006880Y-93274061D01*
X195731772Y-93344469D01*
X195436474Y-93444795D01*
X195356526Y-93476933D01*
X195134159Y-93587692D01*
X194927666Y-93722603D01*
X194740216Y-93878810D01*
X194574978Y-94053459D01*
X194435122Y-94243698D01*
X194368876Y-94364503D01*
X194323817Y-94446672D01*
X194305709Y-94486697D01*
X194253517Y-94614435D01*
X194215031Y-94734691D01*
X194188797Y-94855480D01*
X194173367Y-94984817D01*
X194167288Y-95130716D01*
X193936752Y-95130716D01*
X193970933Y-95102250D01*
X193991489Y-95044969D01*
X193994207Y-94963866D01*
X193988894Y-94920975D01*
X193953994Y-94813856D01*
X193891328Y-94719290D01*
X193803902Y-94639644D01*
X193694720Y-94577287D01*
X193566788Y-94534586D01*
X193423111Y-94513909D01*
X193298715Y-94514606D01*
X193190466Y-94535148D01*
X193098112Y-94577822D01*
X193015628Y-94644559D01*
X192999617Y-94660673D01*
X192990247Y-94670753D01*
X192974532Y-94687660D01*
X192953522Y-94714984D01*
X192936192Y-94745634D01*
X192922146Y-94782600D01*
X192910987Y-94828872D01*
X192902320Y-94887440D01*
X192895746Y-94961293D01*
X192890871Y-95053421D01*
X192887298Y-95166813D01*
X192884631Y-95304459D01*
X192882473Y-95469350D01*
X192880429Y-95664473D01*
X192878960Y-95805126D01*
X192876892Y-95972665D01*
X192874523Y-96112158D01*
X192871576Y-96226606D01*
X192867774Y-96319011D01*
X192862838Y-96392374D01*
X192856493Y-96449698D01*
X192848459Y-96493985D01*
X192838461Y-96528235D01*
X192826220Y-96555452D01*
X192811459Y-96578636D01*
X192793900Y-96600790D01*
X192786768Y-96609415D01*
X192762718Y-96641299D01*
X192753008Y-96659111D01*
X192642675Y-96659111D01*
X192629245Y-96639373D01*
X192608629Y-96607909D01*
X192576268Y-96547526D01*
X192556001Y-96495082D01*
X192555381Y-96492407D01*
X192551054Y-96454391D01*
X192547146Y-96385348D01*
X192543704Y-96287212D01*
X192540774Y-96161914D01*
X192538403Y-96011386D01*
X192536636Y-95837562D01*
X192535521Y-95642374D01*
X192535175Y-95548333D01*
X192534659Y-95381520D01*
X192534478Y-95243523D01*
X192534737Y-95131395D01*
X192535543Y-95042185D01*
X192537001Y-94972947D01*
X192539219Y-94920730D01*
X192542301Y-94882586D01*
X192546355Y-94855567D01*
X192551485Y-94836723D01*
X192557799Y-94823105D01*
X192565402Y-94811766D01*
X192569579Y-94806379D01*
X192608711Y-94765933D01*
X192654863Y-94728896D01*
X192667310Y-94719946D01*
X192698845Y-94691669D01*
X192711478Y-94670753D01*
X192704485Y-94662688D01*
X192671751Y-94644992D01*
X192618379Y-94622449D01*
X192551181Y-94597357D01*
X192476974Y-94572012D01*
X192402571Y-94548710D01*
X192334788Y-94529746D01*
X192280438Y-94517418D01*
X192246337Y-94514022D01*
X192196501Y-94518234D01*
X192191452Y-94725886D01*
X192186404Y-94933538D01*
X192131327Y-94815550D01*
X192104213Y-94762121D01*
X192039738Y-94663372D01*
X191968868Y-94587072D01*
X191894727Y-94535115D01*
X191820438Y-94509395D01*
X191749125Y-94511806D01*
X191683911Y-94544242D01*
X191665215Y-94561923D01*
X191628345Y-94621954D01*
X191605143Y-94699067D01*
X191595115Y-94786304D01*
X191332078Y-94786304D01*
X191321142Y-94770273D01*
X191228108Y-94668964D01*
X191128920Y-94592860D01*
X191056153Y-94554866D01*
X190937310Y-94514485D01*
X190816788Y-94496687D01*
X190702344Y-94502363D01*
X190601733Y-94532402D01*
X190515063Y-94587433D01*
X190431009Y-94673569D01*
X190360840Y-94781689D01*
X190307311Y-94906516D01*
X190273174Y-95042772D01*
X190261184Y-95185179D01*
X189802311Y-95185179D01*
X189868765Y-95062872D01*
X189947284Y-94924855D01*
X190016597Y-94810117D01*
X190075323Y-94721038D01*
X190122080Y-94660001D01*
X190134327Y-94645750D01*
X190173565Y-94596901D01*
X190201014Y-94557704D01*
X190211347Y-94535584D01*
X190207397Y-94529001D01*
X190189471Y-94522856D01*
X190153562Y-94518712D01*
X190095862Y-94516328D01*
X190012567Y-94515463D01*
X189899869Y-94515878D01*
X189588391Y-94518234D01*
X189593464Y-94587040D01*
X189593051Y-94626042D01*
X189585329Y-94692600D01*
X189571463Y-94760329D01*
X189560358Y-94799181D01*
X189539233Y-94865349D01*
X189512458Y-94944237D01*
X189482347Y-95029527D01*
X189451212Y-95114900D01*
X189421365Y-95194039D01*
X189395119Y-95260624D01*
X189374785Y-95308337D01*
X189362676Y-95330860D01*
X189361842Y-95331360D01*
X189348697Y-95319166D01*
X189325280Y-95282856D01*
X189294360Y-95227964D01*
X189258706Y-95160026D01*
X189221087Y-95084577D01*
X189184272Y-95007154D01*
X189151029Y-94933292D01*
X189124128Y-94868525D01*
X189106338Y-94818391D01*
X189100381Y-94797342D01*
X189084208Y-94708242D01*
X189086115Y-94635034D01*
X189106110Y-94583705D01*
X189107467Y-94581906D01*
X189124808Y-94556428D01*
X189130440Y-94537787D01*
X189120775Y-94524921D01*
X189092229Y-94516766D01*
X189041217Y-94512258D01*
X188964155Y-94510333D01*
X188857456Y-94509928D01*
X188831728Y-94509953D01*
X188732296Y-94510802D01*
X188661499Y-94513068D01*
X188615581Y-94517045D01*
X188590785Y-94523025D01*
X188583355Y-94531302D01*
X188584657Y-94536007D01*
X188602712Y-94562749D01*
X188637562Y-94603079D01*
X188683517Y-94650241D01*
X188684135Y-94650844D01*
X188744296Y-94714926D01*
X188805858Y-94789047D01*
X188855587Y-94857284D01*
X188858239Y-94861355D01*
X188889113Y-94911843D01*
X188928322Y-94980017D01*
X188973138Y-95060692D01*
X189020832Y-95148681D01*
X189023002Y-95152769D01*
X189068674Y-95238796D01*
X189113937Y-95325852D01*
X189153892Y-95404660D01*
X189185809Y-95470035D01*
X189206960Y-95516790D01*
X189214617Y-95539737D01*
X189212051Y-95549114D01*
X189197015Y-95585258D01*
X189170780Y-95642053D01*
X189135945Y-95713943D01*
X189095107Y-95795373D01*
X189087245Y-95810817D01*
X189031968Y-95919909D01*
X188970138Y-96042627D01*
X188908754Y-96165053D01*
X188854815Y-96273264D01*
X188837093Y-96308663D01*
X188782711Y-96412210D01*
X188735780Y-96491965D01*
X188692830Y-96553519D01*
X188650387Y-96602461D01*
X188646422Y-96606550D01*
X188606128Y-96650265D01*
X188577582Y-96685103D01*
X188566743Y-96703841D01*
X188457696Y-96703841D01*
X188458612Y-96701089D01*
X188465074Y-96657231D01*
X188470085Y-96591941D01*
X188473627Y-96511288D01*
X188475685Y-96421342D01*
X188476245Y-96328170D01*
X188475289Y-96237842D01*
X188472802Y-96156425D01*
X188468769Y-96089988D01*
X188463174Y-96044601D01*
X188456001Y-96026331D01*
X188452168Y-96026804D01*
X188432440Y-96045675D01*
X188404513Y-96085797D01*
X188373129Y-96140627D01*
X188364802Y-96156029D01*
X188297303Y-96259275D01*
X188216244Y-96354213D01*
X188129129Y-96432947D01*
X188043460Y-96487581D01*
X187969328Y-96514624D01*
X187870663Y-96528356D01*
X187775949Y-96519206D01*
X187695268Y-96487186D01*
X187660011Y-96460725D01*
X187606718Y-96392449D01*
X187578091Y-96309555D01*
X187575909Y-96218899D01*
X187601950Y-96127338D01*
X187616378Y-96098356D01*
X187655364Y-96038763D01*
X187708825Y-95978991D01*
X187780615Y-95915461D01*
X187874590Y-95844593D01*
X187994605Y-95762809D01*
X188064080Y-95715887D01*
X188209196Y-95607687D01*
X188323727Y-95505459D01*
X188408913Y-95408024D01*
X188465989Y-95314206D01*
X188476578Y-95290710D01*
X188490711Y-95250492D01*
X188497875Y-95207927D01*
X188499375Y-95152769D01*
X188496519Y-95074773D01*
X188492692Y-95018710D01*
X188475586Y-94907409D01*
X188444209Y-94816071D01*
X188395112Y-94736360D01*
X188324842Y-94659938D01*
X188232477Y-94586626D01*
X188110619Y-94525932D01*
X187979693Y-94496921D01*
X187840943Y-94499839D01*
X187695612Y-94534933D01*
X187563723Y-94580552D01*
X187492426Y-94541605D01*
X187451013Y-94521084D01*
X187420373Y-94513795D01*
X187400895Y-94522891D01*
X187397762Y-94527710D01*
X187389538Y-94561111D01*
X187382835Y-94624042D01*
X187377549Y-94717727D01*
X187373575Y-94843390D01*
X187371619Y-94957584D01*
X187372386Y-95054587D01*
X187377011Y-95121163D01*
X187386279Y-95158743D01*
X187400970Y-95168757D01*
X187421869Y-95152633D01*
X187449758Y-95111803D01*
X187485419Y-95047696D01*
X187485653Y-95047253D01*
X187543501Y-94955487D01*
X187613604Y-94871207D01*
X187688383Y-94802427D01*
X187760257Y-94757160D01*
X187776537Y-94750333D01*
X187859613Y-94729922D01*
X187944640Y-94728951D01*
X188023517Y-94745886D01*
X188088146Y-94779190D01*
X188130429Y-94827329D01*
X188138883Y-94846373D01*
X188150475Y-94922520D01*
X188132517Y-95006048D01*
X188086174Y-95093449D01*
X188012617Y-95181213D01*
X187996199Y-95196423D01*
X187946234Y-95237544D01*
X187878630Y-95289126D01*
X187800157Y-95346072D01*
X187717586Y-95403286D01*
X187702923Y-95413231D01*
X187568427Y-95509271D01*
X187461496Y-95596682D01*
X187379293Y-95679231D01*
X187318983Y-95760683D01*
X187277729Y-95844805D01*
X187252697Y-95935363D01*
X187241050Y-96036122D01*
X186991824Y-96036122D01*
X186991353Y-95970833D01*
X186991222Y-95775220D01*
X186992134Y-95546789D01*
X186992380Y-95505248D01*
X186993535Y-95325552D01*
X186994743Y-95175530D01*
X186996124Y-95052245D01*
X186997800Y-94952759D01*
X186999891Y-94874137D01*
X187002517Y-94813440D01*
X187005800Y-94767732D01*
X187009860Y-94734076D01*
X187014817Y-94709535D01*
X187020793Y-94691172D01*
X187027908Y-94676050D01*
X187030814Y-94670708D01*
X187061772Y-94621200D01*
X187093038Y-94580595D01*
X187093763Y-94579797D01*
X187114006Y-94550617D01*
X187115967Y-94532097D01*
X187112422Y-94530377D01*
X187082060Y-94525537D01*
X187027103Y-94521271D01*
X186953973Y-94517687D01*
X186869088Y-94514898D01*
X186778870Y-94513013D01*
X186689739Y-94512144D01*
X186608114Y-94512399D01*
X186540417Y-94513890D01*
X186493066Y-94516728D01*
X186472482Y-94521023D01*
X186470576Y-94523589D01*
X186473196Y-94550291D01*
X186498195Y-94592537D01*
X186501914Y-94597607D01*
X186532140Y-94642455D01*
X186554635Y-94686397D01*
X186570402Y-94735114D01*
X186580446Y-94794287D01*
X186585769Y-94869598D01*
X186587374Y-94966726D01*
X186586263Y-95091354D01*
X186581589Y-95398679D01*
X186295029Y-95403224D01*
X186008469Y-95407769D01*
X186008562Y-95104205D01*
X186008577Y-95085423D01*
X186009471Y-94965465D01*
X186012419Y-94872175D01*
X186018374Y-94799798D01*
X186028289Y-94742577D01*
X186043117Y-94694757D01*
X186063811Y-94650583D01*
X186091323Y-94604298D01*
X186112075Y-94570875D01*
X186133187Y-94534777D01*
X186141367Y-94517657D01*
X186140252Y-94517031D01*
X186116603Y-94514771D01*
X186065923Y-94512820D01*
X185993125Y-94511287D01*
X185903119Y-94510286D01*
X185800817Y-94509928D01*
X185769242Y-94509948D01*
X185659071Y-94510508D01*
X185577414Y-94512030D01*
X185520489Y-94514767D01*
X185484511Y-94518973D01*
X185465698Y-94524904D01*
X185460268Y-94532812D01*
X185464625Y-94549040D01*
X185486400Y-94577384D01*
X185494240Y-94585128D01*
X185520929Y-94620519D01*
X185548696Y-94666632D01*
X185555624Y-94680046D01*
X185562785Y-94696777D01*
X185568717Y-94716822D01*
X185573561Y-94743172D01*
X185577460Y-94778819D01*
X185580556Y-94826753D01*
X185582991Y-94889965D01*
X185584908Y-94971447D01*
X185586448Y-95074188D01*
X185587755Y-95201181D01*
X185588970Y-95355415D01*
X185590236Y-95539882D01*
X185590769Y-95621667D01*
X185591774Y-95808586D01*
X185592069Y-95966445D01*
X185591403Y-96098237D01*
X185589523Y-96206952D01*
X185586178Y-96295582D01*
X185581115Y-96367118D01*
X185574083Y-96424551D01*
X185564831Y-96470874D01*
X185553105Y-96509077D01*
X185538655Y-96542151D01*
X185521228Y-96573089D01*
X185500573Y-96604881D01*
X185474816Y-96644784D01*
X185452316Y-96683635D01*
X185443656Y-96704403D01*
X185119719Y-96704403D01*
X185119719Y-96545287D01*
X185119719Y-94417636D01*
X186829221Y-94417636D01*
X186830677Y-94450415D01*
X186843514Y-94460091D01*
X186860388Y-94453939D01*
X186900486Y-94432724D01*
X186956132Y-94399945D01*
X187020756Y-94359336D01*
X187102850Y-94307332D01*
X187230190Y-94232932D01*
X187344161Y-94176716D01*
X187451990Y-94136160D01*
X187560903Y-94108738D01*
X187678127Y-94091924D01*
X187810889Y-94083192D01*
X187916597Y-94080772D01*
X188023613Y-94083452D01*
X188131913Y-94092772D01*
X188256917Y-94109647D01*
X188337594Y-94120879D01*
X188536903Y-94138974D01*
X188712118Y-94139952D01*
X188862474Y-94124059D01*
X188987207Y-94091542D01*
X189085552Y-94042648D01*
X189156745Y-93977625D01*
X189200022Y-93896718D01*
X189214617Y-93800176D01*
X189214484Y-93783325D01*
X189209998Y-93731933D01*
X189195495Y-93695985D01*
X189166059Y-93661430D01*
X189136899Y-93637490D01*
X189074971Y-93613099D01*
X189012386Y-93618395D01*
X188956374Y-93653646D01*
X188947393Y-93663107D01*
X188918484Y-93709346D01*
X188920032Y-93745959D01*
X188950381Y-93769049D01*
X189007871Y-93774719D01*
X189019867Y-93774032D01*
X189055471Y-93774778D01*
X189068560Y-93785714D01*
X189067717Y-93812217D01*
X189067326Y-93814882D01*
X189048086Y-93865096D01*
X189004496Y-93909718D01*
X188932210Y-93953274D01*
X188861128Y-93983355D01*
X188756017Y-94010269D01*
X188634196Y-94023102D01*
X188492270Y-94021960D01*
X188326844Y-94006948D01*
X188134525Y-93978174D01*
X188112083Y-93974393D01*
X187934947Y-93951756D01*
X187778021Y-93946756D01*
X187633806Y-93960024D01*
X187494805Y-93992191D01*
X187353520Y-94043887D01*
X187348929Y-94045858D01*
X187257448Y-94090802D01*
X187162437Y-94146462D01*
X187075502Y-94205546D01*
X187008254Y-94260763D01*
X187001068Y-94267401D01*
X186971000Y-94288517D01*
X186956600Y-94285272D01*
X186956366Y-94260989D01*
X186968796Y-94218989D01*
X186992389Y-94162594D01*
X187025643Y-94095125D01*
X187067054Y-94019905D01*
X187115123Y-93940253D01*
X187168345Y-93859493D01*
X187225221Y-93780944D01*
X187281212Y-93713032D01*
X187356537Y-93630465D01*
X187442606Y-93542310D01*
X187532999Y-93454777D01*
X187621297Y-93374073D01*
X187701081Y-93306407D01*
X187765932Y-93257988D01*
X187902821Y-93174874D01*
X188108331Y-93076107D01*
X188320376Y-93002481D01*
X188533976Y-92955312D01*
X188744155Y-92935918D01*
X188945933Y-92945618D01*
X188958045Y-92947181D01*
X189035358Y-92959553D01*
X189105482Y-92976516D01*
X189174031Y-93000646D01*
X189246621Y-93034517D01*
X189328866Y-93080706D01*
X189426379Y-93141787D01*
X189544774Y-93220338D01*
X189698527Y-93320008D01*
X189875426Y-93422196D01*
X190040855Y-93501699D01*
X190199940Y-93560350D01*
X190357804Y-93599977D01*
X190519571Y-93622412D01*
X190690367Y-93629483D01*
X190817949Y-93624465D01*
X190999155Y-93596736D01*
X191158329Y-93544993D01*
X191294262Y-93469927D01*
X193151700Y-93469927D01*
X193153431Y-93507677D01*
X193172580Y-93616255D01*
X193210187Y-93732649D01*
X193262850Y-93845367D01*
X193312043Y-93920566D01*
X193385362Y-94010444D01*
X193471947Y-94101533D01*
X193564210Y-94186407D01*
X193654562Y-94257640D01*
X193735415Y-94307806D01*
X193747177Y-94313525D01*
X193809159Y-94338321D01*
X193876106Y-94358344D01*
X193940781Y-94372283D01*
X193995941Y-94378830D01*
X194034346Y-94376673D01*
X194048757Y-94364503D01*
X194042515Y-94351003D01*
X194012682Y-94334060D01*
X193968491Y-94327032D01*
X193929273Y-94319099D01*
X193868757Y-94293794D01*
X193800581Y-94256117D01*
X193733955Y-94211230D01*
X193678093Y-94164294D01*
X193646993Y-94132050D01*
X193552018Y-94005519D01*
X193474555Y-93856415D01*
X193416652Y-93690249D01*
X193380359Y-93512536D01*
X193367722Y-93328790D01*
X193367112Y-93298846D01*
X193358279Y-93219459D01*
X193340352Y-93162339D01*
X193315143Y-93130212D01*
X193284465Y-93125805D01*
X193250128Y-93151845D01*
X193226125Y-93190865D01*
X193198972Y-93255747D01*
X193175113Y-93331652D01*
X193158154Y-93406929D01*
X193151700Y-93469927D01*
X191294262Y-93469927D01*
X191295015Y-93469511D01*
X191408754Y-93370565D01*
X191499092Y-93248430D01*
X191565570Y-93103380D01*
X191593253Y-93016029D01*
X191622740Y-92878933D01*
X191630244Y-92749984D01*
X191625224Y-92701332D01*
X194732435Y-92701332D01*
X194752781Y-92727382D01*
X194780406Y-92749984D01*
X194801846Y-92767525D01*
X194879928Y-92822535D01*
X195021596Y-92931035D01*
X195185589Y-93091507D01*
X195338318Y-93281368D01*
X195367699Y-93318057D01*
X195401271Y-93350431D01*
X195424972Y-93362399D01*
X195426308Y-93362299D01*
X195456883Y-93355124D01*
X195507283Y-93339150D01*
X195567313Y-93317585D01*
X195682140Y-93274061D01*
X195548483Y-93147219D01*
X195419380Y-93031466D01*
X195261146Y-92908337D01*
X195108799Y-92810662D01*
X194964917Y-92740057D01*
X194832080Y-92698138D01*
X194776712Y-92688426D01*
X194740511Y-92688604D01*
X194732435Y-92701332D01*
X191625224Y-92701332D01*
X191616786Y-92619547D01*
X191595176Y-92521699D01*
X191540023Y-92370486D01*
X191462809Y-92243387D01*
X191363911Y-92140965D01*
X191243709Y-92063786D01*
X191225754Y-92055016D01*
X191178915Y-92033957D01*
X191137735Y-92020699D01*
X191092496Y-92013447D01*
X191033477Y-92010411D01*
X190950960Y-92009797D01*
X190911067Y-92010115D01*
X190813976Y-92015747D01*
X190737168Y-92031269D01*
X190671292Y-92060373D01*
X190606999Y-92106752D01*
X190534938Y-92174098D01*
X190525753Y-92183565D01*
X190468593Y-92255670D01*
X190421397Y-92336920D01*
X190389308Y-92417124D01*
X190377469Y-92486093D01*
X190387020Y-92553875D01*
X190422958Y-92637767D01*
X190480001Y-92708115D01*
X190486186Y-92713602D01*
X190546167Y-92753758D01*
X190603724Y-92764274D01*
X190666573Y-92746749D01*
X190677624Y-92740872D01*
X190711118Y-92708092D01*
X190727971Y-92666875D01*
X190727754Y-92626252D01*
X190710035Y-92595256D01*
X190674384Y-92582917D01*
X190666949Y-92581998D01*
X190630920Y-92565336D01*
X190592149Y-92534358D01*
X190574395Y-92515093D01*
X190550020Y-92471594D01*
X190543590Y-92415225D01*
X190544564Y-92387624D01*
X190553103Y-92351231D01*
X190575505Y-92317040D01*
X190617795Y-92273551D01*
X190622916Y-92268739D01*
X190710963Y-92206772D01*
X190813155Y-92165804D01*
X190916889Y-92151001D01*
X190985903Y-92158274D01*
X191071335Y-92178628D01*
X191155116Y-92207577D01*
X191221917Y-92240618D01*
X191244789Y-92256134D01*
X191331303Y-92334378D01*
X191405824Y-92431823D01*
X191459412Y-92537299D01*
X191477586Y-92590935D01*
X191490520Y-92649707D01*
X191497011Y-92717833D01*
X191498790Y-92807181D01*
X191498513Y-92854372D01*
X191495798Y-92922603D01*
X191488674Y-92974028D01*
X191475313Y-93019314D01*
X191453887Y-93069126D01*
X191412837Y-93141320D01*
X191328279Y-93244624D01*
X191222938Y-93335214D01*
X191104278Y-93405897D01*
X191065690Y-93423378D01*
X190918246Y-93474374D01*
X190761014Y-93503165D01*
X190585121Y-93511554D01*
X190569140Y-93511446D01*
X190500555Y-93510561D01*
X190460469Y-93508573D01*
X190444888Y-93504641D01*
X190449819Y-93497923D01*
X190471268Y-93487579D01*
X190516272Y-93462278D01*
X190566281Y-93411105D01*
X190589317Y-93351966D01*
X190584947Y-93291034D01*
X190552739Y-93234483D01*
X190492258Y-93188487D01*
X190458479Y-93174171D01*
X190428770Y-93175364D01*
X190414724Y-93202821D01*
X190413220Y-93259342D01*
X190408172Y-93321481D01*
X190382138Y-93365096D01*
X190331972Y-93389386D01*
X190254722Y-93396913D01*
X190205673Y-93392091D01*
X190111326Y-93365414D01*
X189998594Y-93316555D01*
X189870064Y-93246835D01*
X189728326Y-93157577D01*
X189575967Y-93050104D01*
X189430646Y-92942471D01*
X189526622Y-92896407D01*
X189592033Y-92861451D01*
X189655754Y-92813365D01*
X189691716Y-92762303D01*
X189703015Y-92704901D01*
X189702621Y-92695130D01*
X189687014Y-92643926D01*
X189653980Y-92602850D01*
X189610840Y-92575303D01*
X189564916Y-92564685D01*
X189523529Y-92574395D01*
X189494001Y-92607835D01*
X189483523Y-92645504D01*
X189494434Y-92691845D01*
X189499974Y-92705901D01*
X189501973Y-92751600D01*
X189473844Y-92789435D01*
X189414112Y-92821796D01*
X189409370Y-92823672D01*
X189350300Y-92842006D01*
X189294346Y-92846442D01*
X189230603Y-92836581D01*
X189148169Y-92812022D01*
X189063916Y-92791820D01*
X188951069Y-92778631D01*
X188823717Y-92774170D01*
X188690932Y-92778424D01*
X188561788Y-92791380D01*
X188445358Y-92813025D01*
X188306535Y-92852842D01*
X188082613Y-92942196D01*
X187862926Y-93060196D01*
X187652277Y-93204134D01*
X187455468Y-93371302D01*
X187385745Y-93440831D01*
X187286558Y-93549269D01*
X187186533Y-93667751D01*
X187094430Y-93785806D01*
X187019008Y-93892964D01*
X187000502Y-93922990D01*
X186946213Y-94029487D01*
X186896847Y-94151532D01*
X186857356Y-94275930D01*
X186832691Y-94389490D01*
X186829221Y-94417636D01*
X185119719Y-94417636D01*
X185119719Y-93655139D01*
X186315794Y-92857184D01*
X186340822Y-92840487D01*
X186551395Y-92699932D01*
X186774679Y-92550787D01*
X187008552Y-92394474D01*
X187250891Y-92232417D01*
X187499572Y-92066040D01*
X187752472Y-91896766D01*
X188007469Y-91726019D01*
X188262439Y-91555222D01*
X188515260Y-91385799D01*
X188763807Y-91219174D01*
X189005959Y-91056770D01*
X189239591Y-90900010D01*
X189462582Y-90750318D01*
X189672808Y-90609117D01*
X189868145Y-90477832D01*
X190046472Y-90357886D01*
X190205664Y-90250701D01*
X190343599Y-90157703D01*
X190458154Y-90080313D01*
X190547205Y-90019957D01*
X190597180Y-89986010D01*
X190749542Y-89882728D01*
X190886368Y-89790391D01*
X191014899Y-89704170D01*
X191142376Y-89619235D01*
X191276038Y-89530758D01*
X191423126Y-89433910D01*
X191590880Y-89323862D01*
X191932153Y-89100270D01*
X192147388Y-89243852D01*
X192172290Y-89260508D01*
X192272290Y-89327996D01*
X192384061Y-89404161D01*
X192495672Y-89480849D01*
X192595193Y-89549905D01*
X192663349Y-89597175D01*
X192760315Y-89663777D01*
X192872513Y-89740342D01*
X192993368Y-89822395D01*
X193116309Y-89905465D01*
X193234761Y-89985079D01*
X193322291Y-90043805D01*
X193457750Y-90134921D01*
X193599009Y-90230172D01*
X193737710Y-90323913D01*
X193865494Y-90410499D01*
X193974002Y-90484284D01*
X194057304Y-90540892D01*
X194171039Y-90617846D01*
X194307778Y-90710111D01*
X194465118Y-90816078D01*
X194640656Y-90934137D01*
X194831991Y-91062680D01*
X195036718Y-91200098D01*
X195252436Y-91344782D01*
X195476741Y-91495124D01*
X195707231Y-91649513D01*
X195941504Y-91806342D01*
X196177156Y-91964002D01*
X196411786Y-92120884D01*
X196642989Y-92275378D01*
X196868364Y-92425876D01*
X197085509Y-92570769D01*
X197292019Y-92708449D01*
X197485493Y-92837305D01*
X197663527Y-92955731D01*
X197823720Y-93062115D01*
X198716472Y-93654401D01*
X198716544Y-95018671D01*
X198716624Y-96521257D01*
G37*
D13*
%TO.C,J1*%
X174571599Y-108466799D02*
X177271600Y-108466800D01*
X174571599Y-110366799D02*
X174571599Y-108466799D01*
X174571600Y-123166800D02*
X174571599Y-114366799D01*
X181171599Y-108466798D02*
X183771599Y-108466799D01*
X183771599Y-108466799D02*
X183771600Y-123166798D01*
X183771600Y-123166798D02*
X174571600Y-123166800D01*
X183971599Y-108266799D02*
X182921599Y-108266799D01*
X183971599Y-108266799D02*
X183971599Y-109316800D01*
%TD*%
M02*
