%TF.GenerationSoftware,KiCad,Pcbnew,8.0.9*%
%TF.CreationDate,2025-12-12T10:11:09+01:00*%
%TF.ProjectId,Project,50726f6a-6563-4742-9e6b-696361645f70,rev?*%
%TF.SameCoordinates,Original*%
%TF.FileFunction,Drillmap*%
%TF.FilePolarity,Positive*%
%FSLAX45Y45*%
G04 Gerber Fmt 4.5, Leading zero omitted, Abs format (unit mm)*
G04 Created by KiCad (PCBNEW 8.0.9) date 2025-12-12 10:11:09*
%MOMM*%
%LPD*%
G01*
G04 APERTURE LIST*
%ADD10C,0.050000*%
%ADD11C,0.200000*%
%ADD12C,0.320000*%
G04 APERTURE END LIST*
D10*
X20843403Y-10007600D02*
G75*
G02*
X14990917Y-10007600I-2926243J0D01*
G01*
X14990917Y-10007600D02*
G75*
G02*
X20843403Y-10007600I2926243J0D01*
G01*
D11*
D12*
X17757160Y-9847600D02*
X18077160Y-10167600D01*
X18077160Y-9847600D02*
X17757160Y-10167600D01*
D11*
X15249194Y-13247827D02*
X15249194Y-13047827D01*
X15249194Y-13047827D02*
X15296813Y-13047827D01*
X15296813Y-13047827D02*
X15325384Y-13057351D01*
X15325384Y-13057351D02*
X15344432Y-13076398D01*
X15344432Y-13076398D02*
X15353956Y-13095446D01*
X15353956Y-13095446D02*
X15363479Y-13133541D01*
X15363479Y-13133541D02*
X15363479Y-13162113D01*
X15363479Y-13162113D02*
X15353956Y-13200208D01*
X15353956Y-13200208D02*
X15344432Y-13219255D01*
X15344432Y-13219255D02*
X15325384Y-13238303D01*
X15325384Y-13238303D02*
X15296813Y-13247827D01*
X15296813Y-13247827D02*
X15249194Y-13247827D01*
X15449194Y-13247827D02*
X15449194Y-13114493D01*
X15449194Y-13152589D02*
X15458717Y-13133541D01*
X15458717Y-13133541D02*
X15468241Y-13124017D01*
X15468241Y-13124017D02*
X15487289Y-13114493D01*
X15487289Y-13114493D02*
X15506337Y-13114493D01*
X15573003Y-13247827D02*
X15573003Y-13114493D01*
X15573003Y-13047827D02*
X15563479Y-13057351D01*
X15563479Y-13057351D02*
X15573003Y-13066874D01*
X15573003Y-13066874D02*
X15582527Y-13057351D01*
X15582527Y-13057351D02*
X15573003Y-13047827D01*
X15573003Y-13047827D02*
X15573003Y-13066874D01*
X15696813Y-13247827D02*
X15677765Y-13238303D01*
X15677765Y-13238303D02*
X15668241Y-13219255D01*
X15668241Y-13219255D02*
X15668241Y-13047827D01*
X15801575Y-13247827D02*
X15782527Y-13238303D01*
X15782527Y-13238303D02*
X15773003Y-13219255D01*
X15773003Y-13219255D02*
X15773003Y-13047827D01*
X16030146Y-13247827D02*
X16030146Y-13047827D01*
X16030146Y-13047827D02*
X16096813Y-13190684D01*
X16096813Y-13190684D02*
X16163479Y-13047827D01*
X16163479Y-13047827D02*
X16163479Y-13247827D01*
X16344432Y-13247827D02*
X16344432Y-13143065D01*
X16344432Y-13143065D02*
X16334908Y-13124017D01*
X16334908Y-13124017D02*
X16315860Y-13114493D01*
X16315860Y-13114493D02*
X16277765Y-13114493D01*
X16277765Y-13114493D02*
X16258717Y-13124017D01*
X16344432Y-13238303D02*
X16325384Y-13247827D01*
X16325384Y-13247827D02*
X16277765Y-13247827D01*
X16277765Y-13247827D02*
X16258717Y-13238303D01*
X16258717Y-13238303D02*
X16249194Y-13219255D01*
X16249194Y-13219255D02*
X16249194Y-13200208D01*
X16249194Y-13200208D02*
X16258717Y-13181160D01*
X16258717Y-13181160D02*
X16277765Y-13171636D01*
X16277765Y-13171636D02*
X16325384Y-13171636D01*
X16325384Y-13171636D02*
X16344432Y-13162113D01*
X16439670Y-13114493D02*
X16439670Y-13314493D01*
X16439670Y-13124017D02*
X16458717Y-13114493D01*
X16458717Y-13114493D02*
X16496813Y-13114493D01*
X16496813Y-13114493D02*
X16515860Y-13124017D01*
X16515860Y-13124017D02*
X16525384Y-13133541D01*
X16525384Y-13133541D02*
X16534908Y-13152589D01*
X16534908Y-13152589D02*
X16534908Y-13209732D01*
X16534908Y-13209732D02*
X16525384Y-13228779D01*
X16525384Y-13228779D02*
X16515860Y-13238303D01*
X16515860Y-13238303D02*
X16496813Y-13247827D01*
X16496813Y-13247827D02*
X16458717Y-13247827D01*
X16458717Y-13247827D02*
X16439670Y-13238303D01*
X16620622Y-13228779D02*
X16630146Y-13238303D01*
X16630146Y-13238303D02*
X16620622Y-13247827D01*
X16620622Y-13247827D02*
X16611098Y-13238303D01*
X16611098Y-13238303D02*
X16620622Y-13228779D01*
X16620622Y-13228779D02*
X16620622Y-13247827D01*
X16620622Y-13124017D02*
X16630146Y-13133541D01*
X16630146Y-13133541D02*
X16620622Y-13143065D01*
X16620622Y-13143065D02*
X16611098Y-13133541D01*
X16611098Y-13133541D02*
X16620622Y-13124017D01*
X16620622Y-13124017D02*
X16620622Y-13143065D01*
X14788417Y-13476343D02*
X14988417Y-13676343D01*
X14988417Y-13476343D02*
X14788417Y-13676343D01*
X15230146Y-13467827D02*
X15353956Y-13467827D01*
X15353956Y-13467827D02*
X15287289Y-13544017D01*
X15287289Y-13544017D02*
X15315860Y-13544017D01*
X15315860Y-13544017D02*
X15334908Y-13553541D01*
X15334908Y-13553541D02*
X15344432Y-13563065D01*
X15344432Y-13563065D02*
X15353956Y-13582113D01*
X15353956Y-13582113D02*
X15353956Y-13629732D01*
X15353956Y-13629732D02*
X15344432Y-13648779D01*
X15344432Y-13648779D02*
X15334908Y-13658303D01*
X15334908Y-13658303D02*
X15315860Y-13667827D01*
X15315860Y-13667827D02*
X15258717Y-13667827D01*
X15258717Y-13667827D02*
X15239670Y-13658303D01*
X15239670Y-13658303D02*
X15230146Y-13648779D01*
X15439670Y-13648779D02*
X15449194Y-13658303D01*
X15449194Y-13658303D02*
X15439670Y-13667827D01*
X15439670Y-13667827D02*
X15430146Y-13658303D01*
X15430146Y-13658303D02*
X15439670Y-13648779D01*
X15439670Y-13648779D02*
X15439670Y-13667827D01*
X15525384Y-13486874D02*
X15534908Y-13477351D01*
X15534908Y-13477351D02*
X15553956Y-13467827D01*
X15553956Y-13467827D02*
X15601575Y-13467827D01*
X15601575Y-13467827D02*
X15620622Y-13477351D01*
X15620622Y-13477351D02*
X15630146Y-13486874D01*
X15630146Y-13486874D02*
X15639670Y-13505922D01*
X15639670Y-13505922D02*
X15639670Y-13524970D01*
X15639670Y-13524970D02*
X15630146Y-13553541D01*
X15630146Y-13553541D02*
X15515860Y-13667827D01*
X15515860Y-13667827D02*
X15639670Y-13667827D01*
X15763479Y-13467827D02*
X15782527Y-13467827D01*
X15782527Y-13467827D02*
X15801575Y-13477351D01*
X15801575Y-13477351D02*
X15811098Y-13486874D01*
X15811098Y-13486874D02*
X15820622Y-13505922D01*
X15820622Y-13505922D02*
X15830146Y-13544017D01*
X15830146Y-13544017D02*
X15830146Y-13591636D01*
X15830146Y-13591636D02*
X15820622Y-13629732D01*
X15820622Y-13629732D02*
X15811098Y-13648779D01*
X15811098Y-13648779D02*
X15801575Y-13658303D01*
X15801575Y-13658303D02*
X15782527Y-13667827D01*
X15782527Y-13667827D02*
X15763479Y-13667827D01*
X15763479Y-13667827D02*
X15744432Y-13658303D01*
X15744432Y-13658303D02*
X15734908Y-13648779D01*
X15734908Y-13648779D02*
X15725384Y-13629732D01*
X15725384Y-13629732D02*
X15715860Y-13591636D01*
X15715860Y-13591636D02*
X15715860Y-13544017D01*
X15715860Y-13544017D02*
X15725384Y-13505922D01*
X15725384Y-13505922D02*
X15734908Y-13486874D01*
X15734908Y-13486874D02*
X15744432Y-13477351D01*
X15744432Y-13477351D02*
X15763479Y-13467827D01*
X15953956Y-13467827D02*
X15973003Y-13467827D01*
X15973003Y-13467827D02*
X15992051Y-13477351D01*
X15992051Y-13477351D02*
X16001575Y-13486874D01*
X16001575Y-13486874D02*
X16011098Y-13505922D01*
X16011098Y-13505922D02*
X16020622Y-13544017D01*
X16020622Y-13544017D02*
X16020622Y-13591636D01*
X16020622Y-13591636D02*
X16011098Y-13629732D01*
X16011098Y-13629732D02*
X16001575Y-13648779D01*
X16001575Y-13648779D02*
X15992051Y-13658303D01*
X15992051Y-13658303D02*
X15973003Y-13667827D01*
X15973003Y-13667827D02*
X15953956Y-13667827D01*
X15953956Y-13667827D02*
X15934908Y-13658303D01*
X15934908Y-13658303D02*
X15925384Y-13648779D01*
X15925384Y-13648779D02*
X15915860Y-13629732D01*
X15915860Y-13629732D02*
X15906337Y-13591636D01*
X15906337Y-13591636D02*
X15906337Y-13544017D01*
X15906337Y-13544017D02*
X15915860Y-13505922D01*
X15915860Y-13505922D02*
X15925384Y-13486874D01*
X15925384Y-13486874D02*
X15934908Y-13477351D01*
X15934908Y-13477351D02*
X15953956Y-13467827D01*
X16106337Y-13667827D02*
X16106337Y-13534493D01*
X16106337Y-13553541D02*
X16115860Y-13544017D01*
X16115860Y-13544017D02*
X16134908Y-13534493D01*
X16134908Y-13534493D02*
X16163479Y-13534493D01*
X16163479Y-13534493D02*
X16182527Y-13544017D01*
X16182527Y-13544017D02*
X16192051Y-13563065D01*
X16192051Y-13563065D02*
X16192051Y-13667827D01*
X16192051Y-13563065D02*
X16201575Y-13544017D01*
X16201575Y-13544017D02*
X16220622Y-13534493D01*
X16220622Y-13534493D02*
X16249194Y-13534493D01*
X16249194Y-13534493D02*
X16268241Y-13544017D01*
X16268241Y-13544017D02*
X16277765Y-13563065D01*
X16277765Y-13563065D02*
X16277765Y-13667827D01*
X16373003Y-13667827D02*
X16373003Y-13534493D01*
X16373003Y-13553541D02*
X16382527Y-13544017D01*
X16382527Y-13544017D02*
X16401575Y-13534493D01*
X16401575Y-13534493D02*
X16430146Y-13534493D01*
X16430146Y-13534493D02*
X16449194Y-13544017D01*
X16449194Y-13544017D02*
X16458718Y-13563065D01*
X16458718Y-13563065D02*
X16458718Y-13667827D01*
X16458718Y-13563065D02*
X16468241Y-13544017D01*
X16468241Y-13544017D02*
X16487289Y-13534493D01*
X16487289Y-13534493D02*
X16515860Y-13534493D01*
X16515860Y-13534493D02*
X16534908Y-13544017D01*
X16534908Y-13544017D02*
X16544432Y-13563065D01*
X16544432Y-13563065D02*
X16544432Y-13667827D01*
X16934908Y-13458303D02*
X16763480Y-13715446D01*
X17192051Y-13467827D02*
X17211099Y-13467827D01*
X17211099Y-13467827D02*
X17230146Y-13477351D01*
X17230146Y-13477351D02*
X17239670Y-13486874D01*
X17239670Y-13486874D02*
X17249194Y-13505922D01*
X17249194Y-13505922D02*
X17258718Y-13544017D01*
X17258718Y-13544017D02*
X17258718Y-13591636D01*
X17258718Y-13591636D02*
X17249194Y-13629732D01*
X17249194Y-13629732D02*
X17239670Y-13648779D01*
X17239670Y-13648779D02*
X17230146Y-13658303D01*
X17230146Y-13658303D02*
X17211099Y-13667827D01*
X17211099Y-13667827D02*
X17192051Y-13667827D01*
X17192051Y-13667827D02*
X17173003Y-13658303D01*
X17173003Y-13658303D02*
X17163480Y-13648779D01*
X17163480Y-13648779D02*
X17153956Y-13629732D01*
X17153956Y-13629732D02*
X17144432Y-13591636D01*
X17144432Y-13591636D02*
X17144432Y-13544017D01*
X17144432Y-13544017D02*
X17153956Y-13505922D01*
X17153956Y-13505922D02*
X17163480Y-13486874D01*
X17163480Y-13486874D02*
X17173003Y-13477351D01*
X17173003Y-13477351D02*
X17192051Y-13467827D01*
X17344432Y-13648779D02*
X17353956Y-13658303D01*
X17353956Y-13658303D02*
X17344432Y-13667827D01*
X17344432Y-13667827D02*
X17334908Y-13658303D01*
X17334908Y-13658303D02*
X17344432Y-13648779D01*
X17344432Y-13648779D02*
X17344432Y-13667827D01*
X17544432Y-13667827D02*
X17430146Y-13667827D01*
X17487289Y-13667827D02*
X17487289Y-13467827D01*
X17487289Y-13467827D02*
X17468242Y-13496398D01*
X17468242Y-13496398D02*
X17449194Y-13515446D01*
X17449194Y-13515446D02*
X17430146Y-13524970D01*
X17620623Y-13486874D02*
X17630146Y-13477351D01*
X17630146Y-13477351D02*
X17649194Y-13467827D01*
X17649194Y-13467827D02*
X17696813Y-13467827D01*
X17696813Y-13467827D02*
X17715861Y-13477351D01*
X17715861Y-13477351D02*
X17725384Y-13486874D01*
X17725384Y-13486874D02*
X17734908Y-13505922D01*
X17734908Y-13505922D02*
X17734908Y-13524970D01*
X17734908Y-13524970D02*
X17725384Y-13553541D01*
X17725384Y-13553541D02*
X17611099Y-13667827D01*
X17611099Y-13667827D02*
X17734908Y-13667827D01*
X17906337Y-13467827D02*
X17868242Y-13467827D01*
X17868242Y-13467827D02*
X17849194Y-13477351D01*
X17849194Y-13477351D02*
X17839670Y-13486874D01*
X17839670Y-13486874D02*
X17820623Y-13515446D01*
X17820623Y-13515446D02*
X17811099Y-13553541D01*
X17811099Y-13553541D02*
X17811099Y-13629732D01*
X17811099Y-13629732D02*
X17820623Y-13648779D01*
X17820623Y-13648779D02*
X17830146Y-13658303D01*
X17830146Y-13658303D02*
X17849194Y-13667827D01*
X17849194Y-13667827D02*
X17887289Y-13667827D01*
X17887289Y-13667827D02*
X17906337Y-13658303D01*
X17906337Y-13658303D02*
X17915861Y-13648779D01*
X17915861Y-13648779D02*
X17925384Y-13629732D01*
X17925384Y-13629732D02*
X17925384Y-13582113D01*
X17925384Y-13582113D02*
X17915861Y-13563065D01*
X17915861Y-13563065D02*
X17906337Y-13553541D01*
X17906337Y-13553541D02*
X17887289Y-13544017D01*
X17887289Y-13544017D02*
X17849194Y-13544017D01*
X17849194Y-13544017D02*
X17830146Y-13553541D01*
X17830146Y-13553541D02*
X17820623Y-13563065D01*
X17820623Y-13563065D02*
X17811099Y-13582113D01*
X18049194Y-13467827D02*
X18068242Y-13467827D01*
X18068242Y-13467827D02*
X18087289Y-13477351D01*
X18087289Y-13477351D02*
X18096813Y-13486874D01*
X18096813Y-13486874D02*
X18106337Y-13505922D01*
X18106337Y-13505922D02*
X18115861Y-13544017D01*
X18115861Y-13544017D02*
X18115861Y-13591636D01*
X18115861Y-13591636D02*
X18106337Y-13629732D01*
X18106337Y-13629732D02*
X18096813Y-13648779D01*
X18096813Y-13648779D02*
X18087289Y-13658303D01*
X18087289Y-13658303D02*
X18068242Y-13667827D01*
X18068242Y-13667827D02*
X18049194Y-13667827D01*
X18049194Y-13667827D02*
X18030146Y-13658303D01*
X18030146Y-13658303D02*
X18020623Y-13648779D01*
X18020623Y-13648779D02*
X18011099Y-13629732D01*
X18011099Y-13629732D02*
X18001575Y-13591636D01*
X18001575Y-13591636D02*
X18001575Y-13544017D01*
X18001575Y-13544017D02*
X18011099Y-13505922D01*
X18011099Y-13505922D02*
X18020623Y-13486874D01*
X18020623Y-13486874D02*
X18030146Y-13477351D01*
X18030146Y-13477351D02*
X18049194Y-13467827D01*
X18192051Y-13467827D02*
X18192051Y-13505922D01*
X18268242Y-13467827D02*
X18268242Y-13505922D01*
X18563480Y-13744017D02*
X18553956Y-13734493D01*
X18553956Y-13734493D02*
X18534908Y-13705922D01*
X18534908Y-13705922D02*
X18525385Y-13686874D01*
X18525385Y-13686874D02*
X18515861Y-13658303D01*
X18515861Y-13658303D02*
X18506337Y-13610684D01*
X18506337Y-13610684D02*
X18506337Y-13572589D01*
X18506337Y-13572589D02*
X18515861Y-13524970D01*
X18515861Y-13524970D02*
X18525385Y-13496398D01*
X18525385Y-13496398D02*
X18534908Y-13477351D01*
X18534908Y-13477351D02*
X18553956Y-13448779D01*
X18553956Y-13448779D02*
X18563480Y-13439255D01*
X18744432Y-13667827D02*
X18630146Y-13667827D01*
X18687289Y-13667827D02*
X18687289Y-13467827D01*
X18687289Y-13467827D02*
X18668242Y-13496398D01*
X18668242Y-13496398D02*
X18649194Y-13515446D01*
X18649194Y-13515446D02*
X18630146Y-13524970D01*
X18982527Y-13667827D02*
X18982527Y-13467827D01*
X19068242Y-13667827D02*
X19068242Y-13563065D01*
X19068242Y-13563065D02*
X19058718Y-13544017D01*
X19058718Y-13544017D02*
X19039670Y-13534493D01*
X19039670Y-13534493D02*
X19011099Y-13534493D01*
X19011099Y-13534493D02*
X18992051Y-13544017D01*
X18992051Y-13544017D02*
X18982527Y-13553541D01*
X19192051Y-13667827D02*
X19173004Y-13658303D01*
X19173004Y-13658303D02*
X19163480Y-13648779D01*
X19163480Y-13648779D02*
X19153956Y-13629732D01*
X19153956Y-13629732D02*
X19153956Y-13572589D01*
X19153956Y-13572589D02*
X19163480Y-13553541D01*
X19163480Y-13553541D02*
X19173004Y-13544017D01*
X19173004Y-13544017D02*
X19192051Y-13534493D01*
X19192051Y-13534493D02*
X19220623Y-13534493D01*
X19220623Y-13534493D02*
X19239670Y-13544017D01*
X19239670Y-13544017D02*
X19249194Y-13553541D01*
X19249194Y-13553541D02*
X19258718Y-13572589D01*
X19258718Y-13572589D02*
X19258718Y-13629732D01*
X19258718Y-13629732D02*
X19249194Y-13648779D01*
X19249194Y-13648779D02*
X19239670Y-13658303D01*
X19239670Y-13658303D02*
X19220623Y-13667827D01*
X19220623Y-13667827D02*
X19192051Y-13667827D01*
X19373004Y-13667827D02*
X19353956Y-13658303D01*
X19353956Y-13658303D02*
X19344432Y-13639255D01*
X19344432Y-13639255D02*
X19344432Y-13467827D01*
X19525385Y-13658303D02*
X19506337Y-13667827D01*
X19506337Y-13667827D02*
X19468242Y-13667827D01*
X19468242Y-13667827D02*
X19449194Y-13658303D01*
X19449194Y-13658303D02*
X19439670Y-13639255D01*
X19439670Y-13639255D02*
X19439670Y-13563065D01*
X19439670Y-13563065D02*
X19449194Y-13544017D01*
X19449194Y-13544017D02*
X19468242Y-13534493D01*
X19468242Y-13534493D02*
X19506337Y-13534493D01*
X19506337Y-13534493D02*
X19525385Y-13544017D01*
X19525385Y-13544017D02*
X19534908Y-13563065D01*
X19534908Y-13563065D02*
X19534908Y-13582113D01*
X19534908Y-13582113D02*
X19439670Y-13601160D01*
X19601575Y-13744017D02*
X19611099Y-13734493D01*
X19611099Y-13734493D02*
X19630147Y-13705922D01*
X19630147Y-13705922D02*
X19639670Y-13686874D01*
X19639670Y-13686874D02*
X19649194Y-13658303D01*
X19649194Y-13658303D02*
X19658718Y-13610684D01*
X19658718Y-13610684D02*
X19658718Y-13572589D01*
X19658718Y-13572589D02*
X19649194Y-13524970D01*
X19649194Y-13524970D02*
X19639670Y-13496398D01*
X19639670Y-13496398D02*
X19630147Y-13477351D01*
X19630147Y-13477351D02*
X19611099Y-13448779D01*
X19611099Y-13448779D02*
X19601575Y-13439255D01*
X19963480Y-13744017D02*
X19953956Y-13734493D01*
X19953956Y-13734493D02*
X19934908Y-13705922D01*
X19934908Y-13705922D02*
X19925385Y-13686874D01*
X19925385Y-13686874D02*
X19915861Y-13658303D01*
X19915861Y-13658303D02*
X19906337Y-13610684D01*
X19906337Y-13610684D02*
X19906337Y-13572589D01*
X19906337Y-13572589D02*
X19915861Y-13524970D01*
X19915861Y-13524970D02*
X19925385Y-13496398D01*
X19925385Y-13496398D02*
X19934908Y-13477351D01*
X19934908Y-13477351D02*
X19953956Y-13448779D01*
X19953956Y-13448779D02*
X19963480Y-13439255D01*
X20039670Y-13534493D02*
X20039670Y-13667827D01*
X20039670Y-13553541D02*
X20049194Y-13544017D01*
X20049194Y-13544017D02*
X20068242Y-13534493D01*
X20068242Y-13534493D02*
X20096813Y-13534493D01*
X20096813Y-13534493D02*
X20115861Y-13544017D01*
X20115861Y-13544017D02*
X20125385Y-13563065D01*
X20125385Y-13563065D02*
X20125385Y-13667827D01*
X20249194Y-13667827D02*
X20230147Y-13658303D01*
X20230147Y-13658303D02*
X20220623Y-13648779D01*
X20220623Y-13648779D02*
X20211099Y-13629732D01*
X20211099Y-13629732D02*
X20211099Y-13572589D01*
X20211099Y-13572589D02*
X20220623Y-13553541D01*
X20220623Y-13553541D02*
X20230147Y-13544017D01*
X20230147Y-13544017D02*
X20249194Y-13534493D01*
X20249194Y-13534493D02*
X20277766Y-13534493D01*
X20277766Y-13534493D02*
X20296813Y-13544017D01*
X20296813Y-13544017D02*
X20306337Y-13553541D01*
X20306337Y-13553541D02*
X20315861Y-13572589D01*
X20315861Y-13572589D02*
X20315861Y-13629732D01*
X20315861Y-13629732D02*
X20306337Y-13648779D01*
X20306337Y-13648779D02*
X20296813Y-13658303D01*
X20296813Y-13658303D02*
X20277766Y-13667827D01*
X20277766Y-13667827D02*
X20249194Y-13667827D01*
X20373004Y-13534493D02*
X20449194Y-13534493D01*
X20401575Y-13467827D02*
X20401575Y-13639255D01*
X20401575Y-13639255D02*
X20411099Y-13658303D01*
X20411099Y-13658303D02*
X20430147Y-13667827D01*
X20430147Y-13667827D02*
X20449194Y-13667827D01*
X20668242Y-13534493D02*
X20668242Y-13734493D01*
X20668242Y-13544017D02*
X20687289Y-13534493D01*
X20687289Y-13534493D02*
X20725385Y-13534493D01*
X20725385Y-13534493D02*
X20744432Y-13544017D01*
X20744432Y-13544017D02*
X20753956Y-13553541D01*
X20753956Y-13553541D02*
X20763480Y-13572589D01*
X20763480Y-13572589D02*
X20763480Y-13629732D01*
X20763480Y-13629732D02*
X20753956Y-13648779D01*
X20753956Y-13648779D02*
X20744432Y-13658303D01*
X20744432Y-13658303D02*
X20725385Y-13667827D01*
X20725385Y-13667827D02*
X20687289Y-13667827D01*
X20687289Y-13667827D02*
X20668242Y-13658303D01*
X20877766Y-13667827D02*
X20858718Y-13658303D01*
X20858718Y-13658303D02*
X20849194Y-13639255D01*
X20849194Y-13639255D02*
X20849194Y-13467827D01*
X21039670Y-13667827D02*
X21039670Y-13563065D01*
X21039670Y-13563065D02*
X21030147Y-13544017D01*
X21030147Y-13544017D02*
X21011099Y-13534493D01*
X21011099Y-13534493D02*
X20973004Y-13534493D01*
X20973004Y-13534493D02*
X20953956Y-13544017D01*
X21039670Y-13658303D02*
X21020623Y-13667827D01*
X21020623Y-13667827D02*
X20973004Y-13667827D01*
X20973004Y-13667827D02*
X20953956Y-13658303D01*
X20953956Y-13658303D02*
X20944432Y-13639255D01*
X20944432Y-13639255D02*
X20944432Y-13620208D01*
X20944432Y-13620208D02*
X20953956Y-13601160D01*
X20953956Y-13601160D02*
X20973004Y-13591636D01*
X20973004Y-13591636D02*
X21020623Y-13591636D01*
X21020623Y-13591636D02*
X21039670Y-13582113D01*
X21106337Y-13534493D02*
X21182528Y-13534493D01*
X21134909Y-13467827D02*
X21134909Y-13639255D01*
X21134909Y-13639255D02*
X21144432Y-13658303D01*
X21144432Y-13658303D02*
X21163480Y-13667827D01*
X21163480Y-13667827D02*
X21182528Y-13667827D01*
X21325385Y-13658303D02*
X21306337Y-13667827D01*
X21306337Y-13667827D02*
X21268242Y-13667827D01*
X21268242Y-13667827D02*
X21249194Y-13658303D01*
X21249194Y-13658303D02*
X21239670Y-13639255D01*
X21239670Y-13639255D02*
X21239670Y-13563065D01*
X21239670Y-13563065D02*
X21249194Y-13544017D01*
X21249194Y-13544017D02*
X21268242Y-13534493D01*
X21268242Y-13534493D02*
X21306337Y-13534493D01*
X21306337Y-13534493D02*
X21325385Y-13544017D01*
X21325385Y-13544017D02*
X21334909Y-13563065D01*
X21334909Y-13563065D02*
X21334909Y-13582113D01*
X21334909Y-13582113D02*
X21239670Y-13601160D01*
X21506337Y-13667827D02*
X21506337Y-13467827D01*
X21506337Y-13658303D02*
X21487290Y-13667827D01*
X21487290Y-13667827D02*
X21449194Y-13667827D01*
X21449194Y-13667827D02*
X21430147Y-13658303D01*
X21430147Y-13658303D02*
X21420623Y-13648779D01*
X21420623Y-13648779D02*
X21411099Y-13629732D01*
X21411099Y-13629732D02*
X21411099Y-13572589D01*
X21411099Y-13572589D02*
X21420623Y-13553541D01*
X21420623Y-13553541D02*
X21430147Y-13544017D01*
X21430147Y-13544017D02*
X21449194Y-13534493D01*
X21449194Y-13534493D02*
X21487290Y-13534493D01*
X21487290Y-13534493D02*
X21506337Y-13544017D01*
X21582528Y-13744017D02*
X21592051Y-13734493D01*
X21592051Y-13734493D02*
X21611099Y-13705922D01*
X21611099Y-13705922D02*
X21620623Y-13686874D01*
X21620623Y-13686874D02*
X21630147Y-13658303D01*
X21630147Y-13658303D02*
X21639670Y-13610684D01*
X21639670Y-13610684D02*
X21639670Y-13572589D01*
X21639670Y-13572589D02*
X21630147Y-13524970D01*
X21630147Y-13524970D02*
X21620623Y-13496398D01*
X21620623Y-13496398D02*
X21611099Y-13477351D01*
X21611099Y-13477351D02*
X21592051Y-13448779D01*
X21592051Y-13448779D02*
X21582528Y-13439255D01*
M02*
