%TF.GenerationSoftware,KiCad,Pcbnew,8.0.9*%
%TF.CreationDate,2025-12-12T10:11:10+01:00*%
%TF.ProjectId,Project,50726f6a-6563-4742-9e6b-696361645f70,rev?*%
%TF.SameCoordinates,Original*%
%TF.FileFunction,Paste,Top*%
%TF.FilePolarity,Positive*%
%FSLAX46Y46*%
G04 Gerber Fmt 4.6, Leading zero omitted, Abs format (unit mm)*
G04 Created by KiCad (PCBNEW 8.0.9) date 2025-12-12 10:11:10*
%MOMM*%
%LPD*%
G01*
G04 APERTURE LIST*
G04 Aperture macros list*
%AMRoundRect*
0 Rectangle with rounded corners*
0 $1 Rounding radius*
0 $2 $3 $4 $5 $6 $7 $8 $9 X,Y pos of 4 corners*
0 Add a 4 corners polygon primitive as box body*
4,1,4,$2,$3,$4,$5,$6,$7,$8,$9,$2,$3,0*
0 Add four circle primitives for the rounded corners*
1,1,$1+$1,$2,$3*
1,1,$1+$1,$4,$5*
1,1,$1+$1,$6,$7*
1,1,$1+$1,$8,$9*
0 Add four rect primitives between the rounded corners*
20,1,$1+$1,$2,$3,$4,$5,0*
20,1,$1+$1,$4,$5,$6,$7,0*
20,1,$1+$1,$6,$7,$8,$9,0*
20,1,$1+$1,$8,$9,$2,$3,0*%
G04 Aperture macros list end*
%ADD10RoundRect,0.200000X0.317393X-0.122010X0.213866X0.264360X-0.317393X0.122010X-0.213866X-0.264360X0*%
%ADD11RoundRect,0.200000X0.138157X-0.310705X0.338157X0.035705X-0.138157X0.310705X-0.338157X-0.035705X0*%
%ADD12RoundRect,0.200000X-0.122010X-0.317393X0.264360X-0.213866X0.122010X0.317393X-0.264360X0.213866X0*%
%ADD13RoundRect,0.200000X-0.138157X0.310705X-0.338157X-0.035705X0.138157X-0.310705X0.338157X0.035705X0*%
%ADD14RoundRect,0.200000X-0.338157X0.035705X-0.138157X-0.310705X0.338157X-0.035705X0.138157X0.310705X0*%
%ADD15RoundRect,0.200000X-0.275000X0.200000X-0.275000X-0.200000X0.275000X-0.200000X0.275000X0.200000X0*%
%ADD16RoundRect,0.200000X-0.310705X-0.138157X0.035705X-0.338157X0.310705X0.138157X-0.035705X0.338157X0*%
%ADD17RoundRect,0.200000X0.053033X-0.335876X0.335876X-0.053033X-0.053033X0.335876X-0.335876X0.053033X0*%
%ADD18RoundRect,0.200000X0.264360X0.213866X-0.122010X0.317393X-0.264360X-0.213866X0.122010X-0.317393X0*%
%ADD19RoundRect,0.200000X-0.317393X0.122010X-0.213866X-0.264360X0.317393X-0.122010X0.213866X0.264360X0*%
%ADD20RoundRect,0.200000X0.035705X0.338157X-0.310705X0.138157X-0.035705X-0.338157X0.310705X-0.138157X0*%
%ADD21RoundRect,0.200000X-0.053033X0.335876X-0.335876X0.053033X0.053033X-0.335876X0.335876X-0.053033X0*%
%ADD22RoundRect,0.200000X0.310705X0.138157X-0.035705X0.338157X-0.310705X-0.138157X0.035705X-0.338157X0*%
%ADD23RoundRect,0.200000X-0.213866X0.264360X-0.317393X-0.122010X0.213866X-0.264360X0.317393X0.122010X0*%
%ADD24RoundRect,0.200000X0.200000X0.275000X-0.200000X0.275000X-0.200000X-0.275000X0.200000X-0.275000X0*%
%ADD25RoundRect,0.200000X0.338157X-0.035705X0.138157X0.310705X-0.338157X0.035705X-0.138157X-0.310705X0*%
%ADD26RoundRect,0.200000X-0.200000X-0.275000X0.200000X-0.275000X0.200000X0.275000X-0.200000X0.275000X0*%
%ADD27RoundRect,0.200000X0.335876X0.053033X0.053033X0.335876X-0.335876X-0.053033X-0.053033X-0.335876X0*%
%ADD28RoundRect,0.200000X0.122010X0.317393X-0.264360X0.213866X-0.122010X-0.317393X0.264360X-0.213866X0*%
%ADD29RoundRect,0.200000X-0.264360X-0.213866X0.122010X-0.317393X0.264360X0.213866X-0.122010X0.317393X0*%
%ADD30RoundRect,0.200000X0.275000X-0.200000X0.275000X0.200000X-0.275000X0.200000X-0.275000X-0.200000X0*%
%ADD31RoundRect,0.200000X0.213866X-0.264360X0.317393X0.122010X-0.213866X0.264360X-0.317393X-0.122010X0*%
%ADD32RoundRect,0.200000X-0.335876X-0.053033X-0.053033X-0.335876X0.335876X0.053033X0.053033X0.335876X0*%
%ADD33RoundRect,0.200000X-0.035705X-0.338157X0.310705X-0.138157X0.035705X0.338157X-0.310705X0.138157X0*%
G04 APERTURE END LIST*
D10*
%TO.C,R24*%
X175204452Y-75228378D03*
X174777400Y-73634600D03*
%TD*%
D11*
%TO.C,R17*%
X193965852Y-79646485D03*
X194790852Y-78217543D03*
%TD*%
D12*
%TO.C,R18*%
X204150609Y-96034382D03*
X205744387Y-95607330D03*
%TD*%
D13*
%TO.C,R21*%
X164578122Y-120580316D03*
X163753122Y-122009258D03*
%TD*%
D14*
%TO.C,R12*%
X189635722Y-123069516D03*
X190460722Y-124498458D03*
%TD*%
D15*
%TO.C,R5*%
X176758599Y-125184402D03*
X176758599Y-126834402D03*
%TD*%
D16*
%TO.C,R19*%
X199726716Y-114814226D03*
X201155658Y-115639226D03*
%TD*%
D17*
%TO.C,R2*%
X198772393Y-84140829D03*
X199939119Y-82974103D03*
%TD*%
D18*
%TO.C,R15*%
X155695578Y-91206652D03*
X154101800Y-90779600D03*
%TD*%
D19*
%TO.C,R20*%
X183340217Y-124978810D03*
X183767269Y-126572588D03*
%TD*%
D20*
%TO.C,R14*%
X156330484Y-110514724D03*
X154901542Y-111339724D03*
%TD*%
D21*
%TO.C,R6*%
X159799406Y-116087372D03*
X158632680Y-117254098D03*
%TD*%
D22*
%TO.C,R23*%
X158794285Y-85406323D03*
X157365343Y-84581323D03*
%TD*%
D23*
%TO.C,R13*%
X170371416Y-123690012D03*
X169944364Y-125283790D03*
%TD*%
D24*
%TO.C,R7*%
X154202400Y-97637600D03*
X152552400Y-97637600D03*
%TD*%
D25*
%TO.C,R16*%
X168885277Y-77107885D03*
X168060277Y-75678943D03*
%TD*%
D26*
%TO.C,R3*%
X204344000Y-102616000D03*
X205994000Y-102616000D03*
%TD*%
D27*
%TO.C,R8*%
X163294926Y-80592526D03*
X162128200Y-79425800D03*
%TD*%
D28*
%TO.C,R22*%
X154400178Y-104220948D03*
X152806400Y-104648000D03*
%TD*%
D29*
%TO.C,R11*%
X202839411Y-109018238D03*
X204433189Y-109445290D03*
%TD*%
D30*
%TO.C,R1*%
X181813200Y-75069200D03*
X181813200Y-73419200D03*
%TD*%
D31*
%TO.C,R9*%
X188208311Y-76551639D03*
X188635363Y-74957861D03*
%TD*%
D32*
%TO.C,R4*%
X195233771Y-119600594D03*
X196400497Y-120767320D03*
%TD*%
D33*
%TO.C,R10*%
X202241315Y-89738878D03*
X203670257Y-88913878D03*
%TD*%
M02*
